<?xml version="1.0" encoding="utf-8"?>
<!-- Generator: Adobe Illustrator 19.0.0, SVG Export Plug-In . SVG Version: 6.00 Build 0)  -->
<svg version="1.1" id="Layer_1" xmlns="http://www.w3.org/2000/svg" xmlns:xlink="http://www.w3.org/1999/xlink" x="0px" y="0px"
	 viewBox="108 49.6 828 695.4" style="enable-background:new 108 49.6 828 695.4;" xml:space="preserve">
<style type="text/css">
	.st0{fill:#363F4A;}
	.st1{font-family:'Lato-Bold';}
	.st2{font-size:106px;}
</style>
<g>
	<path class="st0" d="M368.1,581.6c4,6,2,15-5,19l-168,102l256-49l0,0c3-1,6,0,9,1c21,12,44,20,68,26c23,6,48,9,74,9
		c85,0,161-34,217-89c55-56,89-132,89-217s-34-161-89-217c-56-55-132-89-217-89s-161,34-217,89c-55,56-89,132-89,217
		c0,36,6,71,18,104s29,64,52,92C367.1,579.6,367.1,580.6,368.1,581.6z M268.1,383.6c0-92,37-176,98-236c60-61,144-98,236-98
		s176,37,236,98c61,60,98,144,98,236s-37,176-98,236c-60,61-144,98-236,98c-28,0-55-3-81-10c-24-6-47-15-70-26l-327,63
		c-7,2-14-3-16-11c-1-6,2-12,7-14l220-135c-20-27-36-56-47-87C274.1,460.6,268.1,422.6,268.1,383.6z"/>
</g>
<text transform="matrix(1 0 0 1 343.6735 364.6923)"><tspan x="0" y="0" class="st0 st1 st2">It was well</tspan><tspan x="21.3" y="127.2" class="st0 st1 st2">and good.</tspan></text>
</svg>
