<?xml version="1.0" encoding="utf-8"?>
<!-- Generator: Adobe Illustrator 19.0.0, SVG Export Plug-In . SVG Version: 6.00 Build 0)  -->
<svg version="1.1" id="Layer_1" xmlns="http://www.w3.org/2000/svg" xmlns:xlink="http://www.w3.org/1999/xlink" x="0px" y="0px"
	 viewBox="108 49.6 930.6 936.1" style="enable-background:new 108 49.6 930.6 936.1;" xml:space="preserve">
<style type="text/css">
	.st0{fill:#363F4A;}
	.st1{enable-background:new    ;}
</style>
<g>
	<path class="st0" d="M748.4,763c25.8-37.7,44.9-79.4,58.4-123.8c13.5-44.4,20.2-91.5,20.2-140c0-114.4-38.2-216.7-100-292.1
		C664.1,133,578.7,87.2,483.2,87.2S302.3,133,239.4,207c-61.8,75.4-100,177.7-100,292.1s38.2,216.7,100,292.1
		c62.9,74,148.3,119.8,243.8,119.8c29.2,0,57.3-4,83.2-12.1c27-8.1,52.8-18.8,76.4-35c3.4-1.3,6.7-2.7,10.1-1.3l0,0l287.7,66
		L751.8,791.2c-7.9-5.4-10.1-17.5-5.6-25.6C747.3,764.3,747.3,763,748.4,763z M836.1,652.6c-12.4,41.7-30.3,80.8-52.8,117.1
		l247.2,181.7c5.6,2.7,9,10.8,7.9,18.8c-2.2,10.8-10.1,17.5-18,14.8l-367.5-84.8c-25.8,14.8-51.7,26.9-78.7,35
		c-29.2,9.4-59.6,13.5-91,13.5c-103.4,0-197.8-49.8-265.2-131.9C149.5,736,107.9,623,107.9,499.1S149.5,262.2,218,181.5
		C285.5,99.4,379.8,49.6,483.2,49.6S681,99.4,748.4,181.5c68.5,80.8,110.1,193.8,110.1,317.7C858.6,551.6,851.8,602.8,836.1,652.6z"
		/>
</g>
<g class="st1">
	<path class="st0" d="M343.9,246.3h-8.2c-0.9,0-1.7-0.2-2.3-0.7c-0.6-0.5-1-1-1.3-1.7l-4.3-11.6h-23.6l-4.3,11.6
		c-0.2,0.6-0.6,1.2-1.2,1.7c-0.6,0.5-1.4,0.7-2.3,0.7h-8.2l22.4-57h10.8L343.9,246.3z M307,224.8h18.2l-6.9-19c-0.3-0.8-0.7-1.8-1-3
		c-0.4-1.1-0.8-2.4-1.1-3.7c-0.4,1.3-0.7,2.6-1.1,3.7c-0.4,1.2-0.7,2.2-1,3L307,224.8z"/>
	<path class="st0" d="M380.9,246.3h-4.4c-0.9,0-1.6-0.1-2.2-0.4c-0.5-0.3-0.9-0.8-1.2-1.7l-0.9-2.9c-1,0.9-2,1.7-3,2.4
		c-1,0.7-2,1.3-3.1,1.8c-1.1,0.5-2.2,0.8-3.4,1.1c-1.2,0.2-2.5,0.4-3.9,0.4c-1.7,0-3.3-0.2-4.7-0.7c-1.4-0.5-2.7-1.2-3.7-2.1
		c-1-0.9-1.8-2.1-2.4-3.4c-0.6-1.4-0.9-3-0.9-4.8c0-1.5,0.4-3,1.2-4.5c0.8-1.5,2.1-2.8,4-4c1.9-1.2,4.4-2.2,7.5-3
		c3.1-0.8,7-1.2,11.6-1.2v-2.4c0-2.7-0.6-4.7-1.7-6.1s-2.8-2-5-2c-1.6,0-2.9,0.2-3.9,0.6c-1.1,0.4-2,0.8-2.7,1.2
		c-0.8,0.5-1.5,0.9-2.1,1.2c-0.7,0.4-1.4,0.6-2.2,0.6c-0.7,0-1.2-0.2-1.7-0.5c-0.5-0.3-0.9-0.8-1.1-1.3l-1.8-3.1
		c4.7-4.3,10.3-6.4,16.8-6.4c2.4,0,4.5,0.4,6.3,1.2c1.9,0.8,3.4,1.9,4.7,3.2c1.3,1.4,2.3,3,2.9,4.9c0.7,1.9,1,4,1,6.3V246.3z
		 M362,240.2c1,0,1.9-0.1,2.8-0.3s1.6-0.5,2.4-0.8s1.5-0.8,2.2-1.3c0.7-0.5,1.4-1.2,2.1-1.9v-6.8c-2.8,0-5.2,0.2-7.1,0.5
		c-1.9,0.4-3.4,0.8-4.6,1.4c-1.2,0.6-2,1.2-2.5,1.9s-0.7,1.5-0.7,2.4c0,1.7,0.5,3,1.5,3.7C359,239.9,360.4,240.2,362,240.2z"/>
	<path class="st0" d="M422.2,246.3h-4.4c-0.9,0-1.6-0.1-2.2-0.4c-0.5-0.3-0.9-0.8-1.2-1.7l-0.9-2.9c-1,0.9-2,1.7-3,2.4
		c-1,0.7-2,1.3-3.1,1.8c-1.1,0.5-2.2,0.8-3.4,1.1c-1.2,0.2-2.5,0.4-3.9,0.4c-1.7,0-3.3-0.2-4.7-0.7c-1.4-0.5-2.7-1.2-3.7-2.1
		c-1-0.9-1.8-2.1-2.4-3.4c-0.6-1.4-0.9-3-0.9-4.8c0-1.5,0.4-3,1.2-4.5c0.8-1.5,2.1-2.8,4-4c1.9-1.2,4.4-2.2,7.5-3
		c3.1-0.8,7-1.2,11.6-1.2v-2.4c0-2.7-0.6-4.7-1.7-6.1s-2.8-2-5-2c-1.6,0-2.9,0.2-3.9,0.6c-1.1,0.4-2,0.8-2.7,1.2
		c-0.8,0.5-1.5,0.9-2.1,1.2c-0.7,0.4-1.4,0.6-2.2,0.6c-0.7,0-1.2-0.2-1.7-0.5c-0.5-0.3-0.9-0.8-1.1-1.3l-1.8-3.1
		c4.7-4.3,10.3-6.4,16.8-6.4c2.4,0,4.5,0.4,6.3,1.2c1.9,0.8,3.4,1.9,4.7,3.2c1.3,1.4,2.3,3,2.9,4.9c0.7,1.9,1,4,1,6.3V246.3z
		 M403.3,240.2c1,0,1.9-0.1,2.8-0.3s1.6-0.5,2.4-0.8s1.5-0.8,2.2-1.3c0.7-0.5,1.4-1.2,2.1-1.9v-6.8c-2.8,0-5.2,0.2-7.1,0.5
		c-1.9,0.4-3.4,0.8-4.6,1.4c-1.2,0.6-2,1.2-2.5,1.9s-0.7,1.5-0.7,2.4c0,1.7,0.5,3,1.5,3.7C400.3,239.9,401.7,240.2,403.3,240.2z"/>
	<path class="st0" d="M429.5,240.9c0-0.8,0.2-1.6,0.5-2.3c0.3-0.7,0.7-1.4,1.3-1.9c0.5-0.5,1.2-0.9,1.9-1.3s1.5-0.5,2.4-0.5
		c0.8,0,1.6,0.2,2.3,0.5s1.4,0.7,1.9,1.3c0.5,0.5,0.9,1.2,1.3,1.9c0.3,0.7,0.5,1.5,0.5,2.3c0,0.8-0.2,1.6-0.5,2.3
		c-0.3,0.7-0.7,1.3-1.3,1.9c-0.5,0.5-1.2,0.9-1.9,1.2c-0.7,0.3-1.5,0.5-2.3,0.5c-0.8,0-1.6-0.2-2.4-0.5c-0.7-0.3-1.4-0.7-1.9-1.2
		c-0.5-0.5-1-1.1-1.3-1.9C429.6,242.6,429.5,241.8,429.5,240.9z"/>
	<path class="st0" d="M447.2,240.9c0-0.8,0.2-1.6,0.5-2.3c0.3-0.7,0.7-1.4,1.3-1.9c0.5-0.5,1.2-0.9,1.9-1.3s1.5-0.5,2.4-0.5
		c0.8,0,1.6,0.2,2.3,0.5s1.4,0.7,1.9,1.3c0.5,0.5,0.9,1.2,1.3,1.9c0.3,0.7,0.5,1.5,0.5,2.3c0,0.8-0.2,1.6-0.5,2.3
		c-0.3,0.7-0.7,1.3-1.3,1.9c-0.5,0.5-1.2,0.9-1.9,1.2c-0.7,0.3-1.5,0.5-2.3,0.5c-0.8,0-1.6-0.2-2.4-0.5c-0.7-0.3-1.4-0.7-1.9-1.2
		c-0.5-0.5-1-1.1-1.3-1.9C447.4,242.6,447.2,241.8,447.2,240.9z"/>
	<path class="st0" d="M465.3,240.3c0-0.7,0.1-1.4,0.4-2.1c0.3-0.6,0.7-1.2,1.2-1.7c0.5-0.5,1.1-0.9,1.8-1.1c0.7-0.3,1.5-0.4,2.3-0.4
		c1,0,1.9,0.2,2.6,0.5s1.4,0.8,1.9,1.5c0.5,0.6,0.9,1.3,1.1,2.1c0.2,0.8,0.4,1.7,0.4,2.5c0,1.3-0.2,2.6-0.6,4
		c-0.4,1.4-0.9,2.8-1.7,4.2c-0.7,1.4-1.6,2.7-2.7,4.1c-1.1,1.3-2.3,2.5-3.7,3.6l-1.7-1.5c-0.5-0.4-0.7-0.9-0.7-1.5
		c0-0.2,0.1-0.4,0.2-0.7c0.1-0.3,0.3-0.5,0.5-0.7c0.3-0.3,0.6-0.7,1.1-1.2c0.4-0.5,0.8-1,1.3-1.6c0.4-0.6,0.8-1.2,1.2-1.9
		c0.4-0.7,0.6-1.4,0.8-2.2c-0.8,0-1.6-0.2-2.2-0.5c-0.7-0.3-1.3-0.7-1.8-1.2c-0.5-0.5-0.9-1.1-1.1-1.9S465.3,241.1,465.3,240.3z"/>
	<path class="st0" d="M532,246.3h-4.4c-0.9,0-1.6-0.1-2.2-0.4c-0.5-0.3-0.9-0.8-1.2-1.7l-0.9-2.9c-1,0.9-2,1.7-3,2.4
		c-1,0.7-2,1.3-3.1,1.8c-1.1,0.5-2.2,0.8-3.4,1.1c-1.2,0.2-2.5,0.4-3.9,0.4c-1.7,0-3.3-0.2-4.7-0.7c-1.4-0.5-2.7-1.2-3.7-2.1
		c-1-0.9-1.8-2.1-2.4-3.4c-0.6-1.4-0.9-3-0.9-4.8c0-1.5,0.4-3,1.2-4.5c0.8-1.5,2.1-2.8,4-4c1.9-1.2,4.4-2.2,7.5-3
		c3.1-0.8,7-1.2,11.6-1.2v-2.4c0-2.7-0.6-4.7-1.7-6.1s-2.8-2-5-2c-1.6,0-2.9,0.2-3.9,0.6c-1.1,0.4-2,0.8-2.7,1.2
		c-0.8,0.5-1.5,0.9-2.1,1.2c-0.7,0.4-1.4,0.6-2.2,0.6c-0.7,0-1.2-0.2-1.7-0.5c-0.5-0.3-0.9-0.8-1.1-1.3l-1.8-3.1
		c4.7-4.3,10.3-6.4,16.8-6.4c2.4,0,4.5,0.4,6.3,1.2c1.9,0.8,3.4,1.9,4.7,3.2c1.3,1.4,2.3,3,2.9,4.9c0.7,1.9,1,4,1,6.3V246.3z
		 M513.1,240.2c1,0,1.9-0.1,2.8-0.3s1.6-0.5,2.4-0.8s1.5-0.8,2.2-1.3c0.7-0.5,1.4-1.2,2.1-1.9v-6.8c-2.8,0-5.2,0.2-7.1,0.5
		c-1.9,0.4-3.4,0.8-4.6,1.4c-1.2,0.6-2,1.2-2.5,1.9s-0.7,1.5-0.7,2.4c0,1.7,0.5,3,1.5,3.7C510.1,239.9,511.4,240.2,513.1,240.2z"/>
	<path class="st0" d="M558.5,246.3v-33.1l-3.5-0.6c-0.8-0.1-1.4-0.4-1.8-0.8c-0.5-0.4-0.7-0.9-0.7-1.7v-4h6v-3c0-2.3,0.3-4.4,1-6.2
		c0.7-1.8,1.7-3.4,3-4.7c1.3-1.3,2.9-2.3,4.8-3c1.9-0.7,4-1,6.3-1c1.9,0,3.6,0.3,5.2,0.7l-0.2,4.9c-0.1,0.8-0.4,1.2-1.1,1.4
		c-0.7,0.2-1.4,0.3-2.3,0.3c-1.2,0-2.2,0.1-3.1,0.4c-0.9,0.3-1.7,0.7-2.3,1.3c-0.6,0.6-1.1,1.4-1.4,2.4c-0.3,1-0.5,2.3-0.5,3.8v2.7
		h10.5v6.9h-10.2v33.2H558.5z"/>
	<path class="st0" d="M601.2,205.2c2.5,0,4.9,0.4,7,1.2c2.1,0.8,4,2,5.5,3.6c1.6,1.6,2.8,3.5,3.6,5.8c0.9,2.3,1.3,4.9,1.3,7.8
		c0,0.7,0,1.3-0.1,1.8c-0.1,0.5-0.2,0.9-0.4,1.1c-0.2,0.3-0.4,0.5-0.7,0.6s-0.7,0.2-1.1,0.2h-25c0.3,4.2,1.4,7.2,3.4,9.2
		c1.9,1.9,4.5,2.9,7.7,2.9c1.6,0,2.9-0.2,4.1-0.6c1.1-0.4,2.1-0.8,3-1.2c0.9-0.4,1.6-0.9,2.2-1.2c0.6-0.4,1.3-0.6,1.9-0.6
		c0.4,0,0.7,0.1,1,0.2c0.3,0.2,0.5,0.4,0.7,0.7l2.8,3.5c-1.1,1.3-2.3,2.3-3.6,3.2c-1.3,0.9-2.7,1.5-4.2,2.1s-2.9,0.9-4.5,1.1
		c-1.5,0.2-3,0.3-4.4,0.3c-2.8,0-5.4-0.5-7.8-1.4s-4.5-2.3-6.3-4.1c-1.8-1.8-3.2-4.1-4.2-6.8s-1.5-5.8-1.5-9.4
		c0-2.8,0.4-5.4,1.3-7.8c0.9-2.4,2.2-4.5,3.8-6.4c1.7-1.8,3.7-3.2,6.1-4.3C595.4,205.7,598.1,205.2,601.2,205.2z M601.4,212.2
		c-2.8,0-5.1,0.8-6.7,2.4c-1.6,1.6-2.6,3.9-3.1,6.8h18.3c0-1.3-0.2-2.5-0.5-3.6c-0.3-1.1-0.9-2.1-1.6-2.9c-0.7-0.8-1.6-1.5-2.7-2
		C604.1,212.4,602.8,212.2,601.4,212.2z"/>
	<path class="st0" d="M621.7,205.8h7.7c0.7,0,1.4,0.2,1.9,0.5c0.5,0.3,0.8,0.8,0.9,1.3l5.8,21.6c0.3,1.2,0.6,2.3,0.8,3.5
		c0.2,1.1,0.4,2.3,0.6,3.4c0.3-1.1,0.6-2.3,0.9-3.4c0.3-1.1,0.7-2.3,1-3.5l6.7-21.7c0.2-0.5,0.5-1,0.9-1.3c0.5-0.3,1-0.5,1.7-0.5
		h4.3c0.7,0,1.3,0.2,1.8,0.5c0.5,0.3,0.8,0.8,0.9,1.3l6.6,22.1c0.3,1.1,0.7,2.2,0.9,3.3c0.3,1.1,0.5,2.1,0.8,3.2
		c0.2-1.1,0.4-2.3,0.6-3.4c0.2-1.1,0.5-2.3,0.8-3.5l6-21.6c0.1-0.5,0.4-1,0.9-1.3c0.5-0.3,1.1-0.5,1.7-0.5h7.4l-12.8,40.5h-7.8
		c-0.8,0-1.4-0.6-1.8-1.7l-7.3-23.4c-0.2-0.8-0.5-1.5-0.7-2.3c-0.2-0.8-0.4-1.5-0.5-2.3c-0.2,0.8-0.3,1.6-0.5,2.3
		c-0.2,0.8-0.4,1.6-0.6,2.3l-7.4,23.3c-0.4,1.2-1.1,1.7-2.1,1.7h-7.5L621.7,205.8z"/>
	<path class="st0" d="M265.1,341v-58.6h9.7v23.1c1.6-1.7,3.4-3.1,5.4-4.1c2-1,4.4-1.5,7.1-1.5c2.2,0,4.2,0.5,6.1,1.4s3.4,2.2,4.7,4
		c1.3,1.7,2.4,3.9,3.1,6.4c0.7,2.6,1.1,5.5,1.1,8.8c0,3-0.4,5.8-1.2,8.4c-0.8,2.6-2,4.8-3.5,6.7c-1.5,1.9-3.3,3.4-5.5,4.4
		c-2.1,1.1-4.5,1.6-7.2,1.6c-1.2,0-2.4-0.1-3.4-0.4s-2-0.6-2.8-1c-0.8-0.4-1.6-1-2.3-1.6c-0.7-0.6-1.4-1.4-2.1-2.1l-0.4,2.7
		c-0.2,0.7-0.4,1.2-0.8,1.5c-0.4,0.3-0.9,0.4-1.6,0.4H265.1z M284.1,307.4c-2,0-3.8,0.4-5.2,1.3c-1.4,0.9-2.8,2.1-4,3.6v18.1
		c1.1,1.4,2.3,2.3,3.6,2.9c1.3,0.5,2.7,0.8,4.2,0.8c1.5,0,2.8-0.3,4-0.8s2.2-1.4,3-2.5c0.8-1.1,1.5-2.6,1.9-4.3
		c0.4-1.7,0.7-3.8,0.7-6.1c0-2.4-0.2-4.4-0.6-6c-0.4-1.6-0.9-3-1.6-4s-1.6-1.8-2.6-2.2C286.5,307.7,285.3,307.4,284.1,307.4z"/>
	<path class="st0" d="M318.9,300.5v25.7c0,2.5,0.6,4.4,1.7,5.7c1.1,1.4,2.9,2,5.1,2c1.7,0,3.3-0.4,4.7-1.1c1.5-0.7,2.9-1.8,4.2-3.1
		v-29.3h9.7V341h-6c-1.3,0-2.1-0.6-2.5-1.8l-0.7-3.2c-0.8,0.8-1.7,1.6-2.6,2.3c-0.9,0.7-1.8,1.3-2.9,1.8c-1,0.5-2.1,0.9-3.3,1.1
		c-1.2,0.3-2.4,0.4-3.8,0.4c-2.2,0-4.2-0.4-5.9-1.1c-1.7-0.7-3.1-1.8-4.3-3.2c-1.2-1.4-2-3-2.6-4.9c-0.6-1.9-0.9-4-0.9-6.2v-25.7
		H318.9z"/>
	<path class="st0" d="M368.1,341.6c-3.5,0-6.2-1-8.1-3c-1.9-2-2.8-4.7-2.8-8.2v-22.6h-4.1c-0.5,0-1-0.2-1.4-0.5
		c-0.4-0.3-0.6-0.9-0.6-1.5v-3.9l6.5-1.1l2.1-11c0.1-0.5,0.3-0.9,0.7-1.2c0.4-0.3,0.9-0.4,1.4-0.4h5v12.7h10.6v6.9h-10.6v21.9
		c0,1.3,0.3,2.2,0.9,3s1.5,1.1,2.5,1.1c0.6,0,1.1-0.1,1.5-0.2s0.8-0.3,1.1-0.5c0.3-0.2,0.6-0.3,0.8-0.5c0.2-0.1,0.5-0.2,0.7-0.2
		c0.3,0,0.5,0.1,0.7,0.2s0.4,0.4,0.6,0.7l2.9,4.7c-1.4,1.2-3.1,2.1-4.9,2.7C372,341.3,370.1,341.6,368.1,341.6z"/>
	<path class="st0" d="M413.1,341h-10.6v-57h10.6V341z"/>
	<path class="st0" d="M472.3,341h-4.4c-0.9,0-1.6-0.1-2.2-0.4c-0.5-0.3-0.9-0.8-1.2-1.7l-0.9-2.9c-1,0.9-2,1.7-3,2.4
		c-1,0.7-2,1.3-3.1,1.8c-1.1,0.5-2.2,0.8-3.4,1.1c-1.2,0.2-2.5,0.4-3.9,0.4c-1.7,0-3.3-0.2-4.7-0.7c-1.4-0.5-2.7-1.2-3.7-2.1
		c-1-0.9-1.8-2.1-2.4-3.4c-0.6-1.4-0.9-3-0.9-4.8c0-1.5,0.4-3,1.2-4.5c0.8-1.5,2.1-2.8,4-4c1.9-1.2,4.4-2.2,7.5-3
		c3.1-0.8,7-1.2,11.6-1.2v-2.4c0-2.7-0.6-4.7-1.7-6.1s-2.8-2-5-2c-1.6,0-2.9,0.2-3.9,0.6c-1.1,0.4-2,0.8-2.7,1.2
		c-0.8,0.5-1.5,0.9-2.1,1.2c-0.7,0.4-1.4,0.6-2.2,0.6c-0.7,0-1.2-0.2-1.7-0.5c-0.5-0.3-0.9-0.8-1.1-1.3l-1.8-3.1
		c4.7-4.3,10.3-6.4,16.8-6.4c2.4,0,4.5,0.4,6.3,1.2c1.9,0.8,3.4,1.9,4.7,3.2c1.3,1.4,2.3,3,2.9,4.9c0.7,1.9,1,4,1,6.3V341z
		 M453.3,334.9c1,0,1.9-0.1,2.8-0.3s1.6-0.5,2.4-0.8s1.5-0.8,2.2-1.3c0.7-0.5,1.4-1.2,2.1-1.9v-6.8c-2.8,0-5.2,0.2-7.1,0.5
		c-1.9,0.4-3.4,0.8-4.6,1.4c-1.2,0.6-2,1.2-2.5,1.9s-0.7,1.5-0.7,2.4c0,1.7,0.5,3,1.5,3.7C450.4,334.5,451.7,334.9,453.3,334.9z"/>
	<path class="st0" d="M481.9,341v-40.5h6c1.3,0,2.1,0.6,2.5,1.8l0.6,3c0.7-0.8,1.5-1.5,2.2-2.2c0.8-0.7,1.6-1.2,2.5-1.7
		c0.9-0.5,1.8-0.8,2.8-1.1c1-0.3,2.1-0.4,3.3-0.4c2.5,0,4.6,0.7,6.3,2.1c1.6,1.4,2.9,3.2,3.7,5.5c0.6-1.3,1.4-2.5,2.4-3.5
		c0.9-1,2-1.7,3.1-2.3c1.1-0.6,2.3-1.1,3.6-1.3c1.3-0.3,2.6-0.4,3.8-0.4c2.2,0,4.2,0.3,6,1c1.7,0.7,3.2,1.7,4.4,3
		c1.2,1.3,2.1,2.9,2.7,4.8c0.6,1.9,0.9,4.1,0.9,6.5V341H529v-25.8c0-2.6-0.6-4.5-1.7-5.8c-1.1-1.3-2.8-2-5-2c-1,0-1.9,0.2-2.8,0.5
		s-1.6,0.8-2.2,1.5c-0.6,0.6-1.2,1.5-1.5,2.4c-0.4,1-0.6,2.1-0.6,3.4V341h-9.8v-25.8c0-2.7-0.5-4.7-1.6-5.9
		c-1.1-1.2-2.7-1.9-4.8-1.9c-1.4,0-2.7,0.3-3.9,1c-1.2,0.7-2.4,1.7-3.4,2.9V341H481.9z"/>
	<path class="st0" d="M587.5,308.4c-0.3,0.4-0.5,0.7-0.8,0.9c-0.3,0.2-0.7,0.3-1.1,0.3c-0.5,0-1-0.1-1.5-0.4
		c-0.5-0.3-1.2-0.6-1.9-0.9c-0.7-0.3-1.5-0.6-2.4-0.9c-0.9-0.3-2-0.4-3.2-0.4c-1.9,0-3.4,0.4-4.5,1.2c-1.1,0.8-1.7,1.9-1.7,3.2
		c0,0.9,0.3,1.6,0.8,2.2c0.6,0.6,1.3,1.1,2.2,1.6c0.9,0.4,2,0.8,3.2,1.2c1.2,0.4,2.4,0.7,3.6,1.2c1.2,0.4,2.4,0.9,3.6,1.4
		c1.2,0.5,2.2,1.2,3.2,2.1c0.9,0.8,1.7,1.8,2.2,3c0.6,1.2,0.8,2.6,0.8,4.2c0,1.9-0.4,3.7-1.1,5.4c-0.7,1.6-1.7,3.1-3.1,4.3
		c-1.4,1.2-3.1,2.1-5.1,2.8c-2,0.7-4.3,1-6.9,1c-1.4,0-2.8-0.1-4.1-0.4c-1.3-0.3-2.6-0.6-3.8-1c-1.2-0.4-2.4-1-3.4-1.6
		c-1-0.6-2-1.3-2.7-2l2.2-3.7c0.3-0.4,0.6-0.8,1-1c0.4-0.2,0.9-0.4,1.5-0.4s1.2,0.2,1.7,0.5c0.5,0.3,1.2,0.7,1.9,1.1
		s1.5,0.8,2.5,1.1c1,0.3,2.2,0.5,3.6,0.5c1.2,0,2.1-0.1,3-0.4c0.8-0.3,1.5-0.6,2.1-1.1c0.5-0.4,0.9-1,1.2-1.6
		c0.2-0.6,0.4-1.2,0.4-1.8c0-0.9-0.3-1.7-0.8-2.3c-0.6-0.6-1.3-1.1-2.2-1.6c-0.9-0.4-2-0.8-3.2-1.2s-2.4-0.7-3.7-1.2
		c-1.2-0.4-2.5-0.9-3.7-1.5c-1.2-0.6-2.3-1.3-3.2-2.1c-0.9-0.9-1.7-1.9-2.2-3.2c-0.6-1.3-0.8-2.8-0.8-4.6c0-1.7,0.3-3.2,1-4.7
		c0.7-1.5,1.6-2.8,2.9-3.9c1.3-1.1,2.9-2,4.8-2.7s4.1-1,6.6-1c2.8,0,5.3,0.5,7.6,1.4c2.3,0.9,4.2,2.1,5.7,3.6L587.5,308.4z"/>
	<path class="st0" d="M606.9,300.5v25.7c0,2.5,0.6,4.4,1.7,5.7c1.1,1.4,2.9,2,5.1,2c1.7,0,3.3-0.4,4.7-1.1c1.5-0.7,2.9-1.8,4.2-3.1
		v-29.3h9.7V341h-6c-1.3,0-2.1-0.6-2.5-1.8l-0.7-3.2c-0.8,0.8-1.7,1.6-2.6,2.3c-0.9,0.7-1.8,1.3-2.9,1.8c-1,0.5-2.1,0.9-3.3,1.1
		c-1.2,0.3-2.4,0.4-3.8,0.4c-2.2,0-4.2-0.4-5.9-1.1c-1.7-0.7-3.1-1.8-4.3-3.2c-1.2-1.4-2-3-2.6-4.9c-0.6-1.9-0.9-4-0.9-6.2v-25.7
		H606.9z"/>
	<path class="st0" d="M642.8,341v-40.5h5.7c1,0,1.7,0.2,2.1,0.6s0.7,1,0.8,1.9l0.6,4.9c1.4-2.5,3.1-4.5,5.1-5.9
		c1.9-1.4,4.1-2.2,6.5-2.2c2,0,3.7,0.5,5,1.4l-1.3,7.3c-0.1,0.5-0.3,0.8-0.5,1c-0.3,0.2-0.6,0.3-1.1,0.3c-0.4,0-0.9-0.1-1.6-0.3
		c-0.7-0.2-1.6-0.3-2.7-0.3c-2,0-3.8,0.6-5.2,1.7s-2.7,2.8-3.7,4.9V341H642.8z"/>
	<path class="st0" d="M691.8,299.9c2.5,0,4.9,0.4,7,1.2c2.1,0.8,4,2,5.5,3.6c1.6,1.6,2.8,3.5,3.6,5.8c0.9,2.3,1.3,4.9,1.3,7.8
		c0,0.7,0,1.3-0.1,1.8c-0.1,0.5-0.2,0.9-0.4,1.1c-0.2,0.3-0.4,0.5-0.7,0.6s-0.7,0.2-1.1,0.2h-25c0.3,4.2,1.4,7.2,3.4,9.2
		c1.9,1.9,4.5,2.9,7.7,2.9c1.6,0,2.9-0.2,4.1-0.6c1.1-0.4,2.1-0.8,3-1.2c0.9-0.4,1.6-0.9,2.2-1.2c0.6-0.4,1.3-0.6,1.9-0.6
		c0.4,0,0.7,0.1,1,0.2c0.3,0.2,0.5,0.4,0.7,0.7l2.8,3.5c-1.1,1.3-2.3,2.3-3.6,3.2c-1.3,0.9-2.7,1.5-4.2,2.1s-2.9,0.9-4.5,1.1
		c-1.5,0.2-3,0.3-4.4,0.3c-2.8,0-5.4-0.5-7.8-1.4s-4.5-2.3-6.3-4.1c-1.8-1.8-3.2-4.1-4.2-6.8s-1.5-5.8-1.5-9.4
		c0-2.8,0.4-5.4,1.3-7.8c0.9-2.4,2.2-4.5,3.8-6.4c1.7-1.8,3.7-3.2,6.1-4.3C686,300.4,688.7,299.9,691.8,299.9z M692,306.8
		c-2.8,0-5.1,0.8-6.7,2.4c-1.6,1.6-2.6,3.9-3.1,6.8h18.3c0-1.3-0.2-2.5-0.5-3.6c-0.3-1.1-0.9-2.1-1.6-2.9c-0.7-0.8-1.6-1.5-2.7-2
		C694.7,307.1,693.4,306.8,692,306.8z"/>
	<path class="st0" d="M272.6,394.5c2.6,0,4.9,0.4,7,1.2c2.1,0.8,4,2,5.5,3.6c1.6,1.6,2.8,3.5,3.6,5.8c0.9,2.3,1.3,4.9,1.3,7.8
		c0,0.7,0,1.3-0.1,1.8c-0.1,0.5-0.2,0.9-0.4,1.1c-0.2,0.3-0.4,0.5-0.7,0.6c-0.3,0.1-0.7,0.2-1.1,0.2h-25c0.3,4.2,1.4,7.2,3.4,9.2
		c1.9,1.9,4.5,2.9,7.7,2.9c1.6,0,2.9-0.2,4.1-0.6c1.1-0.4,2.1-0.8,3-1.2c0.9-0.4,1.6-0.9,2.2-1.2c0.6-0.4,1.3-0.6,1.9-0.6
		c0.4,0,0.7,0.1,1,0.2c0.3,0.2,0.5,0.4,0.7,0.7l2.8,3.5c-1.1,1.3-2.3,2.3-3.6,3.2c-1.3,0.9-2.7,1.5-4.2,2.1s-2.9,0.9-4.5,1.1
		c-1.5,0.2-3,0.3-4.4,0.3c-2.8,0-5.4-0.5-7.8-1.4c-2.4-0.9-4.5-2.3-6.3-4.1c-1.8-1.8-3.2-4.1-4.2-6.8c-1-2.7-1.5-5.8-1.5-9.4
		c0-2.8,0.4-5.4,1.3-7.8c0.9-2.4,2.2-4.5,3.8-6.3c1.7-1.8,3.7-3.2,6.1-4.3C266.9,395,269.6,394.5,272.6,394.5z M272.8,401.5
		c-2.8,0-5.1,0.8-6.7,2.4c-1.6,1.6-2.6,3.9-3.1,6.8h18.3c0-1.3-0.2-2.5-0.5-3.6c-0.3-1.1-0.9-2.1-1.6-2.9s-1.6-1.5-2.7-2
		C275.5,401.7,274.3,401.5,272.8,401.5z"/>
	<path class="st0" d="M317,435.6h-8.8l-16.1-40.5h8.1c0.7,0,1.3,0.2,1.8,0.5c0.5,0.3,0.8,0.8,1,1.3l7.8,21.6
		c0.4,1.3,0.8,2.5,1.1,3.7c0.3,1.2,0.6,2.4,0.8,3.6c0.2-1.2,0.5-2.4,0.8-3.6c0.3-1.2,0.7-2.4,1.2-3.7l8-21.6c0.2-0.5,0.5-1,1-1.3
		c0.5-0.3,1-0.5,1.7-0.5h7.7L317,435.6z"/>
	<path class="st0" d="M354.3,394.5c2.5,0,4.9,0.4,7,1.2c2.1,0.8,4,2,5.5,3.6c1.6,1.6,2.8,3.5,3.6,5.8c0.9,2.3,1.3,4.9,1.3,7.8
		c0,0.7,0,1.3-0.1,1.8c-0.1,0.5-0.2,0.9-0.4,1.1s-0.4,0.5-0.7,0.6s-0.7,0.2-1.1,0.2h-25c0.3,4.2,1.4,7.2,3.4,9.2
		c1.9,1.9,4.5,2.9,7.7,2.9c1.6,0,2.9-0.2,4.1-0.6c1.1-0.4,2.1-0.8,3-1.2c0.9-0.4,1.6-0.9,2.2-1.2s1.3-0.6,1.9-0.6
		c0.4,0,0.7,0.1,1,0.2c0.3,0.2,0.5,0.4,0.7,0.7l2.8,3.5c-1.1,1.3-2.3,2.3-3.6,3.2c-1.3,0.9-2.7,1.5-4.2,2.1s-2.9,0.9-4.5,1.1
		c-1.5,0.2-3,0.3-4.4,0.3c-2.8,0-5.4-0.5-7.8-1.4s-4.5-2.3-6.3-4.1c-1.8-1.8-3.2-4.1-4.2-6.8c-1-2.7-1.5-5.8-1.5-9.4
		c0-2.8,0.4-5.4,1.3-7.8c0.9-2.4,2.2-4.5,3.8-6.3c1.7-1.8,3.7-3.2,6.1-4.3C348.5,395,351.2,394.5,354.3,394.5z M354.5,401.5
		c-2.8,0-5.1,0.8-6.7,2.4c-1.6,1.6-2.6,3.9-3.1,6.8H363c0-1.3-0.2-2.5-0.5-3.6s-0.9-2.1-1.6-2.9s-1.6-1.5-2.7-2
		C357.2,401.7,355.9,401.5,354.5,401.5z"/>
	<path class="st0" d="M379.7,435.6v-40.5h5.7c1,0,1.7,0.2,2.1,0.6s0.7,1,0.8,1.9l0.6,4.9c1.4-2.5,3.1-4.5,5.1-5.9
		c1.9-1.4,4.1-2.2,6.5-2.2c2,0,3.7,0.5,5,1.4l-1.3,7.3c-0.1,0.5-0.3,0.8-0.5,1c-0.3,0.2-0.6,0.3-1.1,0.3c-0.4,0-0.9-0.1-1.6-0.3
		c-0.7-0.2-1.6-0.3-2.7-0.3c-2,0-3.8,0.6-5.2,1.7c-1.4,1.1-2.7,2.8-3.7,4.9v25.2H379.7z"/>
	<path class="st0" d="M426.3,446.7c-0.3,0.7-0.7,1.2-1.1,1.6c-0.5,0.4-1.2,0.5-2.1,0.5h-7.3l7.6-16.2L407,395.1h8.5
		c0.8,0,1.4,0.2,1.8,0.6c0.4,0.4,0.7,0.8,0.9,1.3l8.6,21c0.3,0.7,0.5,1.4,0.7,2.1c0.2,0.7,0.4,1.5,0.6,2.2c0.2-0.8,0.4-1.5,0.7-2.2
		c0.2-0.7,0.5-1.4,0.8-2.2l8.1-20.9c0.2-0.5,0.6-1,1-1.3c0.5-0.3,1-0.5,1.6-0.5h7.8L426.3,446.7z"/>
	<path class="st0" d="M470,394.5c3,0,5.8,0.5,8.2,1.5c2.5,1,4.6,2.4,6.3,4.1c1.7,1.8,3.1,4,4,6.5s1.4,5.5,1.4,8.6
		c0,3.2-0.5,6.1-1.4,8.7c-0.9,2.6-2.3,4.8-4,6.6c-1.7,1.8-3.8,3.2-6.3,4.2c-2.5,1-5.2,1.5-8.2,1.5c-3,0-5.8-0.5-8.2-1.5
		c-2.5-1-4.6-2.4-6.3-4.2c-1.7-1.8-3.1-4-4.1-6.6c-1-2.6-1.4-5.5-1.4-8.7c0-3.2,0.5-6.1,1.4-8.6c1-2.6,2.3-4.8,4.1-6.5
		c1.7-1.8,3.9-3.2,6.3-4.1C464.2,395,467,394.5,470,394.5z M470,428.7c3.4,0,5.9-1.1,7.5-3.4s2.4-5.6,2.4-9.9s-0.8-7.7-2.4-10
		c-1.6-2.3-4.1-3.4-7.5-3.4c-3.4,0-5.9,1.2-7.6,3.5c-1.6,2.3-2.4,5.6-2.4,10c0,4.3,0.8,7.6,2.4,9.9C464,427.6,466.6,428.7,470,428.7
		z"/>
	<path class="st0" d="M497.6,435.6v-40.5h6c1.3,0,2.1,0.6,2.5,1.8l0.7,3.2c0.8-0.8,1.7-1.6,2.6-2.3c0.9-0.7,1.9-1.3,2.9-1.8
		c1-0.5,2.1-0.9,3.3-1.1c1.2-0.3,2.4-0.4,3.8-0.4c2.2,0,4.2,0.4,5.9,1.1c1.7,0.8,3.1,1.8,4.3,3.2c1.1,1.4,2,3,2.6,4.9s0.9,4,0.9,6.2
		v25.8h-9.7v-25.8c0-2.5-0.6-4.4-1.7-5.7s-2.9-2-5.1-2c-1.7,0-3.3,0.4-4.7,1.1s-2.9,1.8-4.2,3.1v29.3H497.6z"/>
	<path class="st0" d="M559.1,394.5c2.5,0,4.9,0.4,7,1.2c2.1,0.8,4,2,5.5,3.6c1.6,1.6,2.8,3.5,3.6,5.8c0.9,2.3,1.3,4.9,1.3,7.8
		c0,0.7,0,1.3-0.1,1.8c-0.1,0.5-0.2,0.9-0.4,1.1s-0.4,0.5-0.7,0.6s-0.7,0.2-1.1,0.2h-25c0.3,4.2,1.4,7.2,3.4,9.2
		c1.9,1.9,4.5,2.9,7.7,2.9c1.6,0,2.9-0.2,4.1-0.6c1.1-0.4,2.1-0.8,3-1.2c0.9-0.4,1.6-0.9,2.2-1.2s1.3-0.6,1.9-0.6
		c0.4,0,0.7,0.1,1,0.2c0.3,0.2,0.5,0.4,0.7,0.7l2.8,3.5c-1.1,1.3-2.3,2.3-3.6,3.2c-1.3,0.9-2.7,1.5-4.2,2.1s-2.9,0.9-4.5,1.1
		c-1.5,0.2-3,0.3-4.4,0.3c-2.8,0-5.4-0.5-7.8-1.4s-4.5-2.3-6.3-4.1c-1.8-1.8-3.2-4.1-4.2-6.8c-1-2.7-1.5-5.8-1.5-9.4
		c0-2.8,0.4-5.4,1.3-7.8c0.9-2.4,2.2-4.5,3.8-6.3c1.7-1.8,3.7-3.2,6.1-4.3S556.1,394.5,559.1,394.5z M559.3,401.5
		c-2.8,0-5.1,0.8-6.7,2.4s-2.6,3.9-3.1,6.8h18.3c0-1.3-0.2-2.5-0.5-3.6s-0.9-2.1-1.6-2.9s-1.6-1.5-2.7-2
		C562,401.7,560.8,401.5,559.3,401.5z"/>
	<path class="st0" d="M594.9,395.1h7.7c0.7,0,1.4,0.2,1.9,0.5c0.5,0.3,0.8,0.8,0.9,1.3l5.8,21.6c0.3,1.2,0.6,2.3,0.8,3.5
		c0.2,1.1,0.4,2.3,0.6,3.4c0.3-1.1,0.6-2.3,0.9-3.4c0.3-1.1,0.7-2.3,1-3.5l6.7-21.7c0.2-0.5,0.5-1,0.9-1.3c0.5-0.3,1-0.5,1.7-0.5
		h4.3c0.7,0,1.3,0.2,1.8,0.5c0.5,0.3,0.8,0.8,0.9,1.3l6.6,22.1c0.3,1.1,0.7,2.2,0.9,3.3c0.3,1.1,0.5,2.1,0.8,3.2
		c0.2-1.1,0.4-2.3,0.6-3.4c0.2-1.1,0.5-2.3,0.8-3.5l6-21.6c0.1-0.5,0.4-1,0.9-1.3c0.5-0.3,1.1-0.5,1.7-0.5h7.4l-12.8,40.5H636
		c-0.8,0-1.4-0.6-1.8-1.7l-7.3-23.4c-0.2-0.8-0.5-1.5-0.7-2.3s-0.4-1.5-0.5-2.3c-0.2,0.8-0.3,1.6-0.5,2.3c-0.2,0.8-0.4,1.6-0.6,2.3
		l-7.4,23.3c-0.4,1.2-1.1,1.7-2.1,1.7h-7.5L594.9,395.1z"/>
	<path class="st0" d="M674,383.4c0,0.8-0.2,1.6-0.5,2.4c-0.3,0.7-0.8,1.4-1.4,1.9s-1.2,1-2,1.3c-0.8,0.3-1.6,0.5-2.4,0.5
		c-0.8,0-1.6-0.2-2.4-0.5c-0.7-0.3-1.4-0.8-2-1.3s-1-1.2-1.3-1.9c-0.3-0.7-0.5-1.5-0.5-2.4c0-0.9,0.2-1.7,0.5-2.4
		c0.3-0.8,0.8-1.4,1.3-2s1.2-1,2-1.3c0.8-0.3,1.5-0.5,2.4-0.5c0.9,0,1.7,0.2,2.4,0.5c0.8,0.3,1.4,0.8,2,1.3s1,1.2,1.4,2
		C673.8,381.7,674,382.5,674,383.4z M672.6,395.1v40.5h-9.7v-40.5H672.6z"/>
	<path class="st0" d="M693.9,377v58.6h-9.7V377H693.9z"/>
	<path class="st0" d="M715.3,377v58.6h-9.7V377H715.3z"/>
	<path class="st0" d="M258.8,471.7v33.6h1.8c0.7,0,1.2-0.1,1.5-0.3c0.4-0.2,0.8-0.5,1.2-1l10.1-12.4c0.4-0.5,0.9-0.9,1.4-1.2
		c0.5-0.3,1.2-0.5,2-0.5h8.9l-12.6,15c-0.4,0.6-0.9,1.1-1.4,1.5c-0.5,0.5-1,0.9-1.5,1.2c0.6,0.4,1,0.9,1.5,1.4
		c0.4,0.5,0.8,1.1,1.3,1.7l13.5,19.6h-8.8c-0.8,0-1.4-0.1-1.9-0.4c-0.5-0.3-1-0.7-1.4-1.3l-10.3-15.3c-0.4-0.6-0.8-1-1.2-1.2
		c-0.4-0.2-1-0.3-1.8-0.3h-2.2v18.5H249v-58.6H258.8z"/>
	<path class="st0" d="M292.4,530.3v-40.5h6c1.3,0,2.1,0.6,2.5,1.8l0.7,3.2c0.8-0.8,1.7-1.6,2.6-2.3s1.9-1.3,2.9-1.8
		c1-0.5,2.1-0.9,3.3-1.1c1.2-0.3,2.4-0.4,3.8-0.4c2.2,0,4.2,0.4,5.9,1.1c1.7,0.8,3.1,1.8,4.3,3.2c1.1,1.4,2,3,2.6,4.9s0.9,4,0.9,6.2
		v25.8h-9.7v-25.8c0-2.5-0.6-4.4-1.7-5.7c-1.1-1.4-2.9-2-5.1-2c-1.7,0-3.3,0.4-4.7,1.1c-1.5,0.8-2.9,1.8-4.2,3.1v29.3H292.4z"/>
	<path class="st0" d="M354.5,489.2c3,0,5.8,0.5,8.2,1.5c2.5,1,4.6,2.4,6.3,4.1c1.7,1.8,3.1,4,4,6.5c0.9,2.6,1.4,5.5,1.4,8.6
		c0,3.2-0.5,6.1-1.4,8.7c-0.9,2.6-2.3,4.8-4,6.6s-3.8,3.2-6.3,4.2c-2.5,1-5.2,1.5-8.2,1.5c-3,0-5.8-0.5-8.2-1.5
		c-2.5-1-4.6-2.4-6.3-4.2c-1.7-1.8-3.1-4-4.1-6.6c-1-2.6-1.4-5.5-1.4-8.7c0-3.2,0.5-6.1,1.4-8.6c1-2.6,2.3-4.8,4.1-6.5
		c1.7-1.8,3.9-3.2,6.3-4.1C348.8,489.7,351.5,489.2,354.5,489.2z M354.5,523.4c3.4,0,5.9-1.1,7.5-3.4s2.4-5.6,2.4-9.9
		s-0.8-7.7-2.4-10c-1.6-2.3-4.1-3.4-7.5-3.4c-3.4,0-5.9,1.2-7.6,3.5c-1.6,2.3-2.4,5.6-2.4,10c0,4.3,0.8,7.6,2.4,9.9
		C348.6,522.2,351.1,523.4,354.5,523.4z"/>
	<path class="st0" d="M377.2,489.8h7.7c0.7,0,1.4,0.2,1.9,0.5c0.5,0.3,0.8,0.8,0.9,1.3l5.8,21.6c0.3,1.2,0.6,2.3,0.8,3.5
		c0.2,1.1,0.4,2.3,0.6,3.4c0.3-1.1,0.6-2.3,0.9-3.4c0.3-1.1,0.7-2.3,1-3.5l6.7-21.7c0.2-0.5,0.5-1,0.9-1.3c0.5-0.3,1-0.5,1.7-0.5
		h4.3c0.7,0,1.3,0.2,1.8,0.5c0.5,0.3,0.8,0.8,0.9,1.3l6.6,22.1c0.3,1.1,0.7,2.2,0.9,3.3c0.3,1.1,0.5,2.1,0.8,3.2
		c0.2-1.1,0.4-2.3,0.6-3.4c0.2-1.1,0.5-2.3,0.8-3.5l6-21.6c0.1-0.5,0.4-1,0.9-1.3c0.5-0.3,1.1-0.5,1.7-0.5h7.4l-12.8,40.5h-7.8
		c-0.8,0-1.4-0.6-1.8-1.7l-7.3-23.4c-0.2-0.8-0.5-1.5-0.7-2.3s-0.4-1.5-0.5-2.3c-0.2,0.8-0.3,1.6-0.5,2.3c-0.2,0.8-0.4,1.6-0.6,2.3
		l-7.4,23.3c-0.4,1.2-1.1,1.7-2.1,1.7H390L377.2,489.8z"/>
	<path class="st0" d="M491.4,530.3H487c-0.9,0-1.6-0.1-2.2-0.4s-0.9-0.8-1.2-1.7l-0.9-2.9c-1,0.9-2,1.7-3,2.4c-1,0.7-2,1.3-3.1,1.8
		c-1.1,0.5-2.2,0.8-3.4,1.1c-1.2,0.2-2.5,0.4-3.9,0.4c-1.7,0-3.3-0.2-4.7-0.7c-1.4-0.5-2.7-1.2-3.7-2.1c-1-0.9-1.8-2.1-2.4-3.4
		c-0.6-1.4-0.9-3-0.9-4.8c0-1.5,0.4-3,1.2-4.5s2.1-2.8,4-4c1.9-1.2,4.4-2.2,7.5-3c3.1-0.8,7-1.2,11.6-1.2v-2.4
		c0-2.7-0.6-4.8-1.7-6.1s-2.8-2-5-2c-1.6,0-2.9,0.2-3.9,0.6c-1.1,0.4-2,0.8-2.7,1.2c-0.8,0.5-1.5,0.9-2.1,1.2s-1.4,0.6-2.2,0.6
		c-0.7,0-1.2-0.2-1.7-0.5s-0.9-0.8-1.1-1.3l-1.8-3.1c4.7-4.3,10.3-6.4,16.8-6.4c2.4,0,4.5,0.4,6.3,1.2c1.9,0.8,3.4,1.9,4.7,3.2
		c1.3,1.4,2.3,3,2.9,5c0.7,1.9,1,4,1,6.3V530.3z M472.5,524.2c1,0,1.9-0.1,2.8-0.3c0.8-0.2,1.6-0.5,2.4-0.8s1.5-0.8,2.2-1.3
		c0.7-0.5,1.4-1.2,2.1-1.9v-6.8c-2.8,0-5.2,0.2-7.1,0.5c-1.9,0.4-3.4,0.8-4.6,1.4c-1.2,0.6-2,1.2-2.5,1.9s-0.7,1.5-0.7,2.4
		c0,1.7,0.5,3,1.5,3.7C469.5,523.8,470.9,524.2,472.5,524.2z"/>
	<path class="st0" d="M501.1,530.3v-58.6h9.7v23.1c1.6-1.7,3.4-3.1,5.4-4.1c2-1,4.4-1.5,7.1-1.5c2.2,0,4.2,0.5,6.1,1.4
		c1.8,0.9,3.4,2.2,4.7,4c1.3,1.7,2.4,3.9,3.1,6.4c0.7,2.6,1.1,5.5,1.1,8.8c0,3-0.4,5.8-1.2,8.4c-0.8,2.6-2,4.8-3.5,6.7
		c-1.5,1.9-3.3,3.4-5.5,4.4c-2.1,1.1-4.5,1.6-7.2,1.6c-1.2,0-2.4-0.1-3.4-0.4c-1-0.2-2-0.6-2.8-1c-0.8-0.4-1.6-1-2.3-1.6
		c-0.7-0.6-1.4-1.4-2.1-2.1l-0.4,2.7c-0.2,0.7-0.4,1.2-0.8,1.5s-0.9,0.4-1.6,0.4H501.1z M520.1,496.8c-2,0-3.8,0.4-5.2,1.3
		c-1.4,0.9-2.8,2.1-4,3.6v18.1c1.1,1.4,2.3,2.3,3.6,2.9s2.7,0.8,4.2,0.8c1.5,0,2.8-0.3,4-0.8c1.2-0.6,2.2-1.4,3-2.5s1.5-2.6,1.9-4.3
		c0.4-1.7,0.7-3.8,0.7-6.1c0-2.4-0.2-4.4-0.6-6c-0.4-1.6-0.9-3-1.6-4s-1.6-1.8-2.6-2.2C522.5,497,521.3,496.8,520.1,496.8z"/>
	<path class="st0" d="M563.2,489.2c3,0,5.8,0.5,8.2,1.5c2.5,1,4.6,2.4,6.3,4.1c1.7,1.8,3.1,4,4,6.5s1.4,5.5,1.4,8.6
		c0,3.2-0.5,6.1-1.4,8.7c-0.9,2.6-2.3,4.8-4,6.6c-1.7,1.8-3.8,3.2-6.3,4.2c-2.5,1-5.2,1.5-8.2,1.5c-3,0-5.8-0.5-8.2-1.5
		c-2.5-1-4.6-2.4-6.3-4.2c-1.7-1.8-3.1-4-4.1-6.6c-1-2.6-1.4-5.5-1.4-8.7c0-3.2,0.5-6.1,1.4-8.6c1-2.6,2.3-4.8,4.1-6.5
		c1.7-1.8,3.9-3.2,6.3-4.1C557.5,489.7,560.2,489.2,563.2,489.2z M563.2,523.4c3.4,0,5.9-1.1,7.5-3.4s2.4-5.6,2.4-9.9
		s-0.8-7.7-2.4-10c-1.6-2.3-4.1-3.4-7.5-3.4c-3.4,0-5.9,1.2-7.6,3.5c-1.6,2.3-2.4,5.6-2.4,10c0,4.3,0.8,7.6,2.4,9.9
		C557.3,522.2,559.8,523.4,563.2,523.4z"/>
	<path class="st0" d="M599.7,489.8v25.7c0,2.5,0.6,4.4,1.7,5.7c1.1,1.4,2.9,2,5.1,2c1.7,0,3.3-0.4,4.7-1.1c1.5-0.7,2.9-1.8,4.2-3.1
		v-29.3h9.7v40.5h-6c-1.3,0-2.1-0.6-2.5-1.8l-0.7-3.2c-0.8,0.8-1.7,1.6-2.6,2.3c-0.9,0.7-1.8,1.3-2.9,1.8c-1,0.5-2.1,0.9-3.3,1.1
		c-1.2,0.3-2.4,0.4-3.8,0.4c-2.2,0-4.2-0.4-5.9-1.1c-1.7-0.7-3.1-1.8-4.3-3.2c-1.2-1.4-2-3-2.6-4.9s-0.9-4-0.9-6.2v-25.7H599.7z"/>
	<path class="st0" d="M649,530.9c-3.5,0-6.2-1-8.1-3c-1.9-2-2.8-4.7-2.8-8.2v-22.6h-4.1c-0.5,0-1-0.2-1.4-0.5
		c-0.4-0.3-0.6-0.9-0.6-1.5v-3.9l6.5-1.1l2.1-11c0.1-0.5,0.3-0.9,0.7-1.2c0.4-0.3,0.9-0.4,1.4-0.4h5v12.7h10.6v6.9h-10.6V519
		c0,1.3,0.3,2.2,0.9,3s1.5,1.1,2.5,1.1c0.6,0,1.1-0.1,1.5-0.2c0.4-0.1,0.8-0.3,1.1-0.5c0.3-0.2,0.6-0.3,0.8-0.5
		c0.2-0.1,0.5-0.2,0.7-0.2c0.3,0,0.5,0.1,0.7,0.2c0.2,0.1,0.4,0.4,0.6,0.7l2.9,4.7c-1.4,1.2-3.1,2.1-4.9,2.7
		C652.8,530.6,650.9,530.9,649,530.9z"/>
	<path class="st0" d="M693.2,478c0,0.8-0.2,1.6-0.5,2.4c-0.3,0.7-0.8,1.4-1.4,1.9c-0.6,0.6-1.2,1-2,1.3c-0.8,0.3-1.6,0.5-2.4,0.5
		c-0.8,0-1.6-0.2-2.4-0.5c-0.7-0.3-1.4-0.8-2-1.3c-0.6-0.6-1-1.2-1.3-1.9c-0.3-0.7-0.5-1.5-0.5-2.4c0-0.9,0.2-1.7,0.5-2.4
		c0.3-0.8,0.8-1.4,1.3-2c0.6-0.6,1.2-1,2-1.3c0.8-0.3,1.5-0.5,2.4-0.5c0.9,0,1.7,0.2,2.4,0.5c0.8,0.3,1.4,0.8,2,1.3
		c0.6,0.6,1,1.2,1.4,2C693.1,476.3,693.2,477.1,693.2,478z M691.8,489.8v40.5H682v-40.5H691.8z"/>
	<path class="st0" d="M716.1,530.9c-3.5,0-6.2-1-8.1-3c-1.9-2-2.8-4.7-2.8-8.2v-22.6h-4.1c-0.5,0-1-0.2-1.4-0.5
		c-0.4-0.3-0.6-0.9-0.6-1.5v-3.9l6.5-1.1l2.1-11c0.1-0.5,0.3-0.9,0.7-1.2c0.4-0.3,0.9-0.4,1.4-0.4h5v12.7h10.6v6.9h-10.6V519
		c0,1.3,0.3,2.2,0.9,3s1.5,1.1,2.5,1.1c0.6,0,1.1-0.1,1.5-0.2c0.4-0.1,0.8-0.3,1.1-0.5c0.3-0.2,0.6-0.3,0.8-0.5
		c0.2-0.1,0.5-0.2,0.7-0.2c0.3,0,0.5,0.1,0.7,0.2c0.2,0.1,0.4,0.4,0.6,0.7l2.9,4.7c-1.4,1.2-3.1,2.1-4.9,2.7
		C720,530.6,718.1,530.9,716.1,530.9z"/>
	<path class="st0" d="M300.5,624.9h-4.4c-0.9,0-1.6-0.1-2.2-0.4s-0.9-0.8-1.2-1.7l-0.9-2.9c-1,0.9-2,1.7-3,2.4c-1,0.7-2,1.3-3.1,1.8
		c-1.1,0.5-2.2,0.8-3.4,1.1c-1.2,0.2-2.5,0.4-3.9,0.4c-1.7,0-3.3-0.2-4.7-0.7c-1.4-0.5-2.7-1.2-3.7-2.1c-1-0.9-1.8-2.1-2.4-3.4
		c-0.6-1.4-0.9-3-0.9-4.8c0-1.5,0.4-3,1.2-4.5c0.8-1.5,2.1-2.8,4-4c1.9-1.2,4.4-2.2,7.5-3c3.1-0.8,7-1.2,11.6-1.2v-2.4
		c0-2.7-0.6-4.8-1.7-6.1c-1.1-1.3-2.8-2-5-2c-1.6,0-2.9,0.2-3.9,0.6c-1.1,0.4-2,0.8-2.7,1.2c-0.8,0.5-1.5,0.9-2.1,1.2
		c-0.7,0.4-1.4,0.6-2.2,0.6c-0.7,0-1.2-0.2-1.7-0.5c-0.5-0.3-0.9-0.8-1.1-1.3l-1.8-3.1c4.7-4.3,10.3-6.4,16.8-6.4
		c2.4,0,4.5,0.4,6.3,1.2c1.9,0.8,3.4,1.9,4.7,3.2c1.3,1.4,2.3,3,2.9,5c0.7,1.9,1,4,1,6.3V624.9z M281.6,618.9c1,0,1.9-0.1,2.8-0.3
		c0.8-0.2,1.6-0.5,2.4-0.8s1.5-0.8,2.2-1.3c0.7-0.5,1.4-1.2,2.1-1.9v-6.8c-2.8,0-5.2,0.2-7.1,0.5c-1.9,0.4-3.4,0.8-4.6,1.4
		c-1.2,0.6-2,1.2-2.5,1.9c-0.5,0.7-0.7,1.5-0.7,2.4c0,1.7,0.5,3,1.5,3.7C278.6,618.5,279.9,618.9,281.6,618.9z"/>
	<path class="st0" d="M334.1,592.4c-0.3,0.4-0.5,0.7-0.8,0.9c-0.3,0.2-0.7,0.3-1.1,0.3c-0.5,0-1-0.1-1.5-0.4
		c-0.5-0.3-1.2-0.6-1.9-0.9s-1.5-0.6-2.4-0.9s-2-0.4-3.2-0.4c-1.9,0-3.4,0.4-4.5,1.2c-1.1,0.8-1.7,1.9-1.7,3.2
		c0,0.9,0.3,1.6,0.8,2.2c0.6,0.6,1.3,1.1,2.2,1.6c0.9,0.4,2,0.8,3.2,1.2c1.2,0.4,2.4,0.7,3.6,1.2c1.2,0.4,2.4,0.9,3.6,1.4
		c1.2,0.5,2.2,1.2,3.2,2.1c0.9,0.8,1.7,1.8,2.2,3s0.8,2.6,0.8,4.2c0,1.9-0.4,3.7-1.1,5.4s-1.7,3.1-3.1,4.3c-1.4,1.2-3.1,2.1-5.1,2.8
		c-2,0.7-4.3,1-6.9,1c-1.4,0-2.8-0.1-4.1-0.4c-1.3-0.3-2.6-0.6-3.8-1c-1.2-0.4-2.4-1-3.4-1.6c-1-0.6-2-1.3-2.7-2l2.2-3.7
		c0.3-0.4,0.6-0.8,1-1c0.4-0.2,0.9-0.4,1.5-0.4c0.6,0,1.2,0.2,1.7,0.5c0.5,0.3,1.2,0.7,1.9,1.1s1.5,0.8,2.5,1.1
		c1,0.3,2.2,0.5,3.6,0.5c1.2,0,2.1-0.1,3-0.4c0.8-0.3,1.5-0.6,2.1-1.1c0.5-0.4,0.9-1,1.2-1.6c0.2-0.6,0.4-1.2,0.4-1.8
		c0-0.9-0.3-1.7-0.8-2.3c-0.6-0.6-1.3-1.1-2.2-1.6c-0.9-0.4-2-0.8-3.2-1.2c-1.2-0.4-2.4-0.7-3.7-1.2c-1.2-0.4-2.5-0.9-3.7-1.5
		c-1.2-0.6-2.3-1.3-3.2-2.1c-0.9-0.9-1.7-1.9-2.2-3.2c-0.6-1.3-0.8-2.8-0.8-4.6c0-1.7,0.3-3.2,1-4.7s1.6-2.8,2.9-3.9
		c1.3-1.1,2.9-2,4.8-2.7c1.9-0.7,4.1-1,6.6-1c2.8,0,5.3,0.5,7.6,1.4c2.3,0.9,4.2,2.1,5.7,3.6L334.1,592.4z"/>
	<path class="st0" d="M371.6,572.7c0,0.8-0.2,1.6-0.5,2.4c-0.3,0.7-0.8,1.4-1.4,1.9c-0.6,0.6-1.2,1-2,1.3c-0.8,0.3-1.6,0.5-2.4,0.5
		c-0.8,0-1.6-0.2-2.4-0.5s-1.4-0.8-2-1.3c-0.6-0.6-1-1.2-1.3-1.9c-0.3-0.7-0.5-1.5-0.5-2.4c0-0.9,0.2-1.7,0.5-2.4
		c0.3-0.8,0.8-1.4,1.3-2c0.6-0.6,1.2-1,2-1.3s1.5-0.5,2.4-0.5c0.9,0,1.7,0.2,2.4,0.5c0.8,0.3,1.4,0.8,2,1.3c0.6,0.6,1,1.2,1.4,2
		S371.6,571.8,371.6,572.7z M370.1,584.5v40.5h-9.7v-40.5H370.1z"/>
	<path class="st0" d="M394.4,625.6c-3.5,0-6.2-1-8.1-3c-1.9-2-2.8-4.7-2.8-8.2v-22.6h-4.1c-0.5,0-1-0.2-1.4-0.5
		c-0.4-0.3-0.6-0.9-0.6-1.5v-3.9l6.5-1.1l2.1-11c0.1-0.5,0.3-0.9,0.7-1.2c0.4-0.3,0.9-0.4,1.4-0.4h5v12.7h10.6v6.9h-10.6v21.9
		c0,1.3,0.3,2.2,0.9,3s1.5,1.1,2.5,1.1c0.6,0,1.1-0.1,1.5-0.2c0.4-0.1,0.8-0.3,1.1-0.5c0.3-0.2,0.6-0.3,0.8-0.5
		c0.2-0.1,0.5-0.2,0.7-0.2c0.3,0,0.5,0.1,0.7,0.2c0.2,0.1,0.4,0.4,0.6,0.7l2.9,4.7c-1.4,1.2-3.1,2.1-4.9,2.7
		C398.3,625.3,396.4,625.6,394.4,625.6z"/>
	<path class="st0" d="M427,624.9v-58.6h9.7v23.1c1.6-1.7,3.4-3.1,5.4-4.1c2-1,4.4-1.5,7.1-1.5c2.2,0,4.2,0.5,6.1,1.4
		c1.8,0.9,3.4,2.2,4.7,4c1.3,1.7,2.4,3.9,3.1,6.4c0.7,2.6,1.1,5.5,1.1,8.8c0,3-0.4,5.8-1.2,8.4c-0.8,2.6-2,4.8-3.5,6.7
		c-1.5,1.9-3.3,3.4-5.5,4.4c-2.1,1.1-4.5,1.6-7.2,1.6c-1.2,0-2.4-0.1-3.4-0.4c-1-0.2-2-0.6-2.8-1c-0.8-0.4-1.6-1-2.3-1.6
		c-0.7-0.6-1.4-1.4-2.1-2.1l-0.4,2.7c-0.2,0.7-0.4,1.2-0.8,1.5s-0.9,0.4-1.6,0.4H427z M445.9,591.4c-2,0-3.8,0.4-5.2,1.3
		c-1.4,0.9-2.8,2.1-4,3.6v18.1c1.1,1.4,2.3,2.3,3.6,2.9s2.7,0.8,4.2,0.8c1.5,0,2.8-0.3,4-0.8c1.2-0.6,2.2-1.4,3-2.5s1.5-2.6,1.9-4.3
		c0.4-1.7,0.7-3.8,0.7-6.1c0-2.4-0.2-4.4-0.6-6c-0.4-1.6-0.9-3-1.6-4s-1.6-1.8-2.6-2.2C448.4,591.6,447.2,591.4,445.9,591.4z"/>
	<path class="st0" d="M488.6,583.8c2.5,0,4.9,0.4,7,1.2c2.1,0.8,4,2,5.5,3.6c1.6,1.6,2.8,3.5,3.6,5.8c0.9,2.3,1.3,4.9,1.3,7.8
		c0,0.7,0,1.3-0.1,1.8c-0.1,0.5-0.2,0.9-0.4,1.1s-0.4,0.5-0.7,0.6s-0.7,0.2-1.1,0.2h-25c0.3,4.2,1.4,7.2,3.4,9.2
		c1.9,1.9,4.5,2.9,7.7,2.9c1.6,0,2.9-0.2,4.1-0.6c1.1-0.4,2.1-0.8,3-1.2c0.9-0.4,1.6-0.9,2.2-1.2s1.3-0.6,1.9-0.6
		c0.4,0,0.7,0.1,1,0.2c0.3,0.2,0.5,0.4,0.7,0.7l2.8,3.5c-1.1,1.3-2.3,2.3-3.6,3.2c-1.3,0.9-2.7,1.5-4.2,2.1s-2.9,0.9-4.5,1.1
		c-1.5,0.2-3,0.3-4.4,0.3c-2.8,0-5.4-0.5-7.8-1.4s-4.5-2.3-6.3-4.1c-1.8-1.8-3.2-4.1-4.2-6.8c-1-2.7-1.5-5.8-1.5-9.4
		c0-2.8,0.4-5.4,1.3-7.8c0.9-2.4,2.2-4.5,3.8-6.3c1.7-1.8,3.7-3.2,6.1-4.3S485.6,583.8,488.6,583.8z M488.8,590.8
		c-2.8,0-5.1,0.8-6.7,2.4s-2.6,3.9-3.1,6.8h18.3c0-1.3-0.2-2.5-0.5-3.6s-0.9-2.1-1.6-2.9s-1.6-1.5-2.7-2
		C491.5,591.1,490.2,590.8,488.8,590.8z"/>
	<path class="st0" d="M514,624.9v-40.5h6c1.3,0,2.1,0.6,2.5,1.8l0.7,3.2c0.8-0.8,1.7-1.6,2.6-2.3c0.9-0.7,1.9-1.3,2.9-1.8
		c1-0.5,2.1-0.9,3.3-1.1c1.2-0.3,2.4-0.4,3.8-0.4c2.2,0,4.2,0.4,5.9,1.1c1.7,0.8,3.1,1.8,4.3,3.2c1.1,1.4,2,3,2.6,4.9s0.9,4,0.9,6.2
		v25.8h-9.7v-25.8c0-2.5-0.6-4.4-1.7-5.7s-2.9-2-5.1-2c-1.7,0-3.3,0.4-4.7,1.1s-2.9,1.8-4.2,3.1v29.3H514z"/>
	<path class="st0" d="M575.6,583.8c2.5,0,4.9,0.4,7,1.2c2.1,0.8,4,2,5.5,3.6c1.6,1.6,2.8,3.5,3.6,5.8c0.9,2.3,1.3,4.9,1.3,7.8
		c0,0.7,0,1.3-0.1,1.8c-0.1,0.5-0.2,0.9-0.4,1.1s-0.4,0.5-0.7,0.6s-0.7,0.2-1.1,0.2h-25c0.3,4.2,1.4,7.2,3.4,9.2
		c1.9,1.9,4.5,2.9,7.7,2.9c1.6,0,2.9-0.2,4.1-0.6c1.1-0.4,2.1-0.8,3-1.2c0.9-0.4,1.6-0.9,2.2-1.2s1.3-0.6,1.9-0.6
		c0.4,0,0.7,0.1,1,0.2c0.3,0.2,0.5,0.4,0.7,0.7l2.8,3.5c-1.1,1.3-2.3,2.3-3.6,3.2c-1.3,0.9-2.7,1.5-4.2,2.1s-2.9,0.9-4.5,1.1
		c-1.5,0.2-3,0.3-4.4,0.3c-2.8,0-5.4-0.5-7.8-1.4s-4.5-2.3-6.3-4.1c-1.8-1.8-3.2-4.1-4.2-6.8c-1-2.7-1.5-5.8-1.5-9.4
		c0-2.8,0.4-5.4,1.3-7.8c0.9-2.4,2.2-4.5,3.8-6.3c1.7-1.8,3.7-3.2,6.1-4.3S572.6,583.8,575.6,583.8z M575.8,590.8
		c-2.8,0-5.1,0.8-6.7,2.4s-2.6,3.9-3.1,6.8h18.3c0-1.3-0.2-2.5-0.5-3.6s-0.9-2.1-1.6-2.9s-1.6-1.5-2.7-2
		C578.5,591.1,577.2,590.8,575.8,590.8z"/>
	<path class="st0" d="M602.8,624.9v-33.1l-3.5-0.6c-0.8-0.1-1.4-0.4-1.8-0.8c-0.5-0.4-0.7-0.9-0.7-1.7v-4h6v-1.3
		c0-2.5,0.4-4.8,1.2-6.9c0.8-2.1,2.1-4,3.7-5.5c1.7-1.6,3.7-2.8,6.3-3.6s5.5-1.3,9-1.3c1.1,0,2.2,0.1,3.4,0.2s2.2,0.3,3,0.6l-0.3,5
		c-0.1,0.6-0.4,1-1,1.1c-0.6,0.1-1.4,0.2-2.2,0.2c-2.6,0-4.7,0.2-6.4,0.7c-1.7,0.4-3.1,1.1-4.2,2c-1.1,0.9-1.8,2-2.3,3.3
		c-0.5,1.3-0.7,2.9-0.7,4.6v1h25.1v40.1h-9.7v-33.2h-15v33.2H602.8z"/>
	<path class="st0" d="M661.7,625.6c-3.5,0-6.2-1-8.1-3c-1.9-2-2.8-4.7-2.8-8.2v-22.6h-4.1c-0.5,0-1-0.2-1.4-0.5
		c-0.4-0.3-0.6-0.9-0.6-1.5v-3.9l6.5-1.1l2.1-11c0.1-0.5,0.3-0.9,0.7-1.2c0.4-0.3,0.9-0.4,1.4-0.4h5v12.7h10.6v6.9h-10.6v21.9
		c0,1.3,0.3,2.2,0.9,3s1.5,1.1,2.5,1.1c0.6,0,1.1-0.1,1.5-0.2c0.4-0.1,0.8-0.3,1.1-0.5c0.3-0.2,0.6-0.3,0.8-0.5
		c0.2-0.1,0.5-0.2,0.7-0.2c0.3,0,0.5,0.1,0.7,0.2c0.2,0.1,0.4,0.4,0.6,0.7l2.9,4.7c-1.4,1.2-3.1,2.1-4.9,2.7
		C665.6,625.3,663.7,625.6,661.7,625.6z"/>
	<path class="st0" d="M703,592.4c-0.3,0.4-0.5,0.7-0.8,0.9c-0.3,0.2-0.7,0.3-1.1,0.3c-0.5,0-1-0.1-1.5-0.4c-0.5-0.3-1.2-0.6-1.9-0.9
		s-1.5-0.6-2.4-0.9s-2-0.4-3.2-0.4c-1.9,0-3.4,0.4-4.5,1.2c-1.1,0.8-1.7,1.9-1.7,3.2c0,0.9,0.3,1.6,0.8,2.2s1.3,1.1,2.2,1.6
		c0.9,0.4,2,0.8,3.2,1.2c1.2,0.4,2.4,0.7,3.6,1.2c1.2,0.4,2.4,0.9,3.6,1.4c1.2,0.5,2.2,1.2,3.2,2.1s1.7,1.8,2.2,3
		c0.6,1.2,0.8,2.6,0.8,4.2c0,1.9-0.4,3.7-1.1,5.4s-1.7,3.1-3.1,4.3c-1.4,1.2-3.1,2.1-5.1,2.8c-2,0.7-4.3,1-6.9,1
		c-1.4,0-2.8-0.1-4.1-0.4c-1.3-0.3-2.6-0.6-3.8-1c-1.2-0.4-2.4-1-3.4-1.6s-2-1.3-2.7-2l2.2-3.7c0.3-0.4,0.6-0.8,1-1
		c0.4-0.2,0.9-0.4,1.5-0.4s1.2,0.2,1.7,0.5c0.5,0.3,1.2,0.7,1.9,1.1s1.5,0.8,2.5,1.1s2.2,0.5,3.6,0.5c1.2,0,2.1-0.1,3-0.4
		c0.8-0.3,1.5-0.6,2.1-1.1c0.5-0.4,0.9-1,1.2-1.6c0.2-0.6,0.4-1.2,0.4-1.8c0-0.9-0.3-1.7-0.8-2.3c-0.6-0.6-1.3-1.1-2.2-1.6
		c-0.9-0.4-2-0.8-3.2-1.2c-1.2-0.4-2.4-0.7-3.7-1.2c-1.2-0.4-2.5-0.9-3.7-1.5c-1.2-0.6-2.3-1.3-3.2-2.1c-0.9-0.9-1.7-1.9-2.2-3.2
		c-0.6-1.3-0.8-2.8-0.8-4.6c0-1.7,0.3-3.2,1-4.7c0.7-1.5,1.6-2.8,2.9-3.9c1.3-1.1,2.9-2,4.8-2.7s4.1-1,6.6-1c2.8,0,5.3,0.5,7.6,1.4
		c2.3,0.9,4.2,2.1,5.7,3.6L703,592.4z"/>
	<path class="st0" d="M225,720.2c-3.5,0-6.2-1-8.1-3s-2.8-4.7-2.8-8.2v-22.6H210c-0.5,0-1-0.2-1.4-0.5c-0.4-0.3-0.6-0.9-0.6-1.5
		v-3.9l6.5-1.1l2.1-11c0.1-0.5,0.3-0.9,0.7-1.2c0.4-0.3,0.9-0.4,1.4-0.4h5v12.7h10.6v6.9h-10.6v21.9c0,1.3,0.3,2.2,0.9,3
		c0.6,0.7,1.5,1.1,2.5,1.1c0.6,0,1.1-0.1,1.5-0.2s0.8-0.3,1.1-0.5c0.3-0.2,0.6-0.3,0.8-0.5c0.2-0.1,0.5-0.2,0.7-0.2
		c0.3,0,0.5,0.1,0.7,0.2c0.2,0.1,0.4,0.4,0.6,0.7l2.9,4.7c-1.4,1.2-3.1,2.1-4.9,2.7C228.9,719.9,227,720.2,225,720.2z"/>
	<path class="st0" d="M258.9,678.5c2.6,0,4.9,0.4,7,1.2c2.1,0.8,4,2,5.5,3.6c1.6,1.6,2.8,3.5,3.6,5.8c0.9,2.3,1.3,4.9,1.3,7.8
		c0,0.7,0,1.3-0.1,1.8c-0.1,0.5-0.2,0.9-0.4,1.1c-0.2,0.3-0.4,0.5-0.7,0.6c-0.3,0.1-0.7,0.2-1.1,0.2h-25c0.3,4.2,1.4,7.2,3.4,9.2
		c1.9,1.9,4.5,2.9,7.7,2.9c1.6,0,2.9-0.2,4.1-0.6c1.1-0.4,2.1-0.8,3-1.2c0.9-0.4,1.6-0.9,2.2-1.2c0.6-0.4,1.3-0.6,1.9-0.6
		c0.4,0,0.7,0.1,1,0.2c0.3,0.2,0.5,0.4,0.7,0.7l2.8,3.5c-1.1,1.3-2.3,2.3-3.6,3.2c-1.3,0.9-2.7,1.5-4.2,2.1s-2.9,0.9-4.5,1.1
		c-1.5,0.2-3,0.3-4.4,0.3c-2.8,0-5.4-0.5-7.8-1.4c-2.4-0.9-4.5-2.3-6.3-4.1c-1.8-1.8-3.2-4.1-4.2-6.8c-1-2.7-1.5-5.8-1.5-9.4
		c0-2.8,0.4-5.4,1.3-7.8c0.9-2.4,2.2-4.5,3.8-6.3c1.7-1.8,3.7-3.2,6.1-4.3C253.2,679,255.9,678.5,258.9,678.5z M259.1,685.5
		c-2.8,0-5.1,0.8-6.7,2.4c-1.6,1.6-2.6,3.9-3.1,6.8h18.3c0-1.3-0.2-2.5-0.5-3.6c-0.3-1.1-0.9-2.1-1.6-2.9s-1.6-1.5-2.7-2
		C261.8,685.7,260.6,685.5,259.1,685.5z"/>
	<path class="st0" d="M316.1,719.6h-4.4c-0.9,0-1.6-0.1-2.2-0.4s-0.9-0.8-1.2-1.7l-0.9-2.9c-1,0.9-2,1.7-3,2.4c-1,0.7-2,1.3-3.1,1.8
		c-1.1,0.5-2.2,0.8-3.4,1.1c-1.2,0.2-2.5,0.4-3.9,0.4c-1.7,0-3.3-0.2-4.7-0.7c-1.4-0.5-2.7-1.2-3.7-2.1c-1-0.9-1.8-2.1-2.4-3.4
		c-0.6-1.4-0.9-3-0.9-4.8c0-1.5,0.4-3,1.2-4.5c0.8-1.5,2.1-2.8,4-4c1.9-1.2,4.4-2.2,7.5-3c3.1-0.8,7-1.2,11.6-1.2v-2.4
		c0-2.7-0.6-4.8-1.7-6.1c-1.1-1.3-2.8-2-5-2c-1.6,0-2.9,0.2-3.9,0.6c-1.1,0.4-2,0.8-2.7,1.2c-0.8,0.5-1.5,0.9-2.1,1.2
		c-0.7,0.4-1.4,0.6-2.2,0.6c-0.7,0-1.2-0.2-1.7-0.5c-0.5-0.3-0.9-0.8-1.1-1.3l-1.8-3.1c4.7-4.3,10.3-6.4,16.8-6.4
		c2.4,0,4.5,0.4,6.3,1.2c1.9,0.8,3.4,1.9,4.7,3.2c1.3,1.4,2.3,3,2.9,5c0.7,1.9,1,4,1,6.3V719.6z M297.2,713.5c1,0,1.9-0.1,2.8-0.3
		c0.8-0.2,1.6-0.5,2.4-0.8s1.5-0.8,2.2-1.3c0.7-0.5,1.4-1.2,2.1-1.9v-6.8c-2.8,0-5.2,0.2-7.1,0.5c-1.9,0.4-3.4,0.8-4.6,1.4
		c-1.2,0.6-2,1.2-2.5,1.9c-0.5,0.7-0.7,1.5-0.7,2.4c0,1.7,0.5,3,1.5,3.7C294.2,713.2,295.5,713.5,297.2,713.5z"/>
	<path class="st0" d="M354.1,687.7c-0.3,0.4-0.6,0.7-0.8,0.9c-0.3,0.2-0.7,0.3-1.2,0.3c-0.5,0-1-0.2-1.5-0.5c-0.5-0.3-1-0.6-1.7-1
		s-1.4-0.7-2.3-1c-0.9-0.3-2-0.5-3.4-0.5c-1.7,0-3.2,0.3-4.5,0.9c-1.3,0.6-2.4,1.5-3.2,2.7c-0.9,1.2-1.5,2.6-1.9,4.2
		c-0.4,1.6-0.6,3.5-0.6,5.6c0,2.2,0.2,4.1,0.7,5.8c0.5,1.7,1.1,3.1,2,4.2c0.9,1.1,1.9,2,3.2,2.6c1.2,0.6,2.6,0.9,4.2,0.9
		c1.6,0,2.8-0.2,3.8-0.6c1-0.4,1.8-0.8,2.4-1.3c0.7-0.5,1.2-0.9,1.7-1.3c0.5-0.4,1-0.6,1.6-0.6c0.8,0,1.4,0.3,1.8,0.9l2.8,3.5
		c-1.1,1.3-2.2,2.3-3.5,3.2c-1.3,0.9-2.6,1.5-3.9,2.1c-1.4,0.5-2.8,0.9-4.2,1.1c-1.4,0.2-2.9,0.3-4.3,0.3c-2.5,0-4.9-0.5-7.1-1.4
		c-2.2-0.9-4.1-2.3-5.8-4.1c-1.6-1.8-2.9-4-3.9-6.6c-1-2.6-1.4-5.5-1.4-8.9c0-3,0.4-5.7,1.3-8.3c0.9-2.5,2.1-4.7,3.8-6.6
		c1.7-1.9,3.7-3.3,6.2-4.4c2.4-1.1,5.3-1.6,8.4-1.6c3,0,5.7,0.5,7.9,1.5c2.3,1,4.3,2.4,6.1,4.2L354.1,687.7z"/>
	<path class="st0" d="M363.3,719.6V661h9.7v22.5c1.6-1.5,3.3-2.7,5.2-3.6c1.9-0.9,4.1-1.4,6.7-1.4c2.2,0,4.2,0.4,5.9,1.1
		c1.7,0.8,3.1,1.8,4.3,3.2c1.1,1.4,2,3,2.6,4.9s0.9,4,0.9,6.2v25.8h-9.7v-25.8c0-2.5-0.6-4.4-1.7-5.7s-2.9-2-5.1-2
		c-1.7,0-3.3,0.4-4.7,1.1s-2.9,1.8-4.2,3.1v29.3H363.3z"/>
	<path class="st0" d="M424.9,678.5c2.5,0,4.9,0.4,7,1.2c2.1,0.8,4,2,5.5,3.6c1.6,1.6,2.8,3.5,3.6,5.8c0.9,2.3,1.3,4.9,1.3,7.8
		c0,0.7,0,1.3-0.1,1.8c-0.1,0.5-0.2,0.9-0.4,1.1s-0.4,0.5-0.7,0.6s-0.7,0.2-1.1,0.2h-25c0.3,4.2,1.4,7.2,3.4,9.2
		c1.9,1.9,4.5,2.9,7.7,2.9c1.6,0,2.9-0.2,4.1-0.6c1.1-0.4,2.1-0.8,3-1.2c0.9-0.4,1.6-0.9,2.2-1.2s1.3-0.6,1.9-0.6
		c0.4,0,0.7,0.1,1,0.2c0.3,0.2,0.5,0.4,0.7,0.7l2.8,3.5c-1.1,1.3-2.3,2.3-3.6,3.2c-1.3,0.9-2.7,1.5-4.2,2.1s-2.9,0.9-4.5,1.1
		c-1.5,0.2-3,0.3-4.4,0.3c-2.8,0-5.4-0.5-7.8-1.4s-4.5-2.3-6.3-4.1c-1.8-1.8-3.2-4.1-4.2-6.8c-1-2.7-1.5-5.8-1.5-9.4
		c0-2.8,0.4-5.4,1.3-7.8c0.9-2.4,2.2-4.5,3.8-6.3c1.7-1.8,3.7-3.2,6.1-4.3S421.8,678.5,424.9,678.5z M425.1,685.5
		c-2.8,0-5.1,0.8-6.7,2.4s-2.6,3.9-3.1,6.8h18.3c0-1.3-0.2-2.5-0.5-3.6s-0.9-2.1-1.6-2.9s-1.6-1.5-2.7-2
		C427.8,685.7,426.5,685.5,425.1,685.5z"/>
	<path class="st0" d="M450.3,719.6v-40.5h5.7c1,0,1.7,0.2,2.1,0.6s0.7,1,0.8,1.9l0.6,4.9c1.4-2.5,3.1-4.5,5.1-5.9
		c1.9-1.4,4.1-2.2,6.5-2.2c2,0,3.7,0.5,5,1.4l-1.3,7.3c-0.1,0.5-0.3,0.8-0.5,1c-0.3,0.2-0.6,0.3-1.1,0.3c-0.4,0-0.9-0.1-1.6-0.3
		c-0.7-0.2-1.6-0.3-2.7-0.3c-2,0-3.8,0.6-5.2,1.7c-1.4,1.1-2.7,2.8-3.7,4.9v25.2H450.3z"/>
	<path class="st0" d="M506.6,687c-0.3,0.4-0.5,0.7-0.8,0.9c-0.3,0.2-0.7,0.3-1.1,0.3c-0.5,0-1-0.1-1.5-0.4c-0.5-0.3-1.2-0.6-1.9-0.9
		s-1.5-0.6-2.4-0.9s-2-0.4-3.2-0.4c-1.9,0-3.4,0.4-4.5,1.2c-1.1,0.8-1.7,1.9-1.7,3.2c0,0.9,0.3,1.6,0.8,2.2s1.3,1.1,2.2,1.6
		c0.9,0.4,2,0.8,3.2,1.2c1.2,0.4,2.4,0.7,3.6,1.2c1.2,0.4,2.4,0.9,3.6,1.4c1.2,0.5,2.2,1.2,3.2,2.1s1.7,1.8,2.2,3
		c0.6,1.2,0.8,2.6,0.8,4.2c0,1.9-0.4,3.7-1.1,5.4s-1.7,3.1-3.1,4.3c-1.4,1.2-3.1,2.1-5.1,2.8c-2,0.7-4.3,1-6.9,1
		c-1.4,0-2.8-0.1-4.1-0.4c-1.3-0.3-2.6-0.6-3.8-1c-1.2-0.4-2.4-1-3.4-1.6s-2-1.3-2.7-2l2.2-3.7c0.3-0.4,0.6-0.8,1-1
		c0.4-0.2,0.9-0.4,1.5-0.4s1.2,0.2,1.7,0.5c0.5,0.3,1.2,0.7,1.9,1.1s1.5,0.8,2.5,1.1s2.2,0.5,3.6,0.5c1.2,0,2.1-0.1,3-0.4
		c0.8-0.3,1.5-0.6,2.1-1.1c0.5-0.4,0.9-1,1.2-1.6c0.2-0.6,0.4-1.2,0.4-1.8c0-0.9-0.3-1.7-0.8-2.3c-0.6-0.6-1.3-1.1-2.2-1.6
		c-0.9-0.4-2-0.8-3.2-1.2c-1.2-0.4-2.4-0.7-3.7-1.2c-1.2-0.4-2.5-0.9-3.7-1.5c-1.2-0.6-2.3-1.3-3.2-2.1c-0.9-0.9-1.7-1.9-2.2-3.2
		c-0.6-1.3-0.8-2.8-0.8-4.6c0-1.7,0.3-3.2,1-4.7c0.7-1.5,1.6-2.8,2.9-3.9c1.3-1.1,2.9-2,4.8-2.7s4.1-1,6.6-1c2.8,0,5.3,0.5,7.6,1.4
		c2.3,0.9,4.2,2.1,5.7,3.6L506.6,687z"/>
	<path class="st0" d="M563.9,719.6h-4.4c-0.9,0-1.6-0.1-2.2-0.4s-0.9-0.8-1.2-1.7l-0.9-2.9c-1,0.9-2,1.7-3,2.4c-1,0.7-2,1.3-3.1,1.8
		c-1.1,0.5-2.2,0.8-3.4,1.1c-1.2,0.2-2.5,0.4-3.9,0.4c-1.7,0-3.3-0.2-4.7-0.7c-1.4-0.5-2.7-1.2-3.7-2.1c-1-0.9-1.8-2.1-2.4-3.4
		c-0.6-1.4-0.9-3-0.9-4.8c0-1.5,0.4-3,1.2-4.5s2.1-2.8,4-4c1.9-1.2,4.4-2.2,7.5-3c3.1-0.8,7-1.2,11.6-1.2v-2.4
		c0-2.7-0.6-4.8-1.7-6.1s-2.8-2-5-2c-1.6,0-2.9,0.2-3.9,0.6c-1.1,0.4-2,0.8-2.7,1.2c-0.8,0.5-1.5,0.9-2.1,1.2s-1.4,0.6-2.2,0.6
		c-0.7,0-1.2-0.2-1.7-0.5s-0.9-0.8-1.1-1.3l-1.8-3.1c4.7-4.3,10.3-6.4,16.8-6.4c2.4,0,4.5,0.4,6.3,1.2c1.9,0.8,3.4,1.9,4.7,3.2
		c1.3,1.4,2.3,3,2.9,5c0.7,1.9,1,4,1,6.3V719.6z M545,713.5c1,0,1.9-0.1,2.8-0.3c0.8-0.2,1.6-0.5,2.4-0.8s1.5-0.8,2.2-1.3
		c0.7-0.5,1.4-1.2,2.1-1.9v-6.8c-2.8,0-5.2,0.2-7.1,0.5c-1.9,0.4-3.4,0.8-4.6,1.4c-1.2,0.6-2,1.2-2.5,1.9s-0.7,1.5-0.7,2.4
		c0,1.7,0.5,3,1.5,3.7C542.1,713.2,543.4,713.5,545,713.5z"/>
	<path class="st0" d="M597.5,687c-0.3,0.4-0.5,0.7-0.8,0.9c-0.3,0.2-0.7,0.3-1.1,0.3c-0.5,0-1-0.1-1.5-0.4c-0.5-0.3-1.2-0.6-1.9-0.9
		s-1.5-0.6-2.4-0.9s-2-0.4-3.2-0.4c-1.9,0-3.4,0.4-4.5,1.2c-1.1,0.8-1.7,1.9-1.7,3.2c0,0.9,0.3,1.6,0.8,2.2s1.3,1.1,2.2,1.6
		c0.9,0.4,2,0.8,3.2,1.2c1.2,0.4,2.4,0.7,3.6,1.2c1.2,0.4,2.4,0.9,3.6,1.4c1.2,0.5,2.2,1.2,3.2,2.1s1.7,1.8,2.2,3
		c0.6,1.2,0.8,2.6,0.8,4.2c0,1.9-0.4,3.7-1.1,5.4s-1.7,3.1-3.1,4.3c-1.4,1.2-3.1,2.1-5.1,2.8c-2,0.7-4.3,1-6.9,1
		c-1.4,0-2.8-0.1-4.1-0.4c-1.3-0.3-2.6-0.6-3.8-1c-1.2-0.4-2.4-1-3.4-1.6s-2-1.3-2.7-2l2.2-3.7c0.3-0.4,0.6-0.8,1-1
		c0.4-0.2,0.9-0.4,1.5-0.4s1.2,0.2,1.7,0.5c0.5,0.3,1.2,0.7,1.9,1.1s1.5,0.8,2.5,1.1s2.2,0.5,3.6,0.5c1.2,0,2.1-0.1,3-0.4
		c0.8-0.3,1.5-0.6,2.1-1.1c0.5-0.4,0.9-1,1.2-1.6c0.2-0.6,0.4-1.2,0.4-1.8c0-0.9-0.3-1.7-0.8-2.3c-0.6-0.6-1.3-1.1-2.2-1.6
		c-0.9-0.4-2-0.8-3.2-1.2c-1.2-0.4-2.4-0.7-3.7-1.2c-1.2-0.4-2.5-0.9-3.7-1.5c-1.2-0.6-2.3-1.3-3.2-2.1c-0.9-0.9-1.7-1.9-2.2-3.2
		c-0.6-1.3-0.8-2.8-0.8-4.6c0-1.7,0.3-3.2,1-4.7c0.7-1.5,1.6-2.8,2.9-3.9c1.3-1.1,2.9-2,4.8-2.7s4.1-1,6.6-1c2.8,0,5.3,0.5,7.6,1.4
		c2.3,0.9,4.2,2.1,5.7,3.6L597.5,687z"/>
	<path class="st0" d="M618.3,679.1h7.7c0.7,0,1.4,0.2,1.9,0.5c0.5,0.3,0.8,0.8,0.9,1.3l5.8,21.6c0.3,1.2,0.6,2.3,0.8,3.5
		c0.2,1.1,0.4,2.3,0.6,3.4c0.3-1.1,0.6-2.3,0.9-3.4c0.3-1.1,0.7-2.3,1-3.5l6.7-21.7c0.2-0.5,0.5-1,0.9-1.3c0.5-0.3,1-0.5,1.7-0.5
		h4.3c0.7,0,1.3,0.2,1.8,0.5c0.5,0.3,0.8,0.8,0.9,1.3l6.6,22.1c0.3,1.1,0.7,2.2,0.9,3.3c0.3,1.1,0.5,2.1,0.8,3.2
		c0.2-1.1,0.4-2.3,0.6-3.4c0.2-1.1,0.5-2.3,0.8-3.5l6-21.6c0.1-0.5,0.4-1,0.9-1.3c0.5-0.3,1.1-0.5,1.7-0.5h7.4l-12.8,40.5h-7.8
		c-0.8,0-1.4-0.6-1.8-1.7l-7.3-23.4c-0.2-0.8-0.5-1.5-0.7-2.3s-0.4-1.5-0.5-2.3c-0.2,0.8-0.3,1.6-0.5,2.3c-0.2,0.8-0.4,1.6-0.6,2.3
		l-7.4,23.3c-0.4,1.2-1.1,1.7-2.1,1.7h-7.5L618.3,679.1z"/>
	<path class="st0" d="M702.3,678.5c2.5,0,4.9,0.4,7,1.2c2.1,0.8,4,2,5.5,3.6c1.6,1.6,2.8,3.5,3.6,5.8c0.9,2.3,1.3,4.9,1.3,7.8
		c0,0.7,0,1.3-0.1,1.8c-0.1,0.5-0.2,0.9-0.4,1.1s-0.4,0.5-0.7,0.6s-0.7,0.2-1.1,0.2h-25c0.3,4.2,1.4,7.2,3.4,9.2
		c1.9,1.9,4.5,2.9,7.7,2.9c1.6,0,2.9-0.2,4.1-0.6c1.1-0.4,2.1-0.8,3-1.2c0.9-0.4,1.6-0.9,2.2-1.2s1.3-0.6,1.9-0.6
		c0.4,0,0.7,0.1,1,0.2c0.3,0.2,0.5,0.4,0.7,0.7l2.8,3.5c-1.1,1.3-2.3,2.3-3.6,3.2c-1.3,0.9-2.7,1.5-4.2,2.1s-2.9,0.9-4.5,1.1
		c-1.5,0.2-3,0.3-4.4,0.3c-2.8,0-5.4-0.5-7.8-1.4s-4.5-2.3-6.3-4.1c-1.8-1.8-3.2-4.1-4.2-6.8c-1-2.7-1.5-5.8-1.5-9.4
		c0-2.8,0.4-5.4,1.3-7.8c0.9-2.4,2.2-4.5,3.8-6.3c1.7-1.8,3.7-3.2,6.1-4.3S699.3,678.5,702.3,678.5z M702.5,685.5
		c-2.8,0-5.1,0.8-6.7,2.4s-2.6,3.9-3.1,6.8h18.3c0-1.3-0.2-2.5-0.5-3.6s-0.9-2.1-1.6-2.9s-1.6-1.5-2.7-2
		C705.2,685.7,704,685.5,702.5,685.5z"/>
	<path class="st0" d="M738.1,661v58.6h-9.7V661H738.1z"/>
	<path class="st0" d="M759.5,661v58.6h-9.7V661H759.5z"/>
	<path class="st0" d="M323.9,814.3h-4.4c-0.9,0-1.6-0.1-2.2-0.4s-0.9-0.8-1.2-1.7l-0.9-2.9c-1,0.9-2,1.7-3,2.4c-1,0.7-2,1.3-3.1,1.8
		c-1.1,0.5-2.2,0.8-3.4,1.1c-1.2,0.2-2.5,0.4-3.9,0.4c-1.7,0-3.3-0.2-4.7-0.7c-1.4-0.5-2.7-1.2-3.7-2.1c-1-0.9-1.8-2.1-2.4-3.4
		c-0.6-1.4-0.9-3-0.9-4.8c0-1.5,0.4-3,1.2-4.5c0.8-1.5,2.1-2.8,4-4c1.9-1.2,4.4-2.2,7.5-3c3.1-0.8,7-1.2,11.6-1.2v-2.4
		c0-2.7-0.6-4.8-1.7-6.1c-1.1-1.3-2.8-2-5-2c-1.6,0-2.9,0.2-3.9,0.6c-1.1,0.4-2,0.8-2.7,1.2c-0.8,0.5-1.5,0.9-2.1,1.2
		c-0.7,0.4-1.4,0.6-2.2,0.6c-0.7,0-1.2-0.2-1.7-0.5c-0.5-0.3-0.9-0.8-1.1-1.3l-1.8-3.1c4.7-4.3,10.3-6.4,16.8-6.4
		c2.4,0,4.5,0.4,6.3,1.2c1.9,0.8,3.4,1.9,4.7,3.2c1.3,1.4,2.3,3,2.9,5c0.7,1.9,1,4,1,6.3V814.3z M305,808.2c1,0,1.9-0.1,2.8-0.3
		c0.8-0.2,1.6-0.5,2.4-0.8s1.5-0.8,2.2-1.3c0.7-0.5,1.4-1.2,2.1-1.9v-6.8c-2.8,0-5.2,0.2-7.1,0.5c-1.9,0.4-3.4,0.8-4.6,1.4
		c-1.2,0.6-2,1.2-2.5,1.9c-0.5,0.7-0.7,1.5-0.7,2.4c0,1.7,0.5,3,1.5,3.7C302,807.8,303.4,808.2,305,808.2z"/>
	<path class="st0" d="M357.5,781.7c-0.3,0.4-0.5,0.7-0.8,0.9s-0.7,0.3-1.1,0.3c-0.5,0-1-0.1-1.5-0.4c-0.5-0.3-1.2-0.6-1.9-0.9
		s-1.5-0.6-2.4-0.9s-2-0.4-3.2-0.4c-1.9,0-3.4,0.4-4.5,1.2c-1.1,0.8-1.7,1.9-1.7,3.2c0,0.9,0.3,1.6,0.8,2.2c0.6,0.6,1.3,1.1,2.2,1.6
		c0.9,0.4,2,0.8,3.2,1.2c1.2,0.4,2.4,0.7,3.6,1.2c1.2,0.4,2.4,0.9,3.6,1.4s2.2,1.2,3.2,2.1s1.7,1.8,2.2,3c0.6,1.2,0.8,2.6,0.8,4.2
		c0,1.9-0.4,3.7-1.1,5.4c-0.7,1.6-1.8,3.1-3.1,4.3c-1.4,1.2-3.1,2.1-5.1,2.8c-2,0.7-4.3,1-6.9,1c-1.4,0-2.8-0.1-4.1-0.4
		c-1.3-0.3-2.6-0.6-3.8-1c-1.2-0.4-2.4-1-3.4-1.6c-1-0.6-2-1.3-2.7-2l2.2-3.7c0.3-0.4,0.6-0.8,1-1c0.4-0.2,0.9-0.4,1.5-0.4
		c0.6,0,1.2,0.2,1.7,0.5c0.5,0.3,1.2,0.7,1.9,1.1s1.5,0.8,2.5,1.1c1,0.3,2.2,0.5,3.6,0.5c1.2,0,2.1-0.1,3-0.4
		c0.8-0.3,1.5-0.6,2.1-1.1c0.5-0.4,0.9-1,1.2-1.6s0.4-1.2,0.4-1.8c0-0.9-0.3-1.7-0.8-2.3c-0.6-0.6-1.3-1.1-2.2-1.6
		c-0.9-0.4-2-0.8-3.2-1.2c-1.2-0.4-2.4-0.7-3.7-1.2c-1.2-0.4-2.5-0.9-3.7-1.5c-1.2-0.6-2.3-1.3-3.2-2.1c-0.9-0.9-1.7-1.9-2.2-3.2
		c-0.6-1.3-0.8-2.8-0.8-4.6c0-1.7,0.3-3.2,1-4.7s1.6-2.8,2.9-3.9c1.3-1.1,2.9-2,4.8-2.7c1.9-0.7,4.1-1,6.6-1c2.8,0,5.3,0.5,7.6,1.4
		c2.3,0.9,4.2,2.1,5.7,3.6L357.5,781.7z"/>
	<path class="st0" d="M407.2,781.7c-0.3,0.4-0.5,0.7-0.8,0.9c-0.3,0.2-0.7,0.3-1.1,0.3c-0.5,0-1-0.1-1.5-0.4
		c-0.5-0.3-1.2-0.6-1.9-0.9s-1.5-0.6-2.4-0.9s-2-0.4-3.2-0.4c-1.9,0-3.4,0.4-4.5,1.2c-1.1,0.8-1.7,1.9-1.7,3.2
		c0,0.9,0.3,1.6,0.8,2.2s1.3,1.1,2.2,1.6c0.9,0.4,2,0.8,3.2,1.2c1.2,0.4,2.4,0.7,3.6,1.2c1.2,0.4,2.4,0.9,3.6,1.4
		c1.2,0.5,2.2,1.2,3.2,2.1s1.7,1.8,2.2,3c0.6,1.2,0.8,2.6,0.8,4.2c0,1.9-0.4,3.7-1.1,5.4s-1.7,3.1-3.1,4.3c-1.4,1.2-3.1,2.1-5.1,2.8
		c-2,0.7-4.3,1-6.9,1c-1.4,0-2.8-0.1-4.1-0.4c-1.3-0.3-2.6-0.6-3.8-1c-1.2-0.4-2.4-1-3.4-1.6s-2-1.3-2.7-2l2.2-3.7
		c0.3-0.4,0.6-0.8,1-1c0.4-0.2,0.9-0.4,1.5-0.4s1.2,0.2,1.7,0.5c0.5,0.3,1.2,0.7,1.9,1.1s1.5,0.8,2.5,1.1s2.2,0.5,3.6,0.5
		c1.2,0,2.1-0.1,3-0.4c0.8-0.3,1.5-0.6,2.1-1.1c0.5-0.4,0.9-1,1.2-1.6c0.2-0.6,0.4-1.2,0.4-1.8c0-0.9-0.3-1.7-0.8-2.3
		c-0.6-0.6-1.3-1.1-2.2-1.6c-0.9-0.4-2-0.8-3.2-1.2c-1.2-0.4-2.4-0.7-3.7-1.2c-1.2-0.4-2.5-0.9-3.7-1.5c-1.2-0.6-2.3-1.3-3.2-2.1
		c-0.9-0.9-1.7-1.9-2.2-3.2c-0.6-1.3-0.8-2.8-0.8-4.6c0-1.7,0.3-3.2,1-4.7c0.7-1.5,1.6-2.8,2.9-3.9c1.3-1.1,2.9-2,4.8-2.7
		s4.1-1,6.6-1c2.8,0,5.3,0.5,7.6,1.4c2.3,0.9,4.2,2.1,5.7,3.6L407.2,781.7z"/>
	<path class="st0" d="M431,814.9c-3.5,0-6.2-1-8.1-3c-1.9-2-2.8-4.7-2.8-8.2v-22.6h-4.1c-0.5,0-1-0.2-1.4-0.5
		c-0.4-0.3-0.6-0.9-0.6-1.5v-3.9l6.5-1.1l2.1-11c0.1-0.5,0.3-0.9,0.7-1.2c0.4-0.3,0.9-0.4,1.4-0.4h5v12.7h10.6v6.9h-10.6V803
		c0,1.3,0.3,2.2,0.9,3s1.5,1.1,2.5,1.1c0.6,0,1.1-0.1,1.5-0.2c0.4-0.1,0.8-0.3,1.1-0.5c0.3-0.2,0.6-0.3,0.8-0.5
		c0.2-0.1,0.5-0.2,0.7-0.2c0.3,0,0.5,0.1,0.7,0.2c0.2,0.1,0.4,0.4,0.6,0.7l2.9,4.7c-1.4,1.2-3.1,2.1-4.9,2.7
		C434.8,814.6,432.9,814.9,431,814.9z"/>
	<path class="st0" d="M457.1,773.8v25.7c0,2.5,0.6,4.4,1.7,5.7c1.1,1.4,2.9,2,5.1,2c1.7,0,3.3-0.4,4.7-1.1c1.5-0.7,2.9-1.8,4.2-3.1
		v-29.3h9.7v40.5h-6c-1.3,0-2.1-0.6-2.5-1.8l-0.7-3.2c-0.8,0.8-1.7,1.6-2.6,2.3c-0.9,0.7-1.8,1.3-2.9,1.8c-1,0.5-2.1,0.9-3.3,1.1
		c-1.2,0.3-2.4,0.4-3.8,0.4c-2.2,0-4.2-0.4-5.9-1.1c-1.7-0.7-3.1-1.8-4.3-3.2c-1.2-1.4-2-3-2.6-4.9s-0.9-4-0.9-6.2v-25.7H457.1z"/>
	<path class="st0" d="M521.5,814.3c-1.3,0-2.1-0.6-2.5-1.8l-0.8-3.9c-0.8,0.9-1.7,1.8-2.6,2.6c-0.9,0.8-1.9,1.4-3,2
		c-1.1,0.6-2.2,1-3.4,1.3c-1.2,0.3-2.5,0.5-4,0.5c-2.2,0-4.2-0.5-6.1-1.4c-1.8-0.9-3.4-2.3-4.8-4c-1.3-1.7-2.4-3.9-3.1-6.5
		c-0.7-2.6-1.1-5.5-1.1-8.8c0-3,0.4-5.8,1.2-8.4c0.8-2.6,2-4.8,3.5-6.7c1.5-1.9,3.4-3.4,5.5-4.4c2.1-1.1,4.5-1.6,7.2-1.6
		c2.3,0,4.2,0.4,5.8,1.1s3,1.7,4.3,2.9v-21.4h9.7v58.6H521.5z M508.5,807.1c2,0,3.7-0.4,5.2-1.3c1.4-0.8,2.8-2,4-3.6v-18.1
		c-1.1-1.3-2.3-2.3-3.6-2.8c-1.3-0.6-2.7-0.8-4.2-0.8c-1.5,0-2.8,0.3-4,0.8c-1.2,0.6-2.2,1.4-3,2.5c-0.8,1.1-1.5,2.5-1.9,4.3
		c-0.4,1.7-0.7,3.8-0.7,6.1c0,2.4,0.2,4.4,0.6,6c0.4,1.6,0.9,3,1.6,4s1.6,1.8,2.6,2.2S507.3,807.1,508.5,807.1z"/>
	<path class="st0" d="M554.7,773.2c2.5,0,4.9,0.4,7,1.2c2.1,0.8,4,2,5.5,3.6c1.6,1.6,2.8,3.5,3.6,5.8c0.9,2.3,1.3,4.9,1.3,7.8
		c0,0.7,0,1.3-0.1,1.8c-0.1,0.5-0.2,0.9-0.4,1.1s-0.4,0.5-0.7,0.6s-0.7,0.2-1.1,0.2h-25c0.3,4.2,1.4,7.2,3.4,9.2
		c1.9,1.9,4.5,2.9,7.7,2.9c1.6,0,2.9-0.2,4.1-0.6c1.1-0.4,2.1-0.8,3-1.2c0.9-0.4,1.6-0.9,2.2-1.2s1.3-0.6,1.9-0.6
		c0.4,0,0.7,0.1,1,0.2c0.3,0.2,0.5,0.4,0.7,0.7l2.8,3.5c-1.1,1.3-2.3,2.3-3.6,3.2c-1.3,0.9-2.7,1.5-4.2,2.1s-2.9,0.9-4.5,1.1
		c-1.5,0.2-3,0.3-4.4,0.3c-2.8,0-5.4-0.5-7.8-1.4s-4.5-2.3-6.3-4.1c-1.8-1.8-3.2-4.1-4.2-6.8c-1-2.7-1.5-5.8-1.5-9.4
		c0-2.8,0.4-5.4,1.3-7.8c0.9-2.4,2.2-4.5,3.8-6.3c1.7-1.8,3.7-3.2,6.1-4.3S551.7,773.2,554.7,773.2z M554.9,780.1
		c-2.8,0-5.1,0.8-6.7,2.4s-2.6,3.9-3.1,6.8h18.3c0-1.3-0.2-2.5-0.5-3.6s-0.9-2.1-1.6-2.9s-1.6-1.5-2.7-2
		C557.6,780.4,556.4,780.1,554.9,780.1z"/>
	<path class="st0" d="M580.2,814.3v-40.5h6c1.3,0,2.1,0.6,2.5,1.8l0.7,3.2c0.8-0.8,1.7-1.6,2.6-2.3c0.9-0.7,1.9-1.3,2.9-1.8
		c1-0.5,2.1-0.9,3.3-1.1c1.2-0.3,2.4-0.4,3.8-0.4c2.2,0,4.2,0.4,5.9,1.1c1.7,0.8,3.1,1.8,4.3,3.2c1.1,1.4,2,3,2.6,4.9s0.9,4,0.9,6.2
		v25.8h-9.7v-25.8c0-2.5-0.6-4.4-1.7-5.7s-2.9-2-5.1-2c-1.7,0-3.3,0.4-4.7,1.1s-2.9,1.8-4.2,3.1v29.3H580.2z"/>
	<path class="st0" d="M638.3,814.9c-3.5,0-6.2-1-8.1-3c-1.9-2-2.8-4.7-2.8-8.2v-22.6h-4.1c-0.5,0-1-0.2-1.4-0.5
		c-0.4-0.3-0.6-0.9-0.6-1.5v-3.9l6.5-1.1l2.1-11c0.1-0.5,0.3-0.9,0.7-1.2c0.4-0.3,0.9-0.4,1.4-0.4h5v12.7h10.6v6.9h-10.6V803
		c0,1.3,0.3,2.2,0.9,3s1.5,1.1,2.5,1.1c0.6,0,1.1-0.1,1.5-0.2c0.4-0.1,0.8-0.3,1.1-0.5c0.3-0.2,0.6-0.3,0.8-0.5
		c0.2-0.1,0.5-0.2,0.7-0.2c0.3,0,0.5,0.1,0.7,0.2c0.2,0.1,0.4,0.4,0.6,0.7l2.9,4.7c-1.4,1.2-3.1,2.1-4.9,2.7
		C642.2,814.6,640.3,814.9,638.3,814.9z"/>
	<path class="st0" d="M679.6,781.7c-0.3,0.4-0.5,0.7-0.8,0.9c-0.3,0.2-0.7,0.3-1.1,0.3c-0.5,0-1-0.1-1.5-0.4
		c-0.5-0.3-1.2-0.6-1.9-0.9s-1.5-0.6-2.4-0.9s-2-0.4-3.2-0.4c-1.9,0-3.4,0.4-4.5,1.2c-1.1,0.8-1.7,1.9-1.7,3.2
		c0,0.9,0.3,1.6,0.8,2.2s1.3,1.1,2.2,1.6c0.9,0.4,2,0.8,3.2,1.2c1.2,0.4,2.4,0.7,3.6,1.2c1.2,0.4,2.4,0.9,3.6,1.4
		c1.2,0.5,2.2,1.2,3.2,2.1s1.7,1.8,2.2,3c0.6,1.2,0.8,2.6,0.8,4.2c0,1.9-0.4,3.7-1.1,5.4s-1.7,3.1-3.1,4.3c-1.4,1.2-3.1,2.1-5.1,2.8
		c-2,0.7-4.3,1-6.9,1c-1.4,0-2.8-0.1-4.1-0.4c-1.3-0.3-2.6-0.6-3.8-1c-1.2-0.4-2.4-1-3.4-1.6s-2-1.3-2.7-2l2.2-3.7
		c0.3-0.4,0.6-0.8,1-1c0.4-0.2,0.9-0.4,1.5-0.4s1.2,0.2,1.7,0.5c0.5,0.3,1.2,0.7,1.9,1.1s1.5,0.8,2.5,1.1s2.2,0.5,3.6,0.5
		c1.2,0,2.1-0.1,3-0.4c0.8-0.3,1.5-0.6,2.1-1.1c0.5-0.4,0.9-1,1.2-1.6c0.2-0.6,0.4-1.2,0.4-1.8c0-0.9-0.3-1.7-0.8-2.3
		c-0.6-0.6-1.3-1.1-2.2-1.6c-0.9-0.4-2-0.8-3.2-1.2c-1.2-0.4-2.4-0.7-3.7-1.2c-1.2-0.4-2.5-0.9-3.7-1.5c-1.2-0.6-2.3-1.3-3.2-2.1
		c-0.9-0.9-1.7-1.9-2.2-3.2c-0.6-1.3-0.8-2.8-0.8-4.6c0-1.7,0.3-3.2,1-4.7c0.7-1.5,1.6-2.8,2.9-3.9c1.3-1.1,2.9-2,4.8-2.7
		s4.1-1,6.6-1c2.8,0,5.3,0.5,7.6,1.4c2.3,0.9,4.2,2.1,5.7,3.6L679.6,781.7z"/>
</g>
</svg>
