<?xml version="1.0" encoding="utf-8"?>
<!-- Generator: Adobe Illustrator 19.0.0, SVG Export Plug-In . SVG Version: 6.00 Build 0)  -->
<svg version="1.1" id="Layer_1" xmlns="http://www.w3.org/2000/svg" xmlns:xlink="http://www.w3.org/1999/xlink" x="0px" y="0px"
	 viewBox="108 49.6 828 695.4" style="enable-background:new 108 49.6 828 695.4;" xml:space="preserve">
<style type="text/css">
	.st0{fill:#363F4A;}
</style>
<g>
	<path class="st0" d="M677.9,579.6c23-28,40-59,52-92s18-68,18-104c0-85-34-161-89-217c-56-55-132-89-217-89s-161,34-217,89
		c-55,56-89,132-89,217s34,161,89,217c56,55,132,89,217,89c26,0,51-3,74-9c24-6,47-14,68-26c3-1,6-2,9-1l0,0l256,49l-168-102
		c-7-4-9-13-5-19C676.9,580.6,676.9,579.6,677.9,579.6z M755.9,497.6c-11,31-27,60-47,87l220,135c5,2,8,8,7,14c-2,8-9,13-16,11
		l-327-63c-23,11-46,20-70,26c-26,7-53,10-81,10c-92,0-176-37-236-98c-61-60-98-144-98-236s37-176,98-236c60-61,144-98,236-98
		s176,37,236,98c61,60,98,144,98,236C775.9,422.6,769.9,460.6,755.9,497.6z"/>
</g>
<g>
	<path class="st0" d="M295.3,356.2H281v-33.5H245v33.5h-14.4v-76.6H245v33H281v-33h14.4V356.2z"/>
	<path class="st0" d="M333.3,301c4.1,0,7.7,0.7,11.1,2c3.3,1.3,6.1,3.2,8.5,5.6c2.3,2.4,4.1,5.3,5.4,8.8c1.3,3.5,1.9,7.3,1.9,11.6
		c0,4.3-0.6,8.2-1.9,11.7c-1.3,3.5-3.1,6.4-5.4,8.9c-2.3,2.4-5.1,4.3-8.5,5.6c-3.3,1.3-7,2-11.1,2c-4.1,0-7.8-0.7-11.1-2
		c-3.3-1.3-6.2-3.2-8.5-5.6c-2.4-2.4-4.2-5.4-5.5-8.9c-1.3-3.5-1.9-7.3-1.9-11.7c0-4.3,0.6-8.1,1.9-11.6c1.3-3.5,3.1-6.4,5.5-8.8
		c2.3-2.4,5.2-4.3,8.5-5.6C325.5,301.6,329.2,301,333.3,301z M333.3,346.9c4.5,0,7.9-1.5,10-4.6c2.2-3,3.3-7.5,3.3-13.4
		c0-5.9-1.1-10.3-3.3-13.4c-2.2-3.1-5.5-4.6-10-4.6c-4.6,0-8,1.5-10.2,4.6c-2.2,3.1-3.3,7.6-3.3,13.4c0,5.8,1.1,10.3,3.3,13.3
		C325.3,345.4,328.7,346.9,333.3,346.9z"/>
	<path class="st0" d="M363.7,301.8h10.4c1,0,1.8,0.2,2.5,0.7c0.7,0.5,1.1,1,1.3,1.7l7.8,29c0.4,1.6,0.8,3.1,1,4.7
		c0.3,1.5,0.5,3,0.8,4.6c0.4-1.5,0.8-3,1.2-4.6c0.4-1.5,0.9-3.1,1.4-4.7l9-29.1c0.2-0.7,0.6-1.3,1.3-1.7c0.6-0.5,1.4-0.7,2.2-0.7
		h5.8c1,0,1.7,0.2,2.4,0.7c0.6,0.5,1.1,1,1.3,1.7l8.9,29.7c0.5,1.5,0.9,3,1.2,4.4c0.4,1.4,0.7,2.9,1.1,4.3c0.2-1.5,0.5-3,0.8-4.6
		c0.3-1.5,0.7-3.1,1.1-4.7l8.1-29c0.2-0.7,0.6-1.3,1.3-1.7c0.7-0.5,1.4-0.7,2.3-0.7h9.9l-17.2,54.4H419c-1.1,0-1.9-0.8-2.4-2.3
		l-9.8-31.4c-0.3-1-0.6-2.1-0.9-3.1c-0.3-1-0.5-2.1-0.7-3.1c-0.2,1.1-0.4,2.1-0.7,3.2c-0.2,1-0.5,2.1-0.8,3.2l-9.9,31.3
		c-0.5,1.6-1.4,2.3-2.9,2.3h-10L363.7,301.8z"/>
	<path class="st0" d="M468,301.8h10.4c1,0,1.8,0.2,2.5,0.7c0.7,0.5,1.1,1,1.3,1.7l7.8,29c0.4,1.6,0.8,3.1,1,4.7
		c0.3,1.5,0.5,3,0.8,4.6c0.4-1.5,0.8-3,1.2-4.6c0.4-1.5,0.9-3.1,1.4-4.7l9-29.1c0.2-0.7,0.6-1.3,1.3-1.7c0.6-0.5,1.4-0.7,2.2-0.7
		h5.8c1,0,1.7,0.2,2.4,0.7c0.6,0.5,1.1,1,1.3,1.7l8.9,29.7c0.5,1.5,0.9,3,1.2,4.4c0.4,1.4,0.7,2.9,1.1,4.3c0.2-1.5,0.5-3,0.8-4.6
		c0.3-1.5,0.7-3.1,1.1-4.7l8.1-29c0.2-0.7,0.6-1.3,1.3-1.7c0.7-0.5,1.4-0.7,2.3-0.7h9.9l-17.2,54.4h-10.5c-1.1,0-1.9-0.8-2.4-2.3
		l-9.8-31.4c-0.3-1-0.6-2.1-0.9-3.1c-0.3-1-0.5-2.1-0.7-3.1c-0.2,1.1-0.4,2.1-0.7,3.2c-0.2,1-0.5,2.1-0.8,3.2l-9.9,31.3
		c-0.5,1.6-1.4,2.3-2.9,2.3h-10L468,301.8z"/>
	<path class="st0" d="M601.1,356.2h-5.9c-1.2,0-2.2-0.2-2.9-0.6c-0.7-0.4-1.2-1.1-1.6-2.3l-1.2-3.9c-1.4,1.2-2.7,2.3-4.1,3.3
		c-1.3,0.9-2.7,1.7-4.1,2.4c-1.4,0.6-2.9,1.1-4.5,1.4c-1.6,0.3-3.4,0.5-5.3,0.5c-2.3,0-4.4-0.3-6.4-0.9c-1.9-0.6-3.6-1.6-5-2.8
		c-1.4-1.2-2.5-2.8-3.3-4.6c-0.8-1.8-1.2-4-1.2-6.4c0-2.1,0.5-4.1,1.6-6.1c1.1-2,2.9-3.8,5.4-5.4c2.5-1.6,5.8-3,10-4
		c4.2-1.1,9.3-1.6,15.5-1.6v-3.2c0-3.7-0.8-6.4-2.3-8.1s-3.8-2.6-6.7-2.6c-2.1,0-3.9,0.2-5.3,0.7c-1.4,0.5-2.6,1.1-3.7,1.7
		c-1,0.6-2,1.2-2.9,1.7c-0.9,0.5-1.9,0.7-2.9,0.7c-0.9,0-1.6-0.2-2.3-0.7c-0.6-0.5-1.1-1-1.5-1.7l-2.4-4.2
		c6.3-5.7,13.8-8.6,22.6-8.6c3.2,0,6,0.5,8.5,1.6c2.5,1,4.6,2.5,6.3,4.3c1.7,1.9,3,4.1,3.9,6.7c0.9,2.6,1.4,5.4,1.4,8.5V356.2z
		 M575.6,348c1.3,0,2.6-0.1,3.7-0.4c1.1-0.2,2.2-0.6,3.2-1.1c1-0.5,2-1.1,2.9-1.8c0.9-0.7,1.9-1.6,2.8-2.5v-9.1
		c-3.8,0-7,0.2-9.6,0.7c-2.6,0.5-4.6,1.1-6.2,1.8c-1.6,0.7-2.7,1.6-3.3,2.6c-0.7,1-1,2.1-1,3.3c0,2.3,0.7,4,2,5
		C571.7,347.5,573.4,348,575.6,348z"/>
	<path class="st0" d="M646.2,312.4c-0.4,0.6-0.7,1-1.1,1.2c-0.4,0.2-0.9,0.3-1.5,0.3c-0.6,0-1.3-0.2-2-0.5c-0.7-0.4-1.6-0.8-2.5-1.2
		c-1-0.4-2-0.8-3.3-1.2c-1.2-0.4-2.7-0.5-4.3-0.5c-2.6,0-4.6,0.5-6.1,1.6c-1.5,1.1-2.2,2.5-2.2,4.3c0,1.2,0.4,2.1,1.1,2.9
		c0.8,0.8,1.8,1.5,3,2.1c1.3,0.6,2.7,1.1,4.3,1.6s3.2,1,4.9,1.6c1.7,0.6,3.3,1.2,4.9,1.9c1.6,0.7,3,1.6,4.3,2.8s2.3,2.4,3,4
		c0.8,1.6,1.1,3.4,1.1,5.6c0,2.6-0.5,5-1.4,7.2c-1,2.2-2.3,4.1-4.2,5.7c-1.8,1.6-4.1,2.9-6.8,3.8s-5.8,1.4-9.3,1.4
		c-1.9,0-3.7-0.2-5.5-0.5c-1.8-0.3-3.5-0.8-5.1-1.4c-1.6-0.6-3.2-1.3-4.6-2.1c-1.4-0.8-2.6-1.7-3.7-2.7l3-5c0.4-0.6,0.8-1.1,1.4-1.4
		c0.5-0.3,1.2-0.5,2-0.5c0.8,0,1.6,0.2,2.3,0.7c0.7,0.5,1.6,1,2.5,1.5c1,0.5,2.1,1,3.4,1.5c1.3,0.5,2.9,0.7,4.9,0.7
		c1.6,0,2.9-0.2,4-0.6c1.1-0.4,2-0.9,2.8-1.5c0.7-0.6,1.3-1.3,1.6-2.1s0.5-1.6,0.5-2.5c0-1.3-0.4-2.3-1.1-3.1
		c-0.8-0.8-1.8-1.5-3-2.1c-1.3-0.6-2.7-1.1-4.3-1.6c-1.6-0.5-3.3-1-4.9-1.6c-1.7-0.6-3.3-1.2-4.9-2c-1.6-0.8-3-1.7-4.3-2.9
		c-1.3-1.2-2.3-2.6-3-4.3c-0.8-1.7-1.1-3.7-1.1-6.1c0-2.2,0.4-4.3,1.3-6.4c0.9-2,2.2-3.8,3.9-5.3c1.7-1.5,3.9-2.7,6.4-3.6
		c2.6-0.9,5.5-1.4,8.9-1.4c3.7,0,7.2,0.6,10.2,1.9c3.1,1.2,5.6,2.9,7.7,4.9L646.2,312.4z"/>
	<path class="st0" d="M208.9,498.3c-0.4,0.9-0.9,1.6-1.5,2.1c-0.6,0.5-1.6,0.7-2.8,0.7h-9.8l10.2-21.8l-22-50.3h11.4
		c1.1,0,1.9,0.2,2.4,0.7c0.6,0.5,1,1.1,1.3,1.7l11.6,28.2c0.4,0.9,0.7,1.9,1,2.9c0.3,1,0.5,2,0.7,3c0.3-1,0.6-2,0.9-3
		c0.3-1,0.7-1.9,1.1-2.9l10.9-28.1c0.3-0.7,0.8-1.3,1.4-1.7c0.7-0.5,1.4-0.7,2.2-0.7h10.5L208.9,498.3z"/>
	<path class="st0" d="M267.6,428.2c4.1,0,7.7,0.7,11.1,2c3.3,1.3,6.1,3.2,8.5,5.6c2.3,2.4,4.1,5.3,5.4,8.8c1.3,3.5,1.9,7.3,1.9,11.6
		c0,4.3-0.6,8.2-1.9,11.7c-1.3,3.5-3.1,6.4-5.4,8.9c-2.3,2.4-5.1,4.3-8.5,5.6c-3.3,1.3-7,2-11.1,2c-4.1,0-7.8-0.7-11.1-2
		c-3.3-1.3-6.2-3.2-8.5-5.6c-2.4-2.4-4.2-5.4-5.5-8.9c-1.3-3.5-1.9-7.3-1.9-11.7c0-4.3,0.6-8.1,1.9-11.6c1.3-3.5,3.1-6.4,5.5-8.8
		c2.3-2.4,5.2-4.3,8.5-5.6C259.8,428.8,263.5,428.2,267.6,428.2z M267.6,474.1c4.5,0,7.9-1.5,10-4.6c2.2-3,3.3-7.5,3.3-13.4
		c0-5.9-1.1-10.3-3.3-13.4c-2.2-3.1-5.5-4.6-10-4.6c-4.6,0-8,1.5-10.2,4.6c-2.2,3.1-3.3,7.6-3.3,13.4s1.1,10.3,3.3,13.3
		C259.6,472.6,263,474.1,267.6,474.1z"/>
	<path class="st0" d="M316.6,429v34.6c0,3.3,0.8,5.9,2.3,7.7c1.5,1.8,3.8,2.7,6.9,2.7c2.3,0,4.4-0.5,6.4-1.5c2-1,3.9-2.4,5.6-4.2
		V429h13.1v54.4h-8c-1.7,0-2.8-0.8-3.3-2.4l-0.9-4.3c-1.1,1.1-2.3,2.2-3.5,3.1c-1.2,0.9-2.5,1.7-3.8,2.4c-1.4,0.7-2.8,1.2-4.4,1.5
		c-1.6,0.4-3.3,0.6-5.1,0.6c-3,0-5.6-0.5-7.9-1.5c-2.3-1-4.2-2.4-5.8-4.3c-1.6-1.8-2.7-4-3.5-6.5c-0.8-2.5-1.2-5.3-1.2-8.3V429
		H316.6z"/>
	<path class="st0" d="M364.9,483.4V429h7.7c1.3,0,2.3,0.2,2.8,0.7c0.5,0.5,0.9,1.3,1.1,2.5l0.8,6.6c1.9-3.4,4.2-6,6.8-8
		c2.6-1.9,5.5-2.9,8.8-2.9c2.7,0,4.9,0.6,6.7,1.9l-1.7,9.8c-0.1,0.6-0.3,1.1-0.7,1.4c-0.4,0.3-0.8,0.4-1.4,0.4
		c-0.5,0-1.3-0.1-2.2-0.4c-0.9-0.2-2.1-0.4-3.7-0.4c-2.7,0-5.1,0.8-7,2.3c-1.9,1.5-3.6,3.7-4.9,6.6v33.9H364.9z"/>
	<path class="st0" d="M466.8,440.5c-0.4,0.5-0.8,0.9-1.1,1.2c-0.4,0.3-0.9,0.4-1.6,0.4c-0.7,0-1.3-0.2-2-0.6
		c-0.6-0.4-1.4-0.9-2.3-1.4c-0.9-0.5-1.9-1-3.2-1.4c-1.2-0.4-2.7-0.6-4.5-0.6c-2.3,0-4.3,0.4-6,1.2c-1.7,0.8-3.2,2-4.3,3.6
		c-1.1,1.6-2,3.4-2.6,5.6c-0.6,2.2-0.8,4.7-0.8,7.5c0,2.9,0.3,5.5,0.9,7.7c0.6,2.3,1.5,4.2,2.7,5.7s2.6,2.7,4.2,3.5
		c1.7,0.8,3.5,1.2,5.6,1.2c2.1,0,3.8-0.3,5.1-0.8c1.3-0.5,2.4-1.1,3.3-1.7c0.9-0.6,1.7-1.2,2.3-1.7c0.7-0.5,1.4-0.8,2.2-0.8
		c1.1,0,1.9,0.4,2.4,1.2l3.8,4.8c-1.4,1.7-3,3.1-4.7,4.3c-1.7,1.1-3.5,2.1-5.3,2.8c-1.8,0.7-3.7,1.2-5.6,1.5
		c-1.9,0.3-3.9,0.4-5.8,0.4c-3.4,0-6.5-0.6-9.5-1.9c-3-1.3-5.6-3.1-7.8-5.5c-2.2-2.4-4-5.3-5.2-8.8c-1.3-3.5-1.9-7.4-1.9-11.9
		c0-4,0.6-7.7,1.7-11.1c1.1-3.4,2.8-6.4,5.1-8.9c2.2-2.5,5-4.4,8.3-5.9c3.3-1.4,7.1-2.1,11.3-2.1c4.1,0,7.6,0.7,10.7,2
		c3.1,1.3,5.8,3.2,8.2,5.6L466.8,440.5z"/>
	<path class="st0" d="M493.1,404.6v78.8H480v-78.8H493.1z"/>
	<path class="st0" d="M550.5,483.4h-5.9c-1.2,0-2.2-0.2-2.9-0.6s-1.2-1.1-1.6-2.3l-1.2-3.9c-1.4,1.2-2.7,2.3-4.1,3.3
		c-1.3,0.9-2.7,1.7-4.1,2.4c-1.4,0.6-2.9,1.1-4.5,1.4s-3.4,0.5-5.3,0.5c-2.3,0-4.4-0.3-6.4-0.9c-1.9-0.6-3.6-1.6-5-2.8
		c-1.4-1.2-2.5-2.8-3.3-4.6c-0.8-1.8-1.2-4-1.2-6.4c0-2.1,0.5-4.1,1.6-6.1c1.1-2,2.9-3.8,5.4-5.4c2.5-1.6,5.8-3,10-4
		c4.2-1.1,9.3-1.6,15.5-1.6v-3.2c0-3.7-0.8-6.4-2.3-8.1c-1.5-1.8-3.8-2.6-6.7-2.6c-2.1,0-3.9,0.2-5.3,0.7c-1.4,0.5-2.6,1.1-3.7,1.7
		c-1,0.6-2,1.2-2.9,1.7c-0.9,0.5-1.9,0.7-2.9,0.7c-0.9,0-1.6-0.2-2.3-0.7c-0.6-0.5-1.1-1-1.5-1.7l-2.4-4.2
		c6.3-5.7,13.8-8.6,22.6-8.6c3.2,0,6,0.5,8.5,1.6c2.5,1,4.6,2.5,6.3,4.3c1.7,1.9,3,4.1,3.9,6.7c0.9,2.6,1.4,5.4,1.4,8.5V483.4z
		 M525.1,475.2c1.3,0,2.6-0.1,3.7-0.4c1.1-0.2,2.2-0.6,3.2-1.1c1-0.5,2-1.1,2.9-1.8c0.9-0.7,1.9-1.6,2.8-2.5v-9.1
		c-3.8,0-7,0.2-9.6,0.7s-4.6,1.1-6.2,1.8c-1.6,0.7-2.7,1.6-3.3,2.6s-1,2.1-1,3.3c0,2.3,0.7,4,2,5
		C521.1,474.7,522.9,475.2,525.1,475.2z"/>
	<path class="st0" d="M595.7,439.6c-0.4,0.6-0.7,1-1.1,1.2c-0.4,0.2-0.9,0.3-1.5,0.3c-0.6,0-1.3-0.2-2-0.5c-0.7-0.4-1.6-0.8-2.5-1.2
		s-2-0.8-3.3-1.2s-2.7-0.5-4.3-0.5c-2.6,0-4.6,0.5-6.1,1.6c-1.5,1.1-2.2,2.5-2.2,4.3c0,1.2,0.4,2.1,1.1,2.9c0.8,0.8,1.8,1.5,3,2.1
		c1.3,0.6,2.7,1.1,4.3,1.6c1.6,0.5,3.2,1,4.9,1.6c1.7,0.6,3.3,1.2,4.9,1.9c1.6,0.7,3,1.6,4.3,2.8s2.3,2.4,3,4
		c0.8,1.6,1.1,3.4,1.1,5.6c0,2.6-0.5,5-1.4,7.2c-1,2.2-2.3,4.1-4.2,5.7c-1.8,1.6-4.1,2.9-6.8,3.8c-2.7,0.9-5.8,1.4-9.3,1.4
		c-1.9,0-3.7-0.2-5.5-0.5c-1.8-0.3-3.5-0.8-5.1-1.4c-1.6-0.6-3.2-1.3-4.6-2.1c-1.4-0.8-2.6-1.7-3.7-2.7l3-5c0.4-0.6,0.8-1.1,1.4-1.4
		c0.5-0.3,1.2-0.5,2-0.5c0.8,0,1.6,0.2,2.3,0.7c0.7,0.5,1.6,1,2.5,1.5c1,0.5,2.1,1,3.4,1.5c1.3,0.5,2.9,0.7,4.9,0.7
		c1.6,0,2.9-0.2,4-0.6c1.1-0.4,2-0.9,2.8-1.5c0.7-0.6,1.3-1.3,1.6-2.1s0.5-1.6,0.5-2.5c0-1.3-0.4-2.3-1.1-3.1
		c-0.8-0.8-1.8-1.5-3-2.1c-1.3-0.6-2.7-1.1-4.3-1.6c-1.6-0.5-3.3-1-4.9-1.6c-1.7-0.6-3.3-1.2-4.9-2c-1.6-0.8-3-1.7-4.3-2.9
		c-1.3-1.2-2.3-2.6-3-4.3c-0.8-1.7-1.1-3.7-1.1-6.1c0-2.2,0.4-4.3,1.3-6.4c0.9-2,2.2-3.8,3.9-5.3c1.7-1.5,3.9-2.7,6.4-3.6
		c2.6-0.9,5.5-1.4,8.9-1.4c3.7,0,7.2,0.6,10.2,1.9c3.1,1.2,5.6,2.9,7.7,4.9L595.7,439.6z"/>
	<path class="st0" d="M642,439.6c-0.4,0.6-0.7,1-1.1,1.2c-0.4,0.2-0.9,0.3-1.5,0.3c-0.6,0-1.3-0.2-2-0.5c-0.7-0.4-1.6-0.8-2.5-1.2
		s-2-0.8-3.3-1.2s-2.7-0.5-4.3-0.5c-2.6,0-4.6,0.5-6.1,1.6c-1.5,1.1-2.2,2.5-2.2,4.3c0,1.2,0.4,2.1,1.1,2.9c0.8,0.8,1.8,1.5,3,2.1
		c1.3,0.6,2.7,1.1,4.3,1.6c1.6,0.5,3.2,1,4.9,1.6c1.7,0.6,3.3,1.2,4.9,1.9c1.6,0.7,3,1.6,4.3,2.8s2.3,2.4,3,4
		c0.8,1.6,1.1,3.4,1.1,5.6c0,2.6-0.5,5-1.4,7.2c-1,2.2-2.3,4.1-4.2,5.7c-1.8,1.6-4.1,2.9-6.8,3.8c-2.7,0.9-5.8,1.4-9.3,1.4
		c-1.9,0-3.7-0.2-5.5-0.5c-1.8-0.3-3.5-0.8-5.1-1.4c-1.6-0.6-3.2-1.3-4.6-2.1c-1.4-0.8-2.6-1.7-3.7-2.7l3-5c0.4-0.6,0.8-1.1,1.4-1.4
		c0.5-0.3,1.2-0.5,2-0.5c0.8,0,1.6,0.2,2.3,0.7c0.7,0.5,1.6,1,2.5,1.5c1,0.5,2.1,1,3.4,1.5c1.3,0.5,2.9,0.7,4.9,0.7
		c1.6,0,2.9-0.2,4-0.6c1.1-0.4,2-0.9,2.8-1.5c0.7-0.6,1.3-1.3,1.6-2.1s0.5-1.6,0.5-2.5c0-1.3-0.4-2.3-1.1-3.1
		c-0.8-0.8-1.8-1.5-3-2.1c-1.3-0.6-2.7-1.1-4.3-1.6c-1.6-0.5-3.3-1-4.9-1.6c-1.7-0.6-3.3-1.2-4.9-2c-1.6-0.8-3-1.7-4.3-2.9
		c-1.3-1.2-2.3-2.6-3-4.3c-0.8-1.7-1.1-3.7-1.1-6.1c0-2.2,0.4-4.3,1.3-6.4c0.9-2,2.2-3.8,3.9-5.3c1.7-1.5,3.9-2.7,6.4-3.6
		c2.6-0.9,5.5-1.4,8.9-1.4c3.7,0,7.2,0.6,10.2,1.9c3.1,1.2,5.6,2.9,7.7,4.9L642,439.6z"/>
	<path class="st0" d="M651,413.7c1.2-1.1,2.5-2.1,3.9-3s3-1.8,4.6-2.5c1.7-0.7,3.5-1.3,5.4-1.7s4-0.6,6.3-0.6c3.1,0,5.9,0.4,8.4,1.3
		s4.7,2.1,6.5,3.6c1.8,1.6,3.2,3.5,4.2,5.7c1,2.2,1.5,4.7,1.5,7.5c0,2.7-0.4,5-1.2,7c-0.8,2-1.8,3.7-2.9,5.1
		c-1.2,1.4-2.5,2.7-3.8,3.8c-1.4,1.1-2.7,2.1-3.9,3c-1.2,0.9-2.3,1.9-3.2,2.8c-0.9,0.9-1.4,1.9-1.6,3l-1.2,7.7h-9l-0.9-8.6
		c0-0.2-0.1-0.3-0.1-0.5s0-0.3,0-0.5c0-1.6,0.4-2.9,1.2-4.1s1.7-2.2,2.9-3.2s2.4-2,3.8-2.9c1.3-1,2.6-2,3.8-3.1
		c1.2-1.1,2.1-2.4,2.9-3.8c0.8-1.4,1.2-3.1,1.2-5c0-1.3-0.2-2.4-0.7-3.4s-1.1-1.9-2-2.6c-0.8-0.7-1.9-1.3-3-1.7
		c-1.2-0.4-2.5-0.6-3.8-0.6c-2,0-3.7,0.2-5.1,0.7c-1.4,0.4-2.6,0.9-3.6,1.5c-1,0.5-1.8,1-2.5,1.5c-0.7,0.4-1.3,0.7-1.8,0.7
		c-1.3,0-2.2-0.5-2.8-1.6L651,413.7z M661,476.2c0-1.1,0.2-2.1,0.6-3.1c0.4-1,1-1.8,1.7-2.5c0.7-0.7,1.6-1.3,2.6-1.7
		c1-0.4,2-0.6,3.2-0.6c1.1,0,2.1,0.2,3.1,0.6c1,0.4,1.8,1,2.5,1.7c0.7,0.7,1.3,1.6,1.7,2.5c0.4,1,0.6,2,0.6,3.1
		c0,1.1-0.2,2.2-0.6,3.2c-0.4,1-1,1.8-1.7,2.5c-0.7,0.7-1.6,1.3-2.5,1.7c-1,0.4-2,0.6-3.1,0.6c-1.1,0-2.2-0.2-3.2-0.6
		c-1-0.4-1.8-1-2.6-1.7c-0.7-0.7-1.3-1.5-1.7-2.5C661.2,478.4,661,477.3,661,476.2z"/>
</g>
</svg>
