<?xml version="1.0" encoding="utf-8"?>
<!-- Generator: Adobe Illustrator 19.0.0, SVG Export Plug-In . SVG Version: 6.00 Build 0)  -->
<svg version="1.1" id="Layer_1" xmlns="http://www.w3.org/2000/svg" xmlns:xlink="http://www.w3.org/1999/xlink" x="0px" y="0px"
	 viewBox="108 -39 828 695.4" style="enable-background:new 108 -39 828 695.4;" xml:space="preserve">
<style type="text/css">
	.st0{fill:#363F4A;}
</style>
<g>
	<path class="st0" d="M678,491c23-28,40-59,52-92s18-68,18-104c0-85-34-161-89-217c-56-55-132-89-217-89S281,23,225,78
		c-55,56-89,132-89,217s34,161,89,217c56,55,132,89,217,89c26,0,51-3,74-9c24-6,47-14,68-26c3-1,6-2,9-1l0,0l256,49L681,512
		c-7-4-9-13-5-19C677,492,677,491,678,491z M756,409c-11,31-27,60-47,87l220,135c5,2,8,8,7,14c-2,8-9,13-16,11l-327-63
		c-23,11-46,20-70,26c-26,7-53,10-81,10c-92,0-176-37-236-98c-61-60-98-144-98-236s37-176,98-236c60-61,144-98,236-98S618-2,678,59
		c61,60,98,144,98,236C776,334,770,372,756,409z"/>
</g>
</svg>
