<?xml version="1.0" encoding="utf-8"?>
<!-- Generator: Adobe Illustrator 19.0.0, SVG Export Plug-In . SVG Version: 6.00 Build 0)  -->
<svg version="1.1" id="Layer_1" xmlns="http://www.w3.org/2000/svg" xmlns:xlink="http://www.w3.org/1999/xlink" x="0px" y="0px"
	 viewBox="108 49.6 828 695.4" style="enable-background:new 108 49.6 828 695.4;" xml:space="preserve">
<style type="text/css">
	.st0{fill:#363F4A;}
</style>
<g>
	<path class="st0" d="M368.1,581.6c4,6,2,15-5,19l-168,102l256-49l0,0c3-1,6,0,9,1c21,12,44,20,68,26c23,6,48,9,74,9
		c85,0,161-34,217-89c55-56,89-132,89-217s-34-161-89-217c-56-55-132-89-217-89s-161,34-217,89c-55,56-89,132-89,217
		c0,36,6,71,18,104s29,64,52,92C367.1,579.6,367.1,580.6,368.1,581.6z M268.1,383.6c0-92,37-176,98-236c60-61,144-98,236-98
		s176,37,236,98c61,60,98,144,98,236s-37,176-98,236c-60,61-144,98-236,98c-28,0-55-3-81-10c-24-6-47-15-70-26l-327,63
		c-7,2-14-3-16-11c-1-6,2-12,7-14l220-135c-20-27-36-56-47-87C274.1,460.6,268.1,422.6,268.1,383.6z"/>
</g>
<g>
	<path class="st0" d="M367.5,364.7h-14.3v-76.6h14.3V364.7z"/>
	<path class="st0" d="M401.8,365.5c-4.7,0-8.3-1.3-10.9-4c-2.5-2.7-3.8-6.4-3.8-11.1v-30.4h-5.5c-0.7,0-1.3-0.2-1.8-0.7
		c-0.5-0.5-0.8-1.1-0.8-2.1v-5.2l8.7-1.4l2.8-14.8c0.1-0.7,0.5-1.3,1-1.6c0.5-0.4,1.2-0.6,1.9-0.6h6.8v17.1h14.3v9.3h-14.3v29.5
		c0,1.7,0.4,3,1.3,4s2,1.4,3.4,1.4c0.8,0,1.5-0.1,2-0.3c0.5-0.2,1-0.4,1.4-0.6c0.4-0.2,0.8-0.4,1.1-0.6c0.3-0.2,0.6-0.3,1-0.3
		c0.4,0,0.7,0.1,1,0.3c0.2,0.2,0.5,0.5,0.8,0.9l3.9,6.4c-1.9,1.6-4.1,2.8-6.6,3.6C407,365.1,404.5,365.5,401.8,365.5z"/>
	<path class="st0" d="M438.8,310.3h10.4c1,0,1.8,0.2,2.5,0.7c0.7,0.5,1.1,1,1.3,1.7l7.8,29c0.4,1.6,0.8,3.1,1,4.7
		c0.3,1.5,0.5,3,0.8,4.6c0.4-1.5,0.8-3,1.2-4.6c0.4-1.5,0.9-3.1,1.4-4.7l9-29.1c0.2-0.7,0.6-1.3,1.3-1.7c0.6-0.5,1.4-0.7,2.2-0.7
		h5.8c1,0,1.7,0.2,2.4,0.7c0.6,0.5,1.1,1,1.3,1.7l8.9,29.7c0.5,1.5,0.9,3,1.2,4.4s0.7,2.9,1.1,4.3c0.2-1.5,0.5-3,0.8-4.6
		c0.3-1.5,0.7-3.1,1.1-4.7l8.1-29c0.2-0.7,0.6-1.3,1.3-1.7c0.7-0.5,1.4-0.7,2.3-0.7h9.9l-17.2,54.4h-10.5c-1.1,0-1.9-0.8-2.4-2.3
		l-9.8-31.4c-0.3-1-0.6-2.1-0.9-3.1c-0.3-1-0.5-2.1-0.7-3.1c-0.2,1.1-0.4,2.1-0.7,3.2c-0.2,1-0.5,2.1-0.8,3.2l-9.9,31.3
		c-0.5,1.6-1.4,2.3-2.9,2.3h-10L438.8,310.3z"/>
	<path class="st0" d="M571.9,364.7H566c-1.2,0-2.2-0.2-2.9-0.6s-1.2-1.1-1.6-2.3l-1.2-3.9c-1.4,1.2-2.7,2.3-4.1,3.3
		c-1.3,0.9-2.7,1.7-4.1,2.4c-1.4,0.6-2.9,1.1-4.5,1.4s-3.4,0.5-5.3,0.5c-2.3,0-4.4-0.3-6.4-0.9c-1.9-0.6-3.6-1.6-5-2.8
		c-1.4-1.2-2.5-2.8-3.3-4.6c-0.8-1.8-1.2-4-1.2-6.4c0-2.1,0.5-4.1,1.6-6.1c1.1-2,2.9-3.8,5.4-5.4c2.5-1.6,5.8-3,10-4
		c4.2-1.1,9.3-1.6,15.5-1.6v-3.2c0-3.7-0.8-6.4-2.3-8.1s-3.8-2.6-6.7-2.6c-2.1,0-3.9,0.2-5.3,0.7c-1.4,0.5-2.6,1.1-3.7,1.7
		c-1,0.6-2,1.2-2.9,1.7c-0.9,0.5-1.9,0.7-2.9,0.7c-0.9,0-1.6-0.2-2.3-0.7c-0.6-0.5-1.1-1-1.5-1.7l-2.4-4.2
		c6.3-5.7,13.8-8.6,22.6-8.6c3.2,0,6,0.5,8.5,1.6c2.5,1,4.6,2.5,6.3,4.3c1.7,1.9,3,4.1,3.9,6.7c0.9,2.6,1.4,5.4,1.4,8.5V364.7z
		 M546.4,356.5c1.3,0,2.6-0.1,3.7-0.4c1.1-0.2,2.2-0.6,3.2-1.1c1-0.5,2-1.1,2.9-1.8c0.9-0.7,1.9-1.6,2.8-2.5v-9.1
		c-3.8,0-7,0.2-9.6,0.7c-2.6,0.5-4.6,1.1-6.2,1.8c-1.6,0.7-2.7,1.6-3.3,2.6c-0.7,1-1,2.1-1,3.3c0,2.3,0.7,4,2,5
		C542.5,356,544.3,356.5,546.4,356.5z"/>
	<path class="st0" d="M617,320.9c-0.4,0.6-0.7,1-1.1,1.2c-0.4,0.2-0.9,0.3-1.5,0.3c-0.6,0-1.3-0.2-2-0.5c-0.7-0.4-1.6-0.8-2.5-1.2
		c-1-0.4-2-0.8-3.3-1.2c-1.2-0.4-2.7-0.5-4.3-0.5c-2.6,0-4.6,0.5-6.1,1.6c-1.5,1.1-2.2,2.5-2.2,4.3c0,1.2,0.4,2.1,1.1,2.9
		s1.8,1.5,3,2.1c1.3,0.6,2.7,1.1,4.3,1.6s3.2,1,4.9,1.6c1.7,0.6,3.3,1.2,4.9,1.9c1.6,0.7,3,1.6,4.3,2.8c1.3,1.1,2.3,2.4,3,4
		c0.8,1.6,1.1,3.4,1.1,5.6c0,2.6-0.5,5-1.4,7.2c-1,2.2-2.4,4.1-4.2,5.7c-1.8,1.6-4.1,2.9-6.8,3.8s-5.8,1.4-9.3,1.4
		c-1.9,0-3.7-0.2-5.5-0.5c-1.8-0.3-3.5-0.8-5.1-1.4c-1.6-0.6-3.2-1.3-4.6-2.1c-1.4-0.8-2.6-1.7-3.7-2.6l3-5c0.4-0.6,0.8-1.1,1.4-1.4
		c0.5-0.3,1.2-0.5,2-0.5c0.8,0,1.6,0.2,2.3,0.7c0.7,0.5,1.6,1,2.5,1.5c1,0.5,2.1,1,3.4,1.5c1.3,0.5,2.9,0.7,4.9,0.7
		c1.6,0,2.9-0.2,4-0.6c1.1-0.4,2-0.9,2.8-1.5c0.7-0.6,1.3-1.3,1.6-2.1c0.3-0.8,0.5-1.6,0.5-2.5c0-1.3-0.4-2.3-1.1-3.1
		c-0.8-0.8-1.8-1.5-3-2.1c-1.3-0.6-2.7-1.1-4.3-1.6c-1.6-0.5-3.3-1-4.9-1.6c-1.7-0.6-3.3-1.2-4.9-2c-1.6-0.8-3-1.7-4.3-2.9
		c-1.3-1.2-2.3-2.6-3-4.3c-0.8-1.7-1.1-3.7-1.1-6.1c0-2.2,0.4-4.3,1.3-6.4c0.9-2,2.2-3.8,3.9-5.3c1.7-1.5,3.9-2.7,6.4-3.6
		c2.6-0.9,5.5-1.4,8.9-1.4c3.7,0,7.2,0.6,10.2,1.9c3.1,1.2,5.6,2.9,7.7,4.9L617,320.9z"/>
	<path class="st0" d="M644.9,310.3h10.4c1,0,1.8,0.2,2.5,0.7c0.7,0.5,1.1,1,1.3,1.7l7.8,29c0.4,1.6,0.8,3.1,1,4.7
		c0.3,1.5,0.5,3,0.8,4.6c0.4-1.5,0.8-3,1.2-4.6c0.4-1.5,0.9-3.1,1.4-4.7l9-29.1c0.2-0.7,0.6-1.3,1.3-1.7c0.6-0.5,1.4-0.7,2.2-0.7
		h5.8c1,0,1.8,0.2,2.4,0.7c0.6,0.5,1.1,1,1.3,1.7l8.9,29.7c0.5,1.5,0.9,3,1.2,4.4s0.7,2.9,1.1,4.3c0.2-1.5,0.5-3,0.8-4.6
		c0.3-1.5,0.7-3.1,1.1-4.7l8.1-29c0.2-0.7,0.6-1.3,1.3-1.7c0.7-0.5,1.4-0.7,2.3-0.7h9.9l-17.2,54.4h-10.5c-1.1,0-1.9-0.8-2.4-2.3
		l-9.8-31.4c-0.3-1-0.6-2.1-0.9-3.1c-0.3-1-0.5-2.1-0.7-3.1c-0.2,1.1-0.4,2.1-0.7,3.2c-0.2,1-0.5,2.1-0.8,3.2l-9.9,31.3
		c-0.5,1.6-1.4,2.3-2.9,2.3h-10L644.9,310.3z"/>
	<path class="st0" d="M757.9,309.5c3.4,0,6.6,0.5,9.5,1.6c2.9,1.1,5.4,2.7,7.4,4.8c2.1,2.1,3.7,4.7,4.9,7.7
		c1.2,3.1,1.7,6.5,1.7,10.5c0,1,0,1.8-0.1,2.5c-0.1,0.7-0.2,1.2-0.5,1.5c-0.2,0.4-0.5,0.6-0.9,0.8c-0.4,0.2-0.9,0.2-1.5,0.2h-33.6
		c0.4,5.6,1.9,9.7,4.5,12.3c2.6,2.6,6.1,3.9,10.4,3.9c2.1,0,3.9-0.2,5.5-0.7c1.5-0.5,2.9-1,4-1.6c1.1-0.6,2.2-1.1,3-1.6
		c0.9-0.5,1.7-0.7,2.5-0.7c0.5,0,1,0.1,1.4,0.3c0.4,0.2,0.7,0.5,1,0.9l3.8,4.8c-1.4,1.7-3.1,3.1-4.9,4.3c-1.8,1.1-3.7,2.1-5.6,2.8
		c-2,0.7-4,1.2-6,1.5c-2,0.3-4,0.4-5.9,0.4c-3.8,0-7.3-0.6-10.5-1.9s-6.1-3.1-8.5-5.6c-2.4-2.5-4.3-5.5-5.7-9.1
		c-1.4-3.6-2.1-7.8-2.1-12.6c0-3.7,0.6-7.2,1.8-10.5c1.2-3.3,2.9-6.1,5.2-8.5c2.2-2.4,5-4.3,8.2-5.8
		C750.2,310.2,753.8,309.5,757.9,309.5z M758.1,318.8c-3.8,0-6.8,1.1-9,3.2c-2.2,2.2-3.5,5.2-4.1,9.2h24.6c0-1.7-0.2-3.3-0.7-4.8
		c-0.5-1.5-1.2-2.8-2.1-3.9c-1-1.1-2.2-2-3.6-2.7C761.8,319.2,760.1,318.8,758.1,318.8z"/>
	<path class="st0" d="M806,285.9v78.8h-13.1v-78.8H806z"/>
	<path class="st0" d="M834.7,285.9v78.8h-13.1v-78.8H834.7z"/>
	<path class="st0" d="M414.6,491.9h-5.9c-1.2,0-2.2-0.2-2.9-0.6c-0.7-0.4-1.2-1.1-1.6-2.3l-1.2-3.9c-1.4,1.2-2.7,2.3-4.1,3.3
		c-1.3,0.9-2.7,1.7-4.1,2.4c-1.4,0.6-2.9,1.1-4.5,1.4c-1.6,0.3-3.4,0.5-5.3,0.5c-2.3,0-4.4-0.3-6.4-0.9c-1.9-0.6-3.6-1.6-5-2.8
		c-1.4-1.2-2.5-2.8-3.3-4.6c-0.8-1.8-1.2-4-1.2-6.4c0-2.1,0.5-4.1,1.6-6.1c1.1-2,2.9-3.8,5.4-5.4c2.5-1.6,5.8-3,10-4
		c4.2-1.1,9.3-1.6,15.5-1.6v-3.2c0-3.7-0.8-6.4-2.3-8.1c-1.5-1.8-3.8-2.6-6.7-2.6c-2.1,0-3.9,0.2-5.3,0.7c-1.4,0.5-2.6,1.1-3.7,1.7
		c-1,0.6-2,1.2-2.9,1.7c-0.9,0.5-1.9,0.7-2.9,0.7c-0.9,0-1.6-0.2-2.3-0.7c-0.6-0.5-1.1-1-1.5-1.7l-2.4-4.2
		c6.3-5.7,13.8-8.6,22.6-8.6c3.2,0,6,0.5,8.5,1.6c2.5,1,4.6,2.5,6.3,4.3c1.7,1.9,3,4.1,3.9,6.7c0.9,2.6,1.4,5.4,1.4,8.5V491.9z
		 M389.1,483.7c1.3,0,2.6-0.1,3.7-0.4c1.1-0.2,2.2-0.6,3.2-1.1c1-0.5,2-1.1,2.9-1.8c0.9-0.7,1.9-1.6,2.8-2.5v-9.1
		c-3.8,0-7,0.2-9.6,0.7c-2.6,0.5-4.6,1.1-6.2,1.8c-1.6,0.7-2.7,1.6-3.3,2.6c-0.7,1-1,2.1-1,3.3c0,2.3,0.7,4,2,5
		C385.2,483.2,386.9,483.7,389.1,483.7z"/>
	<path class="st0" d="M427.4,491.9v-54.4h8c1.7,0,2.8,0.8,3.3,2.4l0.9,4.3c1.1-1.1,2.3-2.2,3.5-3.1c1.2-0.9,2.5-1.7,3.9-2.4
		c1.4-0.7,2.8-1.2,4.4-1.5c1.6-0.4,3.3-0.5,5.1-0.5c3,0,5.6,0.5,7.9,1.5c2.3,1,4.2,2.4,5.8,4.2c1.5,1.8,2.7,4,3.5,6.5
		s1.2,5.3,1.2,8.3v34.6h-13.1v-34.6c0-3.3-0.8-5.9-2.3-7.7c-1.5-1.8-3.8-2.7-6.9-2.7c-2.3,0-4.4,0.5-6.4,1.5c-2,1-3.9,2.4-5.6,4.2
		v39.3H427.4z"/>
	<path class="st0" d="M526,491.9c-1.7,0-2.8-0.8-3.3-2.4l-1.1-5.2c-1.1,1.3-2.3,2.4-3.6,3.4c-1.2,1-2.6,1.9-4,2.6s-3,1.3-4.6,1.7
		c-1.6,0.4-3.4,0.6-5.3,0.6c-3,0-5.7-0.6-8.2-1.9c-2.5-1.2-4.6-3-6.4-5.4c-1.8-2.3-3.2-5.3-4.1-8.7c-1-3.5-1.5-7.4-1.5-11.9
		c0-4,0.5-7.8,1.6-11.2c1.1-3.5,2.7-6.5,4.7-9c2-2.5,4.5-4.5,7.4-6c2.9-1.4,6.1-2.1,9.6-2.1c3,0,5.6,0.5,7.8,1.5
		c2.2,1,4.1,2.3,5.8,3.9v-28.7H534v78.8H526z M508.5,482.3c2.7,0,5-0.6,6.9-1.7c1.9-1.1,3.7-2.7,5.4-4.8v-24.4
		c-1.5-1.8-3.1-3.1-4.8-3.8c-1.7-0.7-3.6-1.1-5.6-1.1c-2,0-3.8,0.4-5.4,1.1c-1.6,0.7-3,1.9-4.1,3.4c-1.1,1.5-2,3.4-2.6,5.7
		c-0.6,2.3-0.9,5-0.9,8.2c0,3.2,0.3,5.9,0.8,8.1c0.5,2.2,1.2,4,2.2,5.4c1,1.4,2.1,2.4,3.5,3S506.8,482.3,508.5,482.3z"/>
	<path class="st0" d="M587.4,436.6c2.3,0,4.5,0.2,6.6,0.7c2,0.5,3.9,1.2,5.6,2.1h15.6v4.9c0,0.8-0.2,1.4-0.6,1.9
		c-0.4,0.5-1.1,0.8-2.2,1l-4.9,0.9c0.4,0.9,0.6,1.9,0.8,2.9c0.2,1,0.3,2.1,0.3,3.2c0,2.7-0.5,5.1-1.6,7.3c-1.1,2.2-2.6,4-4.5,5.5
		c-1.9,1.5-4.1,2.7-6.7,3.5c-2.6,0.8-5.4,1.2-8.5,1.2c-2,0-4-0.2-6-0.6c-1.7,1-2.5,2.2-2.5,3.5c0,1.1,0.5,1.9,1.5,2.4
		c1,0.5,2.3,0.9,4,1.1c1.6,0.2,3.5,0.3,5.6,0.3s4.2,0.1,6.4,0.3c2.2,0.2,4.3,0.5,6.4,0.9c2.1,0.4,3.9,1.1,5.6,2.1c1.6,1,3,2.3,4,3.9
		c1,1.6,1.5,3.8,1.5,6.4c0,2.4-0.6,4.8-1.8,7c-1.2,2.3-2.9,4.3-5.1,6.1c-2.2,1.8-5,3.2-8.2,4.3c-3.3,1.1-7,1.6-11.1,1.6
		c-4.1,0-7.7-0.4-10.8-1.2c-3-0.8-5.6-1.9-7.6-3.2s-3.5-2.9-4.5-4.6s-1.5-3.5-1.5-5.4c0-2.5,0.8-4.7,2.3-6.4
		c1.6-1.7,3.7-3.1,6.5-4.1c-1.3-0.7-2.4-1.7-3.2-3c-0.8-1.2-1.2-2.8-1.2-4.8c0-0.8,0.1-1.7,0.4-2.5c0.3-0.9,0.7-1.7,1.3-2.6
		c0.6-0.8,1.3-1.7,2.2-2.4c0.9-0.8,1.9-1.4,3.1-2c-2.8-1.5-4.9-3.5-6.5-5.9c-1.6-2.5-2.4-5.4-2.4-8.7c0-2.7,0.5-5.1,1.6-7.3
		c1.1-2.2,2.6-4,4.5-5.6c1.9-1.5,4.2-2.7,6.8-3.5C581.4,437,584.3,436.6,587.4,436.6z M601.8,494.2c0-1.1-0.3-2-1-2.7
		s-1.5-1.2-2.6-1.6c-1.1-0.4-2.4-0.7-3.8-0.8c-1.5-0.2-3-0.3-4.7-0.3s-3.3,0-5.1,0s-3.4-0.2-5.1-0.6c-1.5,0.8-2.7,1.8-3.6,2.9
		c-0.9,1.1-1.4,2.4-1.4,3.8c0,1,0.2,1.8,0.7,2.7c0.5,0.8,1.2,1.5,2.3,2.1c1,0.6,2.4,1.1,4.1,1.4c1.7,0.3,3.7,0.5,6.1,0.5
		c2.4,0,4.5-0.2,6.3-0.6c1.8-0.4,3.2-0.9,4.4-1.6c1.1-0.7,2-1.5,2.5-2.4C601.5,496.3,601.8,495.3,601.8,494.2z M587.4,463.4
		c1.6,0,3-0.2,4.2-0.7c1.2-0.4,2.2-1.1,3-1.8s1.4-1.7,1.8-2.8c0.4-1.1,0.6-2.3,0.6-3.6c0-2.7-0.8-4.8-2.4-6.4
		c-1.6-1.6-4-2.4-7.2-2.4c-3.2,0-5.6,0.8-7.2,2.4c-1.6,1.6-2.4,3.7-2.4,6.4c0,1.3,0.2,2.5,0.6,3.6c0.4,1.1,1,2,1.8,2.8
		s1.8,1.4,3,1.9C584.4,463.2,585.8,463.4,587.4,463.4z"/>
	<path class="st0" d="M646.6,436.7c4.1,0,7.7,0.7,11.1,2c3.3,1.3,6.1,3.2,8.5,5.6c2.3,2.4,4.1,5.3,5.4,8.8c1.3,3.5,1.9,7.3,1.9,11.6
		c0,4.3-0.6,8.2-1.9,11.7c-1.3,3.5-3.1,6.4-5.4,8.9c-2.3,2.4-5.2,4.3-8.5,5.6c-3.3,1.3-7,2-11.1,2c-4.1,0-7.8-0.7-11.1-2
		c-3.3-1.3-6.2-3.2-8.5-5.6c-2.3-2.4-4.2-5.4-5.5-8.9s-1.9-7.3-1.9-11.7c0-4.3,0.6-8.1,1.9-11.6c1.3-3.5,3.1-6.4,5.5-8.8
		c2.3-2.4,5.2-4.3,8.5-5.6C638.9,437.3,642.6,436.7,646.6,436.7z M646.6,482.6c4.5,0,7.9-1.5,10-4.6c2.2-3,3.3-7.5,3.3-13.4
		c0-5.9-1.1-10.3-3.3-13.4c-2.2-3.1-5.5-4.6-10-4.6c-4.6,0-8,1.5-10.2,4.6c-2.2,3.1-3.3,7.6-3.3,13.4c0,5.8,1.1,10.3,3.3,13.3
		C638.7,481.1,642,482.6,646.6,482.6z"/>
	<path class="st0" d="M706.9,436.7c4.1,0,7.7,0.7,11.1,2c3.3,1.3,6.1,3.2,8.5,5.6c2.3,2.4,4.1,5.3,5.4,8.8c1.3,3.5,1.9,7.3,1.9,11.6
		c0,4.3-0.6,8.2-1.9,11.7c-1.3,3.5-3.1,6.4-5.4,8.9c-2.3,2.4-5.2,4.3-8.5,5.6c-3.3,1.3-7,2-11.1,2c-4.1,0-7.8-0.7-11.1-2
		s-6.2-3.2-8.5-5.6c-2.4-2.4-4.2-5.4-5.5-8.9c-1.3-3.5-1.9-7.3-1.9-11.7c0-4.3,0.6-8.1,1.9-11.6c1.3-3.5,3.1-6.4,5.5-8.8
		c2.3-2.4,5.2-4.3,8.5-5.6S702.8,436.7,706.9,436.7z M706.9,482.6c4.5,0,7.9-1.5,10-4.6c2.2-3,3.3-7.5,3.3-13.4
		c0-5.9-1.1-10.3-3.3-13.4c-2.2-3.1-5.5-4.6-10-4.6c-4.6,0-8,1.5-10.2,4.6c-2.2,3.1-3.3,7.6-3.3,13.4c0,5.8,1.1,10.3,3.3,13.3
		C698.9,481.1,702.3,482.6,706.9,482.6z"/>
	<path class="st0" d="M782.2,491.9c-1.7,0-2.8-0.8-3.3-2.4l-1.1-5.2c-1.1,1.3-2.3,2.4-3.6,3.4c-1.2,1-2.6,1.9-4,2.6s-3,1.3-4.6,1.7
		c-1.6,0.4-3.4,0.6-5.3,0.6c-3,0-5.7-0.6-8.2-1.9c-2.5-1.2-4.6-3-6.4-5.4c-1.8-2.3-3.2-5.3-4.1-8.7c-1-3.5-1.5-7.4-1.5-11.9
		c0-4,0.5-7.8,1.6-11.2c1.1-3.5,2.7-6.5,4.7-9c2-2.5,4.5-4.5,7.4-6c2.9-1.4,6.1-2.1,9.6-2.1c3,0,5.6,0.5,7.8,1.5
		c2.2,1,4.1,2.3,5.8,3.9v-28.7h13.1v78.8H782.2z M764.8,482.3c2.7,0,5-0.6,6.9-1.7c1.9-1.1,3.7-2.7,5.4-4.8v-24.4
		c-1.5-1.8-3.1-3.1-4.8-3.8c-1.7-0.7-3.6-1.1-5.6-1.1c-2,0-3.8,0.4-5.4,1.1c-1.6,0.7-3,1.9-4.1,3.4c-1.1,1.5-2,3.4-2.6,5.7
		c-0.6,2.3-0.9,5-0.9,8.2c0,3.2,0.3,5.9,0.8,8.1c0.5,2.2,1.2,4,2.2,5.4s2.1,2.4,3.5,3S763.1,482.3,764.8,482.3z"/>
	<path class="st0" d="M801.2,484.7c0-1.1,0.2-2.1,0.6-3.1s1-1.8,1.7-2.5c0.7-0.7,1.6-1.3,2.6-1.7c1-0.4,2-0.6,3.2-0.6
		c1.1,0,2.1,0.2,3.1,0.6s1.8,1,2.5,1.7c0.7,0.7,1.3,1.6,1.7,2.5s0.6,2,0.6,3.1c0,1.1-0.2,2.2-0.6,3.2c-0.4,1-1,1.8-1.7,2.5
		c-0.7,0.7-1.6,1.3-2.5,1.7c-1,0.4-2,0.6-3.1,0.6c-1.1,0-2.2-0.2-3.2-0.6c-1-0.4-1.8-1-2.6-1.7c-0.7-0.7-1.3-1.5-1.7-2.5
		C801.4,486.9,801.2,485.8,801.2,484.7z"/>
</g>
</svg>
