<?xml version="1.0" encoding="utf-8"?>
<!-- Generator: Adobe Illustrator 19.0.0, SVG Export Plug-In . SVG Version: 6.00 Build 0)  -->
<svg version="1.1" id="Layer_1" xmlns="http://www.w3.org/2000/svg" xmlns:xlink="http://www.w3.org/1999/xlink" x="0px" y="0px"
	 viewBox="108 49.6 1131.6 695.4" style="enable-background:new 108 49.6 1131.6 695.4;" xml:space="preserve">
<style type="text/css">
	.st0{fill:#363F4A;}
	.st1{enable-background:new    ;}
</style>
<g>
	<path class="st0" d="M463.4,581.6c5.5,6,2.7,15-6.8,19L227,702.6l349.8-49l0,0c4.1-1,8.2,0,12.3,1c28.7,12,60.1,20,92.9,26
		c31.4,6,65.6,9,101.1,9c116.1,0,220-34,296.5-89c75.2-56,121.6-132,121.6-217s-46.5-161-121.6-217c-76.5-55-180.4-89-296.5-89
		s-220,34-296.5,89c-75.2,56-121.6,132-121.6,217c0,36,8.2,71,24.6,104s39.6,64,71.1,92C462.1,579.6,462.1,580.6,463.4,581.6z
		 M326.8,383.6c0-92,50.6-176,133.9-236c82-61,196.8-98,322.5-98s240.5,37,322.5,98c83.4,60,133.9,144,133.9,236
		s-50.6,176-133.9,236c-82,61-196.8,98-322.5,98c-38.3,0-75.2-3-110.7-10c-32.8-6-64.2-15-95.6-26l-446.8,63c-9.6,2-19.1-3-21.9-11
		c-1.4-6,2.7-12,9.6-14l300.6-135c-27.3-27-49.2-56-64.2-87C335,460.6,326.8,422.6,326.8,383.6z"/>
</g>
<g class="st1">
	<path class="st0" d="M582.1,239.7V265H570v-25.3l-23.8-39.9h10.7c1.1,0,1.9,0.3,2.5,0.8c0.6,0.5,1.1,1.2,1.6,1.9l11.9,21.8
		c0.7,1.3,1.3,2.5,1.8,3.7c0.5,1.2,1,2.3,1.4,3.4c0.4-1.1,0.8-2.3,1.3-3.4c0.5-1.2,1.1-2.4,1.8-3.6l11.9-21.8
		c0.3-0.7,0.8-1.3,1.5-1.8c0.7-0.6,1.5-0.9,2.5-0.9h10.7L582.1,239.7z"/>
	<path class="st0" d="M623.4,218c2.9,0,5.6,0.5,8,1.4c2.4,0.9,4.6,2.3,6.3,4.1c1.8,1.8,3.2,4,4.1,6.6c1,2.6,1.5,5.6,1.5,8.9
		c0,0.8,0,1.5-0.1,2.1c-0.1,0.6-0.2,1-0.4,1.3s-0.5,0.5-0.8,0.7s-0.8,0.2-1.3,0.2h-28.6c0.3,4.7,1.6,8.2,3.8,10.5
		c2.2,2.2,5.2,3.3,8.8,3.3c1.8,0,3.4-0.2,4.7-0.6c1.3-0.4,2.4-0.9,3.4-1.4c1-0.5,1.8-1,2.6-1.4c0.7-0.4,1.4-0.6,2.1-0.6
		c0.5,0,0.8,0.1,1.2,0.3c0.3,0.2,0.6,0.4,0.9,0.8l3.2,4.1c-1.2,1.4-2.6,2.7-4.1,3.6c-1.5,1-3.1,1.8-4.8,2.3c-1.7,0.6-3.4,1-5.1,1.2
		c-1.7,0.2-3.4,0.4-5,0.4c-3.2,0-6.2-0.5-9-1.6c-2.8-1.1-5.2-2.6-7.2-4.7c-2-2.1-3.7-4.7-4.8-7.8c-1.2-3.1-1.8-6.6-1.8-10.7
		c0-3.2,0.5-6.1,1.5-8.9c1-2.8,2.5-5.2,4.4-7.3c1.9-2.1,4.2-3.7,7-4.9C616.9,218.6,620,218,623.4,218z M623.7,226
		c-3.2,0-5.8,0.9-7.6,2.8c-1.8,1.8-3,4.4-3.5,7.8h20.9c0-1.4-0.2-2.8-0.6-4.1c-0.4-1.3-1-2.4-1.8-3.4c-0.8-1-1.8-1.7-3.1-2.3
		C626.8,226.3,625.3,226,623.7,226z"/>
	<path class="st0" d="M680,227.8c-0.3,0.5-0.6,0.8-0.9,1c-0.3,0.2-0.8,0.3-1.3,0.3c-0.5,0-1.1-0.1-1.7-0.5c-0.6-0.3-1.3-0.6-2.1-1
		c-0.8-0.4-1.7-0.7-2.8-1c-1-0.3-2.3-0.5-3.7-0.5c-2.2,0-3.9,0.5-5.2,1.4c-1.3,0.9-1.9,2.1-1.9,3.7c0,1,0.3,1.8,1,2.5
		s1.5,1.3,2.6,1.8c1.1,0.5,2.3,1,3.6,1.4s2.7,0.8,4.1,1.3c1.4,0.5,2.8,1,4.1,1.6c1.4,0.6,2.6,1.4,3.6,2.3c1.1,0.9,1.9,2.1,2.6,3.4
		c0.6,1.3,1,2.9,1,4.8c0,2.2-0.4,4.3-1.2,6.2s-2,3.5-3.6,4.9c-1.6,1.4-3.5,2.4-5.8,3.2c-2.3,0.8-4.9,1.1-7.9,1.1
		c-1.6,0-3.1-0.1-4.7-0.4c-1.5-0.3-3-0.7-4.4-1.2c-1.4-0.5-2.7-1.1-3.9-1.8c-1.2-0.7-2.2-1.4-3.1-2.3l2.6-4.2
		c0.3-0.5,0.7-0.9,1.2-1.2s1-0.4,1.7-0.4s1.3,0.2,2,0.6c0.6,0.4,1.3,0.8,2.1,1.3c0.8,0.5,1.8,0.9,2.9,1.3c1.1,0.4,2.5,0.6,4.2,0.6
		c1.3,0,2.5-0.2,3.4-0.5c0.9-0.3,1.7-0.7,2.3-1.2c0.6-0.5,1.1-1.1,1.4-1.8c0.3-0.7,0.4-1.4,0.4-2.1c0-1.1-0.3-2-1-2.7
		c-0.6-0.7-1.5-1.3-2.6-1.8c-1.1-0.5-2.3-1-3.7-1.4s-2.8-0.8-4.2-1.3c-1.4-0.5-2.8-1-4.2-1.7c-1.4-0.6-2.6-1.5-3.7-2.5
		c-1.1-1-1.9-2.2-2.6-3.7c-0.6-1.4-1-3.2-1-5.2c0-1.9,0.4-3.7,1.1-5.4c0.8-1.7,1.9-3.2,3.3-4.5c1.5-1.3,3.3-2.3,5.5-3.1
		c2.2-0.8,4.7-1.1,7.6-1.1c3.2,0,6.1,0.5,8.7,1.6c2.6,1.1,4.8,2.4,6.5,4.1L680,227.8z"/>
	<path class="st0" d="M722.8,205.3c0,1-0.2,1.9-0.6,2.7c-0.4,0.8-0.9,1.6-1.6,2.2c-0.6,0.6-1.4,1.1-2.3,1.5
		c-0.9,0.4-1.8,0.6-2.8,0.6c-1,0-1.9-0.2-2.7-0.6c-0.9-0.4-1.6-0.9-2.2-1.5c-0.6-0.6-1.1-1.4-1.5-2.2c-0.4-0.8-0.6-1.7-0.6-2.7
		c0-1,0.2-1.9,0.6-2.8c0.4-0.9,0.9-1.6,1.5-2.3c0.6-0.6,1.4-1.1,2.2-1.5c0.9-0.4,1.8-0.6,2.7-0.6c1,0,1.9,0.2,2.8,0.6
		c0.9,0.4,1.6,0.9,2.3,1.5c0.6,0.6,1.2,1.4,1.6,2.3C722.6,203.4,722.8,204.3,722.8,205.3z M721.2,218.8V265H710v-46.3H721.2z"/>
	<path class="st0" d="M748.9,265.7c-4,0-7.1-1.1-9.2-3.4c-2.2-2.3-3.2-5.4-3.2-9.4v-25.8h-4.7c-0.6,0-1.1-0.2-1.6-0.6
		c-0.4-0.4-0.7-1-0.7-1.8v-4.4l7.4-1.2l2.3-12.6c0.1-0.6,0.4-1.1,0.8-1.4c0.4-0.3,1-0.5,1.6-0.5h5.8v14.6h12.2v7.9h-12.2v25.1
		c0,1.4,0.4,2.6,1.1,3.4c0.7,0.8,1.7,1.2,2.9,1.2c0.7,0,1.3-0.1,1.7-0.2c0.5-0.2,0.9-0.3,1.2-0.5c0.3-0.2,0.7-0.4,0.9-0.5
		c0.3-0.2,0.5-0.2,0.8-0.2c0.3,0,0.6,0.1,0.8,0.2c0.2,0.2,0.4,0.4,0.7,0.7l3.3,5.4c-1.6,1.4-3.5,2.4-5.6,3.1
		C753.4,265.4,751.2,265.7,748.9,265.7z"/>
	<path class="st0" d="M805.2,218c2.9,0,5.6,0.5,8,1.4c2.4,0.9,4.6,2.3,6.3,4.1c1.8,1.8,3.2,4,4.1,6.6s1.5,5.6,1.5,8.9
		c0,0.8,0,1.5-0.1,2.1c-0.1,0.6-0.2,1-0.4,1.3c-0.2,0.3-0.5,0.5-0.8,0.7c-0.3,0.1-0.8,0.2-1.3,0.2H794c0.3,4.7,1.6,8.2,3.8,10.5
		c2.2,2.2,5.2,3.3,8.8,3.3c1.8,0,3.4-0.2,4.7-0.6c1.3-0.4,2.4-0.9,3.4-1.4c1-0.5,1.8-1,2.6-1.4s1.4-0.6,2.1-0.6
		c0.4,0,0.8,0.1,1.2,0.3c0.3,0.2,0.6,0.4,0.9,0.8l3.2,4.1c-1.2,1.4-2.6,2.7-4.1,3.6c-1.5,1-3.1,1.8-4.8,2.3c-1.7,0.6-3.4,1-5.1,1.2
		c-1.7,0.2-3.4,0.4-5,0.4c-3.2,0-6.2-0.5-9-1.6c-2.8-1.1-5.2-2.6-7.2-4.7c-2-2.1-3.7-4.7-4.8-7.8c-1.2-3.1-1.8-6.6-1.8-10.7
		c0-3.2,0.5-6.1,1.5-8.9c1-2.8,2.5-5.2,4.4-7.3c1.9-2.1,4.2-3.7,7-4.9C798.6,218.6,801.7,218,805.2,218z M805.4,226
		c-3.2,0-5.8,0.9-7.6,2.8c-1.8,1.8-3,4.4-3.5,7.8h20.9c0-1.4-0.2-2.8-0.6-4.1c-0.4-1.3-1-2.4-1.8-3.4c-0.8-1-1.8-1.7-3.1-2.3
		C808.5,226.3,807,226,805.4,226z"/>
	<path class="st0" d="M842.5,241.2l-15.2-22.4H838c0.8,0,1.4,0.1,1.8,0.3c0.4,0.2,0.7,0.6,1,1.1l9.7,15.5c0.1-0.5,0.3-1,0.6-1.5
		c0.2-0.5,0.5-1,0.8-1.5l7.8-12.2c0.4-0.6,0.7-1,1.1-1.3c0.4-0.3,0.9-0.4,1.4-0.4h10.2l-15.2,21.9l15.9,24.3h-10.7
		c-0.8,0-1.5-0.2-2-0.6c-0.5-0.4-0.9-0.9-1.2-1.4l-9.8-16.1c-0.3,1.1-0.6,2-1.1,2.7l-8.7,13.4c-0.3,0.5-0.7,1-1.2,1.4
		c-0.5,0.4-1.1,0.7-1.8,0.7h-10L842.5,241.2z"/>
	<path class="st0" d="M893.8,205.3c0,1-0.2,1.9-0.6,2.7c-0.4,0.8-0.9,1.6-1.6,2.2c-0.6,0.6-1.4,1.1-2.3,1.5
		c-0.9,0.4-1.8,0.6-2.8,0.6c-1,0-1.9-0.2-2.7-0.6c-0.9-0.4-1.6-0.9-2.2-1.5c-0.6-0.6-1.1-1.4-1.5-2.2c-0.4-0.8-0.6-1.7-0.6-2.7
		c0-1,0.2-1.9,0.6-2.8c0.4-0.9,0.9-1.6,1.5-2.3c0.6-0.6,1.4-1.1,2.2-1.5c0.9-0.4,1.8-0.6,2.7-0.6c1,0,1.9,0.2,2.8,0.6
		c0.9,0.4,1.6,0.9,2.3,1.5c0.6,0.6,1.2,1.4,1.6,2.3C893.6,203.4,893.8,204.3,893.8,205.3z M892.1,218.8V265h-11.1v-46.3H892.1z"/>
	<path class="st0" d="M932.1,227.8c-0.3,0.5-0.6,0.8-0.9,1c-0.3,0.2-0.8,0.3-1.3,0.3c-0.5,0-1.1-0.1-1.7-0.5c-0.6-0.3-1.3-0.6-2.1-1
		c-0.8-0.4-1.7-0.7-2.8-1c-1-0.3-2.3-0.5-3.7-0.5c-2.2,0-3.9,0.5-5.2,1.4c-1.3,0.9-1.9,2.1-1.9,3.7c0,1,0.3,1.8,1,2.5
		s1.5,1.3,2.6,1.8c1.1,0.5,2.3,1,3.6,1.4s2.7,0.8,4.1,1.3c1.4,0.5,2.8,1,4.1,1.6c1.4,0.6,2.6,1.4,3.6,2.3c1.1,0.9,1.9,2.1,2.6,3.4
		c0.6,1.3,1,2.9,1,4.8c0,2.2-0.4,4.3-1.2,6.2s-2,3.5-3.6,4.9c-1.6,1.4-3.5,2.4-5.8,3.2c-2.3,0.8-4.9,1.1-7.9,1.1
		c-1.6,0-3.1-0.1-4.7-0.4c-1.5-0.3-3-0.7-4.4-1.2c-1.4-0.5-2.7-1.1-3.9-1.8c-1.2-0.7-2.2-1.4-3.1-2.3l2.6-4.2
		c0.3-0.5,0.7-0.9,1.2-1.2c0.5-0.3,1-0.4,1.7-0.4s1.3,0.2,2,0.6c0.6,0.4,1.3,0.8,2.1,1.3c0.8,0.5,1.8,0.9,2.9,1.3
		c1.1,0.4,2.5,0.6,4.2,0.6c1.3,0,2.5-0.2,3.4-0.5c0.9-0.3,1.7-0.7,2.3-1.2c0.6-0.5,1.1-1.1,1.4-1.8c0.3-0.7,0.4-1.4,0.4-2.1
		c0-1.1-0.3-2-1-2.7c-0.6-0.7-1.5-1.3-2.6-1.8c-1.1-0.5-2.3-1-3.7-1.4c-1.4-0.4-2.8-0.8-4.2-1.3c-1.4-0.5-2.8-1-4.2-1.7
		c-1.4-0.6-2.6-1.5-3.7-2.5c-1.1-1-1.9-2.2-2.6-3.7s-1-3.2-1-5.2c0-1.9,0.4-3.7,1.1-5.4c0.8-1.7,1.9-3.2,3.3-4.5
		c1.5-1.3,3.3-2.3,5.5-3.1c2.2-0.8,4.7-1.1,7.6-1.1c3.2,0,6.1,0.5,8.7,1.6c2.6,1.1,4.8,2.4,6.5,4.1L932.1,227.8z"/>
	<path class="st0" d="M959.3,265.7c-4,0-7.1-1.1-9.2-3.4c-2.2-2.3-3.2-5.4-3.2-9.4v-25.8h-4.7c-0.6,0-1.1-0.2-1.6-0.6
		c-0.4-0.4-0.7-1-0.7-1.8v-4.4l7.4-1.2l2.3-12.6c0.1-0.6,0.4-1.1,0.8-1.4c0.4-0.3,1-0.5,1.6-0.5h5.8v14.6h12.2v7.9h-12.2v25.1
		c0,1.4,0.4,2.6,1.1,3.4c0.7,0.8,1.7,1.2,2.9,1.2c0.7,0,1.3-0.1,1.7-0.2c0.5-0.2,0.9-0.3,1.2-0.5c0.3-0.2,0.7-0.4,0.9-0.5
		c0.3-0.2,0.5-0.2,0.8-0.2c0.3,0,0.6,0.1,0.8,0.2c0.2,0.2,0.4,0.4,0.7,0.7l3.3,5.4c-1.6,1.4-3.5,2.4-5.6,3.1
		C963.7,265.4,961.5,265.7,959.3,265.7z"/>
	<path class="st0" d="M1006.4,227.8c-0.3,0.5-0.6,0.8-0.9,1c-0.3,0.2-0.8,0.3-1.3,0.3c-0.5,0-1.1-0.1-1.7-0.5
		c-0.6-0.3-1.3-0.6-2.1-1c-0.8-0.4-1.7-0.7-2.8-1c-1-0.3-2.3-0.5-3.7-0.5c-2.2,0-3.9,0.5-5.2,1.4c-1.3,0.9-1.9,2.1-1.9,3.7
		c0,1,0.3,1.8,1,2.5s1.5,1.3,2.6,1.8c1.1,0.5,2.3,1,3.6,1.4s2.7,0.8,4.1,1.3c1.4,0.5,2.8,1,4.1,1.6c1.4,0.6,2.6,1.4,3.6,2.3
		c1.1,0.9,1.9,2.1,2.6,3.4c0.6,1.3,1,2.9,1,4.8c0,2.2-0.4,4.3-1.2,6.2s-2,3.5-3.6,4.9c-1.6,1.4-3.5,2.4-5.8,3.2
		c-2.3,0.8-4.9,1.1-7.9,1.1c-1.6,0-3.1-0.1-4.7-0.4c-1.5-0.3-3-0.7-4.4-1.2c-1.4-0.5-2.7-1.1-3.9-1.8c-1.2-0.7-2.2-1.4-3.1-2.3
		l2.6-4.2c0.3-0.5,0.7-0.9,1.2-1.2c0.5-0.3,1-0.4,1.7-0.4s1.3,0.2,2,0.6c0.6,0.4,1.3,0.8,2.1,1.3c0.8,0.5,1.8,0.9,2.9,1.3
		c1.1,0.4,2.5,0.6,4.2,0.6c1.3,0,2.5-0.2,3.4-0.5c0.9-0.3,1.7-0.7,2.3-1.2c0.6-0.5,1.1-1.1,1.4-1.8c0.3-0.7,0.4-1.4,0.4-2.1
		c0-1.1-0.3-2-1-2.7c-0.6-0.7-1.5-1.3-2.6-1.8c-1.1-0.5-2.3-1-3.7-1.4c-1.4-0.4-2.8-0.8-4.2-1.3c-1.4-0.5-2.8-1-4.2-1.7
		c-1.4-0.6-2.6-1.5-3.7-2.5c-1.1-1-1.9-2.2-2.6-3.7s-1-3.2-1-5.2c0-1.9,0.4-3.7,1.1-5.4c0.8-1.7,1.9-3.2,3.3-4.5
		c1.5-1.3,3.3-2.3,5.5-3.1c2.2-0.8,4.7-1.1,7.6-1.1c3.2,0,6.1,0.5,8.7,1.6c2.6,1.1,4.8,2.4,6.5,4.1L1006.4,227.8z"/>
	<path class="st0" d="M1015.7,258.9c0-0.9,0.2-1.8,0.5-2.7c0.3-0.8,0.8-1.6,1.4-2.2c0.6-0.6,1.3-1.1,2.2-1.4s1.7-0.5,2.7-0.5
		c0.9,0,1.8,0.2,2.7,0.5c0.8,0.4,1.6,0.8,2.2,1.4c0.6,0.6,1.1,1.3,1.4,2.2c0.4,0.8,0.5,1.7,0.5,2.7c0,1-0.2,1.9-0.5,2.7
		c-0.4,0.8-0.8,1.5-1.4,2.1c-0.6,0.6-1.3,1.1-2.2,1.4c-0.8,0.3-1.7,0.5-2.7,0.5c-1,0-1.9-0.2-2.7-0.5s-1.6-0.8-2.2-1.4
		c-0.6-0.6-1.1-1.3-1.4-2.1C1015.9,260.7,1015.7,259.8,1015.7,258.9z"/>
	<path class="st0" d="M453.5,373.2h-12.2v-28.5h-30.6v28.5h-12.2V308h12.2v28h30.6v-28h12.2V373.2z"/>
	<path class="st0" d="M485.8,326.2c3.5,0,6.6,0.6,9.4,1.7c2.8,1.1,5.2,2.7,7.2,4.7c2,2,3.5,4.5,4.6,7.5c1.1,2.9,1.6,6.2,1.6,9.9
		c0,3.7-0.5,7-1.6,9.9c-1.1,2.9-2.6,5.5-4.6,7.5c-2,2.1-4.4,3.7-7.2,4.8c-2.8,1.1-5.9,1.7-9.4,1.7c-3.5,0-6.6-0.6-9.4-1.7
		c-2.8-1.1-5.2-2.7-7.2-4.8c-2-2.1-3.5-4.6-4.6-7.5c-1.1-2.9-1.6-6.3-1.6-9.9c0-3.6,0.5-6.9,1.6-9.9c1.1-2.9,2.6-5.4,4.6-7.5
		c2-2,4.4-3.6,7.2-4.7C479.2,326.8,482.3,326.2,485.8,326.2z M485.8,365.3c3.8,0,6.7-1.3,8.5-3.9c1.8-2.6,2.8-6.4,2.8-11.4
		c0-5-0.9-8.8-2.8-11.4c-1.8-2.6-4.7-3.9-8.5-3.9c-3.9,0-6.8,1.3-8.7,3.9c-1.9,2.6-2.8,6.4-2.8,11.4s0.9,8.7,2.8,11.3
		C479,364,481.9,365.3,485.8,365.3z"/>
	<path class="st0" d="M511.7,327h8.8c0.8,0,1.5,0.2,2.1,0.6c0.6,0.4,0.9,0.9,1.1,1.5l6.6,24.7c0.4,1.4,0.7,2.7,0.9,4
		c0.2,1.3,0.4,2.6,0.7,3.9c0.3-1.3,0.7-2.6,1.1-3.9c0.4-1.3,0.8-2.6,1.2-4l7.7-24.8c0.2-0.6,0.5-1.1,1.1-1.5
		c0.5-0.4,1.2-0.6,1.9-0.6h4.9c0.8,0,1.5,0.2,2,0.6c0.5,0.4,0.9,0.9,1.1,1.5l7.6,25.2c0.4,1.3,0.7,2.5,1.1,3.8
		c0.3,1.2,0.6,2.4,0.9,3.7c0.2-1.3,0.4-2.6,0.7-3.9c0.3-1.3,0.6-2.6,1-4l6.9-24.7c0.1-0.6,0.5-1.1,1.1-1.5c0.6-0.4,1.2-0.6,2-0.6
		h8.4l-14.7,46.3h-9c-1,0-1.7-0.7-2.1-2l-8.3-26.7c-0.3-0.9-0.5-1.8-0.7-2.6c-0.2-0.9-0.4-1.8-0.6-2.6c-0.2,0.9-0.4,1.8-0.6,2.7
		c-0.2,0.9-0.5,1.8-0.7,2.7l-8.4,26.6c-0.4,1.3-1.2,2-2.4,2h-8.5L511.7,327z"/>
	<path class="st0" d="M606,373.2V327h6.8c1.4,0,2.4,0.7,2.8,2l0.7,3.4c0.8-0.9,1.7-1.7,2.5-2.5c0.9-0.8,1.8-1.4,2.8-1.9
		s2.1-1,3.2-1.3c1.2-0.3,2.4-0.5,3.8-0.5c2.9,0,5.3,0.8,7.2,2.4c1.9,1.6,3.3,3.7,4.2,6.3c0.7-1.5,1.6-2.8,2.7-3.9s2.3-2,3.6-2.7
		c1.3-0.7,2.7-1.2,4.1-1.5c1.5-0.3,2.9-0.5,4.4-0.5c2.6,0,4.8,0.4,6.8,1.2c2,0.8,3.7,1.9,5,3.4c1.4,1.5,2.4,3.3,3.1,5.5
		s1.1,4.6,1.1,7.4v29.4h-11.1v-29.4c0-2.9-0.6-5.2-1.9-6.6c-1.3-1.5-3.2-2.2-5.7-2.2c-1.1,0-2.2,0.2-3.2,0.6c-1,0.4-1.8,1-2.6,1.7
		c-0.7,0.7-1.3,1.7-1.7,2.8c-0.4,1.1-0.6,2.4-0.6,3.8v29.4h-11.2v-29.4c0-3.1-0.6-5.3-1.9-6.8c-1.2-1.4-3.1-2.1-5.5-2.1
		c-1.6,0-3.1,0.4-4.5,1.2c-1.4,0.8-2.7,1.9-3.9,3.3v33.9H606z"/>
	<path class="st0" d="M718.2,373.2h-5c-1.1,0-1.9-0.2-2.5-0.5c-0.6-0.3-1.1-1-1.4-1.9l-1-3.3c-1.2,1.1-2.3,2-3.4,2.8
		c-1.1,0.8-2.3,1.5-3.5,2c-1.2,0.5-2.5,0.9-3.8,1.2s-2.9,0.4-4.5,0.4c-2,0-3.8-0.3-5.4-0.8c-1.7-0.5-3.1-1.3-4.3-2.4
		s-2.1-2.4-2.8-3.9s-1-3.4-1-5.5c0-1.7,0.5-3.5,1.4-5.2c0.9-1.7,2.4-3.2,4.6-4.6c2.1-1.4,5-2.5,8.5-3.4c3.5-0.9,7.9-1.4,13.2-1.4
		v-2.7c0-3.1-0.7-5.4-2-6.9s-3.2-2.2-5.7-2.2c-1.8,0-3.3,0.2-4.5,0.6c-1.2,0.4-2.2,0.9-3.1,1.4s-1.7,1-2.5,1.4
		c-0.8,0.4-1.6,0.6-2.5,0.6c-0.8,0-1.4-0.2-1.9-0.6c-0.5-0.4-1-0.9-1.3-1.4l-2-3.6c5.3-4.9,11.7-7.3,19.3-7.3c2.7,0,5.1,0.4,7.2,1.3
		c2.1,0.9,3.9,2.1,5.4,3.7c1.5,1.6,2.6,3.5,3.4,5.7c0.8,2.2,1.1,4.6,1.1,7.2V373.2z M696.6,366.3c1.1,0,2.2-0.1,3.2-0.3
		s1.9-0.5,2.7-0.9s1.7-0.9,2.5-1.5c0.8-0.6,1.6-1.3,2.4-2.2v-7.7c-3.2,0-6,0.2-8.1,0.6c-2.2,0.4-3.9,0.9-5.3,1.6
		c-1.3,0.6-2.3,1.4-2.8,2.2c-0.6,0.8-0.8,1.8-0.8,2.8c0,2,0.6,3.4,1.7,4.2C693.2,365.9,694.7,366.3,696.6,366.3z"/>
	<path class="st0" d="M729.2,373.2V327h6.8c1.4,0,2.4,0.7,2.8,2l0.8,3.7c0.9-1,1.9-1.8,3-2.6c1-0.8,2.1-1.5,3.3-2
		c1.2-0.6,2.4-1,3.7-1.3c1.3-0.3,2.8-0.5,4.3-0.5c2.5,0,4.8,0.4,6.7,1.3c2,0.9,3.6,2.1,4.9,3.6c1.3,1.5,2.3,3.4,3,5.5
		c0.7,2.1,1,4.5,1,7.1v29.4h-11.1v-29.4c0-2.8-0.7-5-2-6.6c-1.3-1.5-3.3-2.3-5.9-2.3c-1.9,0-3.7,0.4-5.4,1.3
		c-1.7,0.9-3.3,2.1-4.8,3.6v33.5H729.2z"/>
	<path class="st0" d="M795.2,385.9c-0.3,0.8-0.8,1.4-1.3,1.8c-0.5,0.4-1.3,0.6-2.4,0.6h-8.3l8.7-18.5L773.2,327h9.7
		c0.9,0,1.6,0.2,2.1,0.6c0.5,0.4,0.8,0.9,1.1,1.4l9.9,24c0.3,0.8,0.6,1.6,0.9,2.4c0.2,0.8,0.5,1.7,0.6,2.5c0.2-0.9,0.5-1.7,0.8-2.5
		c0.3-0.8,0.6-1.6,0.9-2.5l9.3-23.9c0.2-0.6,0.6-1.1,1.2-1.5c0.6-0.4,1.2-0.6,1.9-0.6h8.9L795.2,385.9z"/>
	<path class="st0" d="M859.5,373.9c-4,0-7.1-1.1-9.2-3.4c-2.2-2.3-3.2-5.4-3.2-9.4v-25.8h-4.7c-0.6,0-1.1-0.2-1.6-0.6
		c-0.4-0.4-0.7-1-0.7-1.8v-4.4l7.4-1.2l2.3-12.6c0.1-0.6,0.4-1.1,0.8-1.4c0.4-0.3,1-0.5,1.6-0.5h5.8v14.6h12.2v7.9h-12.2v25.1
		c0,1.4,0.4,2.6,1.1,3.4c0.7,0.8,1.7,1.2,2.9,1.2c0.7,0,1.3-0.1,1.7-0.2c0.5-0.2,0.9-0.3,1.2-0.5s0.7-0.4,0.9-0.5
		c0.3-0.2,0.5-0.2,0.8-0.2c0.3,0,0.6,0.1,0.8,0.2c0.2,0.2,0.4,0.4,0.7,0.7l3.3,5.4c-1.6,1.4-3.5,2.4-5.6,3.1
		C863.9,373.6,861.7,373.9,859.5,373.9z"/>
	<path class="st0" d="M898.3,326.2c2.9,0,5.6,0.5,8,1.4c2.4,0.9,4.6,2.3,6.3,4.1c1.8,1.8,3.2,4,4.1,6.6s1.5,5.6,1.5,8.9
		c0,0.8,0,1.5-0.1,2.1c-0.1,0.6-0.2,1-0.4,1.3c-0.2,0.3-0.5,0.5-0.8,0.7c-0.3,0.1-0.8,0.2-1.3,0.2h-28.6c0.3,4.7,1.6,8.2,3.8,10.5
		c2.2,2.2,5.2,3.3,8.8,3.3c1.8,0,3.4-0.2,4.7-0.6s2.4-0.9,3.4-1.4c1-0.5,1.8-1,2.6-1.4c0.7-0.4,1.4-0.6,2.1-0.6
		c0.5,0,0.8,0.1,1.2,0.3c0.3,0.2,0.6,0.4,0.9,0.8l3.2,4.1c-1.2,1.4-2.6,2.7-4.1,3.6c-1.5,1-3.1,1.8-4.8,2.3c-1.7,0.6-3.4,1-5.1,1.2
		c-1.7,0.2-3.4,0.4-5,0.4c-3.2,0-6.2-0.5-9-1.6c-2.8-1.1-5.2-2.6-7.2-4.7c-2-2.1-3.7-4.7-4.8-7.8s-1.8-6.7-1.8-10.7
		c0-3.2,0.5-6.1,1.5-8.9c1-2.8,2.5-5.2,4.4-7.3c1.9-2.1,4.2-3.7,7-4.9C891.7,326.8,894.8,326.2,898.3,326.2z M898.5,334.2
		c-3.2,0-5.8,0.9-7.6,2.8c-1.8,1.8-3,4.4-3.5,7.8h20.9c0-1.4-0.2-2.8-0.6-4.1c-0.4-1.3-1-2.4-1.8-3.4c-0.8-1-1.8-1.7-3.1-2.3
		C901.6,334.5,900.2,334.2,898.5,334.2z"/>
	<path class="st0" d="M963.6,373.2h-5c-1.1,0-1.9-0.2-2.5-0.5s-1.1-1-1.4-1.9l-1-3.3c-1.2,1.1-2.3,2-3.4,2.8c-1.1,0.8-2.3,1.5-3.5,2
		s-2.5,0.9-3.8,1.2s-2.9,0.4-4.5,0.4c-2,0-3.8-0.3-5.4-0.8c-1.7-0.5-3.1-1.3-4.3-2.4s-2.1-2.4-2.8-3.9s-1-3.4-1-5.5
		c0-1.7,0.5-3.5,1.4-5.2c0.9-1.7,2.4-3.2,4.6-4.6s5-2.5,8.5-3.4c3.5-0.9,7.9-1.4,13.2-1.4v-2.7c0-3.1-0.7-5.4-2-6.9
		s-3.2-2.2-5.7-2.2c-1.8,0-3.3,0.2-4.5,0.6c-1.2,0.4-2.2,0.9-3.1,1.4c-0.9,0.5-1.7,1-2.5,1.4c-0.8,0.4-1.6,0.6-2.5,0.6
		c-0.8,0-1.4-0.2-1.9-0.6c-0.5-0.4-1-0.9-1.3-1.4l-2-3.6c5.3-4.9,11.7-7.3,19.3-7.3c2.7,0,5.1,0.4,7.2,1.3c2.1,0.9,3.9,2.1,5.4,3.7
		s2.6,3.5,3.4,5.7c0.8,2.2,1.1,4.6,1.1,7.2V373.2z M942,366.3c1.1,0,2.2-0.1,3.2-0.3s1.9-0.5,2.7-0.9s1.7-0.9,2.5-1.5
		c0.8-0.6,1.6-1.3,2.4-2.2v-7.7c-3.2,0-6,0.2-8.1,0.6c-2.2,0.4-3.9,0.9-5.3,1.6c-1.3,0.6-2.3,1.4-2.8,2.2c-0.6,0.8-0.8,1.8-0.8,2.8
		c0,2,0.6,3.4,1.7,4.2C938.6,365.9,940.1,366.3,942,366.3z"/>
	<path class="st0" d="M1007.1,336.7c-0.3,0.4-0.7,0.8-1,1c-0.3,0.2-0.8,0.4-1.4,0.4c-0.6,0-1.1-0.2-1.7-0.5
		c-0.5-0.3-1.2-0.7-1.9-1.2c-0.8-0.4-1.6-0.8-2.7-1.2c-1-0.3-2.3-0.5-3.9-0.5c-2,0-3.7,0.4-5.1,1.1c-1.5,0.7-2.7,1.7-3.7,3
		c-1,1.3-1.7,2.9-2.2,4.8c-0.5,1.9-0.7,4-0.7,6.4c0,2.5,0.3,4.7,0.8,6.6c0.5,1.9,1.3,3.5,2.3,4.8c1,1.3,2.2,2.3,3.6,3
		c1.4,0.7,3,1,4.8,1s3.2-0.2,4.3-0.7c1.1-0.4,2-0.9,2.8-1.4c0.8-0.5,1.4-1,2-1.4c0.6-0.4,1.2-0.7,1.9-0.7c0.9,0,1.6,0.3,2,1l3.2,4.1
		c-1.2,1.4-2.6,2.7-4,3.6s-2.9,1.8-4.5,2.3c-1.5,0.6-3.1,1-4.8,1.2c-1.7,0.2-3.3,0.4-4.9,0.4c-2.9,0-5.5-0.5-8.1-1.6
		s-4.7-2.6-6.6-4.7c-1.9-2-3.4-4.5-4.5-7.5c-1.1-3-1.6-6.3-1.6-10.1c0-3.4,0.5-6.5,1.5-9.4c1-2.9,2.4-5.4,4.3-7.5
		c1.9-2.1,4.2-3.8,7-5c2.8-1.2,6-1.8,9.6-1.8c3.5,0,6.5,0.6,9.1,1.7c2.6,1.1,4.9,2.7,7,4.8L1007.1,336.7z"/>
	<path class="st0" d="M1017.6,373.2v-67h11.1V332c1.8-1.7,3.8-3.1,6-4.1c2.2-1.1,4.7-1.6,7.6-1.6c2.5,0,4.8,0.4,6.7,1.3
		c2,0.9,3.6,2.1,4.9,3.6c1.3,1.5,2.3,3.4,3,5.5c0.7,2.1,1,4.5,1,7.1v29.4h-11.1v-29.4c0-2.8-0.7-5-2-6.6c-1.3-1.5-3.3-2.3-5.9-2.3
		c-1.9,0-3.7,0.4-5.4,1.3c-1.7,0.9-3.3,2.1-4.8,3.6v33.5H1017.6z"/>
	<path class="st0" d="M1088,326.2c2.9,0,5.6,0.5,8,1.4c2.4,0.9,4.6,2.3,6.3,4.1c1.8,1.8,3.2,4,4.1,6.6s1.5,5.6,1.5,8.9
		c0,0.8,0,1.5-0.1,2.1c-0.1,0.6-0.2,1-0.4,1.3c-0.2,0.3-0.5,0.5-0.8,0.7c-0.3,0.1-0.8,0.2-1.3,0.2h-28.6c0.3,4.7,1.6,8.2,3.8,10.5
		c2.2,2.2,5.2,3.3,8.8,3.3c1.8,0,3.4-0.2,4.7-0.6s2.4-0.9,3.4-1.4c1-0.5,1.8-1,2.6-1.4c0.7-0.4,1.4-0.6,2.1-0.6
		c0.5,0,0.8,0.1,1.2,0.3c0.3,0.2,0.6,0.4,0.9,0.8l3.2,4.1c-1.2,1.4-2.6,2.7-4.1,3.6c-1.5,1-3.1,1.8-4.8,2.3c-1.7,0.6-3.4,1-5.1,1.2
		c-1.7,0.2-3.4,0.4-5,0.4c-3.2,0-6.2-0.5-9-1.6c-2.8-1.1-5.2-2.6-7.2-4.7c-2-2.1-3.7-4.7-4.8-7.8s-1.8-6.7-1.8-10.7
		c0-3.2,0.5-6.1,1.5-8.9c1-2.8,2.5-5.2,4.4-7.3c1.9-2.1,4.2-3.7,7-4.9C1081.4,326.8,1084.5,326.2,1088,326.2z M1088.2,334.2
		c-3.2,0-5.8,0.9-7.6,2.8c-1.8,1.8-3,4.4-3.5,7.8h20.9c0-1.4-0.2-2.8-0.6-4.1c-0.4-1.3-1-2.4-1.8-3.4c-0.8-1-1.8-1.7-3.1-2.3
		C1091.3,334.5,1089.8,334.2,1088.2,334.2z"/>
	<path class="st0" d="M1117,373.2V327h6.5c1.1,0,1.9,0.2,2.4,0.6c0.5,0.4,0.8,1.1,0.9,2.2l0.7,5.6c1.7-2.9,3.6-5.1,5.8-6.8
		c2.2-1.7,4.7-2.5,7.5-2.5c2.3,0,4.2,0.5,5.7,1.6l-1.4,8.3c-0.1,0.5-0.3,0.9-0.6,1.1c-0.3,0.2-0.7,0.3-1.2,0.3
		c-0.5,0-1.1-0.1-1.8-0.3c-0.8-0.2-1.8-0.3-3.1-0.3c-2.3,0-4.3,0.6-6,1.9c-1.7,1.3-3.1,3.1-4.2,5.6v28.8H1117z"/>
	<path class="st0" d="M1181.3,336c-0.3,0.5-0.6,0.8-0.9,1c-0.3,0.2-0.8,0.3-1.3,0.3c-0.5,0-1.1-0.1-1.7-0.5c-0.6-0.3-1.3-0.6-2.1-1
		c-0.8-0.4-1.7-0.7-2.8-1c-1-0.3-2.3-0.5-3.7-0.5c-2.2,0-3.9,0.5-5.2,1.4c-1.3,0.9-1.9,2.1-1.9,3.7c0,1,0.3,1.8,1,2.5
		s1.5,1.3,2.6,1.8c1.1,0.5,2.3,1,3.6,1.4s2.7,0.8,4.1,1.3c1.4,0.5,2.8,1,4.1,1.6c1.4,0.6,2.6,1.4,3.6,2.3c1.1,0.9,1.9,2.1,2.6,3.4
		s1,2.9,1,4.8c0,2.2-0.4,4.3-1.2,6.2c-0.8,1.9-2,3.5-3.6,4.9c-1.6,1.4-3.5,2.4-5.8,3.2c-2.3,0.8-4.9,1.2-7.9,1.2
		c-1.6,0-3.1-0.1-4.7-0.4c-1.5-0.3-3-0.7-4.4-1.2s-2.7-1.1-3.9-1.8s-2.2-1.4-3.1-2.3l2.6-4.2c0.3-0.5,0.7-0.9,1.2-1.2
		c0.5-0.3,1-0.4,1.7-0.4s1.3,0.2,2,0.6s1.3,0.8,2.1,1.3c0.8,0.5,1.8,0.9,2.9,1.3c1.1,0.4,2.5,0.6,4.2,0.6c1.3,0,2.5-0.2,3.4-0.5
		c0.9-0.3,1.7-0.7,2.3-1.2c0.6-0.5,1.1-1.1,1.4-1.8c0.3-0.7,0.4-1.4,0.4-2.1c0-1.1-0.3-2-1-2.7c-0.6-0.7-1.5-1.3-2.6-1.8
		c-1.1-0.5-2.3-1-3.7-1.4c-1.4-0.4-2.8-0.8-4.2-1.3c-1.4-0.5-2.8-1-4.2-1.7c-1.4-0.6-2.6-1.5-3.7-2.5c-1.1-1-1.9-2.2-2.6-3.7
		s-1-3.2-1-5.2c0-1.9,0.4-3.7,1.1-5.4c0.8-1.7,1.9-3.2,3.3-4.5c1.5-1.3,3.3-2.3,5.5-3.1c2.2-0.8,4.7-1.1,7.6-1.1
		c3.2,0,6.1,0.5,8.7,1.6c2.6,1.1,4.8,2.4,6.5,4.1L1181.3,336z"/>
	<path class="st0" d="M532,434.4c3.5,0,6.6,0.6,9.4,1.7s5.2,2.7,7.2,4.7c2,2,3.5,4.5,4.6,7.5c1.1,2.9,1.6,6.2,1.6,9.9
		c0,3.7-0.5,7-1.6,9.9c-1.1,2.9-2.6,5.5-4.6,7.5c-2,2.1-4.4,3.7-7.2,4.8c-2.8,1.1-5.9,1.7-9.4,1.7c-3.5,0-6.6-0.6-9.4-1.7
		c-2.8-1.1-5.2-2.7-7.2-4.8c-2-2.1-3.5-4.6-4.6-7.5c-1.1-2.9-1.6-6.3-1.6-9.9c0-3.6,0.5-6.9,1.6-9.9c1.1-2.9,2.6-5.4,4.6-7.5
		c2-2,4.4-3.6,7.2-4.7C525.4,435,528.6,434.4,532,434.4z M532,473.5c3.8,0,6.7-1.3,8.5-3.9s2.8-6.4,2.8-11.4c0-5-0.9-8.8-2.8-11.4
		c-1.8-2.6-4.7-3.9-8.5-3.9c-3.9,0-6.8,1.3-8.7,3.9c-1.9,2.6-2.8,6.4-2.8,11.4s0.9,8.7,2.8,11.3C525.2,472.2,528.1,473.5,532,473.5z
		"/>
	<path class="st0" d="M565.5,481.4v-37.9l-4-0.6c-0.9-0.2-1.6-0.5-2.1-0.9c-0.5-0.5-0.8-1.1-0.8-1.9v-4.6h6.9v-3.4
		c0-2.6,0.4-5,1.2-7.1c0.8-2.1,1.9-3.9,3.4-5.4c1.5-1.5,3.3-2.6,5.4-3.4s4.5-1.2,7.2-1.2c2.1,0,4.1,0.3,6,0.9l-0.2,5.6
		c-0.1,0.9-0.5,1.4-1.2,1.6c-0.8,0.2-1.6,0.3-2.6,0.3c-1.3,0-2.5,0.1-3.5,0.4c-1,0.3-1.9,0.8-2.6,1.5c-0.7,0.7-1.3,1.6-1.6,2.8
		c-0.4,1.2-0.6,2.6-0.6,4.3v3.1h12v7.9h-11.7v37.9H565.5z"/>
	<path class="st0" d="M629,494.1c-0.3,0.8-0.8,1.4-1.3,1.8c-0.5,0.4-1.3,0.6-2.4,0.6H617l8.7-18.5l-18.7-42.8h9.7
		c0.9,0,1.6,0.2,2.1,0.6c0.5,0.4,0.8,0.9,1.1,1.4l9.9,24c0.3,0.8,0.6,1.6,0.9,2.4c0.2,0.8,0.5,1.7,0.6,2.5c0.2-0.9,0.5-1.7,0.8-2.5
		c0.3-0.8,0.6-1.6,0.9-2.5l9.3-23.9c0.2-0.6,0.6-1.1,1.2-1.5c0.6-0.4,1.2-0.6,1.9-0.6h8.9L629,494.1z"/>
	<path class="st0" d="M678.9,434.4c3.5,0,6.6,0.6,9.4,1.7c2.8,1.1,5.2,2.7,7.2,4.7s3.5,4.5,4.6,7.5c1.1,2.9,1.6,6.2,1.6,9.9
		c0,3.7-0.5,7-1.6,9.9c-1.1,2.9-2.6,5.5-4.6,7.5c-2,2.1-4.4,3.7-7.2,4.8c-2.8,1.1-5.9,1.7-9.4,1.7s-6.6-0.6-9.4-1.7
		c-2.8-1.1-5.2-2.7-7.2-4.8c-2-2.1-3.5-4.6-4.6-7.5c-1.1-2.9-1.6-6.3-1.6-9.9c0-3.6,0.5-6.9,1.6-9.9c1.1-2.9,2.6-5.4,4.6-7.5
		c2-2,4.4-3.6,7.2-4.7C672.3,435,675.5,434.4,678.9,434.4z M678.9,473.5c3.8,0,6.7-1.3,8.5-3.9c1.8-2.6,2.8-6.4,2.8-11.4
		c0-5-0.9-8.8-2.8-11.4c-1.8-2.6-4.7-3.9-8.5-3.9c-3.9,0-6.8,1.3-8.7,3.9c-1.9,2.6-2.8,6.4-2.8,11.4s0.9,8.7,2.8,11.3
		S675,473.5,678.9,473.5z"/>
	<path class="st0" d="M720.6,435.2v29.4c0,2.8,0.7,5,2,6.6c1.3,1.5,3.3,2.3,5.9,2.3c1.9,0,3.7-0.4,5.4-1.3c1.7-0.9,3.3-2,4.8-3.5
		v-33.5h11.1v46.3H743c-1.4,0-2.4-0.7-2.8-2l-0.8-3.7c-1,1-2,1.8-3,2.6c-1,0.8-2.1,1.5-3.3,2c-1.2,0.6-2.4,1-3.7,1.3
		c-1.3,0.3-2.8,0.5-4.3,0.5c-2.5,0-4.8-0.4-6.7-1.3s-3.6-2.1-4.9-3.6c-1.3-1.6-2.3-3.4-3-5.6c-0.7-2.1-1-4.5-1-7.1v-29.4H720.6z"/>
	<path class="st0" d="M761.7,481.4v-46.3h6.5c1.1,0,1.9,0.2,2.4,0.6c0.5,0.4,0.8,1.1,0.9,2.2l0.7,5.6c1.7-2.9,3.6-5.1,5.8-6.8
		c2.2-1.7,4.7-2.5,7.5-2.5c2.3,0,4.2,0.5,5.7,1.6l-1.4,8.3c-0.1,0.5-0.3,0.9-0.6,1.2c-0.3,0.2-0.7,0.3-1.2,0.3
		c-0.5,0-1.1-0.1-1.8-0.3c-0.8-0.2-1.8-0.3-3.1-0.3c-2.3,0-4.3,0.6-6,1.9c-1.7,1.3-3.1,3.1-4.2,5.6v28.8H761.7z"/>
	<path class="st0" d="M826,444.2c-0.3,0.5-0.6,0.8-0.9,1c-0.3,0.2-0.8,0.3-1.3,0.3c-0.5,0-1.1-0.2-1.7-0.5c-0.6-0.3-1.3-0.6-2.1-1
		s-1.7-0.7-2.8-1c-1-0.3-2.3-0.5-3.7-0.5c-2.2,0-3.9,0.5-5.2,1.4c-1.3,0.9-1.9,2.1-1.9,3.7c0,1,0.3,1.8,1,2.5
		c0.6,0.7,1.5,1.3,2.6,1.8c1.1,0.5,2.3,1,3.6,1.4c1.4,0.4,2.7,0.8,4.1,1.3c1.4,0.5,2.8,1,4.1,1.6s2.6,1.4,3.6,2.3
		c1.1,0.9,1.9,2.1,2.6,3.4s1,2.9,1,4.8c0,2.2-0.4,4.3-1.2,6.2c-0.8,1.9-2,3.5-3.6,4.9c-1.6,1.4-3.5,2.4-5.8,3.2
		c-2.3,0.8-4.9,1.2-7.9,1.2c-1.6,0-3.1-0.1-4.7-0.4c-1.5-0.3-3-0.7-4.4-1.2s-2.7-1.1-3.9-1.8s-2.2-1.4-3.1-2.3l2.6-4.2
		c0.3-0.5,0.7-0.9,1.2-1.2c0.5-0.3,1-0.4,1.7-0.4s1.3,0.2,2,0.6s1.3,0.8,2.1,1.3c0.8,0.5,1.8,0.9,2.9,1.3c1.1,0.4,2.5,0.6,4.2,0.6
		c1.3,0,2.5-0.2,3.4-0.5c0.9-0.3,1.7-0.7,2.3-1.2c0.6-0.5,1.1-1.1,1.4-1.8c0.3-0.7,0.4-1.4,0.4-2.1c0-1.1-0.3-2-1-2.7
		c-0.6-0.7-1.5-1.3-2.6-1.8c-1.1-0.5-2.3-1-3.7-1.4c-1.4-0.4-2.8-0.8-4.2-1.3c-1.4-0.5-2.8-1-4.2-1.7c-1.4-0.6-2.6-1.5-3.7-2.5
		c-1.1-1-1.9-2.2-2.6-3.7c-0.6-1.4-1-3.2-1-5.2c0-1.9,0.4-3.7,1.1-5.4c0.8-1.7,1.9-3.2,3.3-4.5s3.3-2.3,5.5-3.1
		c2.2-0.8,4.7-1.1,7.6-1.1c3.2,0,6.1,0.5,8.7,1.6c2.6,1.1,4.8,2.4,6.5,4.1L826,444.2z"/>
	<path class="st0" d="M866.6,414.4v38.4h2.1c0.8,0,1.3-0.1,1.8-0.3s0.9-0.6,1.4-1.2l11.5-14.2c0.5-0.6,1.1-1.1,1.6-1.4
		c0.6-0.3,1.3-0.5,2.3-0.5h10.2L883,452.3c-0.5,0.6-1,1.2-1.6,1.7c-0.5,0.5-1.1,1-1.8,1.4c0.6,0.5,1.2,1,1.7,1.6
		c0.5,0.6,1,1.2,1.4,1.9l15.4,22.5h-10.1c-0.9,0-1.6-0.2-2.2-0.5c-0.6-0.3-1.1-0.8-1.6-1.5l-11.8-17.5c-0.5-0.7-0.9-1.1-1.4-1.4
		c-0.5-0.2-1.1-0.3-2-0.3h-2.5v21.2h-11.1v-67H866.6z"/>
	<path class="st0" d="M905,481.4v-46.3h6.8c1.4,0,2.4,0.7,2.8,2l0.8,3.7c0.9-1,1.9-1.8,3-2.6c1-0.8,2.1-1.5,3.3-2
		c1.2-0.6,2.4-1,3.7-1.3c1.3-0.3,2.8-0.5,4.3-0.5c2.5,0,4.8,0.4,6.7,1.3s3.6,2.1,4.9,3.6c1.3,1.5,2.3,3.4,3,5.5c0.7,2.1,1,4.5,1,7.1
		v29.4h-11.1V452c0-2.8-0.7-5-2-6.6s-3.3-2.3-5.9-2.3c-1.9,0-3.7,0.4-5.4,1.3c-1.7,0.9-3.3,2.1-4.8,3.6v33.5H905z"/>
	<path class="st0" d="M976.1,434.4c3.5,0,6.6,0.6,9.4,1.7c2.8,1.1,5.2,2.7,7.2,4.7c2,2,3.5,4.5,4.6,7.5c1.1,2.9,1.6,6.2,1.6,9.9
		c0,3.7-0.5,7-1.6,9.9c-1.1,2.9-2.6,5.5-4.6,7.5c-2,2.1-4.4,3.7-7.2,4.8c-2.8,1.1-5.9,1.7-9.4,1.7s-6.6-0.6-9.4-1.7
		c-2.8-1.1-5.2-2.7-7.2-4.8c-2-2.1-3.5-4.6-4.6-7.5c-1.1-2.9-1.6-6.3-1.6-9.9c0-3.6,0.5-6.9,1.6-9.9c1.1-2.9,2.6-5.4,4.6-7.5
		s4.4-3.6,7.2-4.7C969.5,435,972.6,434.4,976.1,434.4z M976.1,473.5c3.8,0,6.7-1.3,8.5-3.9s2.8-6.4,2.8-11.4c0-5-0.9-8.8-2.8-11.4
		c-1.8-2.6-4.7-3.9-8.5-3.9c-3.9,0-6.8,1.3-8.7,3.9c-1.9,2.6-2.8,6.4-2.8,11.4s0.9,8.7,2.8,11.3
		C969.3,472.2,972.1,473.5,976.1,473.5z"/>
	<path class="st0" d="M1001.9,435.2h8.8c0.8,0,1.5,0.2,2.1,0.6c0.6,0.4,0.9,0.9,1.1,1.5l6.6,24.7c0.4,1.4,0.7,2.7,0.9,4
		c0.2,1.3,0.4,2.6,0.7,3.9c0.3-1.3,0.7-2.6,1.1-3.9c0.4-1.3,0.8-2.6,1.2-4l7.7-24.8c0.2-0.6,0.5-1.1,1.1-1.5s1.2-0.6,1.9-0.6h4.9
		c0.8,0,1.5,0.2,2,0.6s0.9,0.9,1.1,1.5l7.6,25.2c0.4,1.3,0.7,2.5,1.1,3.8c0.3,1.2,0.6,2.4,0.9,3.7c0.2-1.3,0.4-2.6,0.7-3.9
		c0.3-1.3,0.6-2.6,1-4l6.9-24.7c0.1-0.6,0.5-1.1,1.1-1.5c0.6-0.4,1.2-0.6,2-0.6h8.4l-14.7,46.3h-9c-1,0-1.7-0.7-2.1-2l-8.3-26.7
		c-0.3-0.9-0.5-1.8-0.7-2.6s-0.4-1.8-0.6-2.6c-0.2,0.9-0.4,1.8-0.6,2.7c-0.2,0.9-0.5,1.8-0.7,2.7l-8.4,26.6c-0.4,1.3-1.2,2-2.4,2
		h-8.5L1001.9,435.2z"/>
	<path class="st0" d="M656.5,589.6h-5c-1.1,0-1.9-0.2-2.5-0.5c-0.6-0.3-1.1-1-1.4-1.9l-1-3.3c-1.2,1.1-2.3,2-3.4,2.8
		c-1.1,0.8-2.3,1.5-3.5,2c-1.2,0.5-2.5,0.9-3.8,1.2s-2.9,0.4-4.5,0.4c-2,0-3.8-0.3-5.4-0.8c-1.7-0.5-3.1-1.3-4.3-2.4
		s-2.1-2.4-2.8-3.9s-1-3.4-1-5.5c0-1.7,0.5-3.5,1.4-5.2c0.9-1.7,2.4-3.2,4.6-4.6c2.1-1.4,5-2.5,8.5-3.4c3.5-0.9,7.9-1.4,13.2-1.4
		v-2.7c0-3.1-0.7-5.4-2-6.9s-3.2-2.2-5.7-2.2c-1.8,0-3.3,0.2-4.5,0.6c-1.2,0.4-2.2,0.9-3.1,1.4c-0.9,0.5-1.7,1-2.5,1.4
		c-0.8,0.4-1.6,0.6-2.5,0.6c-0.8,0-1.4-0.2-1.9-0.6c-0.5-0.4-1-0.9-1.3-1.4l-2-3.6c5.3-4.9,11.7-7.3,19.3-7.3c2.7,0,5.1,0.4,7.2,1.3
		s3.9,2.1,5.4,3.7c1.5,1.6,2.6,3.5,3.4,5.7c0.8,2.2,1.1,4.6,1.1,7.2V589.6z M634.9,582.7c1.1,0,2.2-0.1,3.2-0.3s1.9-0.5,2.7-0.9
		s1.7-0.9,2.5-1.5c0.8-0.6,1.6-1.3,2.4-2.2V570c-3.2,0-6,0.2-8.1,0.6c-2.2,0.4-3.9,0.9-5.3,1.6c-1.3,0.6-2.3,1.4-2.8,2.2
		c-0.6,0.8-0.8,1.8-0.8,2.8c0,2,0.6,3.4,1.7,4.2C631.5,582.3,633,582.7,634.9,582.7z"/>
	<path class="st0" d="M667.6,589.6v-67h11.1V549c1.8-2,3.9-3.5,6.2-4.7s5-1.7,8.1-1.7c2.5,0,4.8,0.5,6.9,1.6c2.1,1,3.9,2.5,5.4,4.5
		s2.7,4.4,3.5,7.3c0.8,2.9,1.2,6.3,1.2,10.1c0,3.5-0.5,6.7-1.4,9.6c-0.9,2.9-2.3,5.5-4,7.7s-3.8,3.9-6.3,5.1
		c-2.5,1.2-5.2,1.8-8.2,1.8c-1.4,0-2.7-0.1-3.9-0.4c-1.2-0.3-2.2-0.7-3.2-1.2c-1-0.5-1.9-1.1-2.7-1.9c-0.8-0.7-1.6-1.6-2.4-2.5
		l-0.5,3.1c-0.2,0.8-0.5,1.3-0.9,1.7c-0.4,0.3-1,0.5-1.8,0.5H667.6z M689.2,551.3c-2.3,0-4.3,0.5-5.9,1.5c-1.6,1-3.2,2.4-4.6,4.1
		v20.7c1.3,1.6,2.6,2.7,4.1,3.3c1.5,0.6,3.1,0.9,4.8,0.9c1.7,0,3.2-0.3,4.6-0.9s2.5-1.6,3.4-2.9c0.9-1.3,1.7-2.9,2.2-4.9
		c0.5-2,0.8-4.3,0.8-7c0-2.7-0.2-5-0.7-6.9c-0.4-1.9-1.1-3.4-1.9-4.6c-0.8-1.2-1.8-2-3-2.6C692,551.6,690.7,551.3,689.2,551.3z"/>
	<path class="st0" d="M738.6,542.6c3.5,0,6.6,0.6,9.4,1.7s5.2,2.7,7.2,4.7c2,2,3.5,4.5,4.6,7.5c1.1,2.9,1.6,6.2,1.6,9.9
		c0,3.7-0.5,7-1.6,9.9c-1.1,2.9-2.6,5.5-4.6,7.5c-2,2.1-4.4,3.7-7.2,4.8c-2.8,1.1-5.9,1.7-9.4,1.7c-3.5,0-6.6-0.6-9.4-1.7
		c-2.8-1.1-5.2-2.7-7.2-4.8c-2-2.1-3.5-4.6-4.6-7.5c-1.1-2.9-1.6-6.3-1.6-9.9c0-3.6,0.5-6.9,1.6-9.9c1.1-2.9,2.6-5.4,4.6-7.5
		s4.4-3.6,7.2-4.7S735.1,542.6,738.6,542.6z M738.6,581.7c3.8,0,6.7-1.3,8.5-3.9s2.8-6.4,2.8-11.4c0-5-0.9-8.8-2.8-11.4
		c-1.8-2.6-4.7-3.9-8.5-3.9c-3.9,0-6.8,1.3-8.7,3.9c-1.9,2.6-2.8,6.4-2.8,11.4s0.9,8.7,2.8,11.3
		C731.8,580.4,734.7,581.7,738.6,581.7z"/>
	<path class="st0" d="M780.3,543.4v29.4c0,2.8,0.7,5,2,6.6c1.3,1.5,3.3,2.3,5.9,2.3c1.9,0,3.7-0.4,5.4-1.3c1.7-0.9,3.3-2,4.8-3.5
		v-33.5h11.1v46.3h-6.8c-1.4,0-2.4-0.7-2.8-2l-0.8-3.7c-1,1-2,1.8-3,2.6s-2.1,1.5-3.3,2c-1.2,0.6-2.4,1-3.7,1.3
		c-1.3,0.3-2.8,0.5-4.3,0.5c-2.5,0-4.8-0.4-6.7-1.3s-3.6-2.1-4.9-3.6s-2.3-3.4-3-5.6c-0.7-2.1-1-4.5-1-7.1v-29.4H780.3z"/>
	<path class="st0" d="M836.6,590.3c-4,0-7.1-1.1-9.2-3.4c-2.2-2.3-3.2-5.4-3.2-9.4v-25.8h-4.7c-0.6,0-1.1-0.2-1.6-0.6
		c-0.4-0.4-0.7-1-0.7-1.8v-4.4l7.4-1.2l2.3-12.6c0.1-0.6,0.4-1.1,0.8-1.4c0.4-0.3,1-0.5,1.6-0.5h5.8v14.6h12.2v7.9h-12.2v25.1
		c0,1.4,0.4,2.6,1.1,3.4c0.7,0.8,1.7,1.2,2.9,1.2c0.7,0,1.3-0.1,1.7-0.2c0.5-0.2,0.9-0.3,1.2-0.5s0.7-0.4,0.9-0.5
		c0.3-0.2,0.5-0.2,0.8-0.2c0.3,0,0.6,0.1,0.8,0.2c0.2,0.2,0.4,0.4,0.7,0.7l3.3,5.4c-1.6,1.4-3.5,2.4-5.6,3.1
		C841,590,838.8,590.3,836.6,590.3z"/>
	<path class="st0" d="M887.2,529.9c0,1-0.2,1.9-0.6,2.7s-0.9,1.6-1.6,2.2c-0.6,0.6-1.4,1.1-2.3,1.5c-0.9,0.4-1.8,0.6-2.8,0.6
		c-1,0-1.9-0.2-2.7-0.6c-0.9-0.4-1.6-0.9-2.2-1.5c-0.6-0.6-1.1-1.4-1.5-2.2s-0.6-1.7-0.6-2.7c0-1,0.2-1.9,0.6-2.8
		c0.4-0.9,0.9-1.6,1.5-2.3s1.4-1.1,2.2-1.5s1.8-0.6,2.7-0.6c1,0,1.9,0.2,2.8,0.6s1.6,0.9,2.3,1.5c0.6,0.6,1.2,1.4,1.6,2.3
		C887,528,887.2,528.9,887.2,529.9z M885.5,543.4v46.3h-11.1v-46.3H885.5z"/>
	<path class="st0" d="M913.3,590.3c-4,0-7.1-1.1-9.2-3.4c-2.2-2.3-3.2-5.4-3.2-9.4v-25.8h-4.7c-0.6,0-1.1-0.2-1.6-0.6
		c-0.4-0.4-0.7-1-0.7-1.8v-4.4l7.4-1.2l2.3-12.6c0.1-0.6,0.4-1.1,0.8-1.4c0.4-0.3,1-0.5,1.6-0.5h5.8v14.6h12.2v7.9h-12.2v25.1
		c0,1.4,0.4,2.6,1.1,3.4c0.7,0.8,1.7,1.2,2.9,1.2c0.7,0,1.3-0.1,1.7-0.2c0.5-0.2,0.9-0.3,1.2-0.5s0.7-0.4,0.9-0.5
		c0.3-0.2,0.5-0.2,0.8-0.2c0.3,0,0.6,0.1,0.8,0.2c0.2,0.2,0.4,0.4,0.7,0.7l3.3,5.4c-1.6,1.4-3.5,2.4-5.6,3.1
		C917.7,590,915.6,590.3,913.3,590.3z"/>
	<path class="st0" d="M928.7,530.3c1-0.9,2.1-1.8,3.4-2.6c1.2-0.8,2.5-1.5,3.9-2.1c1.4-0.6,2.9-1.1,4.6-1.4c1.7-0.3,3.4-0.5,5.4-0.5
		c2.6,0,5,0.4,7.1,1.1c2.1,0.7,4,1.8,5.5,3.1c1.5,1.3,2.7,3,3.6,4.8c0.8,1.9,1.3,4,1.3,6.4c0,2.3-0.3,4.3-1,5.9s-1.5,3.1-2.5,4.4
		c-1,1.2-2.1,2.3-3.3,3.2s-2.3,1.8-3.3,2.5c-1.1,0.8-2,1.6-2.7,2.3c-0.8,0.8-1.2,1.6-1.4,2.6l-1,6.6h-7.6l-0.8-7.3
		c0-0.2,0-0.3,0-0.4c0-0.1,0-0.2,0-0.4c0-1.3,0.3-2.5,1-3.4c0.7-1,1.5-1.9,2.5-2.8c1-0.9,2.1-1.7,3.2-2.5s2.2-1.7,3.2-2.6
		c1-0.9,1.8-2,2.5-3.2c0.7-1.2,1-2.6,1-4.2c0-1.1-0.2-2.1-0.6-2.9c-0.4-0.9-1-1.6-1.7-2.2c-0.7-0.6-1.6-1.1-2.6-1.4
		c-1-0.3-2.1-0.5-3.3-0.5c-1.7,0-3.2,0.2-4.4,0.6c-1.2,0.4-2.2,0.8-3,1.3c-0.8,0.5-1.5,0.9-2.1,1.3c-0.6,0.4-1.1,0.6-1.5,0.6
		c-1.1,0-1.9-0.5-2.3-1.4L928.7,530.3z M937.2,583.5c0-0.9,0.2-1.8,0.5-2.7s0.8-1.6,1.4-2.2c0.6-0.6,1.3-1.1,2.2-1.4
		c0.8-0.4,1.7-0.5,2.7-0.5c0.9,0,1.8,0.2,2.7,0.5c0.8,0.4,1.6,0.8,2.2,1.4s1.1,1.3,1.4,2.2c0.4,0.8,0.5,1.7,0.5,2.7
		c0,1-0.2,1.9-0.5,2.7c-0.4,0.8-0.8,1.5-1.4,2.1c-0.6,0.6-1.3,1.1-2.2,1.4c-0.8,0.3-1.7,0.5-2.7,0.5c-1,0-1.9-0.2-2.7-0.5
		c-0.8-0.3-1.6-0.8-2.2-1.4c-0.6-0.6-1.1-1.3-1.4-2.1C937.4,585.3,937.2,584.4,937.2,583.5z"/>
</g>
</svg>
