<?xml version="1.0" encoding="utf-8"?>
<!-- Generator: Adobe Illustrator 19.0.0, SVG Export Plug-In . SVG Version: 6.00 Build 0)  -->
<svg version="1.1" id="Layer_1" xmlns="http://www.w3.org/2000/svg" xmlns:xlink="http://www.w3.org/1999/xlink" x="0px" y="0px"
	 viewBox="-72.7 -0.3 1426.2 1324.3" style="enable-background:new -72.7 -0.3 1426.2 1324.3;" xml:space="preserve">
<style type="text/css">
	.st0{fill:#363F4A;}
	.st1{enable-background:new    ;}
</style>
<g>
	<path class="st0" d="M362.9,1019.9c7.1,11.8,3.5,29.4-8.9,37.2L-29,1293l539.2-132l0,0c5.3-2,10.6,0,16,2
		c37.2,23.5,78,39.2,120.6,50.9c40.8,11.8,85.1,17.6,131.3,17.6c150.8,0,285.6-66.6,384.9-174.4c97.6-109.7,157.9-258.6,157.9-425.2
		s-60.3-315.5-157.9-425.2C1063.5,99,928.7,32.4,777.9,32.4S492.4,99,393,206.7C295.5,316.5,235.2,465.4,235.2,632
		c0,70.5,10.6,139.1,31.9,203.8s51.4,125.4,92.2,180.3C361.1,1016,361.1,1018,362.9,1019.9z M203.4,635.7
		c0-175.2,63.8-335.1,168.9-449.4C475.8,70.2,620.6-0.3,779.2-0.3s303.4,70.5,406.8,186.6c105.1,114.3,168.9,274.2,168.9,449.4
		s-63.8,335.1-168.9,449.4c-103.4,116.2-248.2,186.6-406.8,186.6c-48.3,0-94.8-5.7-139.6-19c-41.4-11.4-81-28.6-120.7-49.5
		l-563.7,120c-12.1,3.8-24.1-5.7-27.6-20.9c-1.7-11.4,3.4-22.9,12.1-26.7l379.2-257.1c-34.5-51.4-62.1-106.6-81-165.7
		C213.8,782.3,203.4,710,203.4,635.7z"/>
</g>
<g class="st1">
	<path class="st0" d="M436.8,234.1v22.2h-10.6v-22.2l-20.8-34.9h9.3c0.9,0,1.6,0.2,2.2,0.7c0.5,0.4,1,1,1.4,1.7l10.5,19.1
		c0.6,1.1,1.1,2.2,1.6,3.2c0.4,1,0.9,2,1.2,3c0.3-1,0.7-2,1.2-3c0.4-1,1-2.1,1.6-3.2l10.4-19.1c0.3-0.6,0.7-1.1,1.3-1.6
		c0.6-0.5,1.3-0.7,2.2-0.7h9.4L436.8,234.1z"/>
	<path class="st0" d="M472.9,215.2c2.6,0,4.9,0.4,7,1.2c2.1,0.8,4,2,5.5,3.6c1.6,1.6,2.8,3.5,3.6,5.8c0.9,2.3,1.3,4.9,1.3,7.8
		c0,0.7,0,1.3-0.1,1.8c-0.1,0.5-0.2,0.9-0.4,1.1c-0.2,0.3-0.4,0.5-0.7,0.6c-0.3,0.1-0.7,0.2-1.1,0.2h-25c0.3,4.2,1.4,7.2,3.4,9.2
		c1.9,1.9,4.5,2.9,7.7,2.9c1.6,0,2.9-0.2,4.1-0.6c1.1-0.4,2.1-0.8,3-1.2c0.9-0.4,1.6-0.9,2.2-1.2c0.6-0.4,1.3-0.6,1.9-0.6
		c0.4,0,0.7,0.1,1,0.2c0.3,0.2,0.5,0.4,0.7,0.7l2.8,3.5c-1.1,1.3-2.3,2.3-3.6,3.2c-1.3,0.9-2.7,1.5-4.2,2.1s-2.9,0.9-4.5,1.1
		c-1.5,0.2-3,0.3-4.4,0.3c-2.8,0-5.4-0.5-7.8-1.4c-2.4-0.9-4.5-2.3-6.3-4.1c-1.8-1.8-3.2-4.1-4.2-6.8s-1.5-5.8-1.5-9.4
		c0-2.8,0.4-5.4,1.3-7.8c0.9-2.4,2.2-4.5,3.8-6.4c1.7-1.8,3.7-3.2,6.1-4.3C467.2,215.7,469.9,215.2,472.9,215.2z M473.1,222.2
		c-2.8,0-5.1,0.8-6.7,2.4c-1.6,1.6-2.6,3.9-3.1,6.8h18.3c0-1.3-0.2-2.5-0.5-3.6c-0.3-1.1-0.9-2.1-1.6-2.9c-0.7-0.8-1.6-1.5-2.7-2
		C475.8,222.4,474.5,222.2,473.1,222.2z"/>
	<path class="st0" d="M522.4,223.7c-0.3,0.4-0.5,0.7-0.8,0.9c-0.3,0.2-0.7,0.3-1.1,0.3c-0.5,0-1-0.1-1.5-0.4
		c-0.5-0.3-1.2-0.6-1.9-0.9c-0.7-0.3-1.5-0.6-2.4-0.9c-0.9-0.3-2-0.4-3.2-0.4c-1.9,0-3.4,0.4-4.5,1.2c-1.1,0.8-1.7,1.9-1.7,3.2
		c0,0.9,0.3,1.6,0.8,2.2c0.6,0.6,1.3,1.1,2.2,1.6c0.9,0.4,2,0.8,3.2,1.2c1.2,0.4,2.4,0.7,3.6,1.2c1.2,0.4,2.4,0.9,3.6,1.4
		c1.2,0.5,2.2,1.2,3.2,2.1c0.9,0.8,1.7,1.8,2.2,3c0.6,1.2,0.8,2.6,0.8,4.2c0,1.9-0.4,3.7-1.1,5.4c-0.7,1.6-1.7,3.1-3.1,4.3
		c-1.4,1.2-3.1,2.1-5.1,2.8c-2,0.7-4.3,1-6.9,1c-1.4,0-2.8-0.1-4.1-0.4c-1.3-0.3-2.6-0.6-3.8-1c-1.2-0.4-2.4-1-3.4-1.6
		c-1-0.6-2-1.3-2.7-2l2.2-3.7c0.3-0.4,0.6-0.8,1-1c0.4-0.2,0.9-0.4,1.5-0.4c0.6,0,1.2,0.2,1.7,0.5c0.5,0.3,1.2,0.7,1.9,1.1
		s1.5,0.8,2.5,1.1c1,0.3,2.2,0.5,3.6,0.5c1.2,0,2.1-0.1,3-0.4c0.8-0.3,1.5-0.6,2.1-1.1c0.5-0.4,0.9-1,1.2-1.6
		c0.2-0.6,0.4-1.2,0.4-1.8c0-0.9-0.3-1.7-0.8-2.3c-0.6-0.6-1.3-1.1-2.2-1.6c-0.9-0.4-2-0.8-3.2-1.2c-1.2-0.4-2.4-0.7-3.7-1.2
		c-1.2-0.4-2.5-0.9-3.7-1.5c-1.2-0.6-2.3-1.3-3.2-2.1c-0.9-0.9-1.7-1.9-2.2-3.2c-0.6-1.3-0.8-2.8-0.8-4.6c0-1.7,0.3-3.2,1-4.7
		c0.7-1.5,1.6-2.8,2.9-3.9c1.3-1.1,2.9-2,4.8-2.7c1.9-0.7,4.1-1,6.6-1c2.8,0,5.3,0.5,7.6,1.4c2.3,0.9,4.2,2.1,5.7,3.6L522.4,223.7z"
		/>
	<path class="st0" d="M546,250.3c0-0.7,0.1-1.4,0.4-2.1c0.3-0.6,0.7-1.2,1.2-1.7c0.5-0.5,1.1-0.9,1.8-1.1c0.7-0.3,1.5-0.4,2.3-0.4
		c1,0,1.9,0.2,2.6,0.5s1.4,0.8,1.9,1.5c0.5,0.6,0.9,1.3,1.1,2.1c0.2,0.8,0.4,1.7,0.4,2.5c0,1.3-0.2,2.6-0.6,4
		c-0.4,1.4-0.9,2.8-1.7,4.2c-0.7,1.4-1.6,2.7-2.7,4.1c-1.1,1.3-2.3,2.5-3.7,3.6l-1.7-1.5c-0.5-0.4-0.7-0.9-0.7-1.5
		c0-0.2,0.1-0.4,0.2-0.7c0.1-0.3,0.3-0.5,0.5-0.7c0.3-0.3,0.6-0.7,1.1-1.2c0.4-0.5,0.8-1,1.3-1.6c0.4-0.6,0.8-1.2,1.2-1.9
		c0.4-0.7,0.6-1.4,0.8-2.2c-0.8,0-1.6-0.2-2.2-0.5c-0.7-0.3-1.3-0.7-1.8-1.2c-0.5-0.5-0.9-1.1-1.1-1.9
		C546.1,251.9,546,251.1,546,250.3z"/>
	<path class="st0" d="M611.4,235.3c0.4,0.9,0.8,1.8,1.1,2.7c0.4-0.9,0.7-1.9,1.1-2.8c0.4-0.9,0.8-1.8,1.3-2.6l16.9-31.6
		c0.2-0.4,0.4-0.7,0.7-0.9c0.2-0.2,0.5-0.4,0.7-0.5c0.3-0.1,0.6-0.2,0.9-0.2c0.3,0,0.7,0,1.2,0h8v57h-9.3v-36.8c0-0.7,0-1.4,0.1-2.2
		c0-0.8,0.1-1.6,0.2-2.5l-17.2,32.3c-0.4,0.7-0.9,1.3-1.5,1.7c-0.6,0.4-1.4,0.6-2.2,0.6h-1.5c-0.8,0-1.6-0.2-2.2-0.6
		c-0.6-0.4-1.1-1-1.5-1.7l-17.5-32.5c0.1,0.9,0.2,1.7,0.2,2.5c0,0.8,0.1,1.6,0.1,2.3v36.8h-9.3v-57h8c0.5,0,0.9,0,1.2,0
		c0.3,0,0.7,0.1,0.9,0.2c0.3,0.1,0.5,0.3,0.8,0.5s0.5,0.6,0.7,0.9l17,31.7C610.6,233.5,611.1,234.3,611.4,235.3z"/>
	<path class="st0" d="M686.1,256.3h-4.4c-0.9,0-1.6-0.1-2.2-0.4c-0.5-0.3-0.9-0.8-1.2-1.7l-0.9-2.9c-1,0.9-2,1.7-3,2.4
		c-1,0.7-2,1.3-3.1,1.8c-1.1,0.5-2.2,0.8-3.4,1.1c-1.2,0.2-2.5,0.4-3.9,0.4c-1.7,0-3.3-0.2-4.7-0.7c-1.4-0.5-2.7-1.2-3.7-2.1
		c-1-0.9-1.8-2.1-2.4-3.4c-0.6-1.4-0.9-3-0.9-4.8c0-1.5,0.4-3,1.2-4.5c0.8-1.5,2.1-2.8,4-4c1.9-1.2,4.4-2.2,7.5-3
		c3.1-0.8,7-1.2,11.6-1.2v-2.4c0-2.7-0.6-4.7-1.7-6.1s-2.8-2-5-2c-1.6,0-2.9,0.2-3.9,0.6c-1.1,0.4-2,0.8-2.7,1.2
		c-0.8,0.5-1.5,0.9-2.1,1.2c-0.7,0.4-1.4,0.6-2.2,0.6c-0.7,0-1.2-0.2-1.7-0.5c-0.5-0.3-0.9-0.8-1.1-1.3l-1.8-3.1
		c4.7-4.3,10.3-6.4,16.8-6.4c2.4,0,4.5,0.4,6.3,1.2c1.9,0.8,3.4,1.9,4.7,3.2c1.3,1.4,2.3,3,2.9,4.9c0.7,1.9,1,4,1,6.3V256.3z
		 M667.1,250.2c1,0,1.9-0.1,2.8-0.3s1.6-0.5,2.4-0.8s1.5-0.8,2.2-1.3c0.7-0.5,1.4-1.2,2.1-1.9v-6.8c-2.8,0-5.2,0.2-7.1,0.5
		c-1.9,0.4-3.4,0.8-4.6,1.4c-1.2,0.6-2,1.2-2.5,1.9s-0.7,1.5-0.7,2.4c0,1.7,0.5,3,1.5,3.7C664.2,249.9,665.5,250.2,667.1,250.2z"/>
	<path class="st0" d="M705.5,197.7v33.6h1.8c0.7,0,1.2-0.1,1.5-0.3c0.4-0.2,0.8-0.5,1.2-1l10.1-12.4c0.4-0.5,0.9-0.9,1.4-1.2
		c0.5-0.3,1.2-0.5,2-0.5h8.9l-12.6,15c-0.4,0.6-0.9,1.1-1.4,1.5s-1,0.9-1.5,1.2c0.6,0.4,1,0.9,1.5,1.4s0.8,1.1,1.3,1.7l13.5,19.6
		h-8.8c-0.8,0-1.4-0.1-1.9-0.4c-0.5-0.3-1-0.7-1.4-1.3l-10.3-15.3c-0.4-0.6-0.8-1-1.2-1.2c-0.4-0.2-1-0.3-1.8-0.3h-2.2v18.5h-9.7
		v-58.6H705.5z"/>
	<path class="st0" d="M753.5,215.2c2.5,0,4.9,0.4,7,1.2c2.1,0.8,4,2,5.5,3.6c1.6,1.6,2.8,3.5,3.6,5.8c0.9,2.3,1.3,4.9,1.3,7.8
		c0,0.7,0,1.3-0.1,1.8c-0.1,0.5-0.2,0.9-0.4,1.1c-0.2,0.3-0.4,0.5-0.7,0.6s-0.7,0.2-1.1,0.2h-25c0.3,4.2,1.4,7.2,3.4,9.2
		c1.9,1.9,4.5,2.9,7.7,2.9c1.6,0,2.9-0.2,4.1-0.6c1.1-0.4,2.1-0.8,3-1.2c0.9-0.4,1.6-0.9,2.2-1.2c0.6-0.4,1.3-0.6,1.9-0.6
		c0.4,0,0.7,0.1,1,0.2c0.3,0.2,0.5,0.4,0.7,0.7l2.8,3.5c-1.1,1.3-2.3,2.3-3.6,3.2c-1.3,0.9-2.7,1.5-4.2,2.1s-2.9,0.9-4.5,1.1
		c-1.5,0.2-3,0.3-4.4,0.3c-2.8,0-5.4-0.5-7.8-1.4s-4.5-2.3-6.3-4.1c-1.8-1.8-3.2-4.1-4.2-6.8s-1.5-5.8-1.5-9.4
		c0-2.8,0.4-5.4,1.3-7.8c0.9-2.4,2.2-4.5,3.8-6.4c1.7-1.8,3.7-3.2,6.1-4.3C747.8,215.7,750.5,215.2,753.5,215.2z M753.7,222.2
		c-2.8,0-5.1,0.8-6.7,2.4c-1.6,1.6-2.6,3.9-3.1,6.8h18.3c0-1.3-0.2-2.5-0.5-3.6c-0.3-1.1-0.9-2.1-1.6-2.9c-0.7-0.8-1.6-1.5-2.7-2
		C756.4,222.4,755.2,222.2,753.7,222.2z"/>
	<path class="st0" d="M824.6,235.3c0.4,0.9,0.8,1.8,1.1,2.7c0.4-0.9,0.8-1.9,1.1-2.8c0.4-0.9,0.8-1.8,1.3-2.6L845,201
		c0.2-0.4,0.4-0.7,0.7-0.9c0.2-0.2,0.5-0.4,0.7-0.5c0.3-0.1,0.6-0.2,0.9-0.2c0.3,0,0.7,0,1.2,0h8v57h-9.3v-36.8c0-0.7,0-1.4,0.1-2.2
		c0-0.8,0.1-1.6,0.2-2.5l-17.2,32.3c-0.4,0.7-0.9,1.3-1.5,1.7c-0.6,0.4-1.4,0.6-2.2,0.6H825c-0.8,0-1.6-0.2-2.2-0.6
		c-0.6-0.4-1.1-1-1.5-1.7l-17.5-32.5c0.1,0.9,0.2,1.7,0.2,2.5c0,0.8,0.1,1.6,0.1,2.3v36.8h-9.3v-57h8c0.5,0,0.9,0,1.2,0
		c0.3,0,0.7,0.1,0.9,0.2c0.3,0.1,0.5,0.3,0.8,0.5c0.2,0.2,0.5,0.6,0.7,0.9l17,31.7C823.8,233.5,824.2,234.3,824.6,235.3z"/>
	<path class="st0" d="M881.9,267.4c-0.3,0.7-0.7,1.2-1.1,1.6c-0.5,0.4-1.2,0.5-2.1,0.5h-7.3l7.6-16.2l-16.4-37.5h8.5
		c0.8,0,1.4,0.2,1.8,0.6c0.4,0.4,0.7,0.8,0.9,1.3l8.6,21c0.3,0.7,0.5,1.4,0.7,2.1c0.2,0.7,0.4,1.5,0.6,2.2c0.2-0.8,0.4-1.5,0.7-2.2
		c0.2-0.7,0.5-1.4,0.8-2.2l8.1-20.9c0.2-0.5,0.6-1,1-1.3c0.5-0.3,1-0.5,1.6-0.5h7.8L881.9,267.4z"/>
	<path class="st0" d="M964.6,242.8c0.6,0,1.1,0.2,1.5,0.7l4.2,4.5c-2.3,2.9-5.2,5.1-8.5,6.6c-3.4,1.5-7.4,2.3-12.2,2.3
		c-4.2,0-8-0.7-11.4-2.2c-3.4-1.4-6.3-3.5-8.7-6c-2.4-2.6-4.2-5.7-5.5-9.2c-1.3-3.6-1.9-7.5-1.9-11.7c0-4.3,0.7-8.2,2.1-11.8
		c1.4-3.6,3.4-6.6,6-9.2c2.6-2.6,5.7-4.6,9.2-6c3.6-1.4,7.6-2.1,11.9-2.1c4.2,0,7.9,0.7,11.1,2c3.2,1.4,5.9,3.1,8.1,5.4l-3.5,4.9
		c-0.2,0.3-0.5,0.6-0.8,0.8c-0.3,0.2-0.8,0.4-1.4,0.4c-0.6,0-1.2-0.2-1.9-0.7c-0.6-0.5-1.4-1-2.4-1.5c-1-0.6-2.2-1.1-3.7-1.5
		c-1.5-0.5-3.4-0.7-5.7-0.7c-2.7,0-5.1,0.5-7.4,1.4c-2.2,0.9-4.2,2.3-5.8,4s-2.9,3.8-3.8,6.3s-1.4,5.3-1.4,8.4
		c0,3.2,0.5,6.1,1.4,8.6s2.1,4.6,3.7,6.3c1.6,1.7,3.4,3,5.5,3.9c2.1,0.9,4.4,1.4,6.8,1.4c1.4,0,2.8-0.1,3.9-0.2
		c1.2-0.2,2.2-0.4,3.2-0.7c1-0.3,1.9-0.8,2.8-1.3c0.9-0.5,1.8-1.2,2.6-2c0.3-0.2,0.5-0.4,0.8-0.6C964,242.9,964.3,242.8,964.6,242.8
		z"/>
	<path class="st0" d="M988.1,197.7v58.6h-9.7v-58.6H988.1z"/>
	<path class="st0" d="M1030.8,256.3h-4.4c-0.9,0-1.6-0.1-2.2-0.4c-0.5-0.3-0.9-0.8-1.2-1.7l-0.9-2.9c-1,0.9-2,1.7-3,2.4
		c-1,0.7-2,1.3-3.1,1.8c-1.1,0.5-2.2,0.8-3.4,1.1c-1.2,0.2-2.5,0.4-3.9,0.4c-1.7,0-3.3-0.2-4.7-0.7c-1.4-0.5-2.7-1.2-3.7-2.1
		c-1-0.9-1.8-2.1-2.4-3.4c-0.6-1.4-0.9-3-0.9-4.8c0-1.5,0.4-3,1.2-4.5c0.8-1.5,2.1-2.8,4-4c1.9-1.2,4.4-2.2,7.5-3
		c3.1-0.8,7-1.2,11.6-1.2v-2.4c0-2.7-0.6-4.7-1.7-6.1s-2.8-2-5-2c-1.6,0-2.9,0.2-3.9,0.6c-1.1,0.4-2,0.8-2.7,1.2
		c-0.8,0.5-1.5,0.9-2.1,1.2c-0.7,0.4-1.4,0.6-2.2,0.6c-0.7,0-1.2-0.2-1.7-0.5c-0.5-0.3-0.9-0.8-1.1-1.3l-1.8-3.1
		c4.7-4.3,10.3-6.4,16.8-6.4c2.4,0,4.5,0.4,6.3,1.2c1.9,0.8,3.4,1.9,4.7,3.2c1.3,1.4,2.3,3,2.9,4.9c0.7,1.9,1,4,1,6.3V256.3z
		 M1011.9,250.2c1,0,1.9-0.1,2.8-0.3s1.6-0.5,2.4-0.8s1.5-0.8,2.2-1.3c0.7-0.5,1.4-1.2,2.1-1.9v-6.8c-2.8,0-5.2,0.2-7.1,0.5
		c-1.9,0.4-3.4,0.8-4.6,1.4c-1.2,0.6-2,1.2-2.5,1.9s-0.7,1.5-0.7,2.4c0,1.7,0.5,3,1.5,3.7C1009,249.9,1010.3,250.2,1011.9,250.2z"/>
	<path class="st0" d="M1064.4,223.7c-0.3,0.4-0.5,0.7-0.8,0.9c-0.3,0.2-0.7,0.3-1.1,0.3c-0.5,0-1-0.1-1.5-0.4
		c-0.5-0.3-1.2-0.6-1.9-0.9c-0.7-0.3-1.5-0.6-2.4-0.9c-0.9-0.3-2-0.4-3.2-0.4c-1.9,0-3.4,0.4-4.5,1.2c-1.1,0.8-1.7,1.9-1.7,3.2
		c0,0.9,0.3,1.6,0.8,2.2c0.6,0.6,1.3,1.1,2.2,1.6c0.9,0.4,2,0.8,3.2,1.2c1.2,0.4,2.4,0.7,3.6,1.2c1.2,0.4,2.4,0.9,3.6,1.4
		c1.2,0.5,2.2,1.2,3.2,2.1c0.9,0.8,1.7,1.8,2.2,3c0.6,1.2,0.8,2.6,0.8,4.2c0,1.9-0.4,3.7-1.1,5.4c-0.7,1.6-1.7,3.1-3.1,4.3
		c-1.4,1.2-3.1,2.1-5.1,2.8c-2,0.7-4.3,1-6.9,1c-1.4,0-2.8-0.1-4.1-0.4c-1.3-0.3-2.6-0.6-3.8-1c-1.2-0.4-2.4-1-3.4-1.6
		c-1-0.6-2-1.3-2.7-2l2.2-3.7c0.3-0.4,0.6-0.8,1-1c0.4-0.2,0.9-0.4,1.5-0.4s1.2,0.2,1.7,0.5c0.5,0.3,1.2,0.7,1.9,1.1
		s1.5,0.8,2.5,1.1c1,0.3,2.2,0.5,3.6,0.5c1.2,0,2.1-0.1,3-0.4c0.8-0.3,1.5-0.6,2.1-1.1c0.5-0.4,0.9-1,1.2-1.6
		c0.2-0.6,0.4-1.2,0.4-1.8c0-0.9-0.3-1.7-0.8-2.3c-0.6-0.6-1.3-1.1-2.2-1.6c-0.9-0.4-2-0.8-3.2-1.2s-2.4-0.7-3.7-1.2
		c-1.2-0.4-2.5-0.9-3.7-1.5c-1.2-0.6-2.3-1.3-3.2-2.1c-0.9-0.9-1.7-1.9-2.2-3.2c-0.6-1.3-0.8-2.8-0.8-4.6c0-1.7,0.3-3.2,1-4.7
		c0.7-1.5,1.6-2.8,2.9-3.9c1.3-1.1,2.9-2,4.8-2.7s4.1-1,6.6-1c2.8,0,5.3,0.5,7.6,1.4c2.3,0.9,4.2,2.1,5.7,3.6L1064.4,223.7z"/>
	<path class="st0" d="M1098.9,223.7c-0.3,0.4-0.5,0.7-0.8,0.9c-0.3,0.2-0.7,0.3-1.1,0.3c-0.5,0-1-0.1-1.5-0.4
		c-0.5-0.3-1.2-0.6-1.9-0.9c-0.7-0.3-1.5-0.6-2.4-0.9c-0.9-0.3-2-0.4-3.2-0.4c-1.9,0-3.4,0.4-4.5,1.2c-1.1,0.8-1.7,1.9-1.7,3.2
		c0,0.9,0.3,1.6,0.8,2.2c0.6,0.6,1.3,1.1,2.2,1.6c0.9,0.4,2,0.8,3.2,1.2c1.2,0.4,2.4,0.7,3.6,1.2c1.2,0.4,2.4,0.9,3.6,1.4
		c1.2,0.5,2.2,1.2,3.2,2.1c0.9,0.8,1.7,1.8,2.2,3c0.6,1.2,0.8,2.6,0.8,4.2c0,1.9-0.4,3.7-1.1,5.4c-0.7,1.6-1.7,3.1-3.1,4.3
		c-1.4,1.2-3.1,2.1-5.1,2.8c-2,0.7-4.3,1-6.9,1c-1.4,0-2.8-0.1-4.1-0.4c-1.3-0.3-2.6-0.6-3.8-1c-1.2-0.4-2.4-1-3.4-1.6
		c-1-0.6-2-1.3-2.7-2l2.2-3.7c0.3-0.4,0.6-0.8,1-1c0.4-0.2,0.9-0.4,1.5-0.4s1.2,0.2,1.7,0.5c0.5,0.3,1.2,0.7,1.9,1.1
		s1.5,0.8,2.5,1.1c1,0.3,2.2,0.5,3.6,0.5c1.2,0,2.1-0.1,3-0.4c0.8-0.3,1.5-0.6,2.1-1.1c0.5-0.4,0.9-1,1.2-1.6
		c0.2-0.6,0.4-1.2,0.4-1.8c0-0.9-0.3-1.7-0.8-2.3c-0.6-0.6-1.3-1.1-2.2-1.6c-0.9-0.4-2-0.8-3.2-1.2s-2.4-0.7-3.7-1.2
		c-1.2-0.4-2.5-0.9-3.7-1.5c-1.2-0.6-2.3-1.3-3.2-2.1c-0.9-0.9-1.7-1.9-2.2-3.2c-0.6-1.3-0.8-2.8-0.8-4.6c0-1.7,0.3-3.2,1-4.7
		c0.7-1.5,1.6-2.8,2.9-3.9c1.3-1.1,2.9-2,4.8-2.7s4.1-1,6.6-1c2.8,0,5.3,0.5,7.6,1.4c2.3,0.9,4.2,2.1,5.7,3.6L1098.9,223.7z"/>
	<path class="st0" d="M481.5,351v-40.5h6c1.3,0,2.1,0.6,2.5,1.8l0.6,3c0.7-0.8,1.5-1.5,2.2-2.2c0.8-0.7,1.6-1.2,2.5-1.7
		c0.9-0.5,1.8-0.8,2.8-1.1c1-0.3,2.1-0.4,3.3-0.4c2.6,0,4.6,0.7,6.3,2.1c1.6,1.4,2.9,3.2,3.7,5.5c0.6-1.3,1.4-2.5,2.4-3.5
		c0.9-1,2-1.7,3.1-2.3c1.1-0.6,2.3-1.1,3.6-1.3c1.3-0.3,2.6-0.4,3.8-0.4c2.2,0,4.2,0.3,6,1c1.7,0.7,3.2,1.7,4.4,3
		c1.2,1.3,2.1,2.9,2.7,4.8c0.6,1.9,0.9,4.1,0.9,6.5V351h-9.7v-25.8c0-2.6-0.6-4.5-1.7-5.8c-1.1-1.3-2.8-2-5-2c-1,0-1.9,0.2-2.8,0.5
		s-1.6,0.8-2.2,1.5c-0.6,0.6-1.2,1.5-1.5,2.4c-0.4,1-0.6,2.1-0.6,3.4V351h-9.8v-25.8c0-2.7-0.5-4.7-1.6-5.9
		c-1.1-1.2-2.7-1.9-4.8-1.9c-1.4,0-2.7,0.3-3.9,1c-1.2,0.7-2.4,1.7-3.4,2.9V351H481.5z"/>
	<path class="st0" d="M579.7,351h-4.4c-0.9,0-1.6-0.1-2.2-0.4c-0.5-0.3-0.9-0.8-1.2-1.7l-0.9-2.9c-1,0.9-2,1.7-3,2.4
		c-1,0.7-2,1.3-3.1,1.8c-1.1,0.5-2.2,0.8-3.4,1.1c-1.2,0.2-2.5,0.4-3.9,0.4c-1.7,0-3.3-0.2-4.7-0.7c-1.4-0.5-2.7-1.2-3.7-2.1
		c-1-0.9-1.8-2.1-2.4-3.4c-0.6-1.4-0.9-3-0.9-4.8c0-1.5,0.4-3,1.2-4.5c0.8-1.5,2.1-2.8,4-4c1.9-1.2,4.4-2.2,7.5-3
		c3.1-0.8,7-1.2,11.6-1.2v-2.4c0-2.7-0.6-4.7-1.7-6.1c-1.1-1.3-2.8-2-5-2c-1.6,0-2.9,0.2-3.9,0.6c-1.1,0.4-2,0.8-2.7,1.2
		c-0.8,0.5-1.5,0.9-2.1,1.2c-0.7,0.4-1.4,0.6-2.2,0.6c-0.7,0-1.2-0.2-1.7-0.5c-0.5-0.3-0.9-0.8-1.1-1.3l-1.8-3.1
		c4.7-4.3,10.3-6.4,16.8-6.4c2.4,0,4.5,0.4,6.3,1.2c1.9,0.8,3.4,1.9,4.7,3.2c1.3,1.4,2.3,3,2.9,4.9c0.7,1.9,1,4,1,6.3V351z
		 M560.7,344.9c1,0,1.9-0.1,2.8-0.3c0.8-0.2,1.6-0.5,2.4-0.8c0.8-0.4,1.5-0.8,2.2-1.3c0.7-0.5,1.4-1.2,2.1-1.9v-6.8
		c-2.8,0-5.2,0.2-7.1,0.5s-3.4,0.8-4.6,1.4c-1.2,0.6-2,1.2-2.5,1.9c-0.5,0.7-0.7,1.5-0.7,2.4c0,1.7,0.5,3,1.5,3.7
		C557.8,344.5,559.1,344.9,560.7,344.9z"/>
	<path class="st0" d="M617.7,351c-1.3,0-2.1-0.6-2.5-1.8l-0.8-3.9c-0.8,0.9-1.7,1.8-2.6,2.6c-0.9,0.8-1.9,1.4-3,2
		c-1.1,0.6-2.2,1-3.4,1.3c-1.2,0.3-2.5,0.5-4,0.5c-2.2,0-4.2-0.5-6.1-1.4c-1.8-0.9-3.4-2.3-4.8-4c-1.3-1.7-2.4-3.9-3.1-6.5
		c-0.7-2.6-1.1-5.5-1.1-8.8c0-3,0.4-5.8,1.2-8.4c0.8-2.6,2-4.8,3.5-6.7c1.5-1.9,3.4-3.4,5.5-4.4s4.5-1.6,7.2-1.6
		c2.3,0,4.2,0.4,5.8,1.1c1.6,0.7,3,1.7,4.3,2.9v-21.4h9.7V351H617.7z M604.8,343.8c2,0,3.7-0.4,5.2-1.3c1.4-0.8,2.8-2,4-3.6v-18.1
		c-1.1-1.3-2.3-2.3-3.6-2.8s-2.7-0.8-4.2-0.8c-1.5,0-2.8,0.3-4,0.8c-1.2,0.6-2.2,1.4-3,2.5s-1.5,2.5-1.9,4.3s-0.7,3.8-0.7,6.1
		c0,2.4,0.2,4.4,0.6,6c0.4,1.6,0.9,3,1.6,4c0.7,1,1.6,1.8,2.6,2.2C602.3,343.6,603.5,343.8,604.8,343.8z"/>
	<path class="st0" d="M650.9,309.9c2.5,0,4.9,0.4,7,1.2c2.1,0.8,4,2,5.5,3.6c1.6,1.6,2.8,3.5,3.6,5.8c0.9,2.3,1.3,4.9,1.3,7.8
		c0,0.7,0,1.3-0.1,1.8c-0.1,0.5-0.2,0.9-0.4,1.1c-0.2,0.3-0.4,0.5-0.7,0.6s-0.7,0.2-1.1,0.2h-25c0.3,4.2,1.4,7.2,3.4,9.2
		c1.9,1.9,4.5,2.9,7.7,2.9c1.6,0,2.9-0.2,4.1-0.6c1.1-0.4,2.1-0.8,3-1.2c0.9-0.4,1.6-0.9,2.2-1.2c0.6-0.4,1.3-0.6,1.9-0.6
		c0.4,0,0.7,0.1,1,0.2c0.3,0.2,0.5,0.4,0.7,0.7l2.8,3.5c-1.1,1.3-2.3,2.3-3.6,3.2c-1.3,0.9-2.7,1.5-4.2,2.1s-2.9,0.9-4.5,1.1
		c-1.5,0.2-3,0.3-4.4,0.3c-2.8,0-5.4-0.5-7.8-1.4s-4.5-2.3-6.3-4.1c-1.8-1.8-3.2-4.1-4.2-6.8s-1.5-5.8-1.5-9.4
		c0-2.8,0.4-5.4,1.3-7.8c0.9-2.4,2.2-4.5,3.8-6.4c1.7-1.8,3.7-3.2,6.1-4.3C645.2,310.4,647.9,309.9,650.9,309.9z M651.1,316.8
		c-2.8,0-5.1,0.8-6.7,2.4c-1.6,1.6-2.6,3.9-3.1,6.8h18.3c0-1.3-0.2-2.5-0.5-3.6c-0.3-1.1-0.9-2.1-1.6-2.9c-0.7-0.8-1.6-1.5-2.7-2
		C653.8,317.1,652.6,316.8,651.1,316.8z"/>
	<path class="st0" d="M703.4,298.7c0,0.8-0.2,1.6-0.5,2.4c-0.3,0.7-0.8,1.4-1.4,1.9s-1.2,1-2,1.3c-0.8,0.3-1.6,0.5-2.4,0.5
		c-0.8,0-1.6-0.2-2.4-0.5c-0.7-0.3-1.4-0.8-2-1.3s-1-1.2-1.3-1.9c-0.3-0.7-0.5-1.5-0.5-2.4c0-0.9,0.2-1.7,0.5-2.4
		c0.3-0.8,0.8-1.4,1.3-2s1.2-1,2-1.3c0.8-0.3,1.5-0.5,2.4-0.5c0.9,0,1.7,0.2,2.4,0.5c0.8,0.3,1.4,0.8,2,1.3s1,1.2,1.4,2
		C703.3,297,703.4,297.8,703.4,298.7z M702,310.5V351h-9.7v-40.5H702z"/>
	<path class="st0" d="M726.3,351.6c-3.5,0-6.2-1-8.1-3c-1.9-2-2.8-4.7-2.8-8.2v-22.6h-4.1c-0.5,0-1-0.2-1.4-0.5
		c-0.4-0.3-0.6-0.9-0.6-1.5v-3.9l6.5-1.1l2.1-11c0.1-0.5,0.3-0.9,0.7-1.2c0.4-0.3,0.9-0.4,1.4-0.4h5v12.7h10.6v6.9h-10.6v21.9
		c0,1.3,0.3,2.2,0.9,3s1.5,1.1,2.5,1.1c0.6,0,1.1-0.1,1.5-0.2c0.4-0.1,0.8-0.3,1.1-0.5c0.3-0.2,0.6-0.3,0.8-0.5
		c0.2-0.1,0.5-0.2,0.7-0.2c0.3,0,0.5,0.1,0.7,0.2c0.2,0.1,0.4,0.4,0.6,0.7l2.9,4.7c-1.4,1.2-3.1,2.1-4.9,2.7
		C730.2,351.3,728.2,351.6,726.3,351.6z"/>
	<path class="st0" d="M775.5,309.9c2.5,0,4.9,0.4,7,1.2c2.1,0.8,4,2,5.5,3.6c1.6,1.6,2.8,3.5,3.6,5.8c0.9,2.3,1.3,4.9,1.3,7.8
		c0,0.7,0,1.3-0.1,1.8c-0.1,0.5-0.2,0.9-0.4,1.1c-0.2,0.3-0.4,0.5-0.7,0.6s-0.7,0.2-1.1,0.2h-25c0.3,4.2,1.4,7.2,3.4,9.2
		c1.9,1.9,4.5,2.9,7.7,2.9c1.6,0,2.9-0.2,4.1-0.6c1.1-0.4,2.1-0.8,3-1.2c0.9-0.4,1.6-0.9,2.2-1.2c0.6-0.4,1.3-0.6,1.9-0.6
		c0.4,0,0.7,0.1,1,0.2c0.3,0.2,0.5,0.4,0.7,0.7l2.8,3.5c-1.1,1.3-2.3,2.3-3.6,3.2c-1.3,0.9-2.7,1.5-4.2,2.1s-2.9,0.9-4.5,1.1
		c-1.5,0.2-3,0.3-4.4,0.3c-2.8,0-5.4-0.5-7.8-1.4s-4.5-2.3-6.3-4.1c-1.8-1.8-3.2-4.1-4.2-6.8s-1.5-5.8-1.5-9.4
		c0-2.8,0.4-5.4,1.3-7.8c0.9-2.4,2.2-4.5,3.8-6.4c1.7-1.8,3.7-3.2,6.1-4.3C769.7,310.4,772.4,309.9,775.5,309.9z M775.7,316.8
		c-2.8,0-5.1,0.8-6.7,2.4c-1.6,1.6-2.6,3.9-3.1,6.8h18.3c0-1.3-0.2-2.5-0.5-3.6c-0.3-1.1-0.9-2.1-1.6-2.9c-0.7-0.8-1.6-1.5-2.7-2
		C778.4,317.1,777.1,316.8,775.7,316.8z"/>
	<path class="st0" d="M832.6,351h-4.4c-0.9,0-1.6-0.1-2.2-0.4c-0.5-0.3-0.9-0.8-1.2-1.7L824,346c-1,0.9-2,1.7-3,2.4
		c-1,0.7-2,1.3-3.1,1.8c-1.1,0.5-2.2,0.8-3.4,1.1c-1.2,0.2-2.5,0.4-3.9,0.4c-1.7,0-3.3-0.2-4.7-0.7c-1.4-0.5-2.7-1.2-3.7-2.1
		c-1-0.9-1.8-2.1-2.4-3.4c-0.6-1.4-0.9-3-0.9-4.8c0-1.5,0.4-3,1.2-4.5c0.8-1.5,2.1-2.8,4-4c1.9-1.2,4.4-2.2,7.5-3
		c3.1-0.8,7-1.2,11.6-1.2v-2.4c0-2.7-0.6-4.7-1.7-6.1s-2.8-2-5-2c-1.6,0-2.9,0.2-3.9,0.6c-1.1,0.4-2,0.8-2.7,1.2
		c-0.8,0.5-1.5,0.9-2.1,1.2c-0.7,0.4-1.4,0.6-2.2,0.6c-0.7,0-1.2-0.2-1.7-0.5c-0.5-0.3-0.9-0.8-1.1-1.3l-1.8-3.1
		c4.7-4.3,10.3-6.4,16.8-6.4c2.4,0,4.5,0.4,6.3,1.2c1.9,0.8,3.4,1.9,4.7,3.2c1.3,1.4,2.3,3,2.9,4.9c0.7,1.9,1,4,1,6.3V351z
		 M813.7,344.9c1,0,1.9-0.1,2.8-0.3s1.6-0.5,2.4-0.8s1.5-0.8,2.2-1.3c0.7-0.5,1.4-1.2,2.1-1.9v-6.8c-2.8,0-5.2,0.2-7.1,0.5
		c-1.9,0.4-3.4,0.8-4.6,1.4c-1.2,0.6-2,1.2-2.5,1.9s-0.7,1.5-0.7,2.4c0,1.7,0.5,3,1.5,3.7C810.7,344.5,812,344.9,813.7,344.9z"/>
	<path class="st0" d="M866.2,318.4c-0.3,0.4-0.5,0.7-0.8,0.9c-0.3,0.2-0.7,0.3-1.1,0.3c-0.5,0-1-0.1-1.5-0.4
		c-0.5-0.3-1.2-0.6-1.9-0.9c-0.7-0.3-1.5-0.6-2.4-0.9c-0.9-0.3-2-0.4-3.2-0.4c-1.9,0-3.4,0.4-4.5,1.2c-1.1,0.8-1.7,1.9-1.7,3.2
		c0,0.9,0.3,1.6,0.8,2.2c0.6,0.6,1.3,1.1,2.2,1.6c0.9,0.4,2,0.8,3.2,1.2c1.2,0.4,2.4,0.7,3.6,1.2c1.2,0.4,2.4,0.9,3.6,1.4
		c1.2,0.5,2.2,1.2,3.2,2.1c0.9,0.8,1.7,1.8,2.2,3c0.6,1.2,0.8,2.6,0.8,4.2c0,1.9-0.4,3.7-1.1,5.4c-0.7,1.6-1.7,3.1-3.1,4.3
		c-1.4,1.2-3.1,2.1-5.1,2.8c-2,0.7-4.3,1-6.9,1c-1.4,0-2.8-0.1-4.1-0.4c-1.3-0.3-2.6-0.6-3.8-1c-1.2-0.4-2.4-1-3.4-1.6
		c-1-0.6-2-1.3-2.7-2l2.2-3.7c0.3-0.4,0.6-0.8,1-1c0.4-0.2,0.9-0.4,1.5-0.4s1.2,0.2,1.7,0.5c0.5,0.3,1.2,0.7,1.9,1.1
		s1.5,0.8,2.5,1.1c1,0.3,2.2,0.5,3.6,0.5c1.2,0,2.1-0.1,3-0.4c0.8-0.3,1.5-0.6,2.1-1.1c0.5-0.4,0.9-1,1.2-1.6
		c0.2-0.6,0.4-1.2,0.4-1.8c0-0.9-0.3-1.7-0.8-2.3c-0.6-0.6-1.3-1.1-2.2-1.6c-0.9-0.4-2-0.8-3.2-1.2s-2.4-0.7-3.7-1.2
		c-1.2-0.4-2.5-0.9-3.7-1.5c-1.2-0.6-2.3-1.3-3.2-2.1c-0.9-0.9-1.7-1.9-2.2-3.2c-0.6-1.3-0.8-2.8-0.8-4.6c0-1.7,0.3-3.2,1-4.7
		c0.7-1.5,1.6-2.8,2.9-3.9c1.3-1.1,2.9-2,4.8-2.7s4.1-1,6.6-1c2.8,0,5.3,0.5,7.6,1.4c2.3,0.9,4.2,2.1,5.7,3.6L866.2,318.4z"/>
	<path class="st0" d="M891,362.1c-0.3,0.7-0.7,1.2-1.1,1.6c-0.5,0.4-1.2,0.5-2.1,0.5h-7.3l7.6-16.2l-16.4-37.5h8.5
		c0.8,0,1.4,0.2,1.8,0.6c0.4,0.4,0.7,0.8,0.9,1.3l8.6,21c0.3,0.7,0.5,1.4,0.7,2.1c0.2,0.7,0.4,1.5,0.6,2.2c0.2-0.8,0.4-1.5,0.7-2.2
		c0.2-0.7,0.5-1.4,0.8-2.2l8.1-20.9c0.2-0.5,0.6-1,1-1.3c0.5-0.3,1-0.5,1.6-0.5h7.8L891,362.1z"/>
	<path class="st0" d="M935.7,351v-33.1l-3.5-0.6c-0.8-0.1-1.4-0.4-1.8-0.8c-0.5-0.4-0.7-0.9-0.7-1.7v-4h6v-3c0-2.3,0.3-4.4,1-6.2
		c0.7-1.8,1.7-3.4,3-4.7c1.3-1.3,2.9-2.3,4.8-3c1.9-0.7,4-1,6.3-1c1.9,0,3.6,0.3,5.2,0.7l-0.2,4.9c-0.1,0.8-0.4,1.2-1.1,1.4
		c-0.7,0.2-1.4,0.3-2.3,0.3c-1.2,0-2.2,0.1-3.1,0.4c-0.9,0.3-1.7,0.7-2.3,1.3c-0.6,0.6-1.1,1.4-1.4,2.4c-0.3,1-0.5,2.3-0.5,3.8v2.7
		h10.5v6.9h-10.2V351H935.7z"/>
	<path class="st0" d="M978.9,309.9c3,0,5.8,0.5,8.2,1.5c2.5,1,4.6,2.4,6.3,4.1c1.7,1.8,3.1,4,4,6.5c0.9,2.6,1.4,5.5,1.4,8.6
		c0,3.2-0.5,6.1-1.4,8.7c-0.9,2.6-2.3,4.8-4,6.6c-1.7,1.8-3.8,3.2-6.3,4.2c-2.5,1-5.2,1.5-8.2,1.5c-3,0-5.8-0.5-8.2-1.5
		s-4.6-2.4-6.3-4.2c-1.7-1.8-3.1-4-4.1-6.6c-1-2.6-1.4-5.5-1.4-8.7c0-3.2,0.5-6.1,1.4-8.6c1-2.6,2.3-4.8,4.1-6.5
		c1.7-1.8,3.9-3.2,6.3-4.1C973.1,310.3,975.9,309.9,978.9,309.9z M978.9,344.1c3.4,0,5.9-1.1,7.5-3.4c1.6-2.3,2.4-5.6,2.4-9.9
		c0-4.4-0.8-7.7-2.4-10s-4.1-3.4-7.5-3.4c-3.4,0-5.9,1.2-7.6,3.5c-1.6,2.3-2.4,5.6-2.4,10c0,4.3,0.8,7.6,2.4,9.9
		C973,342.9,975.5,344.1,978.9,344.1z"/>
	<path class="st0" d="M1006.5,351v-40.5h5.7c1,0,1.7,0.2,2.1,0.6s0.7,1,0.8,1.9l0.6,4.9c1.4-2.5,3.1-4.5,5.1-5.9
		c1.9-1.4,4.1-2.2,6.5-2.2c2,0,3.7,0.5,5,1.4l-1.3,7.3c-0.1,0.5-0.3,0.8-0.5,1c-0.3,0.2-0.6,0.3-1.1,0.3c-0.4,0-0.9-0.1-1.6-0.3
		c-0.7-0.2-1.6-0.3-2.7-0.3c-2,0-3.8,0.6-5.2,1.7s-2.7,2.8-3.7,4.9V351H1006.5z"/>
	<path class="st0" d="M472.3,446.2c-3.5,0-6.2-1-8.1-3s-2.8-4.7-2.8-8.2v-22.6h-4.1c-0.5,0-1-0.2-1.4-0.5c-0.4-0.3-0.6-0.9-0.6-1.5
		v-3.9l6.5-1.1l2.1-11c0.1-0.5,0.3-0.9,0.7-1.2c0.4-0.3,0.9-0.4,1.4-0.4h5v12.7h10.6v6.9h-10.6v21.9c0,1.3,0.3,2.2,0.9,3
		c0.6,0.7,1.5,1.1,2.5,1.1c0.6,0,1.1-0.1,1.5-0.2s0.8-0.3,1.1-0.5c0.3-0.2,0.6-0.3,0.8-0.5c0.2-0.1,0.5-0.2,0.7-0.2
		c0.3,0,0.5,0.1,0.7,0.2c0.2,0.1,0.4,0.4,0.6,0.7l2.9,4.7c-1.4,1.2-3.1,2.1-4.9,2.7C476.2,445.9,474.3,446.2,472.3,446.2z"/>
	<path class="st0" d="M506.3,404.5c2.6,0,4.9,0.4,7,1.2c2.1,0.8,4,2,5.5,3.6c1.6,1.6,2.8,3.5,3.6,5.8c0.9,2.3,1.3,4.9,1.3,7.8
		c0,0.7,0,1.3-0.1,1.8s-0.2,0.9-0.4,1.1c-0.2,0.3-0.4,0.5-0.7,0.6c-0.3,0.1-0.7,0.2-1.1,0.2h-25c0.3,4.2,1.4,7.2,3.4,9.2
		c1.9,1.9,4.5,2.9,7.7,2.9c1.6,0,2.9-0.2,4.1-0.6c1.1-0.4,2.1-0.8,3-1.2c0.9-0.4,1.6-0.9,2.2-1.2c0.6-0.4,1.3-0.6,1.9-0.6
		c0.4,0,0.7,0.1,1,0.2c0.3,0.2,0.5,0.4,0.7,0.7l2.8,3.5c-1.1,1.3-2.3,2.3-3.6,3.2c-1.3,0.9-2.7,1.5-4.2,2.1s-2.9,0.9-4.5,1.1
		c-1.5,0.2-3,0.3-4.4,0.3c-2.8,0-5.4-0.5-7.8-1.4c-2.4-0.9-4.5-2.3-6.3-4.1c-1.8-1.8-3.2-4.1-4.2-6.8c-1-2.7-1.5-5.8-1.5-9.4
		c0-2.8,0.4-5.4,1.3-7.8c0.9-2.4,2.2-4.5,3.8-6.3c1.7-1.8,3.7-3.2,6.1-4.3C500.5,405,503.3,404.5,506.3,404.5z M506.5,411.5
		c-2.8,0-5.1,0.8-6.7,2.4c-1.6,1.6-2.6,3.9-3.1,6.8H515c0-1.3-0.2-2.5-0.5-3.6c-0.3-1.1-0.9-2.1-1.6-2.9s-1.6-1.5-2.7-2
		C509.2,411.7,507.9,411.5,506.5,411.5z"/>
	<path class="st0" d="M563.4,445.6h-4.4c-0.9,0-1.6-0.1-2.2-0.4c-0.5-0.3-0.9-0.8-1.2-1.7l-0.9-2.9c-1,0.9-2,1.7-3,2.4
		c-1,0.7-2,1.3-3.1,1.8c-1.1,0.5-2.2,0.8-3.4,1.1c-1.2,0.2-2.5,0.4-3.9,0.4c-1.7,0-3.3-0.2-4.7-0.7c-1.4-0.5-2.7-1.2-3.7-2.1
		c-1-0.9-1.8-2.1-2.4-3.4c-0.6-1.4-0.9-3-0.9-4.8c0-1.5,0.4-3,1.2-4.5c0.8-1.5,2.1-2.8,4-4c1.9-1.2,4.4-2.2,7.5-3
		c3.1-0.8,7-1.2,11.6-1.2v-2.4c0-2.7-0.6-4.8-1.7-6.1c-1.1-1.3-2.8-2-5-2c-1.6,0-2.9,0.2-3.9,0.6c-1.1,0.4-2,0.8-2.7,1.2
		c-0.8,0.5-1.5,0.9-2.1,1.2s-1.4,0.6-2.2,0.6c-0.7,0-1.2-0.2-1.7-0.5s-0.9-0.8-1.1-1.3l-1.8-3.1c4.7-4.3,10.3-6.4,16.8-6.4
		c2.4,0,4.5,0.4,6.3,1.2c1.9,0.8,3.4,1.9,4.7,3.2c1.3,1.4,2.3,3,2.9,5c0.7,1.9,1,4,1,6.3V445.6z M544.5,439.5c1,0,1.9-0.1,2.8-0.3
		c0.8-0.2,1.6-0.5,2.4-0.8c0.8-0.4,1.5-0.8,2.2-1.3c0.7-0.5,1.4-1.2,2.1-1.9v-6.8c-2.8,0-5.2,0.2-7.1,0.5s-3.4,0.8-4.6,1.4
		c-1.2,0.6-2,1.2-2.5,1.9c-0.5,0.7-0.7,1.5-0.7,2.4c0,1.7,0.5,3,1.5,3.7C541.6,439.2,542.9,439.5,544.5,439.5z"/>
	<path class="st0" d="M601.5,413.7c-0.3,0.4-0.6,0.7-0.8,0.9c-0.3,0.2-0.7,0.3-1.2,0.3c-0.5,0-1-0.2-1.5-0.5c-0.5-0.3-1-0.6-1.7-1
		s-1.4-0.7-2.3-1c-0.9-0.3-2-0.5-3.4-0.5c-1.7,0-3.2,0.3-4.5,0.9c-1.3,0.6-2.4,1.5-3.2,2.7c-0.9,1.2-1.5,2.6-1.9,4.2
		c-0.4,1.6-0.6,3.5-0.6,5.6c0,2.2,0.2,4.1,0.7,5.8s1.1,3.1,2,4.2c0.9,1.1,1.9,2,3.2,2.6c1.2,0.6,2.6,0.9,4.2,0.9s2.8-0.2,3.8-0.6
		c1-0.4,1.8-0.8,2.4-1.3s1.2-0.9,1.7-1.3c0.5-0.4,1-0.6,1.6-0.6c0.8,0,1.4,0.3,1.8,0.9l2.8,3.5c-1.1,1.3-2.2,2.3-3.5,3.2
		c-1.3,0.9-2.6,1.5-3.9,2.1s-2.8,0.9-4.2,1.1c-1.4,0.2-2.9,0.3-4.3,0.3c-2.5,0-4.9-0.5-7.1-1.4s-4.1-2.3-5.8-4.1
		c-1.6-1.8-2.9-4-3.9-6.6c-1-2.6-1.4-5.5-1.4-8.9c0-3,0.4-5.7,1.3-8.3c0.9-2.5,2.1-4.7,3.8-6.6c1.7-1.9,3.7-3.3,6.2-4.4
		c2.4-1.1,5.3-1.6,8.4-1.6c3,0,5.7,0.5,7.9,1.5c2.3,1,4.3,2.4,6.1,4.2L601.5,413.7z"/>
	<path class="st0" d="M610.6,445.6V387h9.7v22.5c1.6-1.5,3.3-2.7,5.2-3.6c1.9-0.9,4.1-1.4,6.7-1.4c2.2,0,4.2,0.4,5.9,1.1
		c1.7,0.8,3.1,1.8,4.3,3.2c1.1,1.4,2,3,2.6,4.9s0.9,4,0.9,6.2v25.8h-9.7v-25.8c0-2.5-0.6-4.4-1.7-5.7s-2.9-2-5.1-2
		c-1.7,0-3.3,0.4-4.7,1.1s-2.9,1.8-4.2,3.1v29.3H610.6z"/>
	<path class="st0" d="M672.2,404.5c2.5,0,4.9,0.4,7,1.2c2.1,0.8,4,2,5.5,3.6c1.6,1.6,2.8,3.5,3.6,5.8c0.9,2.3,1.3,4.9,1.3,7.8
		c0,0.7,0,1.3-0.1,1.8c-0.1,0.5-0.2,0.9-0.4,1.1s-0.4,0.5-0.7,0.6s-0.7,0.2-1.1,0.2h-25c0.3,4.2,1.4,7.2,3.4,9.2
		c1.9,1.9,4.5,2.9,7.7,2.9c1.6,0,2.9-0.2,4.1-0.6c1.1-0.4,2.1-0.8,3-1.2c0.9-0.4,1.6-0.9,2.2-1.2s1.3-0.6,1.9-0.6
		c0.4,0,0.7,0.1,1,0.2c0.3,0.2,0.5,0.4,0.7,0.7l2.8,3.5c-1.1,1.3-2.3,2.3-3.6,3.2c-1.3,0.9-2.7,1.5-4.2,2.1s-2.9,0.9-4.5,1.1
		c-1.5,0.2-3,0.3-4.4,0.3c-2.8,0-5.4-0.5-7.8-1.4s-4.5-2.3-6.3-4.1c-1.8-1.8-3.2-4.1-4.2-6.8c-1-2.7-1.5-5.8-1.5-9.4
		c0-2.8,0.4-5.4,1.3-7.8c0.9-2.4,2.2-4.5,3.8-6.3c1.7-1.8,3.7-3.2,6.1-4.3S669.2,404.5,672.2,404.5z M672.4,411.5
		c-2.8,0-5.1,0.8-6.7,2.4s-2.6,3.9-3.1,6.8H681c0-1.3-0.2-2.5-0.5-3.6s-0.9-2.1-1.6-2.9s-1.6-1.5-2.7-2
		C675.1,411.7,673.9,411.5,672.4,411.5z"/>
	<path class="st0" d="M697.7,445.6v-40.5h5.7c1,0,1.7,0.2,2.1,0.6s0.7,1,0.8,1.9l0.6,4.9c1.4-2.5,3.1-4.5,5.1-5.9
		c1.9-1.4,4.1-2.2,6.5-2.2c2,0,3.7,0.5,5,1.4l-1.3,7.3c-0.1,0.5-0.3,0.8-0.5,1c-0.3,0.2-0.6,0.3-1.1,0.3c-0.4,0-0.9-0.1-1.6-0.3
		c-0.7-0.2-1.6-0.3-2.7-0.3c-2,0-3.8,0.6-5.2,1.7c-1.4,1.1-2.7,2.8-3.7,4.9v25.2H697.7z"/>
	<path class="st0" d="M753.9,413c-0.3,0.4-0.5,0.7-0.8,0.9c-0.3,0.2-0.7,0.3-1.1,0.3c-0.5,0-1-0.1-1.5-0.4c-0.5-0.3-1.2-0.6-1.9-0.9
		s-1.5-0.6-2.4-0.9s-2-0.4-3.2-0.4c-1.9,0-3.4,0.4-4.5,1.2c-1.1,0.8-1.7,1.9-1.7,3.2c0,0.9,0.3,1.6,0.8,2.2s1.3,1.1,2.2,1.6
		c0.9,0.4,2,0.8,3.2,1.2c1.2,0.4,2.4,0.7,3.6,1.2c1.2,0.4,2.4,0.9,3.6,1.4c1.2,0.5,2.2,1.2,3.2,2.1s1.7,1.8,2.2,3
		c0.6,1.2,0.8,2.6,0.8,4.2c0,1.9-0.4,3.7-1.1,5.4s-1.7,3.1-3.1,4.3c-1.4,1.2-3.1,2.1-5.1,2.8c-2,0.7-4.3,1-6.9,1
		c-1.4,0-2.8-0.1-4.1-0.4c-1.3-0.3-2.6-0.6-3.8-1c-1.2-0.4-2.4-1-3.4-1.6s-2-1.3-2.7-2l2.2-3.7c0.3-0.4,0.6-0.8,1-1
		c0.4-0.2,0.9-0.4,1.5-0.4s1.2,0.2,1.7,0.5c0.5,0.3,1.2,0.7,1.9,1.1s1.5,0.8,2.5,1.1s2.2,0.5,3.6,0.5c1.2,0,2.1-0.1,3-0.4
		c0.8-0.3,1.5-0.6,2.1-1.1c0.5-0.4,0.9-1,1.2-1.6c0.2-0.6,0.4-1.2,0.4-1.8c0-0.9-0.3-1.7-0.8-2.3c-0.6-0.6-1.3-1.1-2.2-1.6
		c-0.9-0.4-2-0.8-3.2-1.2c-1.2-0.4-2.4-0.7-3.7-1.2c-1.2-0.4-2.5-0.9-3.7-1.5c-1.2-0.6-2.3-1.3-3.2-2.1c-0.9-0.9-1.7-1.9-2.2-3.2
		c-0.6-1.3-0.8-2.8-0.8-4.6c0-1.7,0.3-3.2,1-4.7c0.7-1.5,1.6-2.8,2.9-3.9c1.3-1.1,2.9-2,4.8-2.7s4.1-1,6.6-1c2.8,0,5.3,0.5,7.6,1.4
		c2.3,0.9,4.2,2.1,5.7,3.6L753.9,413z"/>
	<path class="st0" d="M792.9,446.2c-3.5,0-6.2-1-8.1-3c-1.9-2-2.8-4.7-2.8-8.2v-22.6h-4.1c-0.5,0-1-0.2-1.4-0.5
		c-0.4-0.3-0.6-0.9-0.6-1.5v-3.9l6.5-1.1l2.1-11c0.1-0.5,0.3-0.9,0.7-1.2c0.4-0.3,0.9-0.4,1.4-0.4h5v12.7h10.6v6.9h-10.6v21.9
		c0,1.3,0.3,2.2,0.9,3s1.5,1.1,2.5,1.1c0.6,0,1.1-0.1,1.5-0.2c0.4-0.1,0.8-0.3,1.1-0.5c0.3-0.2,0.6-0.3,0.8-0.5
		c0.2-0.1,0.5-0.2,0.7-0.2c0.3,0,0.5,0.1,0.7,0.2c0.2,0.1,0.4,0.4,0.6,0.7l2.9,4.7c-1.4,1.2-3.1,2.1-4.9,2.7
		C796.7,445.9,794.8,446.2,792.9,446.2z"/>
	<path class="st0" d="M827.4,404.5c3,0,5.8,0.5,8.2,1.5c2.5,1,4.6,2.4,6.3,4.1c1.7,1.8,3.1,4,4,6.5s1.4,5.5,1.4,8.6
		c0,3.2-0.5,6.1-1.4,8.7c-0.9,2.6-2.3,4.8-4,6.6c-1.7,1.8-3.8,3.2-6.3,4.2c-2.5,1-5.2,1.5-8.2,1.5c-3,0-5.8-0.5-8.2-1.5
		c-2.5-1-4.6-2.4-6.3-4.2c-1.7-1.8-3.1-4-4.1-6.6c-1-2.6-1.4-5.5-1.4-8.7c0-3.2,0.5-6.1,1.4-8.6c1-2.6,2.3-4.8,4.1-6.5
		c1.7-1.8,3.9-3.2,6.3-4.1C821.6,405,824.4,404.5,827.4,404.5z M827.4,438.7c3.4,0,5.9-1.1,7.5-3.4s2.4-5.6,2.4-9.9s-0.8-7.7-2.4-10
		c-1.6-2.3-4.1-3.4-7.5-3.4c-3.4,0-5.9,1.2-7.6,3.5c-1.6,2.3-2.4,5.6-2.4,10c0,4.3,0.8,7.6,2.4,9.9
		C821.4,437.6,824,438.7,827.4,438.7z"/>
	<path class="st0" d="M870.2,445.6v-40.5h6c1.3,0,2.1,0.6,2.5,1.8l0.6,3c0.7-0.8,1.5-1.5,2.2-2.2c0.8-0.7,1.6-1.2,2.5-1.7
		c0.9-0.5,1.8-0.8,2.8-1.1c1-0.3,2.1-0.4,3.3-0.4c2.5,0,4.6,0.7,6.3,2.1c1.6,1.4,2.9,3.2,3.7,5.5c0.6-1.3,1.4-2.5,2.4-3.5
		c0.9-1,2-1.7,3.1-2.3s2.3-1.1,3.6-1.3c1.3-0.3,2.6-0.4,3.8-0.4c2.2,0,4.2,0.3,6,1c1.7,0.7,3.2,1.7,4.4,3c1.2,1.3,2.1,2.9,2.7,4.8
		c0.6,1.9,0.9,4.1,0.9,6.5v25.8h-9.7v-25.8c0-2.6-0.6-4.5-1.7-5.8c-1.1-1.3-2.8-2-5-2c-1,0-1.9,0.2-2.8,0.5s-1.6,0.8-2.2,1.5
		c-0.6,0.6-1.2,1.5-1.5,2.4c-0.4,1-0.6,2.1-0.6,3.4v25.8h-9.8v-25.8c0-2.7-0.5-4.7-1.6-5.9c-1.1-1.2-2.7-1.9-4.8-1.9
		c-1.4,0-2.7,0.3-3.9,1c-1.2,0.7-2.4,1.7-3.4,2.9v29.6H870.2z"/>
	<path class="st0" d="M968.3,445.6h-4.4c-0.9,0-1.6-0.1-2.2-0.4s-0.9-0.8-1.2-1.7l-0.9-2.9c-1,0.9-2,1.7-3,2.4c-1,0.7-2,1.3-3.1,1.8
		c-1.1,0.5-2.2,0.8-3.4,1.1c-1.2,0.2-2.5,0.4-3.9,0.4c-1.7,0-3.3-0.2-4.7-0.7c-1.4-0.5-2.7-1.2-3.7-2.1c-1-0.9-1.8-2.1-2.4-3.4
		c-0.6-1.4-0.9-3-0.9-4.8c0-1.5,0.4-3,1.2-4.5s2.1-2.8,4-4c1.9-1.2,4.4-2.2,7.5-3c3.1-0.8,7-1.2,11.6-1.2v-2.4
		c0-2.7-0.6-4.8-1.7-6.1s-2.8-2-5-2c-1.6,0-2.9,0.2-3.9,0.6c-1.1,0.4-2,0.8-2.7,1.2c-0.8,0.5-1.5,0.9-2.1,1.2s-1.4,0.6-2.2,0.6
		c-0.7,0-1.2-0.2-1.7-0.5s-0.9-0.8-1.1-1.3l-1.8-3.1c4.7-4.3,10.3-6.4,16.8-6.4c2.4,0,4.5,0.4,6.3,1.2c1.9,0.8,3.4,1.9,4.7,3.2
		c1.3,1.4,2.3,3,2.9,5c0.7,1.9,1,4,1,6.3V445.6z M949.4,439.5c1,0,1.9-0.1,2.8-0.3c0.8-0.2,1.6-0.5,2.4-0.8s1.5-0.8,2.2-1.3
		c0.7-0.5,1.4-1.2,2.1-1.9v-6.8c-2.8,0-5.2,0.2-7.1,0.5c-1.9,0.4-3.4,0.8-4.6,1.4c-1.2,0.6-2,1.2-2.5,1.9s-0.7,1.5-0.7,2.4
		c0,1.7,0.5,3,1.5,3.7C946.4,439.2,947.7,439.5,949.4,439.5z"/>
	<path class="st0" d="M987.7,387v33.6h1.8c0.7,0,1.2-0.1,1.5-0.3c0.4-0.2,0.8-0.5,1.2-1l10.1-12.4c0.4-0.5,0.9-0.9,1.4-1.2
		c0.5-0.3,1.2-0.5,2-0.5h8.9l-12.6,15c-0.4,0.6-0.9,1.1-1.4,1.5c-0.5,0.5-1,0.9-1.5,1.2c0.6,0.4,1,0.9,1.5,1.4s0.8,1.1,1.3,1.7
		l13.5,19.6h-8.8c-0.8,0-1.4-0.1-1.9-0.4c-0.5-0.3-1-0.7-1.4-1.3l-10.3-15.3c-0.4-0.6-0.8-1-1.2-1.2c-0.4-0.2-1-0.3-1.8-0.3h-2.2
		v18.5H978V387H987.7z"/>
	<path class="st0" d="M1035.8,404.5c2.5,0,4.9,0.4,7,1.2c2.1,0.8,4,2,5.5,3.6c1.6,1.6,2.8,3.5,3.6,5.8c0.9,2.3,1.3,4.9,1.3,7.8
		c0,0.7,0,1.3-0.1,1.8c-0.1,0.5-0.2,0.9-0.4,1.1s-0.4,0.5-0.7,0.6s-0.7,0.2-1.1,0.2h-25c0.3,4.2,1.4,7.2,3.4,9.2
		c1.9,1.9,4.5,2.9,7.7,2.9c1.6,0,2.9-0.2,4.1-0.6c1.1-0.4,2.1-0.8,3-1.2c0.9-0.4,1.6-0.9,2.2-1.2s1.3-0.6,1.9-0.6
		c0.4,0,0.7,0.1,1,0.2c0.3,0.2,0.5,0.4,0.7,0.7l2.8,3.5c-1.1,1.3-2.3,2.3-3.6,3.2c-1.3,0.9-2.7,1.5-4.2,2.1s-2.9,0.9-4.5,1.1
		c-1.5,0.2-3,0.3-4.4,0.3c-2.8,0-5.4-0.5-7.8-1.4s-4.5-2.3-6.3-4.1c-1.8-1.8-3.2-4.1-4.2-6.8c-1-2.7-1.5-5.8-1.5-9.4
		c0-2.8,0.4-5.4,1.3-7.8c0.9-2.4,2.2-4.5,3.8-6.3c1.7-1.8,3.7-3.2,6.1-4.3S1032.7,404.5,1035.8,404.5z M1035.9,411.5
		c-2.8,0-5.1,0.8-6.7,2.4s-2.6,3.9-3.1,6.8h18.3c0-1.3-0.2-2.5-0.5-3.6s-0.9-2.1-1.6-2.9s-1.6-1.5-2.7-2
		C1038.7,411.7,1037.4,411.5,1035.9,411.5z"/>
	<path class="st0" d="M348.6,508.4c-0.3,0.4-0.6,0.7-0.8,0.9c-0.3,0.2-0.7,0.3-1.2,0.3c-0.5,0-1-0.2-1.5-0.5c-0.5-0.3-1-0.6-1.7-1
		s-1.4-0.7-2.3-1c-0.9-0.3-2-0.5-3.4-0.5c-1.7,0-3.2,0.3-4.5,0.9c-1.3,0.6-2.4,1.5-3.2,2.7c-0.9,1.2-1.5,2.6-1.9,4.2
		c-0.4,1.6-0.6,3.5-0.6,5.6c0,2.2,0.2,4.1,0.7,5.8c0.5,1.7,1.1,3.1,2,4.2c0.9,1.1,1.9,2,3.2,2.6c1.2,0.6,2.6,0.9,4.2,0.9
		c1.6,0,2.8-0.2,3.8-0.6c1-0.4,1.8-0.8,2.4-1.3c0.7-0.5,1.2-0.9,1.7-1.3c0.5-0.4,1-0.6,1.6-0.6c0.8,0,1.4,0.3,1.8,0.9l2.8,3.5
		c-1.1,1.3-2.2,2.3-3.5,3.2s-2.6,1.5-3.9,2.1c-1.4,0.5-2.8,0.9-4.2,1.1c-1.4,0.2-2.9,0.3-4.3,0.3c-2.5,0-4.9-0.5-7.1-1.4
		c-2.2-0.9-4.1-2.3-5.8-4.1c-1.6-1.8-2.9-4-3.9-6.6c-1-2.6-1.4-5.5-1.4-8.9c0-3,0.4-5.7,1.3-8.3c0.9-2.5,2.1-4.7,3.8-6.6
		c1.7-1.9,3.7-3.3,6.2-4.4c2.4-1.1,5.3-1.6,8.4-1.6c3,0,5.7,0.5,7.9,1.5c2.3,1,4.3,2.4,6.1,4.2L348.6,508.4z"/>
	<path class="st0" d="M368.2,481.7v58.6h-9.7v-58.6H368.2z"/>
	<path class="st0" d="M410.9,540.3h-4.4c-0.9,0-1.6-0.1-2.2-0.4s-0.9-0.8-1.2-1.7l-0.9-2.9c-1,0.9-2,1.7-3,2.4c-1,0.7-2,1.3-3.1,1.8
		c-1.1,0.5-2.2,0.8-3.4,1.1c-1.2,0.2-2.5,0.4-3.9,0.4c-1.7,0-3.3-0.2-4.7-0.7c-1.4-0.5-2.7-1.2-3.7-2.1c-1-0.9-1.8-2.1-2.4-3.4
		c-0.6-1.4-0.9-3-0.9-4.8c0-1.5,0.4-3,1.2-4.5c0.8-1.5,2.1-2.8,4-4c1.9-1.2,4.4-2.2,7.5-3c3.1-0.8,7-1.2,11.6-1.2v-2.4
		c0-2.7-0.6-4.8-1.7-6.1c-1.1-1.3-2.8-2-5-2c-1.6,0-2.9,0.2-3.9,0.6c-1.1,0.4-2,0.8-2.7,1.2c-0.8,0.5-1.5,0.9-2.1,1.2
		c-0.7,0.4-1.4,0.6-2.2,0.6c-0.7,0-1.2-0.2-1.7-0.5c-0.5-0.3-0.9-0.8-1.1-1.3l-1.8-3.1c4.7-4.3,10.3-6.4,16.8-6.4
		c2.4,0,4.5,0.4,6.3,1.2c1.9,0.8,3.4,1.9,4.7,3.2c1.3,1.4,2.3,3,2.9,5c0.7,1.9,1,4,1,6.3V540.3z M392,534.2c1,0,1.9-0.1,2.8-0.3
		c0.8-0.2,1.6-0.5,2.4-0.8s1.5-0.8,2.2-1.3c0.7-0.5,1.4-1.2,2.1-1.9v-6.8c-2.8,0-5.2,0.2-7.1,0.5c-1.9,0.4-3.4,0.8-4.6,1.4
		c-1.2,0.6-2,1.2-2.5,1.9c-0.5,0.7-0.7,1.5-0.7,2.4c0,1.7,0.5,3,1.5,3.7C389,533.8,390.4,534.2,392,534.2z"/>
	<path class="st0" d="M444.5,507.7c-0.3,0.4-0.5,0.7-0.8,0.9c-0.3,0.2-0.7,0.3-1.1,0.3c-0.5,0-1-0.1-1.5-0.4
		c-0.5-0.3-1.2-0.6-1.9-0.9s-1.5-0.6-2.4-0.9s-2-0.4-3.2-0.4c-1.9,0-3.4,0.4-4.5,1.2c-1.1,0.8-1.7,1.9-1.7,3.2
		c0,0.9,0.3,1.6,0.8,2.2c0.6,0.6,1.3,1.1,2.2,1.6c0.9,0.4,2,0.8,3.2,1.2c1.2,0.4,2.4,0.7,3.6,1.2c1.2,0.4,2.4,0.9,3.6,1.4
		c1.2,0.5,2.2,1.2,3.2,2.1c0.9,0.8,1.7,1.8,2.2,3s0.8,2.6,0.8,4.2c0,1.9-0.4,3.7-1.1,5.4s-1.7,3.1-3.1,4.3c-1.4,1.2-3.1,2.1-5.1,2.8
		c-2,0.7-4.3,1-6.9,1c-1.4,0-2.8-0.1-4.1-0.4c-1.3-0.3-2.6-0.6-3.8-1c-1.2-0.4-2.4-1-3.4-1.6c-1-0.6-2-1.3-2.7-2l2.2-3.7
		c0.3-0.4,0.6-0.8,1-1c0.4-0.2,0.9-0.4,1.5-0.4c0.6,0,1.2,0.2,1.7,0.5c0.5,0.3,1.2,0.7,1.9,1.1s1.5,0.8,2.5,1.1
		c1,0.3,2.2,0.5,3.6,0.5c1.2,0,2.1-0.1,3-0.4c0.8-0.3,1.5-0.6,2.1-1.1c0.5-0.4,0.9-1,1.2-1.6c0.2-0.6,0.4-1.2,0.4-1.8
		c0-0.9-0.3-1.7-0.8-2.3c-0.6-0.6-1.3-1.1-2.2-1.6c-0.9-0.4-2-0.8-3.2-1.2c-1.2-0.4-2.4-0.7-3.7-1.2c-1.2-0.4-2.5-0.9-3.7-1.5
		c-1.2-0.6-2.3-1.3-3.2-2.1c-0.9-0.9-1.7-1.9-2.2-3.2c-0.6-1.3-0.8-2.8-0.8-4.6c0-1.7,0.3-3.2,1-4.7s1.6-2.8,2.9-3.9
		c1.3-1.1,2.9-2,4.8-2.7c1.9-0.7,4.1-1,6.6-1c2.8,0,5.3,0.5,7.6,1.4c2.3,0.9,4.2,2.1,5.7,3.6L444.5,507.7z"/>
	<path class="st0" d="M479,507.7c-0.3,0.4-0.5,0.7-0.8,0.9c-0.3,0.2-0.7,0.3-1.1,0.3c-0.5,0-1-0.1-1.5-0.4c-0.5-0.3-1.2-0.6-1.9-0.9
		s-1.5-0.6-2.4-0.9s-2-0.4-3.2-0.4c-1.9,0-3.4,0.4-4.5,1.2c-1.1,0.8-1.7,1.9-1.7,3.2c0,0.9,0.3,1.6,0.8,2.2c0.6,0.6,1.3,1.1,2.2,1.6
		c0.9,0.4,2,0.8,3.2,1.2c1.2,0.4,2.4,0.7,3.6,1.2c1.2,0.4,2.4,0.9,3.6,1.4c1.2,0.5,2.2,1.2,3.2,2.1c0.9,0.8,1.7,1.8,2.2,3
		s0.8,2.6,0.8,4.2c0,1.9-0.4,3.7-1.1,5.4s-1.7,3.1-3.1,4.3c-1.4,1.2-3.1,2.1-5.1,2.8c-2,0.7-4.3,1-6.9,1c-1.4,0-2.8-0.1-4.1-0.4
		c-1.3-0.3-2.6-0.6-3.8-1c-1.2-0.4-2.4-1-3.4-1.6c-1-0.6-2-1.3-2.7-2l2.2-3.7c0.3-0.4,0.6-0.8,1-1c0.4-0.2,0.9-0.4,1.5-0.4
		c0.6,0,1.2,0.2,1.7,0.5c0.5,0.3,1.2,0.7,1.9,1.1s1.5,0.8,2.5,1.1c1,0.3,2.2,0.5,3.6,0.5c1.2,0,2.1-0.1,3-0.4
		c0.8-0.3,1.5-0.6,2.1-1.1c0.5-0.4,0.9-1,1.2-1.6c0.2-0.6,0.4-1.2,0.4-1.8c0-0.9-0.3-1.7-0.8-2.3c-0.6-0.6-1.3-1.1-2.2-1.6
		c-0.9-0.4-2-0.8-3.2-1.2c-1.2-0.4-2.4-0.7-3.7-1.2c-1.2-0.4-2.5-0.9-3.7-1.5c-1.2-0.6-2.3-1.3-3.2-2.1c-0.9-0.9-1.7-1.9-2.2-3.2
		c-0.6-1.3-0.8-2.8-0.8-4.6c0-1.7,0.3-3.2,1-4.7s1.6-2.8,2.9-3.9c1.3-1.1,2.9-2,4.8-2.7c1.9-0.7,4.1-1,6.6-1c2.8,0,5.3,0.5,7.6,1.4
		c2.3,0.9,4.2,2.1,5.7,3.6L479,507.7z"/>
	<path class="st0" d="M506.2,499.2c2.6,0,4.9,0.4,7,1.2c2.1,0.8,4,2,5.5,3.6c1.6,1.6,2.8,3.5,3.6,5.8c0.9,2.3,1.3,4.9,1.3,7.8
		c0,0.7,0,1.3-0.1,1.8s-0.2,0.9-0.4,1.1c-0.2,0.3-0.4,0.5-0.7,0.6c-0.3,0.1-0.7,0.2-1.1,0.2h-25c0.3,4.2,1.4,7.2,3.4,9.2
		c1.9,1.9,4.5,2.9,7.7,2.9c1.6,0,2.9-0.2,4.1-0.6c1.1-0.4,2.1-0.8,3-1.2c0.9-0.4,1.6-0.9,2.2-1.2c0.6-0.4,1.3-0.6,1.9-0.6
		c0.4,0,0.7,0.1,1,0.2c0.3,0.2,0.5,0.4,0.7,0.7l2.8,3.5c-1.1,1.3-2.3,2.3-3.6,3.2c-1.3,0.9-2.7,1.5-4.2,2.1s-2.9,0.9-4.5,1.1
		c-1.5,0.2-3,0.3-4.4,0.3c-2.8,0-5.4-0.5-7.8-1.4c-2.4-0.9-4.5-2.3-6.3-4.1c-1.8-1.8-3.2-4.1-4.2-6.8c-1-2.7-1.5-5.8-1.5-9.4
		c0-2.8,0.4-5.4,1.3-7.8c0.9-2.4,2.2-4.5,3.8-6.3c1.7-1.8,3.7-3.2,6.1-4.3C500.4,499.7,503.1,499.2,506.2,499.2z M506.4,506.2
		c-2.8,0-5.1,0.8-6.7,2.4c-1.6,1.6-2.6,3.9-3.1,6.8h18.3c0-1.3-0.2-2.5-0.5-3.6c-0.3-1.1-0.9-2.1-1.6-2.9s-1.6-1.5-2.7-2
		C509.1,506.4,507.8,506.2,506.4,506.2z"/>
	<path class="st0" d="M555.6,507.7c-0.3,0.4-0.5,0.7-0.8,0.9c-0.3,0.2-0.7,0.3-1.1,0.3c-0.5,0-1-0.1-1.5-0.4
		c-0.5-0.3-1.2-0.6-1.9-0.9s-1.5-0.6-2.4-0.9s-2-0.4-3.2-0.4c-1.9,0-3.4,0.4-4.5,1.2c-1.1,0.8-1.7,1.9-1.7,3.2
		c0,0.9,0.3,1.6,0.8,2.2s1.3,1.1,2.2,1.6c0.9,0.4,2,0.8,3.2,1.2c1.2,0.4,2.4,0.7,3.6,1.2c1.2,0.4,2.4,0.9,3.6,1.4s2.2,1.2,3.2,2.1
		s1.7,1.8,2.2,3s0.8,2.6,0.8,4.2c0,1.9-0.4,3.7-1.1,5.4s-1.7,3.1-3.1,4.3c-1.4,1.2-3.1,2.1-5.1,2.8c-2,0.7-4.3,1-6.9,1
		c-1.4,0-2.8-0.1-4.1-0.4c-1.3-0.3-2.6-0.6-3.8-1c-1.2-0.4-2.4-1-3.4-1.6c-1-0.6-2-1.3-2.7-2l2.2-3.7c0.3-0.4,0.6-0.8,1-1
		c0.4-0.2,0.9-0.4,1.5-0.4c0.6,0,1.2,0.2,1.7,0.5c0.5,0.3,1.2,0.7,1.9,1.1s1.5,0.8,2.5,1.1s2.2,0.5,3.6,0.5c1.2,0,2.1-0.1,3-0.4
		c0.8-0.3,1.5-0.6,2.1-1.1c0.5-0.4,0.9-1,1.2-1.6s0.4-1.2,0.4-1.8c0-0.9-0.3-1.7-0.8-2.3c-0.6-0.6-1.3-1.1-2.2-1.6
		c-0.9-0.4-2-0.8-3.2-1.2c-1.2-0.4-2.4-0.7-3.7-1.2c-1.2-0.4-2.5-0.9-3.7-1.5c-1.2-0.6-2.3-1.3-3.2-2.1c-0.9-0.9-1.7-1.9-2.2-3.2
		c-0.6-1.3-0.8-2.8-0.8-4.6c0-1.7,0.3-3.2,1-4.7s1.6-2.8,2.9-3.9c1.3-1.1,2.9-2,4.8-2.7c1.9-0.7,4.1-1,6.6-1c2.8,0,5.3,0.5,7.6,1.4
		c2.3,0.9,4.2,2.1,5.7,3.6L555.6,507.7z"/>
	<path class="st0" d="M563.8,534.9c0-0.8,0.2-1.6,0.5-2.3c0.3-0.7,0.7-1.4,1.3-1.9c0.5-0.5,1.2-0.9,1.9-1.3s1.5-0.5,2.4-0.5
		c0.8,0,1.6,0.2,2.3,0.5c0.7,0.3,1.4,0.7,1.9,1.3s0.9,1.2,1.3,1.9c0.3,0.7,0.5,1.5,0.5,2.3c0,0.8-0.2,1.6-0.5,2.3
		c-0.3,0.7-0.7,1.3-1.3,1.9s-1.2,0.9-1.9,1.2c-0.7,0.3-1.5,0.5-2.3,0.5c-0.8,0-1.6-0.2-2.4-0.5s-1.4-0.7-1.9-1.2
		c-0.5-0.5-1-1.2-1.3-1.9C563.9,536.5,563.8,535.8,563.8,534.9z"/>
	<path class="st0" d="M639.8,483.2v8.7h-17.2v48.3H612V492h-17.2v-8.7H639.8z"/>
	<path class="st0" d="M646,540.3v-58.6h9.7v22.5c1.6-1.5,3.3-2.7,5.2-3.6c1.9-0.9,4.1-1.4,6.7-1.4c2.2,0,4.2,0.4,5.9,1.1
		c1.7,0.8,3.1,1.8,4.3,3.2c1.1,1.4,2,3,2.6,4.9s0.9,4,0.9,6.2v25.8h-9.7v-25.8c0-2.5-0.6-4.4-1.7-5.7s-2.9-2-5.1-2
		c-1.7,0-3.3,0.4-4.7,1.1s-2.9,1.8-4.2,3.1v29.3H646z"/>
	<path class="st0" d="M707.6,499.2c2.5,0,4.9,0.4,7,1.2c2.1,0.8,4,2,5.5,3.6c1.6,1.6,2.8,3.5,3.6,5.8c0.9,2.3,1.3,4.9,1.3,7.8
		c0,0.7,0,1.3-0.1,1.8c-0.1,0.5-0.2,0.9-0.4,1.1s-0.4,0.5-0.7,0.6s-0.7,0.2-1.1,0.2h-25c0.3,4.2,1.4,7.2,3.4,9.2
		c1.9,1.9,4.5,2.9,7.7,2.9c1.6,0,2.9-0.2,4.1-0.6c1.1-0.4,2.1-0.8,3-1.2c0.9-0.4,1.6-0.9,2.2-1.2s1.3-0.6,1.9-0.6
		c0.4,0,0.7,0.1,1,0.2c0.3,0.2,0.5,0.4,0.7,0.7l2.8,3.5c-1.1,1.3-2.3,2.3-3.6,3.2c-1.3,0.9-2.7,1.5-4.2,2.1s-2.9,0.9-4.5,1.1
		c-1.5,0.2-3,0.3-4.4,0.3c-2.8,0-5.4-0.5-7.8-1.4s-4.5-2.3-6.3-4.1c-1.8-1.8-3.2-4.1-4.2-6.8c-1-2.7-1.5-5.8-1.5-9.4
		c0-2.8,0.4-5.4,1.3-7.8c0.9-2.4,2.2-4.5,3.8-6.3c1.7-1.8,3.7-3.2,6.1-4.3S704.5,499.2,707.6,499.2z M707.8,506.2
		c-2.8,0-5.1,0.8-6.7,2.4s-2.6,3.9-3.1,6.8h18.3c0-1.3-0.2-2.5-0.5-3.6s-0.9-2.1-1.6-2.9s-1.6-1.5-2.7-2
		C710.5,506.4,709.2,506.2,707.8,506.2z"/>
	<path class="st0" d="M746.1,551.4c-0.3,0.7-0.7,1.2-1.1,1.6c-0.5,0.4-1.2,0.5-2.1,0.5h-7.3l7.6-16.2l-16.4-37.5h8.5
		c0.8,0,1.4,0.2,1.8,0.6c0.4,0.4,0.7,0.8,0.9,1.3l8.6,21c0.3,0.7,0.5,1.4,0.7,2.1c0.2,0.7,0.4,1.5,0.6,2.2c0.2-0.8,0.4-1.5,0.7-2.2
		c0.2-0.7,0.5-1.4,0.8-2.2l8.1-20.9c0.2-0.5,0.6-1,1-1.3c0.5-0.3,1-0.5,1.6-0.5h7.8L746.1,551.4z"/>
	<path class="st0" d="M799.4,499.8v41.8c0,1.8-0.2,3.4-0.7,5c-0.5,1.6-1.2,2.9-2.2,4.1c-1,1.2-2.3,2.1-4,2.8c-1.6,0.7-3.6,1-6,1
		c-0.9,0-1.8-0.1-2.6-0.2s-1.6-0.3-2.4-0.6l0.3-5.2c0.1-0.5,0.3-0.9,0.6-1s1-0.2,2-0.2s1.8-0.1,2.5-0.3c0.7-0.2,1.2-0.5,1.6-0.9
		c0.4-0.4,0.7-1,0.9-1.7s0.3-1.6,0.3-2.6v-41.8H799.4z M800.8,488c0,0.8-0.2,1.6-0.5,2.4c-0.3,0.7-0.8,1.4-1.4,1.9
		c-0.6,0.6-1.2,1-2,1.3c-0.8,0.3-1.6,0.5-2.4,0.5c-0.8,0-1.6-0.2-2.4-0.5c-0.7-0.3-1.4-0.8-2-1.3c-0.6-0.6-1-1.2-1.3-1.9
		c-0.3-0.7-0.5-1.5-0.5-2.4c0-0.9,0.2-1.7,0.5-2.4c0.3-0.8,0.8-1.4,1.3-2c0.6-0.6,1.2-1,2-1.3c0.8-0.3,1.5-0.5,2.4-0.5
		c0.9,0,1.7,0.2,2.4,0.5c0.8,0.3,1.4,0.8,2,1.3c0.6,0.6,1,1.2,1.4,2C800.7,486.3,800.8,487.1,800.8,488z"/>
	<path class="st0" d="M819.1,499.8v25.7c0,2.5,0.6,4.4,1.7,5.7c1.1,1.4,2.9,2,5.1,2c1.7,0,3.3-0.4,4.7-1.1c1.5-0.7,2.9-1.8,4.2-3.1
		v-29.3h9.7v40.5h-6c-1.3,0-2.1-0.6-2.5-1.8l-0.7-3.2c-0.8,0.8-1.7,1.6-2.6,2.3c-0.9,0.7-1.8,1.3-2.9,1.8c-1,0.5-2.1,0.9-3.3,1.1
		c-1.2,0.3-2.4,0.4-3.8,0.4c-2.2,0-4.2-0.4-5.9-1.1c-1.7-0.7-3.1-1.8-4.3-3.2c-1.2-1.4-2-3-2.6-4.9s-0.9-4-0.9-6.2v-25.7H819.1z"/>
	<path class="st0" d="M879.1,507.7c-0.3,0.4-0.5,0.7-0.8,0.9c-0.3,0.2-0.7,0.3-1.1,0.3c-0.5,0-1-0.1-1.5-0.4
		c-0.5-0.3-1.2-0.6-1.9-0.9s-1.5-0.6-2.4-0.9s-2-0.4-3.2-0.4c-1.9,0-3.4,0.4-4.5,1.2c-1.1,0.8-1.7,1.9-1.7,3.2
		c0,0.9,0.3,1.6,0.8,2.2s1.3,1.1,2.2,1.6c0.9,0.4,2,0.8,3.2,1.2c1.2,0.4,2.4,0.7,3.6,1.2c1.2,0.4,2.4,0.9,3.6,1.4
		c1.2,0.5,2.2,1.2,3.2,2.1s1.7,1.8,2.2,3c0.6,1.2,0.8,2.6,0.8,4.2c0,1.9-0.4,3.7-1.1,5.4s-1.7,3.1-3.1,4.3c-1.4,1.2-3.1,2.1-5.1,2.8
		c-2,0.7-4.3,1-6.9,1c-1.4,0-2.8-0.1-4.1-0.4c-1.3-0.3-2.6-0.6-3.8-1c-1.2-0.4-2.4-1-3.4-1.6s-2-1.3-2.7-2l2.2-3.7
		c0.3-0.4,0.6-0.8,1-1c0.4-0.2,0.9-0.4,1.5-0.4s1.2,0.2,1.7,0.5c0.5,0.3,1.2,0.7,1.9,1.1s1.5,0.8,2.5,1.1s2.2,0.5,3.6,0.5
		c1.2,0,2.1-0.1,3-0.4c0.8-0.3,1.5-0.6,2.1-1.1c0.5-0.4,0.9-1,1.2-1.6c0.2-0.6,0.4-1.2,0.4-1.8c0-0.9-0.3-1.7-0.8-2.3
		c-0.6-0.6-1.3-1.1-2.2-1.6c-0.9-0.4-2-0.8-3.2-1.2c-1.2-0.4-2.4-0.7-3.7-1.2c-1.2-0.4-2.5-0.9-3.7-1.5c-1.2-0.6-2.3-1.3-3.2-2.1
		c-0.9-0.9-1.7-1.9-2.2-3.2c-0.6-1.3-0.8-2.8-0.8-4.6c0-1.7,0.3-3.2,1-4.7c0.7-1.5,1.6-2.8,2.9-3.9c1.3-1.1,2.9-2,4.8-2.7
		s4.1-1,6.6-1c2.8,0,5.3,0.5,7.6,1.4c2.3,0.9,4.2,2.1,5.7,3.6L879.1,507.7z"/>
	<path class="st0" d="M902.8,540.9c-3.5,0-6.2-1-8.1-3c-1.9-2-2.8-4.7-2.8-8.2v-22.6h-4.1c-0.5,0-1-0.2-1.4-0.5
		c-0.4-0.3-0.6-0.9-0.6-1.5v-3.9l6.5-1.1l2.1-11c0.1-0.5,0.3-0.9,0.7-1.2c0.4-0.3,0.9-0.4,1.4-0.4h5v12.7h10.6v6.9h-10.6V529
		c0,1.3,0.3,2.2,0.9,3s1.5,1.1,2.5,1.1c0.6,0,1.1-0.1,1.5-0.2c0.4-0.1,0.8-0.3,1.1-0.5c0.3-0.2,0.6-0.3,0.8-0.5
		c0.2-0.1,0.5-0.2,0.7-0.2c0.3,0,0.5,0.1,0.7,0.2c0.2,0.1,0.4,0.4,0.6,0.7l2.9,4.7c-1.4,1.2-3.1,2.1-4.9,2.7
		C906.7,540.6,904.8,540.9,902.8,540.9z"/>
	<path class="st0" d="M935.3,540.3v-40.5h6c1.3,0,2.1,0.6,2.5,1.8l0.7,3.2c0.8-0.8,1.7-1.6,2.6-2.3c0.9-0.7,1.9-1.3,2.9-1.8
		c1-0.5,2.1-0.9,3.3-1.1c1.2-0.3,2.4-0.4,3.8-0.4c2.2,0,4.2,0.4,5.9,1.1c1.7,0.8,3.1,1.8,4.3,3.2c1.1,1.4,2,3,2.6,4.9s0.9,4,0.9,6.2
		v25.8h-9.7v-25.8c0-2.5-0.6-4.4-1.7-5.7s-2.9-2-5.1-2c-1.7,0-3.3,0.4-4.7,1.1s-2.9,1.8-4.2,3.1v29.3H935.3z"/>
	<path class="st0" d="M996.9,499.2c2.5,0,4.9,0.4,7,1.2c2.1,0.8,4,2,5.5,3.6c1.6,1.6,2.8,3.5,3.6,5.8c0.9,2.3,1.3,4.9,1.3,7.8
		c0,0.7,0,1.3-0.1,1.8c-0.1,0.5-0.2,0.9-0.4,1.1s-0.4,0.5-0.7,0.6s-0.7,0.2-1.1,0.2h-25c0.3,4.2,1.4,7.2,3.4,9.2
		c1.9,1.9,4.5,2.9,7.7,2.9c1.6,0,2.9-0.2,4.1-0.6c1.1-0.4,2.1-0.8,3-1.2c0.9-0.4,1.6-0.9,2.2-1.2s1.3-0.6,1.9-0.6
		c0.4,0,0.7,0.1,1,0.2c0.3,0.2,0.5,0.4,0.7,0.7l2.8,3.5c-1.1,1.3-2.3,2.3-3.6,3.2c-1.3,0.9-2.7,1.5-4.2,2.1s-2.9,0.9-4.5,1.1
		c-1.5,0.2-3,0.3-4.4,0.3c-2.8,0-5.4-0.5-7.8-1.4s-4.5-2.3-6.3-4.1c-1.8-1.8-3.2-4.1-4.2-6.8c-1-2.7-1.5-5.8-1.5-9.4
		c0-2.8,0.4-5.4,1.3-7.8c0.9-2.4,2.2-4.5,3.8-6.3c1.7-1.8,3.7-3.2,6.1-4.3S993.8,499.2,996.9,499.2z M997.1,506.2
		c-2.8,0-5.1,0.8-6.7,2.4s-2.6,3.9-3.1,6.8h18.3c0-1.3-0.2-2.5-0.5-3.6s-0.9-2.1-1.6-2.9s-1.6-1.5-2.7-2
		C999.8,506.4,998.5,506.2,997.1,506.2z"/>
	<path class="st0" d="M1039,499.2c2.5,0,4.9,0.4,7,1.2c2.1,0.8,4,2,5.5,3.6c1.6,1.6,2.8,3.5,3.6,5.8c0.9,2.3,1.3,4.9,1.3,7.8
		c0,0.7,0,1.3-0.1,1.8c-0.1,0.5-0.2,0.9-0.4,1.1s-0.4,0.5-0.7,0.6s-0.7,0.2-1.1,0.2h-25c0.3,4.2,1.4,7.2,3.4,9.2
		c1.9,1.9,4.5,2.9,7.7,2.9c1.6,0,2.9-0.2,4.1-0.6c1.1-0.4,2.1-0.8,3-1.2c0.9-0.4,1.6-0.9,2.2-1.2s1.3-0.6,1.9-0.6
		c0.4,0,0.7,0.1,1,0.2c0.3,0.2,0.5,0.4,0.7,0.7l2.8,3.5c-1.1,1.3-2.3,2.3-3.6,3.2c-1.3,0.9-2.7,1.5-4.2,2.1s-2.9,0.9-4.5,1.1
		c-1.5,0.2-3,0.3-4.4,0.3c-2.8,0-5.4-0.5-7.8-1.4s-4.5-2.3-6.3-4.1c-1.8-1.8-3.2-4.1-4.2-6.8c-1-2.7-1.5-5.8-1.5-9.4
		c0-2.8,0.4-5.4,1.3-7.8c0.9-2.4,2.2-4.5,3.8-6.3c1.7-1.8,3.7-3.2,6.1-4.3S1036,499.2,1039,499.2z M1039.2,506.2
		c-2.8,0-5.1,0.8-6.7,2.4s-2.6,3.9-3.1,6.8h18.3c0-1.3-0.2-2.5-0.5-3.6s-0.9-2.1-1.6-2.9s-1.6-1.5-2.7-2
		C1041.9,506.4,1040.7,506.2,1039.2,506.2z"/>
	<path class="st0" d="M1092.9,540.3c-1.3,0-2.1-0.6-2.5-1.8l-0.8-3.9c-0.8,0.9-1.7,1.8-2.6,2.6c-0.9,0.8-1.9,1.4-3,2
		c-1.1,0.6-2.2,1-3.4,1.3c-1.2,0.3-2.5,0.5-4,0.5c-2.2,0-4.2-0.5-6.1-1.4c-1.8-0.9-3.4-2.3-4.8-4c-1.3-1.7-2.4-3.9-3.1-6.5
		c-0.7-2.6-1.1-5.5-1.1-8.8c0-3,0.4-5.8,1.2-8.4c0.8-2.6,2-4.8,3.5-6.7c1.5-1.9,3.4-3.4,5.5-4.4c2.1-1.1,4.5-1.6,7.2-1.6
		c2.3,0,4.2,0.4,5.8,1.1s3,1.7,4.3,2.9v-21.4h9.7v58.6H1092.9z M1080,533.1c2,0,3.7-0.4,5.2-1.3c1.4-0.8,2.8-2,4-3.6v-18.1
		c-1.1-1.3-2.3-2.3-3.6-2.8c-1.3-0.6-2.7-0.8-4.2-0.8c-1.5,0-2.8,0.3-4,0.8c-1.2,0.6-2.2,1.4-3,2.5c-0.8,1.1-1.5,2.5-1.9,4.3
		c-0.4,1.7-0.7,3.8-0.7,6.1c0,2.4,0.2,4.4,0.6,6c0.4,1.6,0.9,3,1.6,4s1.6,1.8,2.6,2.2S1078.7,533.1,1080,533.1z"/>
	<path class="st0" d="M1137.9,540.9c-3.5,0-6.2-1-8.1-3c-1.9-2-2.8-4.7-2.8-8.2v-22.6h-4.1c-0.5,0-1-0.2-1.4-0.5
		c-0.4-0.3-0.6-0.9-0.6-1.5v-3.9l6.5-1.1l2.1-11c0.1-0.5,0.3-0.9,0.7-1.2c0.4-0.3,0.9-0.4,1.4-0.4h5v12.7h10.6v6.9h-10.6V529
		c0,1.3,0.3,2.2,0.9,3s1.5,1.1,2.5,1.1c0.6,0,1.1-0.1,1.5-0.2c0.4-0.1,0.8-0.3,1.1-0.5c0.3-0.2,0.6-0.3,0.8-0.5
		c0.2-0.1,0.5-0.2,0.7-0.2c0.3,0,0.5,0.1,0.7,0.2c0.2,0.1,0.4,0.4,0.6,0.7l2.9,4.7c-1.4,1.2-3.1,2.1-4.9,2.7
		C1141.8,540.6,1139.9,540.9,1137.9,540.9z"/>
	<path class="st0" d="M1172.5,499.2c3,0,5.8,0.5,8.2,1.5c2.5,1,4.6,2.4,6.3,4.1c1.7,1.8,3.1,4,4,6.5s1.4,5.5,1.4,8.6
		c0,3.2-0.5,6.1-1.4,8.7c-0.9,2.6-2.3,4.8-4,6.6c-1.7,1.8-3.8,3.2-6.3,4.2c-2.5,1-5.2,1.5-8.2,1.5c-3,0-5.8-0.5-8.2-1.5
		c-2.5-1-4.6-2.4-6.3-4.2c-1.7-1.8-3.1-4-4.1-6.6c-1-2.6-1.4-5.5-1.4-8.7c0-3.2,0.5-6.1,1.4-8.6c1-2.6,2.3-4.8,4.1-6.5
		c1.7-1.8,3.9-3.2,6.3-4.1C1166.7,499.7,1169.4,499.2,1172.5,499.2z M1172.5,533.4c3.4,0,5.9-1.1,7.5-3.4s2.4-5.6,2.4-9.9
		s-0.8-7.7-2.4-10c-1.6-2.3-4.1-3.4-7.5-3.4c-3.4,0-5.9,1.2-7.6,3.5c-1.6,2.3-2.4,5.6-2.4,10c0,4.3,0.8,7.6,2.4,9.9
		C1166.5,532.2,1169,533.4,1172.5,533.4z"/>
	<path class="st0" d="M440,634.9v-40.5h5.7c1,0,1.7,0.2,2.1,0.6c0.4,0.4,0.7,1,0.8,1.9l0.6,4.9c1.4-2.5,3.1-4.5,5.1-5.9
		c1.9-1.4,4.1-2.2,6.5-2.2c2,0,3.7,0.5,5,1.4l-1.3,7.3c-0.1,0.5-0.3,0.8-0.5,1c-0.3,0.2-0.6,0.3-1.1,0.3c-0.4,0-0.9-0.1-1.6-0.3
		c-0.7-0.2-1.6-0.3-2.7-0.3c-2,0-3.8,0.6-5.2,1.7c-1.4,1.1-2.7,2.8-3.7,4.9v25.2H440z"/>
	<path class="st0" d="M484.1,582.7c0,0.8-0.2,1.6-0.5,2.4c-0.3,0.7-0.8,1.4-1.4,1.9c-0.6,0.6-1.2,1-2,1.3c-0.8,0.3-1.6,0.5-2.4,0.5
		c-0.8,0-1.6-0.2-2.4-0.5c-0.7-0.3-1.4-0.8-2-1.3c-0.6-0.6-1-1.2-1.3-1.9c-0.3-0.7-0.5-1.5-0.5-2.4c0-0.9,0.2-1.7,0.5-2.4
		c0.3-0.8,0.8-1.4,1.3-2c0.6-0.6,1.2-1,2-1.3c0.7-0.3,1.5-0.5,2.4-0.5c0.9,0,1.7,0.2,2.4,0.5c0.8,0.3,1.4,0.8,2,1.3
		c0.6,0.6,1,1.2,1.4,2C483.9,581,484.1,581.8,484.1,582.7z M482.6,594.5v40.5h-9.7v-40.5H482.6z"/>
	<path class="st0" d="M493.6,634.9v-40.5h6c1.3,0,2.1,0.6,2.5,1.8l0.7,3.2c0.8-0.8,1.7-1.6,2.6-2.3s1.9-1.3,2.9-1.8
		c1-0.5,2.1-0.9,3.3-1.1c1.2-0.3,2.4-0.4,3.8-0.4c2.2,0,4.2,0.4,5.9,1.1c1.7,0.8,3.1,1.8,4.3,3.2c1.1,1.4,2,3,2.6,4.9s0.9,4,0.9,6.2
		v25.8h-9.7v-25.8c0-2.5-0.6-4.4-1.7-5.7c-1.1-1.4-2.9-2-5.1-2c-1.7,0-3.3,0.4-4.7,1.1c-1.5,0.8-2.9,1.8-4.2,3.1v29.3H493.6z"/>
	<path class="st0" d="M552.5,593.8c1.7,0,3.4,0.2,4.9,0.5c1.5,0.4,2.9,0.9,4.2,1.6h11.6v3.6c0,0.6-0.2,1.1-0.5,1.4s-0.9,0.6-1.6,0.7
		l-3.6,0.7c0.3,0.7,0.5,1.4,0.6,2.2c0.1,0.8,0.2,1.6,0.2,2.4c0,2-0.4,3.8-1.2,5.4c-0.8,1.6-1.9,3-3.3,4.1c-1.4,1.1-3.1,2-5,2.6
		c-1.9,0.6-4,0.9-6.3,0.9c-1.5,0-3-0.1-4.5-0.4c-1.3,0.8-1.9,1.6-1.9,2.6c0,0.8,0.4,1.4,1.1,1.8c0.7,0.4,1.7,0.7,3,0.8
		c1.2,0.2,2.6,0.2,4.2,0.2c1.6,0,3.1,0.1,4.8,0.2c1.6,0.1,3.2,0.4,4.8,0.7c1.6,0.3,2.9,0.8,4.2,1.6s2.2,1.7,3,2.9
		c0.7,1.2,1.1,2.8,1.1,4.7c0,1.8-0.4,3.5-1.3,5.2c-0.9,1.7-2.2,3.2-3.8,4.5c-1.7,1.3-3.7,2.4-6.1,3.2c-2.4,0.8-5.2,1.2-8.3,1.2
		c-3.1,0-5.7-0.3-8-0.9c-2.3-0.6-4.1-1.4-5.6-2.4c-1.5-1-2.6-2.1-3.3-3.4c-0.7-1.3-1.1-2.6-1.1-4c0-1.9,0.6-3.5,1.7-4.8
		s2.8-2.3,4.8-3.1c-1-0.6-1.8-1.3-2.4-2.2c-0.6-0.9-0.9-2.1-0.9-3.6c0-0.6,0.1-1.2,0.3-1.9c0.2-0.6,0.5-1.3,1-1.9
		c0.4-0.6,1-1.2,1.6-1.8c0.7-0.6,1.4-1.1,2.3-1.5c-2.1-1.1-3.7-2.6-4.8-4.4c-1.2-1.8-1.8-4-1.8-6.5c0-2,0.4-3.8,1.2-5.4
		c0.8-1.6,1.9-3,3.4-4.1c1.4-1.1,3.1-2,5.1-2.6C548,594.1,550.2,593.8,552.5,593.8z M563.2,636.6c0-0.8-0.2-1.5-0.7-2
		c-0.5-0.5-1.1-0.9-1.9-1.2s-1.8-0.5-2.9-0.6c-1.1-0.1-2.2-0.2-3.5-0.2s-2.5,0-3.8,0c-1.3,0-2.6-0.1-3.8-0.4c-1.1,0.6-2,1.3-2.7,2.1
		c-0.7,0.8-1,1.8-1,2.9c0,0.7,0.2,1.4,0.5,2c0.4,0.6,0.9,1.2,1.7,1.6c0.8,0.4,1.8,0.8,3,1c1.2,0.3,2.7,0.4,4.5,0.4
		c1.8,0,3.4-0.1,4.7-0.4c1.3-0.3,2.4-0.7,3.3-1.2s1.5-1.1,1.9-1.8C563,638.2,563.2,637.4,563.2,636.6z M552.5,613.7
		c1.2,0,2.3-0.2,3.2-0.5c0.9-0.3,1.6-0.8,2.2-1.4s1-1.3,1.3-2.1c0.3-0.8,0.5-1.7,0.5-2.7c0-2-0.6-3.6-1.8-4.8
		c-1.2-1.2-3-1.8-5.4-1.8s-4.2,0.6-5.4,1.8c-1.2,1.2-1.8,2.8-1.8,4.8c0,0.9,0.2,1.8,0.5,2.6c0.3,0.8,0.7,1.5,1.3,2.1
		c0.6,0.6,1.3,1.1,2.2,1.4C550.2,613.6,551.3,613.7,552.5,613.7z"/>
	<path class="st0" d="M603.4,594.5v25.7c0,2.5,0.6,4.4,1.7,5.7c1.1,1.4,2.9,2,5.1,2c1.7,0,3.3-0.4,4.7-1.1c1.5-0.7,2.9-1.8,4.2-3.1
		v-29.3h9.7v40.5h-6c-1.3,0-2.1-0.6-2.5-1.8l-0.7-3.2c-0.8,0.8-1.7,1.6-2.6,2.3c-0.9,0.7-1.8,1.3-2.9,1.8c-1,0.5-2.1,0.9-3.3,1.1
		s-2.4,0.4-3.8,0.4c-2.2,0-4.2-0.4-5.9-1.1c-1.7-0.7-3.1-1.8-4.3-3.2s-2-3-2.6-4.9c-0.6-1.9-0.9-4-0.9-6.2v-25.7H603.4z"/>
	<path class="st0" d="M639.4,648.2v-53.7h6c0.6,0,1.2,0.1,1.6,0.4c0.4,0.3,0.7,0.7,0.9,1.3l0.8,3.7c1.6-1.9,3.5-3.4,5.6-4.5
		c2.1-1.2,4.6-1.7,7.4-1.7c2.2,0,4.2,0.5,6.1,1.4c1.8,0.9,3.4,2.3,4.7,4c1.3,1.7,2.4,3.9,3.1,6.5c0.7,2.6,1.1,5.5,1.1,8.8
		c0,3-0.4,5.8-1.2,8.4c-0.8,2.6-2,4.8-3.5,6.7c-1.5,1.9-3.3,3.4-5.5,4.4c-2.1,1.1-4.5,1.6-7.2,1.6c-2.3,0-4.2-0.3-5.8-1
		c-1.6-0.7-3-1.7-4.3-2.9v16.6H639.4z M658.3,601.4c-2,0-3.8,0.4-5.2,1.3c-1.4,0.9-2.8,2.1-4,3.6v18.1c1.1,1.4,2.3,2.3,3.6,2.9
		s2.7,0.8,4.2,0.8c1.5,0,2.8-0.3,4-0.8c1.2-0.6,2.2-1.4,3-2.5c0.8-1.1,1.5-2.6,1.9-4.3c0.4-1.7,0.7-3.8,0.7-6.1c0-2.4-0.2-4.4-0.6-6
		c-0.4-1.6-0.9-3-1.6-4s-1.6-1.8-2.6-2.2C660.7,601.6,659.6,601.4,658.3,601.4z"/>
	<path class="st0" d="M730.9,634.9h-4.4c-0.9,0-1.6-0.1-2.2-0.4s-0.9-0.8-1.2-1.7l-0.9-2.9c-1,0.9-2,1.7-3,2.4c-1,0.7-2,1.3-3.1,1.8
		c-1.1,0.5-2.2,0.8-3.4,1.1c-1.2,0.2-2.5,0.4-3.9,0.4c-1.7,0-3.3-0.2-4.7-0.7c-1.4-0.5-2.7-1.2-3.7-2.1c-1-0.9-1.8-2.1-2.4-3.4
		c-0.6-1.4-0.9-3-0.9-4.8c0-1.5,0.4-3,1.2-4.5s2.1-2.8,4-4c1.9-1.2,4.4-2.2,7.5-3c3.1-0.8,7-1.2,11.6-1.2v-2.4
		c0-2.7-0.6-4.8-1.7-6.1s-2.8-2-5-2c-1.6,0-2.9,0.2-3.9,0.6c-1.1,0.4-2,0.8-2.7,1.2c-0.8,0.5-1.5,0.9-2.1,1.2s-1.4,0.6-2.2,0.6
		c-0.7,0-1.2-0.2-1.7-0.5s-0.9-0.8-1.1-1.3l-1.8-3.1c4.7-4.3,10.3-6.4,16.8-6.4c2.4,0,4.5,0.4,6.3,1.2c1.9,0.8,3.4,1.9,4.7,3.2
		c1.3,1.4,2.3,3,2.9,5c0.7,1.9,1,4,1,6.3V634.9z M712,628.9c1,0,1.9-0.1,2.8-0.3c0.8-0.2,1.6-0.5,2.4-0.8s1.5-0.8,2.2-1.3
		c0.7-0.5,1.4-1.2,2.1-1.9v-6.8c-2.8,0-5.2,0.2-7.1,0.5c-1.9,0.4-3.4,0.8-4.6,1.4c-1.2,0.6-2,1.2-2.5,1.9s-0.7,1.5-0.7,2.4
		c0,1.7,0.5,3,1.5,3.7C709,628.5,710.3,628.9,712,628.9z"/>
	<path class="st0" d="M740.5,634.9v-40.5h6c1.3,0,2.1,0.6,2.5,1.8l0.7,3.2c0.8-0.8,1.7-1.6,2.6-2.3c0.9-0.7,1.9-1.3,2.9-1.8
		c1-0.5,2.1-0.9,3.3-1.1c1.2-0.3,2.4-0.4,3.8-0.4c2.2,0,4.2,0.4,5.9,1.1c1.7,0.8,3.1,1.8,4.3,3.2c1.1,1.4,2,3,2.6,4.9s0.9,4,0.9,6.2
		v25.8H766v-25.8c0-2.5-0.6-4.4-1.7-5.7s-2.9-2-5.1-2c-1.7,0-3.3,0.4-4.7,1.1s-2.9,1.8-4.2,3.1v29.3H740.5z"/>
	<path class="st0" d="M813.8,634.9c-1.3,0-2.1-0.6-2.5-1.8l-0.8-3.9c-0.8,0.9-1.7,1.8-2.6,2.6c-0.9,0.8-1.9,1.4-3,2
		c-1.1,0.6-2.2,1-3.4,1.3c-1.2,0.3-2.5,0.5-4,0.5c-2.2,0-4.2-0.5-6.1-1.4c-1.8-0.9-3.4-2.3-4.8-4c-1.3-1.7-2.4-3.9-3.1-6.5
		c-0.7-2.6-1.1-5.5-1.1-8.8c0-3,0.4-5.8,1.2-8.4c0.8-2.6,2-4.8,3.5-6.7c1.5-1.9,3.4-3.4,5.5-4.4c2.1-1.1,4.5-1.6,7.2-1.6
		c2.3,0,4.2,0.4,5.8,1.1s3,1.7,4.3,2.9v-21.4h9.7v58.6H813.8z M800.8,627.8c2,0,3.7-0.4,5.2-1.3c1.4-0.8,2.8-2,4-3.6v-18.1
		c-1.1-1.3-2.3-2.3-3.6-2.8c-1.3-0.6-2.7-0.8-4.2-0.8c-1.5,0-2.8,0.3-4,0.8c-1.2,0.6-2.2,1.4-3,2.5c-0.8,1.1-1.5,2.5-1.9,4.3
		c-0.4,1.7-0.7,3.8-0.7,6.1c0,2.4,0.2,4.4,0.6,6c0.4,1.6,0.9,3,1.6,4s1.6,1.8,2.6,2.2S799.6,627.8,800.8,627.8z"/>
	<path class="st0" d="M845.6,634.9v-58.6h9.7v23.1c1.6-1.7,3.4-3.1,5.4-4.1c2-1,4.4-1.5,7.1-1.5c2.2,0,4.2,0.5,6.1,1.4
		c1.8,0.9,3.4,2.2,4.7,4c1.3,1.7,2.4,3.9,3.1,6.4c0.7,2.6,1.1,5.5,1.1,8.8c0,3-0.4,5.8-1.2,8.4c-0.8,2.6-2,4.8-3.5,6.7
		c-1.5,1.9-3.3,3.4-5.5,4.4c-2.1,1.1-4.5,1.6-7.2,1.6c-1.2,0-2.4-0.1-3.4-0.4c-1-0.2-2-0.6-2.8-1c-0.8-0.4-1.6-1-2.3-1.6
		c-0.7-0.6-1.4-1.4-2.1-2.1l-0.4,2.7c-0.2,0.7-0.4,1.2-0.8,1.5s-0.9,0.4-1.6,0.4H845.6z M864.6,601.4c-2,0-3.8,0.4-5.2,1.3
		c-1.4,0.9-2.8,2.1-4,3.6v18.1c1.1,1.4,2.3,2.3,3.6,2.9s2.7,0.8,4.2,0.8c1.5,0,2.8-0.3,4-0.8c1.2-0.6,2.2-1.4,3-2.5s1.5-2.6,1.9-4.3
		c0.4-1.7,0.7-3.8,0.7-6.1c0-2.4-0.2-4.4-0.6-6c-0.4-1.6-0.9-3-1.6-4s-1.6-1.8-2.6-2.2C867,601.6,865.9,601.4,864.6,601.4z"/>
	<path class="st0" d="M907.8,593.8c3,0,5.8,0.5,8.2,1.5c2.5,1,4.6,2.4,6.3,4.1c1.7,1.8,3.1,4,4,6.5s1.4,5.5,1.4,8.6
		c0,3.2-0.5,6.1-1.4,8.7c-0.9,2.6-2.3,4.8-4,6.6c-1.7,1.8-3.8,3.2-6.3,4.2c-2.5,1-5.2,1.5-8.2,1.5c-3,0-5.8-0.5-8.2-1.5
		c-2.5-1-4.6-2.4-6.3-4.2c-1.7-1.8-3.1-4-4.1-6.6c-1-2.6-1.4-5.5-1.4-8.7c0-3.2,0.5-6.1,1.4-8.6c1-2.6,2.3-4.8,4.1-6.5
		c1.7-1.8,3.9-3.2,6.3-4.1C902,594.3,904.7,593.8,907.8,593.8z M907.8,628c3.4,0,5.9-1.1,7.5-3.4s2.4-5.6,2.4-9.9s-0.8-7.7-2.4-10
		c-1.6-2.3-4.1-3.4-7.5-3.4c-3.4,0-5.9,1.2-7.6,3.5c-1.6,2.3-2.4,5.6-2.4,10c0,4.3,0.8,7.6,2.4,9.9C901.8,626.9,904.3,628,907.8,628
		z"/>
	<path class="st0" d="M952.6,593.8c3,0,5.8,0.5,8.2,1.5c2.5,1,4.6,2.4,6.3,4.1c1.7,1.8,3.1,4,4,6.5s1.4,5.5,1.4,8.6
		c0,3.2-0.5,6.1-1.4,8.7c-0.9,2.6-2.3,4.8-4,6.6c-1.7,1.8-3.8,3.2-6.3,4.2c-2.5,1-5.2,1.5-8.2,1.5c-3,0-5.8-0.5-8.2-1.5
		c-2.5-1-4.6-2.4-6.3-4.2c-1.7-1.8-3.1-4-4.1-6.6c-1-2.6-1.4-5.5-1.4-8.7c0-3.2,0.5-6.1,1.4-8.6c1-2.6,2.3-4.8,4.1-6.5
		c1.7-1.8,3.9-3.2,6.3-4.1C946.8,594.3,949.6,593.8,952.6,593.8z M952.6,628c3.4,0,5.9-1.1,7.5-3.4s2.4-5.6,2.4-9.9s-0.8-7.7-2.4-10
		c-1.6-2.3-4.1-3.4-7.5-3.4c-3.4,0-5.9,1.2-7.6,3.5c-1.6,2.3-2.4,5.6-2.4,10c0,4.3,0.8,7.6,2.4,9.9C946.7,626.9,949.2,628,952.6,628
		z"/>
	<path class="st0" d="M990,576.3v33.6h1.8c0.7,0,1.2-0.1,1.5-0.3c0.4-0.2,0.8-0.5,1.2-1l10.1-12.4c0.4-0.5,0.9-0.9,1.4-1.2
		c0.5-0.3,1.2-0.5,2-0.5h8.9l-12.6,15c-0.4,0.6-0.9,1.1-1.4,1.5c-0.5,0.5-1,0.9-1.5,1.2c0.6,0.4,1,0.9,1.5,1.4s0.8,1.1,1.3,1.7
		l13.5,19.6h-8.8c-0.8,0-1.4-0.1-1.9-0.4c-0.5-0.3-1-0.7-1.4-1.3l-10.3-15.3c-0.4-0.6-0.8-1-1.2-1.2c-0.4-0.2-1-0.3-1.8-0.3H990
		v18.5h-9.7v-58.6H990z"/>
	<path class="st0" d="M1070.6,634.9h-4.4c-0.9,0-1.6-0.1-2.2-0.4s-0.9-0.8-1.2-1.7l-0.9-2.9c-1,0.9-2,1.7-3,2.4
		c-1,0.7-2,1.3-3.1,1.8c-1.1,0.5-2.2,0.8-3.4,1.1c-1.2,0.2-2.5,0.4-3.9,0.4c-1.7,0-3.3-0.2-4.7-0.7c-1.4-0.5-2.7-1.2-3.7-2.1
		c-1-0.9-1.8-2.1-2.4-3.4c-0.6-1.4-0.9-3-0.9-4.8c0-1.5,0.4-3,1.2-4.5s2.1-2.8,4-4c1.9-1.2,4.4-2.2,7.5-3c3.1-0.8,7-1.2,11.6-1.2
		v-2.4c0-2.7-0.6-4.8-1.7-6.1s-2.8-2-5-2c-1.6,0-2.9,0.2-3.9,0.6c-1.1,0.4-2,0.8-2.7,1.2c-0.8,0.5-1.5,0.9-2.1,1.2s-1.4,0.6-2.2,0.6
		c-0.7,0-1.2-0.2-1.7-0.5s-0.9-0.8-1.1-1.3l-1.8-3.1c4.7-4.3,10.3-6.4,16.8-6.4c2.4,0,4.5,0.4,6.3,1.2c1.9,0.8,3.4,1.9,4.7,3.2
		c1.3,1.4,2.3,3,2.9,5c0.7,1.9,1,4,1,6.3V634.9z M1051.7,628.9c1,0,1.9-0.1,2.8-0.3c0.8-0.2,1.6-0.5,2.4-0.8s1.5-0.8,2.2-1.3
		c0.7-0.5,1.4-1.2,2.1-1.9v-6.8c-2.8,0-5.2,0.2-7.1,0.5c-1.9,0.4-3.4,0.8-4.6,1.4c-1.2,0.6-2,1.2-2.5,1.9s-0.7,1.5-0.7,2.4
		c0,1.7,0.5,3,1.5,3.7C1048.7,628.5,1050.1,628.9,1051.7,628.9z"/>
	<path class="st0" d="M404,697.7c-0.3,0.4-0.6,0.7-0.8,0.9c-0.3,0.2-0.7,0.3-1.2,0.3c-0.5,0-1-0.2-1.5-0.5c-0.5-0.3-1-0.6-1.7-1
		s-1.4-0.7-2.3-1c-0.9-0.3-2-0.5-3.4-0.5c-1.7,0-3.2,0.3-4.5,0.9c-1.3,0.6-2.4,1.5-3.2,2.7c-0.9,1.2-1.5,2.6-1.9,4.2
		c-0.4,1.6-0.6,3.5-0.6,5.6c0,2.2,0.2,4.1,0.7,5.8c0.5,1.7,1.1,3.1,2,4.2c0.9,1.1,1.9,2,3.2,2.6c1.2,0.6,2.6,0.9,4.2,0.9
		c1.6,0,2.8-0.2,3.8-0.6c1-0.4,1.8-0.8,2.4-1.3c0.7-0.5,1.2-0.9,1.7-1.3c0.5-0.4,1-0.6,1.6-0.6c0.8,0,1.4,0.3,1.8,0.9l2.8,3.5
		c-1.1,1.3-2.2,2.3-3.5,3.2s-2.6,1.5-3.9,2.1c-1.4,0.5-2.8,0.9-4.2,1.1c-1.4,0.2-2.9,0.3-4.3,0.3c-2.5,0-4.9-0.5-7.1-1.4
		c-2.2-0.9-4.1-2.3-5.8-4.1c-1.6-1.8-2.9-4-3.9-6.6c-1-2.6-1.4-5.5-1.4-8.9c0-3,0.4-5.7,1.3-8.3c0.9-2.5,2.1-4.7,3.8-6.6
		c1.7-1.9,3.7-3.3,6.2-4.4c2.4-1.1,5.3-1.6,8.4-1.6c3,0,5.7,0.5,7.9,1.5c2.3,1,4.3,2.4,6.1,4.2L404,697.7z"/>
	<path class="st0" d="M423.5,671v58.6h-9.7V671H423.5z"/>
	<path class="st0" d="M466.3,729.6h-4.4c-0.9,0-1.6-0.1-2.2-0.4s-0.9-0.8-1.2-1.7l-0.9-2.9c-1,0.9-2,1.7-3,2.4c-1,0.7-2,1.3-3.1,1.8
		c-1.1,0.5-2.2,0.8-3.4,1.1c-1.2,0.2-2.5,0.4-3.9,0.4c-1.7,0-3.3-0.2-4.7-0.7c-1.4-0.5-2.7-1.2-3.7-2.1c-1-0.9-1.8-2.1-2.4-3.4
		c-0.6-1.4-0.9-3-0.9-4.8c0-1.5,0.4-3,1.2-4.5c0.8-1.5,2.1-2.8,4-4c1.9-1.2,4.4-2.2,7.5-3c3.1-0.8,7-1.2,11.6-1.2v-2.4
		c0-2.7-0.6-4.8-1.7-6.1c-1.1-1.3-2.8-2-5-2c-1.6,0-2.9,0.2-3.9,0.6c-1.1,0.4-2,0.8-2.7,1.2c-0.8,0.5-1.5,0.9-2.1,1.2
		c-0.7,0.4-1.4,0.6-2.2,0.6c-0.7,0-1.2-0.2-1.7-0.5c-0.5-0.3-0.9-0.8-1.1-1.3l-1.8-3.1c4.7-4.3,10.3-6.4,16.8-6.4
		c2.4,0,4.5,0.4,6.3,1.2c1.9,0.8,3.4,1.9,4.7,3.2c1.3,1.4,2.3,3,2.9,5c0.7,1.9,1,4,1,6.3V729.6z M447.3,723.5c1,0,1.9-0.1,2.8-0.3
		c0.8-0.2,1.6-0.5,2.4-0.8s1.5-0.8,2.2-1.3c0.7-0.5,1.4-1.2,2.1-1.9v-6.8c-2.8,0-5.2,0.2-7.1,0.5c-1.9,0.4-3.4,0.8-4.6,1.4
		c-1.2,0.6-2,1.2-2.5,1.9c-0.5,0.7-0.7,1.5-0.7,2.4c0,1.7,0.5,3,1.5,3.7C444.4,723.2,445.7,723.5,447.3,723.5z"/>
	<path class="st0" d="M499.9,697c-0.3,0.4-0.5,0.7-0.8,0.9c-0.3,0.2-0.7,0.3-1.1,0.3c-0.5,0-1-0.1-1.5-0.4c-0.5-0.3-1.2-0.6-1.9-0.9
		s-1.5-0.6-2.4-0.9s-2-0.4-3.2-0.4c-1.9,0-3.4,0.4-4.5,1.2c-1.1,0.8-1.7,1.9-1.7,3.2c0,0.9,0.3,1.6,0.8,2.2c0.6,0.6,1.3,1.1,2.2,1.6
		c0.9,0.4,2,0.8,3.2,1.2c1.2,0.4,2.4,0.7,3.6,1.2c1.2,0.4,2.4,0.9,3.6,1.4c1.2,0.5,2.2,1.2,3.2,2.1c0.9,0.8,1.7,1.8,2.2,3
		s0.8,2.6,0.8,4.2c0,1.9-0.4,3.7-1.1,5.4s-1.7,3.1-3.1,4.3c-1.4,1.2-3.1,2.1-5.1,2.8c-2,0.7-4.3,1-6.9,1c-1.4,0-2.8-0.1-4.1-0.4
		c-1.3-0.3-2.6-0.6-3.8-1c-1.2-0.4-2.4-1-3.4-1.6c-1-0.6-2-1.3-2.7-2l2.2-3.7c0.3-0.4,0.6-0.8,1-1c0.4-0.2,0.9-0.4,1.5-0.4
		c0.6,0,1.2,0.2,1.7,0.5c0.5,0.3,1.2,0.7,1.9,1.1s1.5,0.8,2.5,1.1c1,0.3,2.2,0.5,3.6,0.5c1.2,0,2.1-0.1,3-0.4
		c0.8-0.3,1.5-0.6,2.1-1.1c0.5-0.4,0.9-1,1.2-1.6c0.2-0.6,0.4-1.2,0.4-1.8c0-0.9-0.3-1.7-0.8-2.3c-0.6-0.6-1.3-1.1-2.2-1.6
		c-0.9-0.4-2-0.8-3.2-1.2c-1.2-0.4-2.4-0.7-3.7-1.2c-1.2-0.4-2.5-0.9-3.7-1.5c-1.2-0.6-2.3-1.3-3.2-2.1c-0.9-0.9-1.7-1.9-2.2-3.2
		c-0.6-1.3-0.8-2.8-0.8-4.6c0-1.7,0.3-3.2,1-4.7s1.6-2.8,2.9-3.9c1.3-1.1,2.9-2,4.8-2.7c1.9-0.7,4.1-1,6.6-1c2.8,0,5.3,0.5,7.6,1.4
		c2.3,0.9,4.2,2.1,5.7,3.6L499.9,697z"/>
	<path class="st0" d="M534.3,697c-0.3,0.4-0.5,0.7-0.8,0.9c-0.3,0.2-0.7,0.3-1.1,0.3c-0.5,0-1-0.1-1.5-0.4c-0.5-0.3-1.2-0.6-1.9-0.9
		s-1.5-0.6-2.4-0.9s-2-0.4-3.2-0.4c-1.9,0-3.4,0.4-4.5,1.2c-1.1,0.8-1.7,1.9-1.7,3.2c0,0.9,0.3,1.6,0.8,2.2c0.6,0.6,1.3,1.1,2.2,1.6
		c0.9,0.4,2,0.8,3.2,1.2c1.2,0.4,2.4,0.7,3.6,1.2c1.2,0.4,2.4,0.9,3.6,1.4c1.2,0.5,2.2,1.2,3.2,2.1c0.9,0.8,1.7,1.8,2.2,3
		s0.8,2.6,0.8,4.2c0,1.9-0.4,3.7-1.1,5.4s-1.7,3.1-3.1,4.3s-3.1,2.1-5.1,2.8c-2,0.7-4.3,1-6.9,1c-1.4,0-2.8-0.1-4.1-0.4
		c-1.3-0.3-2.6-0.6-3.8-1c-1.2-0.4-2.4-1-3.4-1.6c-1-0.6-2-1.3-2.7-2l2.2-3.7c0.3-0.4,0.6-0.8,1-1c0.4-0.2,0.9-0.4,1.5-0.4
		c0.6,0,1.2,0.2,1.7,0.5c0.5,0.3,1.2,0.7,1.9,1.1s1.5,0.8,2.5,1.1c1,0.3,2.2,0.5,3.6,0.5c1.2,0,2.1-0.1,3-0.4s1.5-0.6,2.1-1.1
		c0.5-0.4,0.9-1,1.2-1.6c0.2-0.6,0.4-1.2,0.4-1.8c0-0.9-0.3-1.7-0.8-2.3c-0.6-0.6-1.3-1.1-2.2-1.6c-0.9-0.4-2-0.8-3.2-1.2
		c-1.2-0.4-2.4-0.7-3.7-1.2c-1.2-0.4-2.5-0.9-3.7-1.5c-1.2-0.6-2.3-1.3-3.2-2.1c-0.9-0.9-1.7-1.9-2.2-3.2c-0.6-1.3-0.8-2.8-0.8-4.6
		c0-1.7,0.3-3.2,1-4.7s1.6-2.8,2.9-3.9c1.3-1.1,2.9-2,4.8-2.7c1.9-0.7,4.1-1,6.6-1c2.8,0,5.3,0.5,7.6,1.4c2.3,0.9,4.2,2.1,5.7,3.6
		L534.3,697z"/>
	<path class="st0" d="M544.8,729.6v-40.5h5.7c1,0,1.7,0.2,2.1,0.6s0.7,1,0.8,1.9l0.6,4.9c1.4-2.5,3.1-4.5,5.1-5.9
		c1.9-1.4,4.1-2.2,6.5-2.2c2,0,3.7,0.5,5,1.4l-1.3,7.3c-0.1,0.5-0.3,0.8-0.5,1c-0.3,0.2-0.6,0.3-1.1,0.3c-0.4,0-0.9-0.1-1.6-0.3
		c-0.7-0.2-1.6-0.3-2.7-0.3c-2,0-3.8,0.6-5.2,1.7c-1.4,1.1-2.7,2.8-3.7,4.9v25.2H544.8z"/>
	<path class="st0" d="M594.3,688.5c3,0,5.8,0.5,8.2,1.5c2.5,1,4.6,2.4,6.3,4.1c1.7,1.8,3.1,4,4,6.5s1.4,5.5,1.4,8.6
		c0,3.2-0.5,6.1-1.4,8.7c-0.9,2.6-2.3,4.8-4,6.6s-3.8,3.2-6.3,4.2c-2.5,1-5.2,1.5-8.2,1.5s-5.8-0.5-8.2-1.5c-2.5-1-4.6-2.4-6.3-4.2
		c-1.7-1.8-3.1-4-4.1-6.6c-1-2.6-1.4-5.5-1.4-8.7c0-3.2,0.5-6.1,1.4-8.6c1-2.6,2.3-4.8,4.1-6.5c1.7-1.8,3.9-3.2,6.3-4.1
		C588.5,689,591.3,688.5,594.3,688.5z M594.3,722.7c3.4,0,5.9-1.1,7.5-3.4s2.4-5.6,2.4-9.9s-0.8-7.7-2.4-10
		c-1.6-2.3-4.1-3.4-7.5-3.4c-3.4,0-5.9,1.2-7.6,3.5c-1.6,2.3-2.4,5.6-2.4,10c0,4.3,0.8,7.6,2.4,9.9
		C588.3,721.6,590.9,722.7,594.3,722.7z"/>
	<path class="st0" d="M639.1,688.5c3,0,5.8,0.5,8.2,1.5c2.5,1,4.6,2.4,6.3,4.1c1.7,1.8,3.1,4,4,6.5c0.9,2.6,1.4,5.5,1.4,8.6
		c0,3.2-0.5,6.1-1.4,8.7c-0.9,2.6-2.3,4.8-4,6.6s-3.8,3.2-6.3,4.2c-2.5,1-5.2,1.5-8.2,1.5c-3,0-5.8-0.5-8.2-1.5
		c-2.5-1-4.6-2.4-6.3-4.2s-3.1-4-4.1-6.6c-1-2.6-1.4-5.5-1.4-8.7c0-3.2,0.5-6.1,1.4-8.6s2.3-4.8,4.1-6.5c1.7-1.8,3.9-3.2,6.3-4.1
		C633.4,689,636.1,688.5,639.1,688.5z M639.1,722.7c3.4,0,5.9-1.1,7.5-3.4s2.4-5.6,2.4-9.9s-0.8-7.7-2.4-10
		c-1.6-2.3-4.1-3.4-7.5-3.4c-3.4,0-5.9,1.2-7.6,3.5s-2.4,5.6-2.4,10c0,4.3,0.8,7.6,2.4,9.9C633.2,721.6,635.7,722.7,639.1,722.7z"/>
	<path class="st0" d="M666.7,729.6v-40.5h6c1.3,0,2.1,0.6,2.5,1.8l0.6,3c0.7-0.8,1.5-1.5,2.2-2.2c0.8-0.7,1.6-1.2,2.5-1.7
		c0.9-0.5,1.8-0.8,2.8-1.1c1-0.3,2.1-0.4,3.3-0.4c2.5,0,4.6,0.7,6.3,2.1c1.6,1.4,2.9,3.2,3.7,5.5c0.6-1.3,1.4-2.5,2.4-3.5
		c0.9-1,2-1.7,3.1-2.3s2.3-1.1,3.6-1.3c1.3-0.3,2.6-0.4,3.8-0.4c2.2,0,4.2,0.3,6,1c1.7,0.7,3.2,1.7,4.4,3c1.2,1.3,2.1,2.9,2.7,4.8
		c0.6,1.9,0.9,4.1,0.9,6.5v25.8h-9.7v-25.8c0-2.6-0.6-4.5-1.7-5.8c-1.1-1.3-2.8-2-5-2c-1,0-1.9,0.2-2.8,0.5s-1.6,0.8-2.2,1.5
		c-0.6,0.6-1.2,1.5-1.5,2.4c-0.4,1-0.6,2.1-0.6,3.4v25.8h-9.8v-25.8c0-2.7-0.5-4.7-1.6-5.9c-1.1-1.2-2.7-1.9-4.8-1.9
		c-1.4,0-2.7,0.3-3.9,1c-1.2,0.7-2.4,1.7-3.4,2.9v29.6H666.7z"/>
	<path class="st0" d="M780.1,729.6h-4.4c-0.9,0-1.6-0.1-2.2-0.4s-0.9-0.8-1.2-1.7l-0.9-2.9c-1,0.9-2,1.7-3,2.4c-1,0.7-2,1.3-3.1,1.8
		c-1.1,0.5-2.2,0.8-3.4,1.1c-1.2,0.2-2.5,0.4-3.9,0.4c-1.7,0-3.3-0.2-4.7-0.7c-1.4-0.5-2.7-1.2-3.7-2.1c-1-0.9-1.8-2.1-2.4-3.4
		c-0.6-1.4-0.9-3-0.9-4.8c0-1.5,0.4-3,1.2-4.5s2.1-2.8,4-4c1.9-1.2,4.4-2.2,7.5-3c3.1-0.8,7-1.2,11.6-1.2v-2.4
		c0-2.7-0.6-4.8-1.7-6.1s-2.8-2-5-2c-1.6,0-2.9,0.2-3.9,0.6c-1.1,0.4-2,0.8-2.7,1.2c-0.8,0.5-1.5,0.9-2.1,1.2s-1.4,0.6-2.2,0.6
		c-0.7,0-1.2-0.2-1.7-0.5s-0.9-0.8-1.1-1.3l-1.8-3.1c4.7-4.3,10.3-6.4,16.8-6.4c2.4,0,4.5,0.4,6.3,1.2c1.9,0.8,3.4,1.9,4.7,3.2
		c1.3,1.4,2.3,3,2.9,5c0.7,1.9,1,4,1,6.3V729.6z M761.1,723.5c1,0,1.9-0.1,2.8-0.3c0.8-0.2,1.6-0.5,2.4-0.8s1.5-0.8,2.2-1.3
		c0.7-0.5,1.4-1.2,2.1-1.9v-6.8c-2.8,0-5.2,0.2-7.1,0.5c-1.9,0.4-3.4,0.8-4.6,1.4c-1.2,0.6-2,1.2-2.5,1.9s-0.7,1.5-0.7,2.4
		c0,1.7,0.5,3,1.5,3.7C758.2,723.2,759.5,723.5,761.1,723.5z"/>
	<path class="st0" d="M813.7,697c-0.3,0.4-0.5,0.7-0.8,0.9c-0.3,0.2-0.7,0.3-1.1,0.3c-0.5,0-1-0.1-1.5-0.4c-0.5-0.3-1.2-0.6-1.9-0.9
		s-1.5-0.6-2.4-0.9s-2-0.4-3.2-0.4c-1.9,0-3.4,0.4-4.5,1.2c-1.1,0.8-1.7,1.9-1.7,3.2c0,0.9,0.3,1.6,0.8,2.2s1.3,1.1,2.2,1.6
		c0.9,0.4,2,0.8,3.2,1.2c1.2,0.4,2.4,0.7,3.6,1.2c1.2,0.4,2.4,0.9,3.6,1.4c1.2,0.5,2.2,1.2,3.2,2.1s1.7,1.8,2.2,3
		c0.6,1.2,0.8,2.6,0.8,4.2c0,1.9-0.4,3.7-1.1,5.4s-1.7,3.1-3.1,4.3c-1.4,1.2-3.1,2.1-5.1,2.8c-2,0.7-4.3,1-6.9,1
		c-1.4,0-2.8-0.1-4.1-0.4c-1.3-0.3-2.6-0.6-3.8-1c-1.2-0.4-2.4-1-3.4-1.6s-2-1.3-2.7-2l2.2-3.7c0.3-0.4,0.6-0.8,1-1
		c0.4-0.2,0.9-0.4,1.5-0.4s1.2,0.2,1.7,0.5c0.5,0.3,1.2,0.7,1.9,1.1s1.5,0.8,2.5,1.1s2.2,0.5,3.6,0.5c1.2,0,2.1-0.1,3-0.4
		c0.8-0.3,1.5-0.6,2.1-1.1c0.5-0.4,0.9-1,1.2-1.6c0.2-0.6,0.4-1.2,0.4-1.8c0-0.9-0.3-1.7-0.8-2.3c-0.6-0.6-1.3-1.1-2.2-1.6
		c-0.9-0.4-2-0.8-3.2-1.2c-1.2-0.4-2.4-0.7-3.7-1.2c-1.2-0.4-2.5-0.9-3.7-1.5c-1.2-0.6-2.3-1.3-3.2-2.1c-0.9-0.9-1.7-1.9-2.2-3.2
		c-0.6-1.3-0.8-2.8-0.8-4.6c0-1.7,0.3-3.2,1-4.7c0.7-1.5,1.6-2.8,2.9-3.9c1.3-1.1,2.9-2,4.8-2.7s4.1-1,6.6-1c2.8,0,5.3,0.5,7.6,1.4
		c2.3,0.9,4.2,2.1,5.7,3.6L813.7,697z"/>
	<path class="st0" d="M839.3,742.8v-53.7h6c0.6,0,1.2,0.1,1.6,0.4c0.4,0.3,0.7,0.7,0.9,1.3l0.8,3.7c1.6-1.9,3.5-3.4,5.6-4.5
		c2.1-1.2,4.6-1.7,7.4-1.7c2.2,0,4.2,0.5,6.1,1.4c1.8,0.9,3.4,2.3,4.7,4c1.3,1.7,2.4,3.9,3.1,6.5c0.7,2.6,1.1,5.5,1.1,8.8
		c0,3-0.4,5.8-1.2,8.4c-0.8,2.6-2,4.8-3.5,6.7c-1.5,1.9-3.3,3.4-5.5,4.4c-2.1,1.1-4.5,1.6-7.2,1.6c-2.3,0-4.2-0.3-5.8-1
		c-1.6-0.7-3-1.7-4.3-2.9v16.6H839.3z M858.3,696.1c-2,0-3.8,0.4-5.2,1.3c-1.4,0.9-2.8,2.1-4,3.6v18.1c1.1,1.4,2.3,2.3,3.6,2.9
		s2.7,0.8,4.2,0.8c1.5,0,2.8-0.3,4-0.8c1.2-0.6,2.2-1.4,3-2.5c0.8-1.1,1.5-2.6,1.9-4.3c0.4-1.7,0.7-3.8,0.7-6.1c0-2.4-0.2-4.4-0.6-6
		c-0.4-1.6-0.9-3-1.6-4s-1.6-1.8-2.6-2.2C860.7,696.3,859.6,696.1,858.3,696.1z"/>
	<path class="st0" d="M900.7,688.5c2.5,0,4.9,0.4,7,1.2c2.1,0.8,4,2,5.5,3.6c1.6,1.6,2.8,3.5,3.6,5.8c0.9,2.3,1.3,4.9,1.3,7.8
		c0,0.7,0,1.3-0.1,1.8c-0.1,0.5-0.2,0.9-0.4,1.1s-0.4,0.5-0.7,0.6s-0.7,0.2-1.1,0.2h-25c0.3,4.2,1.4,7.2,3.4,9.2
		c1.9,1.9,4.5,2.9,7.7,2.9c1.6,0,2.9-0.2,4.1-0.6c1.1-0.4,2.1-0.8,3-1.2c0.9-0.4,1.6-0.9,2.2-1.2s1.3-0.6,1.9-0.6
		c0.4,0,0.7,0.1,1,0.2c0.3,0.2,0.5,0.4,0.7,0.7l2.8,3.5c-1.1,1.3-2.3,2.3-3.6,3.2c-1.3,0.9-2.7,1.5-4.2,2.1s-2.9,0.9-4.5,1.1
		c-1.5,0.2-3,0.3-4.4,0.3c-2.8,0-5.4-0.5-7.8-1.4s-4.5-2.3-6.3-4.1c-1.8-1.8-3.2-4.1-4.2-6.8c-1-2.7-1.5-5.8-1.5-9.4
		c0-2.8,0.4-5.4,1.3-7.8c0.9-2.4,2.2-4.5,3.8-6.3c1.7-1.8,3.7-3.2,6.1-4.3S897.6,688.5,900.7,688.5z M900.9,695.5
		c-2.8,0-5.1,0.8-6.7,2.4s-2.6,3.9-3.1,6.8h18.3c0-1.3-0.2-2.5-0.5-3.6s-0.9-2.1-1.6-2.9s-1.6-1.5-2.7-2
		C903.6,695.7,902.3,695.5,900.9,695.5z"/>
	<path class="st0" d="M926.1,729.6v-40.5h5.7c1,0,1.7,0.2,2.1,0.6s0.7,1,0.8,1.9l0.6,4.9c1.4-2.5,3.1-4.5,5.1-5.9
		c1.9-1.4,4.1-2.2,6.5-2.2c2,0,3.7,0.5,5,1.4l-1.3,7.3c-0.1,0.5-0.3,0.8-0.5,1c-0.3,0.2-0.6,0.3-1.1,0.3c-0.4,0-0.9-0.1-1.6-0.3
		c-0.7-0.2-1.6-0.3-2.7-0.3c-2,0-3.8,0.6-5.2,1.7c-1.4,1.1-2.7,2.8-3.7,4.9v25.2H926.1z"/>
	<path class="st0" d="M986.8,730.2c-3.5,0-6.2-1-8.1-3c-1.9-2-2.8-4.7-2.8-8.2v-22.6h-4.1c-0.5,0-1-0.2-1.4-0.5
		c-0.4-0.3-0.6-0.9-0.6-1.5v-3.9l6.5-1.1l2.1-11c0.1-0.5,0.3-0.9,0.7-1.2c0.4-0.3,0.9-0.4,1.4-0.4h5v12.7h10.6v6.9h-10.6v21.9
		c0,1.3,0.3,2.2,0.9,3s1.5,1.1,2.5,1.1c0.6,0,1.1-0.1,1.5-0.2c0.4-0.1,0.8-0.3,1.1-0.5c0.3-0.2,0.6-0.3,0.8-0.5
		c0.2-0.1,0.5-0.2,0.7-0.2c0.3,0,0.5,0.1,0.7,0.2c0.2,0.1,0.4,0.4,0.6,0.7l2.9,4.7c-1.4,1.2-3.1,2.1-4.9,2.7
		C990.7,729.9,988.8,730.2,986.8,730.2z"/>
	<path class="st0" d="M1004.1,729.6V671h9.7v22.5c1.6-1.5,3.3-2.7,5.2-3.6c1.9-0.9,4.1-1.4,6.7-1.4c2.2,0,4.2,0.4,5.9,1.1
		c1.7,0.8,3.1,1.8,4.3,3.2c1.1,1.4,2,3,2.6,4.9s0.9,4,0.9,6.2v25.8h-9.7v-25.8c0-2.5-0.6-4.4-1.7-5.7s-2.9-2-5.1-2
		c-1.7,0-3.3,0.4-4.7,1.1s-2.9,1.8-4.2,3.1v29.3H1004.1z"/>
	<path class="st0" d="M1065.6,688.5c2.5,0,4.9,0.4,7,1.2c2.1,0.8,4,2,5.5,3.6c1.6,1.6,2.8,3.5,3.6,5.8c0.9,2.3,1.3,4.9,1.3,7.8
		c0,0.7,0,1.3-0.1,1.8c-0.1,0.5-0.2,0.9-0.4,1.1s-0.4,0.5-0.7,0.6s-0.7,0.2-1.1,0.2h-25c0.3,4.2,1.4,7.2,3.4,9.2
		c1.9,1.9,4.5,2.9,7.7,2.9c1.6,0,2.9-0.2,4.1-0.6c1.1-0.4,2.1-0.8,3-1.2c0.9-0.4,1.6-0.9,2.2-1.2s1.3-0.6,1.9-0.6
		c0.4,0,0.7,0.1,1,0.2c0.3,0.2,0.5,0.4,0.7,0.7l2.8,3.5c-1.1,1.3-2.3,2.3-3.6,3.2c-1.3,0.9-2.7,1.5-4.2,2.1s-2.9,0.9-4.5,1.1
		c-1.5,0.2-3,0.3-4.4,0.3c-2.8,0-5.4-0.5-7.8-1.4s-4.5-2.3-6.3-4.1c-1.8-1.8-3.2-4.1-4.2-6.8c-1-2.7-1.5-5.8-1.5-9.4
		c0-2.8,0.4-5.4,1.3-7.8c0.9-2.4,2.2-4.5,3.8-6.3c1.7-1.8,3.7-3.2,6.1-4.3S1062.6,688.5,1065.6,688.5z M1065.8,695.5
		c-2.8,0-5.1,0.8-6.7,2.4s-2.6,3.9-3.1,6.8h18.3c0-1.3-0.2-2.5-0.5-3.6s-0.9-2.1-1.6-2.9s-1.6-1.5-2.7-2
		C1068.6,695.7,1067.3,695.5,1065.8,695.5z"/>
	<path class="st0" d="M1102.9,677.3c0,0.8-0.2,1.6-0.5,2.4c-0.3,0.7-0.8,1.4-1.4,1.9c-0.6,0.6-1.2,1-2,1.3c-0.8,0.3-1.6,0.5-2.4,0.5
		c-0.8,0-1.6-0.2-2.4-0.5c-0.7-0.3-1.4-0.8-2-1.3c-0.6-0.6-1-1.2-1.3-1.9c-0.3-0.7-0.5-1.5-0.5-2.4c0-0.9,0.2-1.7,0.5-2.4
		c0.3-0.8,0.8-1.4,1.3-2c0.6-0.6,1.2-1,2-1.3c0.8-0.3,1.5-0.5,2.4-0.5c0.9,0,1.7,0.2,2.4,0.5c0.8,0.3,1.4,0.8,2,1.3
		c0.6,0.6,1,1.2,1.4,2C1102.7,675.7,1102.9,676.5,1102.9,677.3z M1101.5,689.1v40.5h-9.7v-40.5H1101.5z"/>
	<path class="st0" d="M1112.5,729.6v-40.5h5.7c1,0,1.7,0.2,2.1,0.6s0.7,1,0.8,1.9l0.6,4.9c1.4-2.5,3.1-4.5,5.1-5.9
		c1.9-1.4,4.1-2.2,6.5-2.2c2,0,3.7,0.5,5,1.4l-1.3,7.3c-0.1,0.5-0.3,0.8-0.5,1c-0.3,0.2-0.6,0.3-1.1,0.3c-0.4,0-0.9-0.1-1.6-0.3
		c-0.7-0.2-1.6-0.3-2.7-0.3c-2,0-3.8,0.6-5.2,1.7c-1.4,1.1-2.7,2.8-3.7,4.9v25.2H1112.5z"/>
	<path class="st0" d="M533.7,792.4c-0.3,0.4-0.6,0.7-0.8,0.9c-0.3,0.2-0.7,0.3-1.2,0.3c-0.5,0-1-0.2-1.5-0.5c-0.5-0.3-1-0.6-1.7-1
		s-1.4-0.7-2.3-1c-0.9-0.3-2-0.5-3.4-0.5c-1.7,0-3.2,0.3-4.5,0.9c-1.3,0.6-2.4,1.5-3.2,2.7c-0.9,1.2-1.5,2.6-1.9,4.2
		c-0.4,1.6-0.6,3.5-0.6,5.6c0,2.2,0.2,4.1,0.7,5.8c0.5,1.7,1.1,3.1,2,4.2c0.9,1.1,1.9,2,3.2,2.6c1.2,0.6,2.6,0.9,4.2,0.9
		s2.8-0.2,3.8-0.6c1-0.4,1.8-0.8,2.4-1.3s1.2-0.9,1.7-1.3c0.5-0.4,1-0.6,1.6-0.6c0.8,0,1.4,0.3,1.8,0.9l2.8,3.5
		c-1.1,1.3-2.2,2.3-3.5,3.2c-1.3,0.9-2.6,1.5-3.9,2.1s-2.8,0.9-4.2,1.1c-1.4,0.2-2.9,0.3-4.3,0.3c-2.5,0-4.9-0.5-7.1-1.4
		c-2.2-0.9-4.1-2.3-5.8-4.1c-1.6-1.8-2.9-4-3.9-6.6c-1-2.6-1.4-5.5-1.4-8.9c0-3,0.4-5.7,1.3-8.3c0.9-2.5,2.1-4.7,3.8-6.6
		c1.7-1.9,3.7-3.3,6.2-4.4c2.4-1.1,5.3-1.6,8.4-1.6c3,0,5.7,0.5,7.9,1.5c2.3,1,4.3,2.4,6.1,4.2L533.7,792.4z"/>
	<path class="st0" d="M542.9,824.3v-58.6h9.7v22.5c1.6-1.5,3.3-2.7,5.2-3.6c1.9-0.9,4.1-1.4,6.7-1.4c2.2,0,4.2,0.4,5.9,1.1
		c1.7,0.8,3.1,1.8,4.3,3.2c1.1,1.4,2,3,2.6,4.9s0.9,4,0.9,6.2v25.8h-9.7v-25.8c0-2.5-0.6-4.4-1.7-5.7c-1.1-1.4-2.9-2-5.1-2
		c-1.7,0-3.3,0.4-4.7,1.1s-2.9,1.8-4.2,3.1v29.3H542.9z"/>
	<path class="st0" d="M605,783.2c3,0,5.8,0.5,8.2,1.5c2.5,1,4.6,2.4,6.3,4.1c1.7,1.8,3.1,4,4,6.5c0.9,2.6,1.4,5.5,1.4,8.6
		c0,3.2-0.5,6.1-1.4,8.7c-0.9,2.6-2.3,4.8-4,6.6s-3.8,3.2-6.3,4.2c-2.5,1-5.2,1.5-8.2,1.5c-3,0-5.8-0.5-8.2-1.5
		c-2.5-1-4.6-2.4-6.3-4.2s-3.1-4-4.1-6.6c-1-2.6-1.4-5.5-1.4-8.7c0-3.2,0.5-6.1,1.4-8.6s2.3-4.8,4.1-6.5c1.7-1.8,3.9-3.2,6.3-4.1
		C599.3,783.6,602,783.2,605,783.2z M605,817.4c3.4,0,5.9-1.1,7.5-3.4s2.4-5.6,2.4-9.9s-0.8-7.7-2.4-10c-1.6-2.3-4.1-3.4-7.5-3.4
		c-3.4,0-5.9,1.2-7.6,3.5c-1.6,2.3-2.4,5.6-2.4,10c0,4.3,0.8,7.6,2.4,9.9C599.1,816.2,601.6,817.4,605,817.4z"/>
	<path class="st0" d="M644.4,772c0,0.8-0.2,1.6-0.5,2.4c-0.3,0.7-0.8,1.4-1.4,1.9c-0.6,0.6-1.2,1-2,1.3c-0.8,0.3-1.6,0.5-2.4,0.5
		c-0.8,0-1.6-0.2-2.4-0.5c-0.7-0.3-1.4-0.8-2-1.3c-0.6-0.6-1-1.2-1.3-1.9c-0.3-0.7-0.5-1.5-0.5-2.4c0-0.9,0.2-1.7,0.5-2.4
		c0.3-0.8,0.8-1.4,1.3-2c0.6-0.6,1.2-1,2-1.3c0.8-0.3,1.5-0.5,2.4-0.5c0.9,0,1.7,0.2,2.4,0.5c0.8,0.3,1.4,0.8,2,1.3
		c0.6,0.6,1,1.2,1.4,2C644.3,770.3,644.4,771.1,644.4,772z M643,783.8v40.5h-9.7v-40.5H643z"/>
	<path class="st0" d="M682.4,792.4c-0.3,0.4-0.6,0.7-0.8,0.9c-0.3,0.2-0.7,0.3-1.2,0.3c-0.5,0-1-0.2-1.5-0.5c-0.5-0.3-1-0.6-1.7-1
		s-1.4-0.7-2.3-1c-0.9-0.3-2-0.5-3.4-0.5c-1.7,0-3.2,0.3-4.5,0.9c-1.3,0.6-2.4,1.5-3.2,2.7s-1.5,2.6-1.9,4.2
		c-0.4,1.6-0.6,3.5-0.6,5.6c0,2.2,0.2,4.1,0.7,5.8c0.5,1.7,1.1,3.1,2,4.2c0.9,1.1,1.9,2,3.2,2.6s2.6,0.9,4.2,0.9s2.8-0.2,3.8-0.6
		c1-0.4,1.8-0.8,2.4-1.3s1.2-0.9,1.7-1.3c0.5-0.4,1-0.6,1.6-0.6c0.8,0,1.4,0.3,1.8,0.9l2.8,3.5c-1.1,1.3-2.2,2.3-3.5,3.2
		s-2.6,1.5-3.9,2.1s-2.8,0.9-4.2,1.1c-1.4,0.2-2.9,0.3-4.3,0.3c-2.5,0-4.9-0.5-7.1-1.4s-4.1-2.3-5.8-4.1s-2.9-4-3.9-6.6
		c-1-2.6-1.4-5.5-1.4-8.9c0-3,0.4-5.7,1.3-8.3c0.9-2.5,2.1-4.7,3.8-6.6c1.7-1.9,3.7-3.3,6.2-4.4s5.3-1.6,8.4-1.6
		c3,0,5.7,0.5,7.9,1.5c2.3,1,4.3,2.4,6.1,4.2L682.4,792.4z"/>
	<path class="st0" d="M708.3,783.2c2.5,0,4.9,0.4,7,1.2c2.1,0.8,4,2,5.5,3.6c1.6,1.6,2.8,3.5,3.6,5.8c0.9,2.3,1.3,4.9,1.3,7.8
		c0,0.7,0,1.3-0.1,1.8c-0.1,0.5-0.2,0.9-0.4,1.1s-0.4,0.5-0.7,0.6s-0.7,0.2-1.1,0.2h-25c0.3,4.2,1.4,7.2,3.4,9.2
		c1.9,1.9,4.5,2.9,7.7,2.9c1.6,0,2.9-0.2,4.1-0.6c1.1-0.4,2.1-0.8,3-1.2c0.9-0.4,1.6-0.9,2.2-1.2s1.3-0.6,1.9-0.6
		c0.4,0,0.7,0.1,1,0.2c0.3,0.2,0.5,0.4,0.7,0.7l2.8,3.5c-1.1,1.3-2.3,2.3-3.6,3.2c-1.3,0.9-2.7,1.5-4.2,2.1s-2.9,0.9-4.5,1.1
		c-1.5,0.2-3,0.3-4.4,0.3c-2.8,0-5.4-0.5-7.8-1.4s-4.5-2.3-6.3-4.1c-1.8-1.8-3.2-4.1-4.2-6.8c-1-2.7-1.5-5.8-1.5-9.4
		c0-2.8,0.4-5.4,1.3-7.8c0.9-2.4,2.2-4.5,3.8-6.3c1.7-1.8,3.7-3.2,6.1-4.3S705.3,783.2,708.3,783.2z M708.5,790.1
		c-2.8,0-5.1,0.8-6.7,2.4s-2.6,3.9-3.1,6.8h18.3c0-1.3-0.2-2.5-0.5-3.6s-0.9-2.1-1.6-2.9s-1.6-1.5-2.7-2
		C711.2,790.4,710,790.1,708.5,790.1z"/>
	<path class="st0" d="M766.3,783.2c3,0,5.8,0.5,8.2,1.5c2.5,1,4.6,2.4,6.3,4.1c1.7,1.8,3.1,4,4,6.5s1.4,5.5,1.4,8.6
		c0,3.2-0.5,6.1-1.4,8.7c-0.9,2.6-2.3,4.8-4,6.6c-1.7,1.8-3.8,3.2-6.3,4.2c-2.5,1-5.2,1.5-8.2,1.5c-3,0-5.8-0.5-8.2-1.5
		c-2.5-1-4.6-2.4-6.3-4.2c-1.7-1.8-3.1-4-4.1-6.6c-1-2.6-1.4-5.5-1.4-8.7c0-3.2,0.5-6.1,1.4-8.6c1-2.6,2.3-4.8,4.1-6.5
		c1.7-1.8,3.9-3.2,6.3-4.1C760.5,783.6,763.2,783.2,766.3,783.2z M766.3,817.4c3.4,0,5.9-1.1,7.5-3.4s2.4-5.6,2.4-9.9
		s-0.8-7.7-2.4-10c-1.6-2.3-4.1-3.4-7.5-3.4c-3.4,0-5.9,1.2-7.6,3.5c-1.6,2.3-2.4,5.6-2.4,10c0,4.3,0.8,7.6,2.4,9.9
		C760.3,816.2,762.8,817.4,766.3,817.4z"/>
	<path class="st0" d="M795.6,824.3v-33.1l-3.5-0.6c-0.8-0.1-1.4-0.4-1.8-0.8c-0.5-0.4-0.7-0.9-0.7-1.7v-4h6v-3c0-2.3,0.3-4.4,1-6.2
		c0.7-1.8,1.7-3.4,3-4.7s2.9-2.3,4.8-3s4-1,6.3-1c1.9,0,3.6,0.3,5.2,0.8l-0.2,4.9c-0.1,0.8-0.4,1.2-1.1,1.4
		c-0.7,0.2-1.4,0.3-2.3,0.3c-1.2,0-2.2,0.1-3.1,0.4c-0.9,0.3-1.7,0.7-2.3,1.3c-0.6,0.6-1.1,1.4-1.4,2.4c-0.3,1-0.5,2.3-0.5,3.8v2.7
		h10.5v6.9h-10.2v33.2H795.6z"/>
	<path class="st0" d="M850,824.9c-3.5,0-6.2-1-8.1-3c-1.9-2-2.8-4.7-2.8-8.2v-22.6H835c-0.5,0-1-0.2-1.4-0.5
		c-0.4-0.3-0.6-0.9-0.6-1.5v-3.9l6.5-1.1l2.1-11c0.1-0.5,0.3-0.9,0.7-1.2c0.4-0.3,0.9-0.4,1.4-0.4h5v12.7h10.6v6.9h-10.6V813
		c0,1.3,0.3,2.2,0.9,3s1.5,1.1,2.5,1.1c0.6,0,1.1-0.1,1.5-0.2c0.4-0.1,0.8-0.3,1.1-0.5c0.3-0.2,0.6-0.3,0.8-0.5
		c0.2-0.1,0.5-0.2,0.7-0.2c0.3,0,0.5,0.1,0.7,0.2c0.2,0.1,0.4,0.4,0.6,0.7l2.9,4.7c-1.4,1.2-3.1,2.1-4.9,2.7
		C853.9,824.6,852,824.9,850,824.9z"/>
	<path class="st0" d="M879.1,772c0,0.8-0.2,1.6-0.5,2.4c-0.3,0.7-0.8,1.4-1.4,1.9c-0.6,0.6-1.2,1-2,1.3c-0.8,0.3-1.6,0.5-2.4,0.5
		c-0.8,0-1.6-0.2-2.4-0.5c-0.7-0.3-1.4-0.8-2-1.3c-0.6-0.6-1-1.2-1.3-1.9c-0.3-0.7-0.5-1.5-0.5-2.4c0-0.9,0.2-1.7,0.5-2.4
		c0.3-0.8,0.8-1.4,1.3-2c0.6-0.6,1.2-1,2-1.3c0.8-0.3,1.5-0.5,2.4-0.5c0.9,0,1.7,0.2,2.4,0.5c0.8,0.3,1.4,0.8,2,1.3
		c0.6,0.6,1,1.2,1.4,2C878.9,770.3,879.1,771.1,879.1,772z M877.6,783.8v40.5h-9.7v-40.5H877.6z"/>
	<path class="st0" d="M888.6,824.3v-40.5h6c1.3,0,2.1,0.6,2.5,1.8l0.6,3c0.7-0.8,1.5-1.5,2.2-2.2c0.8-0.7,1.6-1.2,2.5-1.7
		c0.9-0.5,1.8-0.8,2.8-1.1c1-0.3,2.1-0.4,3.3-0.4c2.5,0,4.6,0.7,6.3,2.1c1.6,1.4,2.9,3.2,3.7,5.5c0.6-1.3,1.4-2.5,2.4-3.5
		c0.9-1,2-1.7,3.1-2.3s2.3-1.1,3.6-1.3c1.3-0.3,2.6-0.4,3.8-0.4c2.2,0,4.2,0.3,6,1c1.7,0.7,3.2,1.7,4.4,3c1.2,1.3,2.1,2.9,2.7,4.8
		c0.6,1.9,0.9,4.1,0.9,6.5v25.8h-9.7v-25.8c0-2.6-0.6-4.5-1.7-5.8c-1.1-1.3-2.8-2-5-2c-1,0-1.9,0.2-2.8,0.5s-1.6,0.8-2.2,1.5
		c-0.6,0.6-1.2,1.5-1.5,2.4c-0.4,1-0.6,2.1-0.6,3.4v25.8h-9.8v-25.8c0-2.7-0.5-4.7-1.6-5.9c-1.1-1.2-2.7-1.9-4.8-1.9
		c-1.4,0-2.7,0.3-3.9,1c-1.2,0.7-2.4,1.7-3.4,2.9v29.6H888.6z"/>
	<path class="st0" d="M971.8,783.2c2.5,0,4.9,0.4,7,1.2c2.1,0.8,4,2,5.5,3.6c1.6,1.6,2.8,3.5,3.6,5.8c0.9,2.3,1.3,4.9,1.3,7.8
		c0,0.7,0,1.3-0.1,1.8c-0.1,0.5-0.2,0.9-0.4,1.1s-0.4,0.5-0.7,0.6s-0.7,0.2-1.1,0.2h-25c0.3,4.2,1.4,7.2,3.4,9.2
		c1.9,1.9,4.5,2.9,7.7,2.9c1.6,0,2.9-0.2,4.1-0.6c1.1-0.4,2.1-0.8,3-1.2c0.9-0.4,1.6-0.9,2.2-1.2s1.3-0.6,1.9-0.6
		c0.4,0,0.7,0.1,1,0.2c0.3,0.2,0.5,0.4,0.7,0.7l2.8,3.5c-1.1,1.3-2.3,2.3-3.6,3.2c-1.3,0.9-2.7,1.5-4.2,2.1s-2.9,0.9-4.5,1.1
		c-1.5,0.2-3,0.3-4.4,0.3c-2.8,0-5.4-0.5-7.8-1.4s-4.5-2.3-6.3-4.1c-1.8-1.8-3.2-4.1-4.2-6.8c-1-2.7-1.5-5.8-1.5-9.4
		c0-2.8,0.4-5.4,1.3-7.8c0.9-2.4,2.2-4.5,3.8-6.3c1.7-1.8,3.7-3.2,6.1-4.3S968.7,783.2,971.8,783.2z M972,790.1
		c-2.8,0-5.1,0.8-6.7,2.4s-2.6,3.9-3.1,6.8h18.3c0-1.3-0.2-2.5-0.5-3.6s-0.9-2.1-1.6-2.9s-1.6-1.5-2.7-2
		C974.7,790.4,973.4,790.1,972,790.1z"/>
	<path class="st0" d="M994.9,818.9c0-0.8,0.2-1.6,0.5-2.3c0.3-0.7,0.7-1.4,1.3-1.9s1.2-0.9,1.9-1.3s1.5-0.5,2.4-0.5
		c0.8,0,1.6,0.2,2.3,0.5s1.4,0.7,1.9,1.3c0.5,0.5,0.9,1.2,1.3,1.9c0.3,0.7,0.5,1.5,0.5,2.3c0,0.8-0.2,1.6-0.5,2.3
		c-0.3,0.7-0.7,1.3-1.3,1.9c-0.5,0.5-1.2,0.9-1.9,1.2s-1.5,0.5-2.3,0.5c-0.8,0-1.6-0.2-2.4-0.5s-1.4-0.7-1.9-1.2s-1-1.2-1.3-1.9
		C995,820.5,994.9,819.7,994.9,818.9z"/>
	<path class="st0" d="M470.8,918.9h-10.6v-57h10.6V918.9z"/>
	<path class="st0" d="M496.3,919.6c-3.5,0-6.2-1-8.1-3s-2.8-4.7-2.8-8.2v-22.6h-4.1c-0.5,0-1-0.2-1.4-0.5c-0.4-0.3-0.6-0.9-0.6-1.5
		v-3.9l6.5-1.1l2.1-11c0.1-0.5,0.3-0.9,0.7-1.2c0.4-0.3,0.9-0.4,1.4-0.4h5v12.7h10.6v6.9h-10.6v21.9c0,1.3,0.3,2.2,0.9,3
		c0.6,0.7,1.5,1.1,2.5,1.1c0.6,0,1.1-0.1,1.5-0.2s0.8-0.3,1.1-0.5c0.3-0.2,0.6-0.3,0.8-0.5c0.2-0.1,0.5-0.2,0.7-0.2
		c0.3,0,0.5,0.1,0.7,0.2c0.2,0.1,0.4,0.4,0.6,0.7l2.9,4.7c-1.4,1.2-3.1,2.1-4.9,2.7C500.2,919.2,498.3,919.6,496.3,919.6z"/>
	<path class="st0" d="M540.6,866.7c0,0.8-0.2,1.6-0.5,2.4c-0.3,0.7-0.8,1.4-1.4,1.9c-0.6,0.6-1.2,1-2,1.3c-0.8,0.3-1.6,0.5-2.4,0.5
		c-0.8,0-1.6-0.2-2.4-0.5s-1.4-0.8-2-1.3c-0.6-0.6-1-1.2-1.3-1.9c-0.3-0.7-0.5-1.5-0.5-2.4c0-0.9,0.2-1.7,0.5-2.4
		c0.3-0.8,0.8-1.4,1.3-2c0.6-0.6,1.2-1,2-1.3s1.5-0.5,2.4-0.5c0.9,0,1.7,0.2,2.4,0.5c0.8,0.3,1.4,0.8,2,1.3c0.6,0.6,1,1.2,1.4,2
		C540.4,865,540.6,865.8,540.6,866.7z M539.2,878.5v40.5h-9.7v-40.5H539.2z"/>
	<path class="st0" d="M574.2,886.3c-0.3,0.4-0.5,0.7-0.8,0.9c-0.3,0.2-0.7,0.3-1.1,0.3c-0.5,0-1-0.1-1.5-0.4
		c-0.5-0.3-1.2-0.6-1.9-0.9s-1.5-0.6-2.4-0.9s-2-0.4-3.2-0.4c-1.9,0-3.4,0.4-4.5,1.2c-1.1,0.8-1.7,1.9-1.7,3.2
		c0,0.9,0.3,1.6,0.8,2.2s1.3,1.1,2.2,1.6c0.9,0.4,2,0.8,3.2,1.2c1.2,0.4,2.4,0.7,3.6,1.2c1.2,0.4,2.4,0.9,3.6,1.4s2.2,1.2,3.2,2.1
		s1.7,1.8,2.2,3s0.8,2.6,0.8,4.2c0,1.9-0.4,3.7-1.1,5.4s-1.7,3.1-3.1,4.3c-1.4,1.2-3.1,2.1-5.1,2.8c-2,0.7-4.3,1-6.9,1
		c-1.4,0-2.8-0.1-4.1-0.4c-1.3-0.3-2.6-0.6-3.8-1c-1.2-0.4-2.4-1-3.4-1.6c-1-0.6-2-1.3-2.7-2l2.2-3.7c0.3-0.4,0.6-0.8,1-1
		c0.4-0.2,0.9-0.4,1.5-0.4c0.6,0,1.2,0.2,1.7,0.5c0.5,0.3,1.2,0.7,1.9,1.1s1.5,0.8,2.5,1.1s2.2,0.5,3.6,0.5c1.2,0,2.1-0.1,3-0.4
		c0.8-0.3,1.5-0.6,2.1-1.1c0.5-0.4,0.9-1,1.2-1.6s0.4-1.2,0.4-1.8c0-0.9-0.3-1.7-0.8-2.3c-0.6-0.6-1.3-1.1-2.2-1.6
		c-0.9-0.4-2-0.8-3.2-1.2c-1.2-0.4-2.4-0.7-3.7-1.2c-1.2-0.4-2.5-0.9-3.7-1.5c-1.2-0.6-2.3-1.3-3.2-2.1c-0.9-0.9-1.7-1.9-2.2-3.2
		c-0.6-1.3-0.8-2.8-0.8-4.6c0-1.7,0.3-3.2,1-4.7s1.6-2.8,2.9-3.9c1.3-1.1,2.9-2,4.8-2.7c1.9-0.7,4.1-1,6.6-1c2.8,0,5.3,0.5,7.6,1.4
		c2.3,0.9,4.2,2.1,5.7,3.6L574.2,886.3z"/>
	<path class="st0" d="M631.6,918.9h-4.4c-0.9,0-1.6-0.1-2.2-0.4s-0.9-0.8-1.2-1.7L623,914c-1,0.9-2,1.7-3,2.4c-1,0.7-2,1.3-3.1,1.8
		c-1.1,0.5-2.2,0.8-3.4,1.1c-1.2,0.2-2.5,0.4-3.9,0.4c-1.7,0-3.3-0.2-4.7-0.7c-1.4-0.5-2.7-1.2-3.7-2.1c-1-0.9-1.8-2.1-2.4-3.4
		c-0.6-1.4-0.9-3-0.9-4.8c0-1.5,0.4-3,1.2-4.5c0.8-1.5,2.1-2.8,4-4c1.9-1.2,4.4-2.2,7.5-3c3.1-0.8,7-1.2,11.6-1.2v-2.4
		c0-2.7-0.6-4.8-1.7-6.1s-2.8-2-5-2c-1.6,0-2.9,0.2-3.9,0.6c-1.1,0.4-2,0.8-2.7,1.2c-0.8,0.5-1.5,0.9-2.1,1.2
		c-0.7,0.4-1.4,0.6-2.2,0.6c-0.7,0-1.2-0.2-1.7-0.5c-0.5-0.3-0.9-0.8-1.1-1.3l-1.8-3.1c4.7-4.3,10.3-6.4,16.8-6.4
		c2.4,0,4.5,0.4,6.3,1.2c1.9,0.8,3.4,1.9,4.7,3.2c1.3,1.4,2.3,3,2.9,5c0.7,1.9,1,4,1,6.3V918.9z M612.6,912.8c1,0,1.9-0.1,2.8-0.3
		c0.8-0.2,1.6-0.5,2.4-0.8c0.7-0.4,1.5-0.8,2.2-1.3c0.7-0.5,1.4-1.2,2.1-1.9v-6.8c-2.8,0-5.2,0.2-7.1,0.5c-1.9,0.4-3.4,0.8-4.6,1.4
		c-1.2,0.6-2,1.2-2.5,1.9s-0.7,1.5-0.7,2.4c0,1.7,0.5,3,1.5,3.7C609.7,912.5,611,912.8,612.6,912.8z"/>
	<path class="st0" d="M651.5,860.3v58.6h-9.7v-58.6H651.5z"/>
	<path class="st0" d="M672.9,860.3v58.6h-9.7v-58.6H672.9z"/>
	<path class="st0" d="M716.4,877.8c3,0,5.8,0.5,8.2,1.5c2.5,1,4.6,2.4,6.3,4.1c1.7,1.8,3.1,4,4,6.5s1.4,5.5,1.4,8.6
		c0,3.2-0.5,6.1-1.4,8.7c-0.9,2.6-2.3,4.8-4,6.6c-1.7,1.8-3.8,3.2-6.3,4.2c-2.5,1-5.2,1.5-8.2,1.5c-3,0-5.8-0.5-8.2-1.5
		c-2.5-1-4.6-2.4-6.3-4.2c-1.7-1.8-3.1-4-4.1-6.6c-1-2.6-1.4-5.5-1.4-8.7c0-3.2,0.5-6.1,1.4-8.6c1-2.6,2.3-4.8,4.1-6.5
		c1.7-1.8,3.9-3.2,6.3-4.1C710.6,878.3,713.4,877.8,716.4,877.8z M716.4,912c3.4,0,5.9-1.1,7.5-3.4s2.4-5.6,2.4-9.9s-0.8-7.7-2.4-10
		c-1.6-2.3-4.1-3.4-7.5-3.4c-3.4,0-5.9,1.2-7.6,3.5c-1.6,2.3-2.4,5.6-2.4,10c0,4.3,0.8,7.6,2.4,9.9C710.5,910.9,713,912,716.4,912z"
		/>
	<path class="st0" d="M744,932.1v-53.7h6c0.6,0,1.2,0.1,1.6,0.4c0.4,0.3,0.7,0.7,0.9,1.3l0.8,3.7c1.6-1.9,3.5-3.4,5.6-4.5
		c2.1-1.2,4.6-1.7,7.4-1.7c2.2,0,4.2,0.5,6.1,1.4c1.8,0.9,3.4,2.3,4.7,4c1.3,1.7,2.4,3.9,3.1,6.5c0.7,2.6,1.1,5.5,1.1,8.8
		c0,3-0.4,5.8-1.2,8.4c-0.8,2.6-2,4.8-3.5,6.7c-1.5,1.9-3.3,3.4-5.5,4.4c-2.1,1.1-4.5,1.6-7.2,1.6c-2.3,0-4.2-0.3-5.8-1
		c-1.6-0.7-3-1.7-4.3-2.9v16.6H744z M762.9,885.4c-2,0-3.8,0.4-5.2,1.3c-1.4,0.9-2.8,2.1-4,3.6v18.1c1.1,1.4,2.3,2.3,3.6,2.9
		s2.7,0.8,4.2,0.8c1.5,0,2.8-0.3,4-0.8c1.2-0.6,2.2-1.4,3-2.5c0.8-1.1,1.5-2.6,1.9-4.3c0.4-1.7,0.7-3.8,0.7-6.1c0-2.4-0.2-4.4-0.6-6
		c-0.4-1.6-0.9-3-1.6-4s-1.6-1.8-2.6-2.2C765.4,885.6,764.2,885.4,762.9,885.4z"/>
	<path class="st0" d="M805.3,877.8c2.5,0,4.9,0.4,7,1.2c2.1,0.8,4,2,5.5,3.6c1.6,1.6,2.8,3.5,3.6,5.8c0.9,2.3,1.3,4.9,1.3,7.8
		c0,0.7,0,1.3-0.1,1.8c-0.1,0.5-0.2,0.9-0.4,1.1s-0.4,0.5-0.7,0.6s-0.7,0.2-1.1,0.2h-25c0.3,4.2,1.4,7.2,3.4,9.2
		c1.9,1.9,4.5,2.9,7.7,2.9c1.6,0,2.9-0.2,4.1-0.6c1.1-0.4,2.1-0.8,3-1.2c0.9-0.4,1.6-0.9,2.2-1.2s1.3-0.6,1.9-0.6
		c0.4,0,0.7,0.1,1,0.2c0.3,0.2,0.5,0.4,0.7,0.7l2.8,3.5c-1.1,1.3-2.3,2.3-3.6,3.2c-1.3,0.9-2.7,1.5-4.2,2.1s-2.9,0.9-4.5,1.1
		c-1.5,0.2-3,0.3-4.4,0.3c-2.8,0-5.4-0.5-7.8-1.4s-4.5-2.3-6.3-4.1c-1.8-1.8-3.2-4.1-4.2-6.8c-1-2.7-1.5-5.8-1.5-9.4
		c0-2.8,0.4-5.4,1.3-7.8c0.9-2.4,2.2-4.5,3.8-6.3c1.7-1.8,3.7-3.2,6.1-4.3S802.3,877.8,805.3,877.8z M805.5,884.8
		c-2.8,0-5.1,0.8-6.7,2.4s-2.6,3.9-3.1,6.8h18.3c0-1.3-0.2-2.5-0.5-3.6s-0.9-2.1-1.6-2.9s-1.6-1.5-2.7-2
		C808.2,885,807,884.8,805.5,884.8z"/>
	<path class="st0" d="M830.8,918.9v-40.5h6c1.3,0,2.1,0.6,2.5,1.8l0.7,3.2c0.8-0.8,1.7-1.6,2.6-2.3c0.9-0.7,1.9-1.3,2.9-1.8
		c1-0.5,2.1-0.9,3.3-1.1c1.2-0.3,2.4-0.4,3.8-0.4c2.2,0,4.2,0.4,5.9,1.1c1.7,0.8,3.1,1.8,4.3,3.2c1.1,1.4,2,3,2.6,4.9s0.9,4,0.9,6.2
		v25.8h-9.7v-25.8c0-2.5-0.6-4.4-1.7-5.7s-2.9-2-5.1-2c-1.7,0-3.3,0.4-4.7,1.1s-2.9,1.8-4.2,3.1v29.3H830.8z"/>
	<path class="st0" d="M892.6,918.9v-33.1l-3.5-0.6c-0.8-0.1-1.4-0.4-1.8-0.8c-0.5-0.4-0.7-0.9-0.7-1.7v-4h6v-3c0-2.3,0.3-4.4,1-6.2
		c0.7-1.8,1.7-3.4,3-4.7s2.9-2.3,4.8-3s4-1,6.3-1c1.9,0,3.6,0.3,5.2,0.8l-0.2,4.9c-0.1,0.8-0.4,1.2-1.1,1.4
		c-0.7,0.2-1.4,0.3-2.3,0.3c-1.2,0-2.2,0.1-3.1,0.4c-0.9,0.3-1.7,0.7-2.3,1.3c-0.6,0.6-1.1,1.4-1.4,2.4c-0.3,1-0.5,2.3-0.5,3.8v2.7
		h10.5v6.9h-10.2v33.2H892.6z"/>
	<path class="st0" d="M918.5,918.9v-40.5h5.7c1,0,1.7,0.2,2.1,0.6s0.7,1,0.8,1.9l0.6,4.9c1.4-2.5,3.1-4.5,5.1-5.9
		c1.9-1.4,4.1-2.2,6.5-2.2c2,0,3.7,0.5,5,1.4l-1.3,7.3c-0.1,0.5-0.3,0.8-0.5,1c-0.3,0.2-0.6,0.3-1.1,0.3c-0.4,0-0.9-0.1-1.6-0.3
		c-0.7-0.2-1.6-0.3-2.7-0.3c-2,0-3.8,0.6-5.2,1.7c-1.4,1.1-2.7,2.8-3.7,4.9v25.2H918.5z"/>
	<path class="st0" d="M968,877.8c3,0,5.8,0.5,8.2,1.5c2.5,1,4.6,2.4,6.3,4.1c1.7,1.8,3.1,4,4,6.5s1.4,5.5,1.4,8.6
		c0,3.2-0.5,6.1-1.4,8.7c-0.9,2.6-2.3,4.8-4,6.6c-1.7,1.8-3.8,3.2-6.3,4.2c-2.5,1-5.2,1.5-8.2,1.5c-3,0-5.8-0.5-8.2-1.5
		c-2.5-1-4.6-2.4-6.3-4.2c-1.7-1.8-3.1-4-4.1-6.6c-1-2.6-1.4-5.5-1.4-8.7c0-3.2,0.5-6.1,1.4-8.6c1-2.6,2.3-4.8,4.1-6.5
		c1.7-1.8,3.9-3.2,6.3-4.1C962.2,878.3,964.9,877.8,968,877.8z M968,912c3.4,0,5.9-1.1,7.5-3.4s2.4-5.6,2.4-9.9s-0.8-7.7-2.4-10
		c-1.6-2.3-4.1-3.4-7.5-3.4c-3.4,0-5.9,1.2-7.6,3.5c-1.6,2.3-2.4,5.6-2.4,10c0,4.3,0.8,7.6,2.4,9.9C962,910.9,964.5,912,968,912z"/>
	<path class="st0" d="M995.5,918.9v-40.5h6c1.3,0,2.1,0.6,2.5,1.8l0.6,3c0.7-0.8,1.5-1.5,2.2-2.2c0.8-0.7,1.6-1.2,2.5-1.7
		c0.9-0.5,1.8-0.8,2.8-1.1c1-0.3,2.1-0.4,3.3-0.4c2.5,0,4.6,0.7,6.3,2.1c1.6,1.4,2.9,3.2,3.7,5.5c0.6-1.3,1.4-2.5,2.4-3.5
		c0.9-1,2-1.7,3.1-2.3s2.3-1.1,3.6-1.3c1.3-0.3,2.6-0.4,3.8-0.4c2.2,0,4.2,0.3,6,1c1.7,0.7,3.2,1.7,4.4,3c1.2,1.3,2.1,2.9,2.7,4.8
		c0.6,1.9,0.9,4.1,0.9,6.5v25.8h-9.7v-25.8c0-2.6-0.6-4.5-1.7-5.8c-1.1-1.3-2.8-2-5-2c-1,0-1.9,0.2-2.8,0.5s-1.6,0.8-2.2,1.5
		c-0.6,0.6-1.2,1.5-1.5,2.4c-0.4,1-0.6,2.1-0.6,3.4v25.8h-9.8v-25.8c0-2.7-0.5-4.7-1.6-5.9c-1.1-1.2-2.7-1.9-4.8-1.9
		c-1.4,0-2.7,0.3-3.9,1c-1.2,0.7-2.4,1.7-3.4,2.9v29.6H995.5z"/>
	<path class="st0" d="M472,1013.6v-40.5h6c1.3,0,2.1,0.6,2.5,1.8l0.6,3c0.7-0.8,1.5-1.5,2.2-2.2c0.8-0.7,1.6-1.2,2.5-1.7
		c0.9-0.5,1.8-0.8,2.8-1.1c1-0.3,2.1-0.4,3.3-0.4c2.6,0,4.6,0.7,6.3,2.1c1.6,1.4,2.9,3.2,3.7,5.5c0.6-1.3,1.4-2.5,2.4-3.5
		s2-1.7,3.1-2.3c1.1-0.6,2.3-1.1,3.6-1.3c1.3-0.3,2.6-0.4,3.8-0.4c2.2,0,4.2,0.3,6,1c1.7,0.7,3.2,1.7,4.4,3c1.2,1.3,2.1,2.9,2.7,4.8
		c0.6,1.9,0.9,4.1,0.9,6.5v25.8H519v-25.8c0-2.6-0.6-4.5-1.7-5.8c-1.1-1.3-2.8-2-5-2c-1,0-1.9,0.2-2.8,0.5s-1.6,0.8-2.2,1.5
		c-0.6,0.6-1.2,1.5-1.5,2.4c-0.4,1-0.6,2.1-0.6,3.4v25.8h-9.8v-25.8c0-2.7-0.5-4.7-1.6-5.9c-1.1-1.2-2.7-1.9-4.8-1.9
		c-1.4,0-2.7,0.3-3.9,1c-1.2,0.7-2.4,1.7-3.4,2.9v29.6H472z"/>
	<path class="st0" d="M555.6,972.5c3,0,5.8,0.5,8.2,1.5c2.5,1,4.6,2.4,6.3,4.1c1.7,1.8,3.1,4,4,6.5s1.4,5.5,1.4,8.6
		c0,3.2-0.5,6.1-1.4,8.7c-0.9,2.6-2.3,4.8-4,6.6s-3.8,3.2-6.3,4.2c-2.5,1-5.2,1.5-8.2,1.5s-5.8-0.5-8.2-1.5c-2.5-1-4.6-2.4-6.3-4.2
		c-1.7-1.8-3.1-4-4.1-6.6c-1-2.6-1.4-5.5-1.4-8.7c0-3.2,0.5-6.1,1.4-8.6c1-2.6,2.3-4.8,4.1-6.5c1.7-1.8,3.9-3.2,6.3-4.1
		C549.9,973,552.6,972.5,555.6,972.5z M555.6,1006.7c3.4,0,5.9-1.1,7.5-3.4s2.4-5.6,2.4-9.9s-0.8-7.7-2.4-10
		c-1.6-2.3-4.1-3.4-7.5-3.4c-3.4,0-5.9,1.2-7.6,3.5c-1.6,2.3-2.4,5.6-2.4,10c0,4.3,0.8,7.6,2.4,9.9
		C549.7,1005.5,552.2,1006.7,555.6,1006.7z"/>
	<path class="st0" d="M583.2,1013.6v-40.5h5.7c1,0,1.7,0.2,2.1,0.6c0.4,0.4,0.7,1,0.8,1.9l0.6,4.9c1.4-2.5,3.1-4.5,5.1-5.9
		c1.9-1.4,4.1-2.2,6.5-2.2c2,0,3.7,0.5,5,1.4l-1.3,7.3c-0.1,0.5-0.3,0.8-0.5,1s-0.6,0.3-1.1,0.3c-0.4,0-0.9-0.1-1.6-0.3
		c-0.7-0.2-1.6-0.3-2.7-0.3c-2,0-3.8,0.6-5.2,1.7c-1.4,1.1-2.7,2.8-3.7,4.9v25.2H583.2z"/>
	<path class="st0" d="M615.4,1013.6v-40.5h6c1.3,0,2.1,0.6,2.5,1.8l0.7,3.2c0.8-0.8,1.7-1.6,2.6-2.3c0.9-0.7,1.9-1.3,2.9-1.8
		c1-0.5,2.1-0.9,3.3-1.1c1.2-0.3,2.4-0.4,3.8-0.4c2.2,0,4.2,0.4,5.9,1.1c1.7,0.8,3.1,1.8,4.3,3.2c1.1,1.4,2,3,2.6,4.9s0.9,4,0.9,6.2
		v25.8H641v-25.8c0-2.5-0.6-4.4-1.7-5.7c-1.1-1.4-2.9-2-5.1-2c-1.7,0-3.3,0.4-4.7,1.1s-2.9,1.8-4.2,3.1v29.3H615.4z"/>
	<path class="st0" d="M672.1,961.3c0,0.8-0.2,1.6-0.5,2.4c-0.3,0.7-0.8,1.4-1.4,1.9c-0.6,0.6-1.2,1-2,1.3c-0.8,0.3-1.6,0.5-2.4,0.5
		c-0.8,0-1.6-0.2-2.4-0.5c-0.7-0.3-1.4-0.8-2-1.3c-0.6-0.6-1-1.2-1.3-1.9c-0.3-0.7-0.5-1.5-0.5-2.4c0-0.9,0.2-1.7,0.5-2.4
		c0.3-0.8,0.8-1.4,1.3-2c0.6-0.6,1.2-1,2-1.3c0.8-0.3,1.5-0.5,2.4-0.5c0.9,0,1.7,0.2,2.4,0.5c0.8,0.3,1.4,0.8,2,1.3
		c0.6,0.6,1,1.2,1.4,2C671.9,959.6,672.1,960.5,672.1,961.3z M670.7,973.1v40.5h-9.7v-40.5H670.7z"/>
	<path class="st0" d="M681.7,1013.6v-40.5h6c1.3,0,2.1,0.6,2.5,1.8l0.7,3.2c0.8-0.8,1.7-1.6,2.6-2.3c0.9-0.7,1.9-1.3,2.9-1.8
		c1-0.5,2.1-0.9,3.3-1.1c1.2-0.3,2.4-0.4,3.8-0.4c2.2,0,4.2,0.4,5.9,1.1c1.7,0.8,3.1,1.8,4.3,3.2c1.1,1.4,2,3,2.6,4.9s0.9,4,0.9,6.2
		v25.8h-9.7v-25.8c0-2.5-0.6-4.4-1.7-5.7s-2.9-2-5.1-2c-1.7,0-3.3,0.4-4.7,1.1s-2.9,1.8-4.2,3.1v29.3H681.7z"/>
	<path class="st0" d="M740.5,972.4c1.7,0,3.4,0.2,4.9,0.5c1.5,0.4,2.9,0.9,4.2,1.6h11.6v3.6c0,0.6-0.2,1.1-0.5,1.4
		c-0.3,0.3-0.9,0.6-1.6,0.7l-3.6,0.7c0.3,0.7,0.5,1.4,0.6,2.2s0.2,1.6,0.2,2.4c0,2-0.4,3.8-1.2,5.4s-1.9,3-3.3,4.1
		c-1.4,1.1-3.1,2-5,2.6c-1.9,0.6-4,0.9-6.3,0.9c-1.5,0-3-0.1-4.5-0.4c-1.3,0.8-1.9,1.6-1.9,2.6c0,0.8,0.4,1.4,1.1,1.8
		c0.7,0.4,1.7,0.7,3,0.8c1.2,0.2,2.6,0.2,4.2,0.2c1.6,0,3.1,0.1,4.8,0.2c1.6,0.1,3.2,0.4,4.8,0.7c1.6,0.3,2.9,0.8,4.2,1.6
		s2.2,1.7,3,2.9c0.7,1.2,1.1,2.8,1.1,4.7c0,1.8-0.4,3.5-1.3,5.2s-2.2,3.2-3.8,4.5c-1.7,1.3-3.7,2.4-6.1,3.2
		c-2.4,0.8-5.2,1.2-8.3,1.2c-3.1,0-5.7-0.3-8-0.9c-2.3-0.6-4.1-1.4-5.6-2.4c-1.5-1-2.6-2.1-3.3-3.4c-0.7-1.3-1.1-2.6-1.1-4
		c0-1.9,0.6-3.5,1.7-4.8c1.2-1.3,2.8-2.3,4.8-3.1c-1-0.6-1.8-1.3-2.4-2.2c-0.6-0.9-0.9-2.1-0.9-3.6c0-0.6,0.1-1.2,0.3-1.9
		c0.2-0.6,0.5-1.3,1-1.9s1-1.2,1.6-1.8s1.4-1.1,2.3-1.5c-2.1-1.1-3.7-2.6-4.8-4.4c-1.2-1.8-1.8-4-1.8-6.5c0-2,0.4-3.8,1.2-5.4
		c0.8-1.6,1.9-3,3.4-4.1c1.4-1.1,3.1-2,5.1-2.6C736.1,972.7,738.2,972.4,740.5,972.4z M751.2,1015.3c0-0.8-0.2-1.5-0.7-2
		c-0.5-0.5-1.1-0.9-1.9-1.2c-0.8-0.3-1.8-0.5-2.9-0.6c-1.1-0.1-2.2-0.2-3.5-0.2s-2.5,0-3.8,0s-2.6-0.1-3.8-0.4
		c-1.1,0.6-2,1.3-2.7,2.1c-0.7,0.8-1,1.8-1,2.9c0,0.7,0.2,1.4,0.5,2c0.4,0.6,0.9,1.2,1.7,1.6c0.8,0.4,1.8,0.8,3,1s2.7,0.4,4.5,0.4
		c1.8,0,3.4-0.1,4.7-0.4c1.3-0.3,2.4-0.7,3.3-1.2s1.5-1.1,1.9-1.8C751,1016.8,751.2,1016.1,751.2,1015.3z M740.5,992.4
		c1.2,0,2.3-0.2,3.2-0.5c0.9-0.3,1.6-0.8,2.2-1.4s1-1.3,1.3-2.1c0.3-0.8,0.5-1.7,0.5-2.7c0-2-0.6-3.6-1.8-4.8s-3-1.8-5.4-1.8
		s-4.2,0.6-5.4,1.8s-1.8,2.8-1.8,4.8c0,0.9,0.2,1.8,0.5,2.6c0.3,0.8,0.7,1.5,1.3,2.1c0.6,0.6,1.3,1.1,2.2,1.4
		C738.3,992.2,739.3,992.4,740.5,992.4z"/>
	<path class="st0" d="M820.6,956.5v4.2c0,1.3-0.1,2.3-0.4,3.1s-0.5,1.4-0.8,2l-21.6,44.5c-0.4,0.9-1.1,1.7-1.9,2.3
		c-0.8,0.6-1.9,1-3.3,1h-7.1l22.1-43.6c0.9-1.8,1.9-3.3,3.1-4.6h-27.3c-0.6,0-1.1-0.2-1.6-0.7c-0.4-0.4-0.7-1-0.7-1.6v-6.6H820.6z"
		/>
	<path class="st0" d="M879,1013.6h-8.2c-0.9,0-1.7-0.2-2.3-0.7c-0.6-0.5-1-1-1.3-1.7l-4.3-11.6h-23.6l-4.3,11.6
		c-0.2,0.6-0.6,1.2-1.2,1.7c-0.6,0.5-1.4,0.7-2.3,0.7h-8.2l22.4-57h10.8L879,1013.6z M842.1,992h18.2l-6.9-19c-0.3-0.8-0.7-1.8-1-3
		c-0.4-1.1-0.8-2.4-1.1-3.7c-0.4,1.3-0.7,2.6-1.1,3.7c-0.4,1.2-0.7,2.2-1,3L842.1,992z"/>
	<path class="st0" d="M914.7,992.5c0.4,0.9,0.8,1.8,1.1,2.7c0.4-0.9,0.8-1.9,1.1-2.8c0.4-0.9,0.8-1.8,1.3-2.6l16.9-31.6
		c0.2-0.4,0.4-0.7,0.7-0.9c0.2-0.2,0.5-0.4,0.7-0.5c0.3-0.1,0.6-0.2,0.9-0.2s0.7,0,1.2,0h8v57h-9.3v-36.8c0-0.7,0-1.4,0.1-2.2
		c0-0.8,0.1-1.6,0.2-2.5l-17.2,32.3c-0.4,0.7-0.9,1.3-1.5,1.7c-0.6,0.4-1.4,0.6-2.2,0.6h-1.5c-0.8,0-1.6-0.2-2.2-0.6
		c-0.6-0.4-1.1-1-1.5-1.7l-17.5-32.5c0.1,0.9,0.2,1.7,0.2,2.5c0,0.8,0.1,1.6,0.1,2.3v36.8h-9.3v-57h8c0.5,0,0.9,0,1.2,0
		c0.3,0,0.7,0.1,0.9,0.2c0.3,0.1,0.5,0.3,0.8,0.5c0.2,0.2,0.5,0.6,0.7,0.9l17,31.7C913.9,990.8,914.4,991.6,914.7,992.5z"/>
	<path class="st0" d="M986.2,1014.2c-3.5,0-6.2-1-8.1-3c-1.9-2-2.8-4.7-2.8-8.2v-22.6h-4.1c-0.5,0-1-0.2-1.4-0.5
		c-0.4-0.3-0.6-0.9-0.6-1.5v-3.9l6.5-1.1l2.1-11c0.1-0.5,0.3-0.9,0.7-1.2c0.4-0.3,0.9-0.4,1.4-0.4h5v12.7h10.6v6.9H985v21.9
		c0,1.3,0.3,2.2,0.9,3s1.5,1.1,2.5,1.1c0.6,0,1.1-0.1,1.5-0.2c0.4-0.1,0.8-0.3,1.1-0.5c0.3-0.2,0.6-0.3,0.8-0.5
		c0.2-0.1,0.5-0.2,0.7-0.2c0.3,0,0.5,0.1,0.7,0.2c0.2,0.1,0.4,0.4,0.6,0.7l2.9,4.7c-1.4,1.2-3.1,2.1-4.9,2.7
		C990.1,1013.9,988.2,1014.2,986.2,1014.2z"/>
	<path class="st0" d="M1020.7,972.5c3,0,5.8,0.5,8.2,1.5c2.5,1,4.6,2.4,6.3,4.1c1.7,1.8,3.1,4,4,6.5s1.4,5.5,1.4,8.6
		c0,3.2-0.5,6.1-1.4,8.7c-0.9,2.6-2.3,4.8-4,6.6c-1.7,1.8-3.8,3.2-6.3,4.2c-2.5,1-5.2,1.5-8.2,1.5c-3,0-5.8-0.5-8.2-1.5
		c-2.5-1-4.6-2.4-6.3-4.2c-1.7-1.8-3.1-4-4.1-6.6c-1-2.6-1.4-5.5-1.4-8.7c0-3.2,0.5-6.1,1.4-8.6c1-2.6,2.3-4.8,4.1-6.5
		c1.7-1.8,3.9-3.2,6.3-4.1C1014.9,973,1017.7,972.5,1020.7,972.5z M1020.7,1006.7c3.4,0,5.9-1.1,7.5-3.4s2.4-5.6,2.4-9.9
		s-0.8-7.7-2.4-10c-1.6-2.3-4.1-3.4-7.5-3.4c-3.4,0-5.9,1.2-7.6,3.5c-1.6,2.3-2.4,5.6-2.4,10c0,4.3,0.8,7.6,2.4,9.9
		C1014.8,1005.5,1017.3,1006.7,1020.7,1006.7z"/>
	<path class="st0" d="M461.4,1051.2v4.2c0,1.3-0.1,2.3-0.4,3.1c-0.3,0.8-0.5,1.4-0.8,2l-21.6,44.5c-0.4,0.9-1.1,1.7-1.9,2.3
		c-0.8,0.6-1.9,1-3.3,1h-7.1l22.1-43.6c0.9-1.8,1.9-3.3,3.1-4.6h-27.3c-0.6,0-1.1-0.2-1.6-0.7c-0.4-0.4-0.7-1-0.7-1.6v-6.6H461.4z"
		/>
	<path class="st0" d="M480.6,1088.2v20.1H470v-57h18.6c3.8,0,7.1,0.4,9.9,1.3c2.8,0.9,5.1,2.1,6.9,3.7c1.8,1.6,3.2,3.5,4,5.8
		c0.9,2.2,1.3,4.7,1.3,7.3c0,2.8-0.5,5.3-1.4,7.6s-2.3,4.3-4.1,5.9c-1.8,1.7-4.1,2.9-6.9,3.9c-2.8,0.9-6,1.4-9.7,1.4H480.6z
		 M480.6,1079.9h8c1.9,0,3.6-0.2,5.1-0.7c1.4-0.5,2.6-1.2,3.6-2.1c0.9-0.9,1.7-2,2.1-3.3c0.5-1.3,0.7-2.8,0.7-4.4
		c0-1.5-0.2-2.9-0.7-4.1c-0.5-1.2-1.2-2.3-2.1-3.2c-0.9-0.9-2.1-1.5-3.6-2c-1.4-0.5-3.1-0.7-5.1-0.7h-8V1079.9z"/>
	<path class="st0" d="M548.8,1087.2c0.4,0.9,0.8,1.8,1.1,2.7c0.4-0.9,0.8-1.9,1.1-2.8c0.4-0.9,0.8-1.8,1.3-2.6l16.9-31.6
		c0.2-0.4,0.4-0.7,0.7-0.9c0.2-0.2,0.5-0.4,0.7-0.5c0.3-0.1,0.6-0.2,0.9-0.2s0.8,0,1.2,0h8v57h-9.3v-36.8c0-0.7,0-1.4,0.1-2.2
		c0-0.8,0.1-1.6,0.2-2.5l-17.2,32.3c-0.4,0.7-0.9,1.3-1.5,1.7c-0.6,0.4-1.4,0.6-2.2,0.6h-1.5c-0.8,0-1.6-0.2-2.2-0.6
		c-0.6-0.4-1.1-1-1.5-1.7l-17.5-32.5c0.1,0.9,0.2,1.7,0.2,2.5c0,0.8,0.1,1.6,0.1,2.3v36.8h-9.3v-57h8c0.5,0,0.9,0,1.2,0
		s0.7,0.1,0.9,0.2c0.3,0.1,0.5,0.3,0.8,0.5c0.2,0.2,0.5,0.6,0.7,0.9l17,31.7C548,1085.4,548.4,1086.3,548.8,1087.2z"/>
	<path class="st0" d="M618.8,1056c0,0.8-0.2,1.6-0.5,2.4c-0.3,0.7-0.8,1.4-1.4,1.9c-0.6,0.6-1.2,1-2,1.3c-0.8,0.3-1.6,0.5-2.4,0.5
		c-0.8,0-1.6-0.2-2.4-0.5s-1.4-0.8-2-1.3c-0.6-0.6-1-1.2-1.3-1.9c-0.3-0.7-0.5-1.5-0.5-2.4c0-0.9,0.2-1.7,0.5-2.4
		c0.3-0.8,0.8-1.4,1.3-2c0.6-0.6,1.2-1,2-1.3s1.5-0.5,2.4-0.5c0.9,0,1.7,0.2,2.4,0.5c0.8,0.3,1.4,0.8,2,1.3c0.6,0.6,1,1.2,1.4,2
		C618.6,1054.3,618.8,1055.1,618.8,1056z M617.4,1067.8v40.5h-9.7v-40.5H617.4z"/>
	<path class="st0" d="M628.4,1108.2v-40.5h6c1.3,0,2.1,0.6,2.5,1.8l0.7,3.2c0.8-0.8,1.7-1.6,2.6-2.3c0.9-0.7,1.9-1.3,2.9-1.8
		c1-0.5,2.1-0.9,3.3-1.1c1.2-0.3,2.4-0.4,3.8-0.4c2.2,0,4.2,0.4,5.9,1.1c1.7,0.8,3.1,1.8,4.3,3.2c1.1,1.4,2,3,2.6,4.9s0.9,4,0.9,6.2
		v25.8h-9.7v-25.8c0-2.5-0.6-4.4-1.7-5.7s-2.9-2-5.1-2c-1.7,0-3.3,0.4-4.7,1.1s-2.9,1.8-4.2,3.1v29.3H628.4z"/>
	<path class="st0" d="M701.7,1108.9c-3.5,0-6.2-1-8.1-3c-1.9-2-2.8-4.7-2.8-8.2v-22.6h-4.1c-0.5,0-1-0.2-1.4-0.5
		c-0.4-0.3-0.6-0.9-0.6-1.5v-3.9l6.5-1.1l2.1-11c0.1-0.5,0.3-0.9,0.7-1.2c0.4-0.3,0.9-0.4,1.4-0.4h5v12.7h10.6v6.9h-10.6v21.9
		c0,1.3,0.3,2.2,0.9,3s1.5,1.1,2.5,1.1c0.6,0,1.1-0.1,1.5-0.2c0.4-0.1,0.8-0.3,1.1-0.5c0.3-0.2,0.6-0.3,0.8-0.5
		c0.2-0.1,0.5-0.2,0.7-0.2c0.3,0,0.5,0.1,0.7,0.2c0.2,0.1,0.4,0.4,0.6,0.7l2.9,4.7c-1.4,1.2-3.1,2.1-4.9,2.7
		C705.6,1108.6,703.7,1108.9,701.7,1108.9z"/>
	<path class="st0" d="M719,1108.2v-58.6h9.7v22.5c1.6-1.5,3.3-2.7,5.2-3.6c1.9-0.9,4.1-1.4,6.7-1.4c2.2,0,4.2,0.4,5.9,1.1
		c1.7,0.8,3.1,1.8,4.3,3.2c1.1,1.4,2,3,2.6,4.9s0.9,4,0.9,6.2v25.8h-9.7v-25.8c0-2.5-0.6-4.4-1.7-5.7s-2.9-2-5.1-2
		c-1.7,0-3.3,0.4-4.7,1.1s-2.9,1.8-4.2,3.1v29.3H719z"/>
	<path class="st0" d="M780.5,1067.1c2.5,0,4.9,0.4,7,1.2c2.1,0.8,4,2,5.5,3.6c1.6,1.6,2.8,3.5,3.6,5.8c0.9,2.3,1.3,4.9,1.3,7.8
		c0,0.7,0,1.3-0.1,1.8c-0.1,0.5-0.2,0.9-0.4,1.1s-0.4,0.5-0.7,0.6s-0.7,0.2-1.1,0.2h-25c0.3,4.2,1.4,7.2,3.4,9.2
		c1.9,1.9,4.5,2.9,7.7,2.9c1.6,0,2.9-0.2,4.1-0.6c1.1-0.4,2.1-0.8,3-1.2c0.9-0.4,1.6-0.9,2.2-1.2s1.3-0.6,1.9-0.6
		c0.4,0,0.7,0.1,1,0.2c0.3,0.2,0.5,0.4,0.7,0.7l2.8,3.5c-1.1,1.3-2.3,2.3-3.6,3.2c-1.3,0.9-2.7,1.5-4.2,2.1s-2.9,0.9-4.5,1.1
		c-1.5,0.2-3,0.3-4.4,0.3c-2.8,0-5.4-0.5-7.8-1.4s-4.5-2.3-6.3-4.1c-1.8-1.8-3.2-4.1-4.2-6.8c-1-2.7-1.5-5.8-1.5-9.4
		c0-2.8,0.4-5.4,1.3-7.8c0.9-2.4,2.2-4.5,3.8-6.3c1.7-1.8,3.7-3.2,6.1-4.3S777.5,1067.1,780.5,1067.1z M780.7,1074.1
		c-2.8,0-5.1,0.8-6.7,2.4s-2.6,3.9-3.1,6.8h18.3c0-1.3-0.2-2.5-0.5-3.6s-0.9-2.1-1.6-2.9s-1.6-1.5-2.7-2
		C783.4,1074.4,782.2,1074.1,780.7,1074.1z"/>
	<path class="st0" d="M837.9,1067.1c2.5,0,4.9,0.4,7,1.2c2.1,0.8,4,2,5.5,3.6c1.6,1.6,2.8,3.5,3.6,5.8c0.9,2.3,1.3,4.9,1.3,7.8
		c0,0.7,0,1.3-0.1,1.8c-0.1,0.5-0.2,0.9-0.4,1.1s-0.4,0.5-0.7,0.6s-0.7,0.2-1.1,0.2h-25c0.3,4.2,1.4,7.2,3.4,9.2
		c1.9,1.9,4.5,2.9,7.7,2.9c1.6,0,2.9-0.2,4.1-0.6c1.1-0.4,2.1-0.8,3-1.2c0.9-0.4,1.6-0.9,2.2-1.2s1.3-0.6,1.9-0.6
		c0.4,0,0.7,0.1,1,0.2c0.3,0.2,0.5,0.4,0.7,0.7l2.8,3.5c-1.1,1.3-2.3,2.3-3.6,3.2c-1.3,0.9-2.7,1.5-4.2,2.1s-2.9,0.9-4.5,1.1
		c-1.5,0.2-3,0.3-4.4,0.3c-2.8,0-5.4-0.5-7.8-1.4s-4.5-2.3-6.3-4.1c-1.8-1.8-3.2-4.1-4.2-6.8c-1-2.7-1.5-5.8-1.5-9.4
		c0-2.8,0.4-5.4,1.3-7.8c0.9-2.4,2.2-4.5,3.8-6.3c1.7-1.8,3.7-3.2,6.1-4.3S834.9,1067.1,837.9,1067.1z M838.1,1074.1
		c-2.8,0-5.1,0.8-6.7,2.4s-2.6,3.9-3.1,6.8h18.3c0-1.3-0.2-2.5-0.5-3.6s-0.9-2.1-1.6-2.9s-1.6-1.5-2.7-2
		C840.8,1074.4,839.6,1074.1,838.1,1074.1z"/>
	<path class="st0" d="M882.3,1108.2h-8.8l-16.1-40.5h8.1c0.7,0,1.3,0.2,1.8,0.5c0.5,0.3,0.8,0.8,1,1.3l7.8,21.6
		c0.4,1.3,0.8,2.5,1.1,3.7c0.3,1.2,0.6,2.4,0.8,3.6c0.2-1.2,0.5-2.4,0.8-3.6c0.3-1.2,0.7-2.4,1.2-3.7l8-21.6c0.2-0.5,0.5-1,1-1.3
		c0.5-0.3,1-0.5,1.7-0.5h7.7L882.3,1108.2z"/>
	<path class="st0" d="M919.6,1067.1c2.5,0,4.9,0.4,7,1.2c2.1,0.8,4,2,5.5,3.6c1.6,1.6,2.8,3.5,3.6,5.8c0.9,2.3,1.3,4.9,1.3,7.8
		c0,0.7,0,1.3-0.1,1.8c-0.1,0.5-0.2,0.9-0.4,1.1s-0.4,0.5-0.7,0.6s-0.7,0.2-1.1,0.2h-25c0.3,4.2,1.4,7.2,3.4,9.2
		c1.9,1.9,4.5,2.9,7.7,2.9c1.6,0,2.9-0.2,4.1-0.6c1.1-0.4,2.1-0.8,3-1.2c0.9-0.4,1.6-0.9,2.2-1.2s1.3-0.6,1.9-0.6
		c0.4,0,0.7,0.1,1,0.2c0.3,0.2,0.5,0.4,0.7,0.7l2.8,3.5c-1.1,1.3-2.3,2.3-3.6,3.2c-1.3,0.9-2.7,1.5-4.2,2.1s-2.9,0.9-4.5,1.1
		c-1.5,0.2-3,0.3-4.4,0.3c-2.8,0-5.4-0.5-7.8-1.4s-4.5-2.3-6.3-4.1c-1.8-1.8-3.2-4.1-4.2-6.8c-1-2.7-1.5-5.8-1.5-9.4
		c0-2.8,0.4-5.4,1.3-7.8c0.9-2.4,2.2-4.5,3.8-6.3c1.7-1.8,3.7-3.2,6.1-4.3S916.5,1067.1,919.6,1067.1z M919.8,1074.1
		c-2.8,0-5.1,0.8-6.7,2.4s-2.6,3.9-3.1,6.8h18.3c0-1.3-0.2-2.5-0.5-3.6s-0.9-2.1-1.6-2.9s-1.6-1.5-2.7-2
		C922.5,1074.4,921.2,1074.1,919.8,1074.1z"/>
	<path class="st0" d="M945,1108.2v-40.5h6c1.3,0,2.1,0.6,2.5,1.8l0.7,3.2c0.8-0.8,1.7-1.6,2.6-2.3c0.9-0.7,1.9-1.3,2.9-1.8
		c1-0.5,2.1-0.9,3.3-1.1c1.2-0.3,2.4-0.4,3.8-0.4c2.2,0,4.2,0.4,5.9,1.1c1.7,0.8,3.1,1.8,4.3,3.2c1.1,1.4,2,3,2.6,4.9s0.9,4,0.9,6.2
		v25.8h-9.7v-25.8c0-2.5-0.6-4.4-1.7-5.7s-2.9-2-5.1-2c-1.7,0-3.3,0.4-4.7,1.1s-2.9,1.8-4.2,3.1v29.3H945z"/>
	<path class="st0" d="M1001.7,1056c0,0.8-0.2,1.6-0.5,2.4c-0.3,0.7-0.8,1.4-1.4,1.9c-0.6,0.6-1.2,1-2,1.3c-0.8,0.3-1.6,0.5-2.4,0.5
		c-0.8,0-1.6-0.2-2.4-0.5c-0.7-0.3-1.4-0.8-2-1.3c-0.6-0.6-1-1.2-1.3-1.9c-0.3-0.7-0.5-1.5-0.5-2.4c0-0.9,0.2-1.7,0.5-2.4
		c0.3-0.8,0.8-1.4,1.3-2c0.6-0.6,1.2-1,2-1.3c0.8-0.3,1.5-0.5,2.4-0.5c0.9,0,1.7,0.2,2.4,0.5c0.8,0.3,1.4,0.8,2,1.3
		c0.6,0.6,1,1.2,1.4,2C1001.5,1054.3,1001.7,1055.1,1001.7,1056z M1000.2,1067.8v40.5h-9.7v-40.5H1000.2z"/>
	<path class="st0" d="M1011.2,1108.2v-40.5h6c1.3,0,2.1,0.6,2.5,1.8l0.7,3.2c0.8-0.8,1.7-1.6,2.6-2.3c0.9-0.7,1.9-1.3,2.9-1.8
		c1-0.5,2.1-0.9,3.3-1.1c1.2-0.3,2.4-0.4,3.8-0.4c2.2,0,4.2,0.4,5.9,1.1c1.7,0.8,3.1,1.8,4.3,3.2c1.1,1.4,2,3,2.6,4.9s0.9,4,0.9,6.2
		v25.8h-9.7v-25.8c0-2.5-0.6-4.4-1.7-5.7s-2.9-2-5.1-2c-1.7,0-3.3,0.4-4.7,1.1s-2.9,1.8-4.2,3.1v29.3H1011.2z"/>
	<path class="st0" d="M1070.1,1067.1c1.7,0,3.4,0.2,4.9,0.5c1.5,0.4,2.9,0.9,4.2,1.6h11.6v3.6c0,0.6-0.2,1.1-0.5,1.4
		c-0.3,0.3-0.9,0.6-1.6,0.7l-3.6,0.7c0.3,0.7,0.5,1.4,0.6,2.2s0.2,1.6,0.2,2.4c0,2-0.4,3.8-1.2,5.4s-1.9,3-3.3,4.1
		c-1.4,1.1-3.1,2-5,2.6c-1.9,0.6-4,0.9-6.3,0.9c-1.5,0-3-0.1-4.5-0.4c-1.3,0.8-1.9,1.6-1.9,2.6c0,0.8,0.4,1.4,1.1,1.8
		c0.7,0.4,1.7,0.7,3,0.8c1.2,0.2,2.6,0.2,4.2,0.2c1.6,0,3.1,0.1,4.8,0.2c1.6,0.1,3.2,0.4,4.8,0.7c1.6,0.3,2.9,0.8,4.2,1.6
		s2.2,1.7,3,2.9c0.7,1.2,1.1,2.8,1.1,4.7c0,1.8-0.4,3.5-1.3,5.2s-2.2,3.2-3.8,4.5c-1.7,1.3-3.7,2.4-6.1,3.2
		c-2.4,0.8-5.2,1.2-8.3,1.2c-3.1,0-5.7-0.3-8-0.9c-2.3-0.6-4.1-1.4-5.6-2.4c-1.5-1-2.6-2.1-3.3-3.4c-0.7-1.3-1.1-2.6-1.1-4
		c0-1.9,0.6-3.5,1.7-4.8c1.2-1.3,2.8-2.3,4.8-3.1c-1-0.6-1.8-1.3-2.4-2.2c-0.6-0.9-0.9-2.1-0.9-3.6c0-0.6,0.1-1.2,0.3-1.9
		c0.2-0.6,0.5-1.3,1-1.9s1-1.2,1.6-1.8s1.4-1.1,2.3-1.5c-2.1-1.1-3.7-2.6-4.8-4.4c-1.2-1.8-1.8-4-1.8-6.5c0-2,0.4-3.8,1.2-5.4
		c0.8-1.6,1.9-3,3.4-4.1c1.4-1.1,3.1-2,5.1-2.6C1065.6,1067.4,1067.8,1067.1,1070.1,1067.1z M1080.8,1109.9c0-0.8-0.2-1.5-0.7-2
		c-0.5-0.5-1.1-0.9-1.9-1.2c-0.8-0.3-1.8-0.5-2.9-0.6c-1.1-0.1-2.2-0.2-3.5-0.2s-2.5,0-3.8,0s-2.6-0.1-3.8-0.4
		c-1.1,0.6-2,1.3-2.7,2.1c-0.7,0.8-1,1.8-1,2.9c0,0.7,0.2,1.4,0.5,2c0.4,0.6,0.9,1.2,1.7,1.6c0.8,0.4,1.8,0.8,3,1s2.7,0.4,4.5,0.4
		c1.8,0,3.4-0.1,4.7-0.4c1.3-0.3,2.4-0.7,3.3-1.2s1.5-1.1,1.9-1.8C1080.6,1111.5,1080.8,1110.7,1080.8,1109.9z M1070.1,1087
		c1.2,0,2.3-0.2,3.2-0.5c0.9-0.3,1.6-0.8,2.2-1.4s1-1.3,1.3-2.1c0.3-0.8,0.5-1.7,0.5-2.7c0-2-0.6-3.6-1.8-4.8s-3-1.8-5.4-1.8
		s-4.2,0.6-5.4,1.8s-1.8,2.8-1.8,4.8c0,0.9,0.2,1.8,0.5,2.6c0.3,0.8,0.7,1.5,1.3,2.1c0.6,0.6,1.3,1.1,2.2,1.4
		C1067.8,1086.9,1068.9,1087,1070.1,1087z"/>
</g>
</svg>
