<?xml version="1.0" encoding="utf-8"?>
<!-- Generator: Adobe Illustrator 19.0.0, SVG Export Plug-In . SVG Version: 6.00 Build 0)  -->
<svg version="1.1" id="Layer_1" xmlns="http://www.w3.org/2000/svg" xmlns:xlink="http://www.w3.org/1999/xlink" x="0px" y="0px"
	 viewBox="108 49.6 1131.6 695.4" style="enable-background:new 108 49.6 1131.6 695.4;" xml:space="preserve">
<style type="text/css">
	.st0{fill:#363F4A;}
	.st1{enable-background:new    ;}
</style>
<g>
	<path class="st0" d="M886.8,579.6c31.4-28,54.7-59,71.1-92c16.4-33,24.6-68,24.6-104c0-85-46.5-161-121.6-217
		c-76.5-55-180.4-89-296.5-89s-220,34-296.5,89c-75.2,56-121.6,132-121.6,217s46.5,161,121.6,217c76.5,55,180.4,89,296.5,89
		c35.5,0,69.7-3,101.1-9c32.8-6,64.2-14,92.9-26c4.1-1,8.2-2,12.3-1l0,0l349.8,49l-229.6-102c-9.6-4-12.3-13-6.8-19
		C885.4,580.6,885.4,579.6,886.8,579.6z M993.3,497.6c-15,31-36.9,60-64.2,87l300.6,135c6.8,2,10.9,8,9.6,14c-2.7,8-12.3,13-21.9,11
		l-446.8-63c-31.4,11-62.9,20-95.6,26c-35.5,7-72.4,10-110.7,10c-125.7,0-240.5-37-322.5-98c-83.4-60-133.9-144-133.9-236
		s50.6-176,133.9-236c82-61,196.8-98,322.5-98s240.5,37,322.5,98c83.4,60,133.9,144,133.9,236
		C1020.7,422.6,1012.5,460.6,993.3,497.6z"/>
</g>
<g class="st1">
	<path class="st0" d="M266.5,300.7h-14.3V224h14.3V300.7z"/>
	<path class="st0" d="M303.4,300.7v-78.8h13.1v30.3c2.1-2,4.5-3.6,7-4.9c2.5-1.2,5.5-1.9,9-1.9c3,0,5.6,0.5,7.9,1.5
		c2.3,1,4.2,2.4,5.8,4.2c1.5,1.8,2.7,4,3.5,6.5s1.2,5.3,1.2,8.3v34.6h-13.1V266c0-3.3-0.8-5.9-2.3-7.7c-1.5-1.8-3.8-2.7-6.9-2.7
		c-2.3,0-4.4,0.5-6.4,1.5c-2,1-3.9,2.4-5.6,4.2v39.3H303.4z"/>
	<path class="st0" d="M386.1,245.4c3.4,0,6.6,0.5,9.5,1.6c2.9,1.1,5.4,2.7,7.4,4.8c2.1,2.1,3.7,4.7,4.9,7.7
		c1.2,3.1,1.7,6.5,1.7,10.5c0,1,0,1.8-0.1,2.5c-0.1,0.7-0.2,1.2-0.5,1.5c-0.2,0.4-0.5,0.6-0.9,0.8c-0.4,0.2-0.9,0.2-1.5,0.2h-33.6
		c0.4,5.6,1.9,9.7,4.5,12.3c2.6,2.6,6.1,3.9,10.4,3.9c2.1,0,3.9-0.2,5.5-0.7c1.5-0.5,2.9-1,4-1.6c1.1-0.6,2.2-1.1,3-1.6
		c0.9-0.5,1.7-0.7,2.5-0.7c0.5,0,1,0.1,1.4,0.3c0.4,0.2,0.7,0.5,1,0.9l3.8,4.8c-1.4,1.7-3.1,3.1-4.9,4.3c-1.8,1.1-3.7,2.1-5.6,2.8
		c-2,0.7-4,1.2-6,1.5c-2,0.3-4,0.4-5.9,0.4c-3.8,0-7.3-0.6-10.5-1.9c-3.3-1.3-6.1-3.1-8.5-5.6c-2.4-2.5-4.3-5.5-5.7-9.1
		c-1.4-3.6-2.1-7.8-2.1-12.6c0-3.7,0.6-7.2,1.8-10.5c1.2-3.3,2.9-6.1,5.2-8.5c2.2-2.4,5-4.3,8.2-5.8
		C378.4,246.1,382.1,245.4,386.1,245.4z M386.4,254.8c-3.8,0-6.8,1.1-9,3.2c-2.2,2.2-3.5,5.2-4.1,9.2h24.6c0-1.7-0.2-3.3-0.7-4.8
		c-0.5-1.5-1.2-2.8-2.1-3.9c-1-1.1-2.2-2-3.6-2.7C390,255.1,388.4,254.8,386.4,254.8z"/>
	<path class="st0" d="M462.9,300.7h-5.9c-1.2,0-2.2-0.2-2.9-0.6c-0.7-0.4-1.2-1.1-1.6-2.3l-1.2-3.9c-1.4,1.2-2.7,2.3-4.1,3.3
		c-1.3,0.9-2.7,1.7-4.1,2.4c-1.4,0.6-2.9,1.1-4.5,1.4c-1.6,0.3-3.4,0.5-5.3,0.5c-2.3,0-4.4-0.3-6.4-0.9c-1.9-0.6-3.6-1.6-5-2.8
		c-1.4-1.2-2.5-2.8-3.3-4.6c-0.8-1.8-1.2-4-1.2-6.4c0-2.1,0.5-4.1,1.6-6.1c1.1-2,2.9-3.8,5.4-5.4c2.5-1.6,5.8-3,10-4
		c4.2-1.1,9.3-1.6,15.5-1.6v-3.2c0-3.7-0.8-6.4-2.3-8.1c-1.5-1.8-3.8-2.6-6.7-2.6c-2.1,0-3.9,0.2-5.3,0.7c-1.4,0.5-2.6,1.1-3.7,1.7
		c-1,0.6-2,1.2-2.9,1.7c-0.9,0.5-1.9,0.7-2.9,0.7c-0.9,0-1.6-0.2-2.3-0.7c-0.6-0.5-1.1-1-1.5-1.7l-2.4-4.2
		c6.3-5.7,13.8-8.6,22.6-8.6c3.2,0,6,0.5,8.5,1.6c2.5,1,4.6,2.5,6.3,4.3c1.7,1.9,3,4.1,3.9,6.7c0.9,2.6,1.4,5.4,1.4,8.5V300.7z
		 M437.5,292.5c1.3,0,2.6-0.1,3.7-0.4c1.1-0.2,2.2-0.6,3.2-1.1c1-0.5,2-1.1,2.9-1.8c0.9-0.7,1.9-1.6,2.8-2.5v-9.1
		c-3.8,0-7,0.2-9.6,0.7c-2.6,0.5-4.6,1.1-6.2,1.8c-1.6,0.7-2.7,1.6-3.3,2.6c-0.7,1-1,2.1-1,3.3c0,2.3,0.7,4,2,5
		C433.5,292,435.3,292.5,437.5,292.5z"/>
	<path class="st0" d="M475.8,300.7v-54.4h7.7c1.3,0,2.3,0.2,2.8,0.7c0.5,0.5,0.9,1.3,1.1,2.5l0.8,6.6c1.9-3.4,4.2-6,6.8-8
		c2.6-1.9,5.5-2.9,8.8-2.9c2.7,0,4.9,0.6,6.7,1.9l-1.7,9.8c-0.1,0.6-0.3,1.1-0.7,1.4c-0.4,0.3-0.8,0.4-1.4,0.4
		c-0.5,0-1.3-0.1-2.2-0.4c-0.9-0.2-2.1-0.4-3.7-0.4c-2.7,0-5.1,0.8-7,2.3c-1.9,1.5-3.6,3.7-4.9,6.6v33.9H475.8z"/>
	<path class="st0" d="M557.4,300.7c-1.7,0-2.8-0.8-3.3-2.4L553,293c-1.1,1.3-2.3,2.4-3.6,3.4c-1.2,1-2.6,1.9-4,2.6
		c-1.4,0.7-3,1.3-4.6,1.7c-1.6,0.4-3.4,0.6-5.3,0.6c-3,0-5.7-0.6-8.2-1.9c-2.5-1.2-4.6-3-6.4-5.4c-1.8-2.3-3.2-5.3-4.1-8.7
		c-1-3.5-1.5-7.4-1.5-11.9c0-4,0.5-7.8,1.6-11.2c1.1-3.5,2.7-6.5,4.7-9c2-2.5,4.5-4.5,7.4-6c2.9-1.4,6.1-2.1,9.6-2.1
		c3,0,5.6,0.5,7.8,1.5c2.2,1,4.1,2.3,5.8,3.9v-28.7h13.1v78.8H557.4z M539.9,291.1c2.7,0,5-0.6,6.9-1.7c1.9-1.1,3.7-2.7,5.4-4.8
		v-24.4c-1.5-1.8-3.1-3.1-4.8-3.8c-1.7-0.7-3.6-1.1-5.6-1.1c-2,0-3.8,0.4-5.4,1.1c-1.6,0.7-3,1.9-4.1,3.4s-2,3.4-2.6,5.7
		c-0.6,2.3-0.9,5-0.9,8.2c0,3.2,0.3,5.9,0.8,8.1c0.5,2.2,1.2,4,2.2,5.4c1,1.4,2.1,2.4,3.5,3S538.3,291.1,539.9,291.1z"/>
	<path class="st0" d="M623.2,245.4c4.1,0,7.7,0.7,11.1,2c3.3,1.3,6.1,3.2,8.5,5.6c2.3,2.4,4.1,5.3,5.4,8.8c1.3,3.5,1.9,7.3,1.9,11.6
		c0,4.3-0.6,8.2-1.9,11.7c-1.3,3.5-3.1,6.4-5.4,8.9c-2.3,2.4-5.2,4.3-8.5,5.6c-3.3,1.3-7,2-11.1,2c-4.1,0-7.8-0.7-11.1-2
		s-6.2-3.2-8.5-5.6c-2.4-2.4-4.2-5.4-5.5-8.9c-1.3-3.5-1.9-7.3-1.9-11.7c0-4.3,0.6-8.1,1.9-11.6c1.3-3.5,3.1-6.4,5.5-8.8
		c2.3-2.4,5.2-4.3,8.5-5.6S619.1,245.4,623.2,245.4z M623.2,291.4c4.5,0,7.9-1.5,10-4.6c2.2-3,3.3-7.5,3.3-13.4
		c0-5.9-1.1-10.3-3.3-13.4c-2.2-3.1-5.5-4.6-10-4.6c-4.6,0-8,1.5-10.2,4.6c-2.2,3.1-3.3,7.6-3.3,13.4c0,5.8,1.1,10.3,3.3,13.3
		C615.2,289.9,618.6,291.4,623.2,291.4z"/>
	<path class="st0" d="M662.6,300.7v-44.5l-4.7-0.7c-1-0.2-1.8-0.5-2.5-1.1c-0.6-0.5-0.9-1.3-0.9-2.2v-5.4h8.1v-4
		c0-3.1,0.5-5.9,1.4-8.4c0.9-2.5,2.3-4.6,4-6.3c1.7-1.7,3.9-3.1,6.4-4c2.5-0.9,5.3-1.4,8.5-1.4c2.5,0,4.8,0.3,7,1l-0.3,6.6
		c-0.1,1-0.5,1.7-1.4,1.9c-0.9,0.2-1.9,0.4-3.1,0.4c-1.6,0-2.9,0.2-4.2,0.5c-1.2,0.3-2.3,0.9-3.1,1.7c-0.8,0.8-1.5,1.9-1.9,3.3
		c-0.4,1.4-0.7,3-0.7,5.1v3.6h14.2v9.3h-13.7v44.6H662.6z"/>
	<path class="st0" d="M733.8,230.4c0,1.1-0.2,2.2-0.7,3.2c-0.5,1-1.1,1.9-1.8,2.6c-0.8,0.7-1.7,1.3-2.7,1.8c-1,0.4-2.1,0.7-3.3,0.7
		c-1.1,0-2.2-0.2-3.2-0.7c-1-0.4-1.9-1-2.6-1.8s-1.3-1.6-1.8-2.6c-0.4-1-0.7-2-0.7-3.2c0-1.2,0.2-2.3,0.7-3.3c0.4-1,1-1.9,1.8-2.7
		s1.6-1.3,2.6-1.8c1-0.4,2.1-0.7,3.2-0.7c1.2,0,2.3,0.2,3.3,0.7c1,0.4,1.9,1,2.7,1.8c0.8,0.7,1.4,1.6,1.8,2.7
		C733.5,228.2,733.8,229.3,733.8,230.4z M731.8,246.3v54.4h-13.1v-54.4H731.8z"/>
	<path class="st0" d="M764.5,301.5c-4.7,0-8.3-1.3-10.9-4s-3.8-6.4-3.8-11.1v-30.4h-5.5c-0.7,0-1.3-0.2-1.8-0.7
		c-0.5-0.5-0.8-1.1-0.8-2.1v-5.2l8.7-1.4l2.8-14.8c0.1-0.7,0.5-1.3,1-1.6c0.5-0.4,1.2-0.6,1.9-0.6h6.8v17.1h14.3v9.3h-14.3v29.5
		c0,1.7,0.4,3,1.3,4s2,1.4,3.4,1.4c0.8,0,1.5-0.1,2-0.3c0.5-0.2,1-0.4,1.4-0.6s0.8-0.4,1.1-0.6c0.3-0.2,0.6-0.3,1-0.3
		c0.4,0,0.7,0.1,1,0.3c0.2,0.2,0.5,0.5,0.8,0.9l3.9,6.4c-1.9,1.6-4.1,2.8-6.6,3.6C769.7,301.1,767.1,301.5,764.5,301.5z"/>
	<path class="st0" d="M797,219.5c1.2,2,2.1,4,2.7,5.9s0.9,4,0.9,5.9c0,3.5-0.9,6.9-2.7,10.1c-1.8,3.2-4.4,6.2-7.7,8.9l-4.1-2.5
		c-0.4-0.2-0.6-0.5-0.7-0.8c-0.1-0.3-0.2-0.6-0.2-0.9c0-0.7,0.2-1.2,0.7-1.7c0.5-0.5,0.9-1.1,1.5-1.8c0.5-0.7,1-1.4,1.4-2.3
		c0.4-0.8,0.8-1.7,1-2.7s0.4-2,0.4-3.2c0-1.2-0.2-2.5-0.6-3.8c-0.4-1.4-1-2.8-2-4.3c-0.3-0.5-0.5-0.9-0.5-1.4c0-1.1,0.7-1.9,2-2.4
		L797,219.5z"/>
	<path class="st0" d="M843.7,256.9c-0.4,0.6-0.7,1-1.1,1.2c-0.4,0.2-0.9,0.3-1.5,0.3c-0.6,0-1.3-0.2-2-0.5c-0.7-0.4-1.6-0.8-2.5-1.2
		c-1-0.4-2-0.8-3.3-1.2c-1.2-0.4-2.7-0.5-4.3-0.5c-2.6,0-4.6,0.5-6.1,1.6c-1.5,1.1-2.2,2.5-2.2,4.3c0,1.2,0.4,2.1,1.1,2.9
		s1.8,1.5,3,2.1c1.3,0.6,2.7,1.1,4.3,1.6c1.6,0.5,3.2,1,4.9,1.6c1.7,0.6,3.3,1.2,4.9,1.9c1.6,0.7,3,1.6,4.3,2.8c1.3,1.1,2.3,2.4,3,4
		c0.8,1.6,1.1,3.4,1.1,5.6c0,2.6-0.5,5-1.4,7.2c-1,2.2-2.3,4.1-4.2,5.7c-1.8,1.6-4.1,2.9-6.8,3.8c-2.7,0.9-5.8,1.4-9.3,1.4
		c-1.9,0-3.7-0.2-5.5-0.5c-1.8-0.3-3.5-0.8-5.1-1.4c-1.6-0.6-3.2-1.3-4.6-2.1s-2.6-1.7-3.7-2.7l3-5c0.4-0.6,0.8-1.1,1.4-1.4
		c0.5-0.3,1.2-0.5,2-0.5s1.6,0.2,2.3,0.7c0.7,0.5,1.6,1,2.5,1.5s2.1,1,3.4,1.5s2.9,0.7,4.9,0.7c1.6,0,2.9-0.2,4-0.6
		c1.1-0.4,2-0.9,2.8-1.5c0.7-0.6,1.3-1.3,1.6-2.1s0.5-1.6,0.5-2.5c0-1.3-0.4-2.3-1.1-3.1s-1.8-1.5-3-2.1c-1.3-0.6-2.7-1.1-4.3-1.6
		c-1.6-0.5-3.3-1-4.9-1.6c-1.7-0.6-3.3-1.2-4.9-2c-1.6-0.8-3-1.7-4.3-2.9c-1.3-1.2-2.3-2.6-3-4.3c-0.8-1.7-1.1-3.7-1.1-6.1
		c0-2.2,0.4-4.3,1.3-6.4s2.2-3.8,3.9-5.3c1.7-1.5,3.9-2.7,6.4-3.6c2.6-0.9,5.5-1.4,8.9-1.4c3.7,0,7.2,0.6,10.2,1.9
		c3.1,1.2,5.6,2.9,7.7,4.9L843.7,256.9z"/>
	<path class="st0" d="M268.5,372.5c2.3,0,4.5,0.2,6.6,0.7c2,0.5,3.9,1.2,5.6,2.1h15.6v4.9c0,0.8-0.2,1.4-0.6,1.9
		c-0.4,0.5-1.1,0.8-2.2,1l-4.9,0.9c0.4,0.9,0.6,1.9,0.8,2.9c0.2,1,0.3,2.1,0.3,3.2c0,2.7-0.5,5.1-1.6,7.3c-1.1,2.2-2.6,4-4.5,5.5
		c-1.9,1.5-4.1,2.7-6.7,3.5c-2.6,0.8-5.4,1.2-8.5,1.2c-2,0-4-0.2-6-0.6c-1.7,1-2.5,2.2-2.5,3.5c0,1.1,0.5,1.9,1.5,2.4
		c1,0.5,2.3,0.9,4,1.1s3.5,0.3,5.6,0.3c2.1,0,4.2,0.1,6.4,0.3c2.2,0.2,4.3,0.5,6.4,0.9c2.1,0.4,3.9,1.1,5.6,2.1s3,2.3,4,3.9
		c1,1.6,1.5,3.8,1.5,6.4c0,2.4-0.6,4.8-1.8,7c-1.2,2.3-2.9,4.3-5.1,6.1c-2.2,1.8-5,3.2-8.2,4.3c-3.3,1.1-7,1.6-11.1,1.6
		c-4.1,0-7.7-0.4-10.8-1.2c-3-0.8-5.6-1.9-7.6-3.2c-2-1.3-3.5-2.9-4.5-4.6c-1-1.7-1.5-3.5-1.5-5.4c0-2.5,0.8-4.7,2.3-6.4
		c1.6-1.7,3.7-3.1,6.5-4.1c-1.3-0.7-2.4-1.7-3.2-3c-0.8-1.2-1.2-2.8-1.2-4.8c0-0.8,0.1-1.7,0.4-2.5c0.3-0.9,0.7-1.7,1.3-2.6
		c0.6-0.8,1.3-1.7,2.2-2.4c0.9-0.8,1.9-1.4,3.1-2c-2.8-1.5-4.9-3.5-6.5-5.9c-1.6-2.5-2.4-5.4-2.4-8.7c0-2.7,0.5-5.1,1.6-7.3
		c1.1-2.2,2.6-4,4.5-5.6c1.9-1.5,4.2-2.7,6.8-3.5C262.5,372.9,265.4,372.5,268.5,372.5z M282.8,430.1c0-1.1-0.3-2-1-2.7
		c-0.6-0.7-1.5-1.2-2.6-1.6c-1.1-0.4-2.4-0.7-3.8-0.8c-1.5-0.2-3-0.3-4.7-0.3c-1.6,0-3.3,0-5.1,0s-3.4-0.2-5.1-0.6
		c-1.5,0.8-2.7,1.8-3.6,2.9c-0.9,1.1-1.4,2.4-1.4,3.8c0,1,0.2,1.8,0.7,2.7c0.5,0.8,1.2,1.5,2.3,2.1c1,0.6,2.4,1.1,4.1,1.4
		c1.7,0.3,3.7,0.5,6.1,0.5c2.4,0,4.5-0.2,6.3-0.6c1.8-0.4,3.2-0.9,4.4-1.6c1.1-0.7,2-1.5,2.5-2.4
		C282.6,432.2,282.8,431.2,282.8,430.1z M268.5,399.3c1.6,0,3-0.2,4.2-0.7c1.2-0.4,2.2-1.1,3-1.8s1.4-1.7,1.8-2.8
		c0.4-1.1,0.6-2.3,0.6-3.6c0-2.7-0.8-4.8-2.4-6.4c-1.6-1.6-4-2.4-7.2-2.4c-3.2,0-5.6,0.8-7.2,2.4c-1.6,1.6-2.4,3.7-2.4,6.4
		c0,1.3,0.2,2.5,0.6,3.6c0.4,1.1,1,2,1.8,2.8s1.8,1.4,3,1.9C265.5,399.1,266.9,399.3,268.5,399.3z"/>
	<path class="st0" d="M327.7,372.6c4.1,0,7.7,0.7,11.1,2c3.3,1.3,6.1,3.2,8.5,5.6c2.3,2.4,4.1,5.3,5.4,8.8c1.3,3.5,1.9,7.3,1.9,11.6
		c0,4.3-0.6,8.2-1.9,11.7s-3.1,6.4-5.4,8.9c-2.3,2.4-5.1,4.3-8.5,5.6c-3.3,1.3-7,2-11.1,2c-4.1,0-7.8-0.7-11.1-2
		c-3.3-1.3-6.2-3.2-8.5-5.6c-2.4-2.4-4.2-5.4-5.5-8.9c-1.3-3.5-1.9-7.3-1.9-11.7c0-4.3,0.6-8.1,1.9-11.6c1.3-3.5,3.1-6.4,5.5-8.8
		c2.3-2.4,5.2-4.3,8.5-5.6C320,373.3,323.7,372.6,327.7,372.6z M327.7,418.6c4.5,0,7.9-1.5,10-4.6c2.2-3,3.3-7.5,3.3-13.4
		c0-5.9-1.1-10.3-3.3-13.4c-2.2-3.1-5.5-4.6-10-4.6c-4.6,0-8,1.5-10.2,4.6c-2.2,3.1-3.3,7.6-3.3,13.4c0,5.8,1.1,10.3,3.3,13.3
		C319.8,417.1,323.1,418.6,327.7,418.6z"/>
	<path class="st0" d="M388,372.6c4.1,0,7.7,0.7,11.1,2c3.3,1.3,6.1,3.2,8.5,5.6c2.3,2.4,4.1,5.3,5.4,8.8c1.3,3.5,1.9,7.3,1.9,11.6
		c0,4.3-0.6,8.2-1.9,11.7s-3.1,6.4-5.4,8.9c-2.3,2.4-5.1,4.3-8.5,5.6c-3.3,1.3-7,2-11.1,2c-4.1,0-7.8-0.7-11.1-2
		c-3.3-1.3-6.2-3.2-8.5-5.6c-2.4-2.4-4.2-5.4-5.5-8.9c-1.3-3.5-1.9-7.3-1.9-11.7c0-4.3,0.6-8.1,1.9-11.6c1.3-3.5,3.1-6.4,5.5-8.8
		c2.3-2.4,5.2-4.3,8.5-5.6C380.2,373.3,383.9,372.6,388,372.6z M388,418.6c4.5,0,7.9-1.5,10-4.6c2.2-3,3.3-7.5,3.3-13.4
		c0-5.9-1.1-10.3-3.3-13.4c-2.2-3.1-5.5-4.6-10-4.6c-4.6,0-8,1.5-10.2,4.6c-2.2,3.1-3.3,7.6-3.3,13.4c0,5.8,1.1,10.3,3.3,13.3
		C380,417.1,383.4,418.6,388,418.6z"/>
	<path class="st0" d="M463.3,427.9c-1.7,0-2.8-0.8-3.3-2.4l-1.1-5.2c-1.1,1.3-2.3,2.4-3.6,3.4c-1.2,1-2.6,1.9-4,2.6s-3,1.3-4.6,1.7
		c-1.6,0.4-3.4,0.6-5.3,0.6c-3,0-5.7-0.6-8.2-1.9c-2.5-1.2-4.6-3-6.4-5.4c-1.8-2.3-3.2-5.3-4.1-8.7c-1-3.5-1.5-7.4-1.5-11.9
		c0-4,0.5-7.8,1.6-11.2c1.1-3.5,2.7-6.5,4.7-9c2-2.5,4.5-4.5,7.4-6c2.9-1.4,6.1-2.1,9.6-2.1c3,0,5.6,0.5,7.8,1.5
		c2.2,1,4.1,2.3,5.8,3.9v-28.7h13.1v78.8H463.3z M445.9,418.3c2.7,0,5-0.6,6.9-1.7c1.9-1.1,3.7-2.7,5.4-4.8v-24.4
		c-1.5-1.8-3.1-3.1-4.8-3.8c-1.7-0.7-3.6-1.1-5.6-1.1c-2,0-3.8,0.4-5.4,1.1c-1.6,0.7-3,1.9-4.1,3.4c-1.1,1.5-2,3.4-2.6,5.7
		c-0.6,2.3-0.9,5-0.9,8.2c0,3.2,0.3,5.9,0.8,8.1c0.5,2.2,1.2,4,2.2,5.4c1,1.4,2.1,2.4,3.5,3S444.2,418.3,445.9,418.3z"/>
	<path class="st0" d="M538.2,384.1c-0.4,0.6-0.7,1-1.1,1.2c-0.4,0.2-0.9,0.3-1.5,0.3c-0.6,0-1.3-0.2-2-0.5c-0.7-0.4-1.6-0.8-2.5-1.2
		c-1-0.4-2-0.8-3.3-1.2c-1.2-0.4-2.7-0.5-4.3-0.5c-2.6,0-4.6,0.5-6.1,1.6c-1.5,1.1-2.2,2.5-2.2,4.3c0,1.2,0.4,2.1,1.1,2.9
		c0.8,0.8,1.8,1.5,3,2.1c1.3,0.6,2.7,1.1,4.3,1.6c1.6,0.5,3.2,1,4.9,1.6c1.7,0.6,3.3,1.2,4.9,1.9c1.6,0.7,3,1.6,4.3,2.8
		c1.3,1.1,2.3,2.4,3,4s1.1,3.4,1.1,5.6c0,2.6-0.5,5-1.4,7.2s-2.4,4.1-4.2,5.7c-1.8,1.6-4.1,2.9-6.8,3.8c-2.7,0.9-5.8,1.4-9.3,1.4
		c-1.9,0-3.7-0.2-5.5-0.5c-1.8-0.3-3.5-0.8-5.1-1.4c-1.6-0.6-3.2-1.3-4.6-2.1c-1.4-0.8-2.6-1.7-3.7-2.7l3-5c0.4-0.6,0.8-1.1,1.4-1.4
		c0.5-0.3,1.2-0.5,2-0.5c0.8,0,1.6,0.2,2.3,0.7c0.7,0.5,1.6,1,2.5,1.5s2.1,1,3.4,1.5c1.3,0.5,2.9,0.7,4.9,0.7c1.6,0,2.9-0.2,4-0.6
		c1.1-0.4,2-0.9,2.8-1.5c0.7-0.6,1.3-1.3,1.6-2.1c0.3-0.8,0.5-1.6,0.5-2.5c0-1.3-0.4-2.3-1.1-3.1s-1.8-1.5-3-2.1
		c-1.3-0.6-2.7-1.1-4.3-1.6c-1.6-0.5-3.3-1-4.9-1.6c-1.7-0.6-3.3-1.2-4.9-2c-1.6-0.8-3-1.7-4.3-2.9c-1.3-1.2-2.3-2.6-3-4.3
		c-0.8-1.7-1.1-3.7-1.1-6.1c0-2.2,0.4-4.3,1.3-6.4c0.9-2,2.2-3.8,3.9-5.3c1.7-1.5,3.9-2.7,6.4-3.6c2.6-0.9,5.5-1.4,8.9-1.4
		c3.7,0,7.2,0.6,10.2,1.9c3.1,1.2,5.6,2.9,7.7,4.9L538.2,384.1z"/>
	<path class="st0" d="M570.1,428.7c-4.7,0-8.3-1.3-10.9-4c-2.5-2.7-3.8-6.4-3.8-11.1v-30.4h-5.5c-0.7,0-1.3-0.2-1.8-0.7
		c-0.5-0.5-0.8-1.1-0.8-2.1v-5.2l8.7-1.4l2.8-14.8c0.1-0.7,0.5-1.3,1-1.6s1.2-0.6,1.9-0.6h6.8V374h14.3v9.3h-14.3v29.5
		c0,1.7,0.4,3,1.3,4s2,1.4,3.4,1.4c0.8,0,1.5-0.1,2-0.3c0.5-0.2,1-0.4,1.4-0.6s0.8-0.4,1.1-0.6c0.3-0.2,0.6-0.3,1-0.3
		c0.4,0,0.7,0.1,1,0.3c0.2,0.2,0.5,0.5,0.8,0.9l3.9,6.4c-1.9,1.6-4.1,2.8-6.6,3.6C575.3,428.3,572.8,428.7,570.1,428.7z"/>
	<path class="st0" d="M605.2,373.5V408c0,3.3,0.8,5.9,2.3,7.7c1.5,1.8,3.8,2.7,6.9,2.7c2.3,0,4.4-0.5,6.4-1.5s3.9-2.4,5.6-4.2v-39.3
		h13.1v54.4h-8c-1.7,0-2.8-0.8-3.3-2.4l-0.9-4.3c-1.1,1.1-2.3,2.2-3.5,3.1c-1.2,0.9-2.5,1.7-3.8,2.4c-1.4,0.7-2.8,1.2-4.4,1.5
		c-1.6,0.4-3.3,0.6-5.1,0.6c-3,0-5.6-0.5-7.9-1.5c-2.3-1-4.2-2.4-5.8-4.3s-2.7-4-3.5-6.5c-0.8-2.5-1.2-5.3-1.2-8.3v-34.6H605.2z"/>
	<path class="st0" d="M691.8,427.9c-1.7,0-2.8-0.8-3.3-2.4l-1.1-5.2c-1.1,1.3-2.3,2.4-3.6,3.4c-1.2,1-2.6,1.9-4,2.6s-3,1.3-4.6,1.7
		c-1.6,0.4-3.4,0.6-5.3,0.6c-3,0-5.7-0.6-8.2-1.9c-2.5-1.2-4.6-3-6.4-5.4c-1.8-2.3-3.2-5.3-4.1-8.7c-1-3.5-1.5-7.4-1.5-11.9
		c0-4,0.5-7.8,1.6-11.2c1.1-3.5,2.7-6.5,4.7-9c2-2.5,4.5-4.5,7.4-6c2.9-1.4,6.1-2.1,9.6-2.1c3,0,5.6,0.5,7.8,1.5
		c2.2,1,4.1,2.3,5.8,3.9v-28.7h13.1v78.8H691.8z M674.4,418.3c2.7,0,5-0.6,6.9-1.7c1.9-1.1,3.7-2.7,5.4-4.8v-24.4
		c-1.5-1.8-3.1-3.1-4.8-3.8c-1.7-0.7-3.6-1.1-5.6-1.1c-2,0-3.8,0.4-5.4,1.1c-1.6,0.7-3,1.9-4.1,3.4c-1.1,1.5-2,3.4-2.6,5.7
		c-0.6,2.3-0.9,5-0.9,8.2c0,3.2,0.3,5.9,0.8,8.1c0.5,2.2,1.2,4,2.2,5.4s2.1,2.4,3.5,3S672.7,418.3,674.4,418.3z"/>
	<path class="st0" d="M729.8,357.6c0,1.1-0.2,2.2-0.7,3.2c-0.5,1-1.1,1.9-1.8,2.6c-0.8,0.7-1.7,1.3-2.7,1.8c-1,0.4-2.1,0.7-3.3,0.7
		c-1.1,0-2.2-0.2-3.2-0.7c-1-0.4-1.9-1-2.6-1.8s-1.3-1.6-1.8-2.6c-0.4-1-0.7-2-0.7-3.2c0-1.2,0.2-2.3,0.7-3.3c0.4-1,1-1.9,1.8-2.7
		s1.6-1.3,2.6-1.8c1-0.4,2.1-0.7,3.2-0.7c1.2,0,2.3,0.2,3.3,0.7c1,0.4,1.9,1,2.7,1.8c0.8,0.7,1.4,1.6,1.8,2.7
		C729.6,355.4,729.8,356.5,729.8,357.6z M727.9,373.5v54.4h-13.1v-54.4H727.9z"/>
	<path class="st0" d="M765.9,372.6c4.1,0,7.7,0.7,11.1,2c3.3,1.3,6.1,3.2,8.5,5.6c2.3,2.4,4.1,5.3,5.4,8.8c1.3,3.5,1.9,7.3,1.9,11.6
		c0,4.3-0.6,8.2-1.9,11.7c-1.3,3.5-3.1,6.4-5.4,8.9c-2.3,2.4-5.2,4.3-8.5,5.6c-3.3,1.3-7,2-11.1,2c-4.1,0-7.8-0.7-11.1-2
		s-6.2-3.2-8.5-5.6c-2.4-2.4-4.2-5.4-5.5-8.9c-1.3-3.5-1.9-7.3-1.9-11.7c0-4.3,0.6-8.1,1.9-11.6c1.3-3.5,3.1-6.4,5.5-8.8
		c2.3-2.4,5.2-4.3,8.5-5.6S761.8,372.6,765.9,372.6z M765.9,418.6c4.5,0,7.9-1.5,10-4.6c2.2-3,3.3-7.5,3.3-13.4
		c0-5.9-1.1-10.3-3.3-13.4c-2.2-3.1-5.5-4.6-10-4.6c-4.6,0-8,1.5-10.2,4.6c-2.2,3.1-3.3,7.6-3.3,13.4c0,5.8,1.1,10.3,3.3,13.3
		C757.9,417.1,761.3,418.6,765.9,418.6z"/>
	<path class="st0" d="M814.9,373.5V408c0,3.3,0.8,5.9,2.3,7.7c1.5,1.8,3.8,2.7,6.9,2.7c2.3,0,4.4-0.5,6.4-1.5s3.9-2.4,5.6-4.2v-39.3
		h13.1v54.4h-8c-1.7,0-2.8-0.8-3.3-2.4l-0.9-4.3c-1.1,1.1-2.3,2.2-3.5,3.1c-1.2,0.9-2.5,1.7-3.8,2.4c-1.4,0.7-2.8,1.2-4.4,1.5
		c-1.6,0.4-3.3,0.6-5.1,0.6c-3,0-5.6-0.5-7.9-1.5c-2.3-1-4.2-2.4-5.8-4.3s-2.7-4-3.5-6.5c-0.8-2.5-1.2-5.3-1.2-8.3v-34.6H814.9z"/>
	<path class="st0" d="M895.5,384.1c-0.4,0.6-0.7,1-1.1,1.2c-0.4,0.2-0.9,0.3-1.5,0.3c-0.6,0-1.3-0.2-2-0.5c-0.7-0.4-1.6-0.8-2.5-1.2
		c-1-0.4-2-0.8-3.3-1.2c-1.2-0.4-2.7-0.5-4.3-0.5c-2.6,0-4.6,0.5-6.1,1.6c-1.5,1.1-2.2,2.5-2.2,4.3c0,1.2,0.4,2.1,1.1,2.9
		s1.8,1.5,3,2.1c1.3,0.6,2.7,1.1,4.3,1.6c1.6,0.5,3.2,1,4.9,1.6c1.7,0.6,3.3,1.2,4.9,1.9c1.6,0.7,3,1.6,4.3,2.8c1.3,1.1,2.3,2.4,3,4
		c0.8,1.6,1.1,3.4,1.1,5.6c0,2.6-0.5,5-1.4,7.2c-1,2.2-2.3,4.1-4.2,5.7c-1.8,1.6-4.1,2.9-6.8,3.8c-2.7,0.9-5.8,1.4-9.3,1.4
		c-1.9,0-3.7-0.2-5.5-0.5c-1.8-0.3-3.5-0.8-5.1-1.4c-1.6-0.6-3.2-1.3-4.6-2.1s-2.6-1.7-3.7-2.7l3-5c0.4-0.6,0.8-1.1,1.4-1.4
		c0.5-0.3,1.2-0.5,2-0.5s1.6,0.2,2.3,0.7c0.7,0.5,1.6,1,2.5,1.5s2.1,1,3.4,1.5s2.9,0.7,4.9,0.7c1.6,0,2.9-0.2,4-0.6
		c1.1-0.4,2-0.9,2.8-1.5c0.7-0.6,1.3-1.3,1.6-2.1s0.5-1.6,0.5-2.5c0-1.3-0.4-2.3-1.1-3.1s-1.8-1.5-3-2.1c-1.3-0.6-2.7-1.1-4.3-1.6
		c-1.6-0.5-3.3-1-4.9-1.6c-1.7-0.6-3.3-1.2-4.9-2c-1.6-0.8-3-1.7-4.3-2.9c-1.3-1.2-2.3-2.6-3-4.3c-0.8-1.7-1.1-3.7-1.1-6.1
		c0-2.2,0.4-4.3,1.3-6.4s2.2-3.8,3.9-5.3c1.7-1.5,3.9-2.7,6.4-3.6c2.6-0.9,5.5-1.4,8.9-1.4c3.7,0,7.2,0.6,10.2,1.9
		c3.1,1.2,5.6,2.9,7.7,4.9L895.5,384.1z"/>
	<path class="st0" d="M272.1,499.8c3.4,0,6.6,0.5,9.5,1.6c2.9,1.1,5.4,2.7,7.4,4.8c2.1,2.1,3.7,4.7,4.9,7.7
		c1.2,3.1,1.7,6.5,1.7,10.5c0,1,0,1.8-0.1,2.5c-0.1,0.7-0.2,1.2-0.5,1.5c-0.2,0.4-0.5,0.6-0.9,0.8c-0.4,0.2-0.9,0.2-1.5,0.2h-33.6
		c0.4,5.6,1.9,9.7,4.5,12.3c2.6,2.6,6.1,3.9,10.4,3.9c2.1,0,3.9-0.2,5.5-0.7c1.5-0.5,2.9-1,4-1.6c1.1-0.6,2.2-1.1,3-1.6
		c0.9-0.5,1.7-0.7,2.5-0.7c0.5,0,1,0.1,1.4,0.3c0.4,0.2,0.7,0.5,1,0.9l3.8,4.8c-1.4,1.7-3.1,3.1-4.9,4.3c-1.8,1.1-3.7,2.1-5.6,2.8
		c-2,0.7-4,1.2-6,1.5c-2,0.3-4,0.4-5.9,0.4c-3.8,0-7.3-0.6-10.5-1.9c-3.3-1.3-6.1-3.1-8.5-5.6c-2.4-2.5-4.3-5.5-5.7-9.1
		c-1.4-3.6-2.1-7.8-2.1-12.6c0-3.7,0.6-7.2,1.8-10.5c1.2-3.3,2.9-6.1,5.2-8.5c2.2-2.4,5-4.3,8.2-5.8
		C264.4,500.5,268.1,499.8,272.1,499.8z M272.4,509.2c-3.8,0-6.8,1.1-9,3.2c-2.2,2.2-3.5,5.2-4.1,9.2h24.6c0-1.7-0.2-3.3-0.7-4.8
		c-0.5-1.5-1.2-2.8-2.1-3.9c-1-1.1-2.2-2-3.6-2.7C276,509.5,274.4,509.2,272.4,509.2z"/>
	<path class="st0" d="M306.3,555.1v-54.4h8c1.7,0,2.8,0.8,3.3,2.4l0.9,4.3c1.1-1.1,2.3-2.2,3.5-3.1c1.2-0.9,2.5-1.7,3.9-2.4
		c1.4-0.7,2.8-1.2,4.4-1.5c1.6-0.4,3.3-0.5,5.1-0.5c3,0,5.6,0.5,7.9,1.5c2.3,1,4.2,2.4,5.8,4.2c1.5,1.8,2.7,4,3.5,6.5
		s1.2,5.3,1.2,8.3v34.6h-13.1v-34.6c0-3.3-0.8-5.9-2.3-7.7c-1.5-1.8-3.8-2.7-6.9-2.7c-2.3,0-4.4,0.5-6.4,1.5c-2,1-3.9,2.4-5.6,4.2
		v39.3H306.3z"/>
	<path class="st0" d="M391.9,555.1h-11.9l-21.6-54.4h10.9c1,0,1.8,0.2,2.4,0.7c0.7,0.5,1.1,1,1.4,1.7l10.5,29c0.6,1.7,1.1,3.4,1.5,5
		c0.4,1.6,0.8,3.3,1.1,4.9c0.3-1.6,0.7-3.3,1.1-4.9c0.4-1.6,0.9-3.3,1.6-5l10.8-29c0.2-0.7,0.7-1.3,1.3-1.7c0.6-0.5,1.4-0.7,2.3-0.7
		h10.3L391.9,555.1z"/>
	<path class="st0" d="M437.1,484.8c0,1.1-0.2,2.2-0.7,3.2c-0.5,1-1.1,1.9-1.8,2.6c-0.8,0.7-1.7,1.3-2.7,1.8c-1,0.4-2.1,0.7-3.3,0.7
		c-1.1,0-2.2-0.2-3.2-0.7c-1-0.4-1.9-1-2.6-1.8c-0.7-0.7-1.3-1.6-1.8-2.6c-0.4-1-0.7-2-0.7-3.2c0-1.2,0.2-2.3,0.7-3.3
		c0.4-1,1-1.9,1.8-2.7c0.7-0.7,1.6-1.3,2.6-1.8c1-0.4,2.1-0.7,3.2-0.7c1.2,0,2.3,0.2,3.3,0.7c1,0.4,1.9,1,2.7,1.8
		c0.8,0.7,1.4,1.6,1.8,2.7C436.9,482.6,437.1,483.7,437.1,484.8z M435.2,500.7v54.4h-13.1v-54.4H435.2z"/>
	<path class="st0" d="M450,555.1v-54.4h7.7c1.3,0,2.3,0.2,2.8,0.7c0.5,0.5,0.9,1.3,1.1,2.5l0.8,6.6c1.9-3.4,4.2-6,6.8-8
		c2.6-1.9,5.5-2.9,8.8-2.9c2.7,0,4.9,0.6,6.7,1.9l-1.7,9.8c-0.1,0.6-0.3,1.1-0.7,1.4c-0.4,0.3-0.8,0.4-1.4,0.4
		c-0.5,0-1.3-0.1-2.2-0.4c-0.9-0.2-2.1-0.4-3.7-0.4c-2.7,0-5.1,0.8-7,2.3c-1.9,1.5-3.6,3.7-4.9,6.6v33.9H450z"/>
	<path class="st0" d="M516.5,499.8c4.1,0,7.7,0.7,11.1,2c3.3,1.3,6.1,3.2,8.5,5.6c2.3,2.4,4.1,5.3,5.4,8.8c1.3,3.5,1.9,7.3,1.9,11.6
		c0,4.3-0.6,8.2-1.9,11.7c-1.3,3.5-3.1,6.4-5.4,8.9c-2.3,2.4-5.2,4.3-8.5,5.6c-3.3,1.3-7,2-11.1,2c-4.1,0-7.8-0.7-11.1-2
		c-3.3-1.3-6.2-3.2-8.5-5.6c-2.4-2.4-4.2-5.4-5.5-8.9c-1.3-3.5-1.9-7.3-1.9-11.7c0-4.3,0.6-8.1,1.9-11.6c1.3-3.5,3.1-6.4,5.5-8.8
		c2.3-2.4,5.2-4.3,8.5-5.6C508.7,500.5,512.4,499.8,516.5,499.8z M516.5,545.8c4.5,0,7.9-1.5,10-4.6c2.2-3,3.3-7.5,3.3-13.4
		c0-5.9-1.1-10.3-3.3-13.4c-2.2-3.1-5.5-4.6-10-4.6c-4.6,0-8,1.5-10.2,4.6c-2.2,3.1-3.3,7.6-3.3,13.4c0,5.8,1.1,10.3,3.3,13.3
		C508.5,544.3,511.9,545.8,516.5,545.8z"/>
	<path class="st0" d="M553.5,555.1v-54.4h8c1.7,0,2.8,0.8,3.3,2.4l0.9,4.3c1.1-1.1,2.3-2.2,3.5-3.1c1.2-0.9,2.5-1.7,3.9-2.4
		c1.4-0.7,2.8-1.2,4.4-1.5c1.6-0.4,3.3-0.5,5.1-0.5c3,0,5.6,0.5,7.9,1.5s4.2,2.4,5.8,4.2c1.5,1.8,2.7,4,3.5,6.5s1.2,5.3,1.2,8.3
		v34.6h-13.1v-34.6c0-3.3-0.8-5.9-2.3-7.7c-1.5-1.8-3.8-2.7-6.9-2.7c-2.3,0-4.4,0.5-6.4,1.5c-2,1-3.9,2.4-5.6,4.2v39.3H553.5z"/>
	<path class="st0" d="M613.8,555.1v-54.4h8c1.7,0,2.8,0.8,3.3,2.4l0.8,4c1-1.1,2-2,3-2.9c1-0.9,2.2-1.6,3.3-2.3
		c1.2-0.6,2.5-1.1,3.8-1.5c1.4-0.4,2.9-0.6,4.5-0.6c3.4,0,6.2,0.9,8.5,2.8c2.2,1.9,3.9,4.3,5,7.4c0.8-1.8,1.9-3.3,3.2-4.6
		c1.3-1.3,2.7-2.3,4.2-3.2c1.5-0.8,3.1-1.4,4.8-1.8s3.4-0.6,5.2-0.6c3,0,5.7,0.5,8,1.4s4.3,2.3,5.9,4c1.6,1.8,2.8,3.9,3.6,6.5
		c0.8,2.5,1.2,5.5,1.2,8.7v34.6h-13.1v-34.6c0-3.5-0.8-6.1-2.3-7.8c-1.5-1.7-3.7-2.6-6.7-2.6c-1.3,0-2.6,0.2-3.7,0.7
		c-1.1,0.5-2.2,1.1-3,2c-0.9,0.9-1.5,2-2,3.3c-0.5,1.3-0.7,2.8-0.7,4.5v34.6h-13.1v-34.6c0-3.6-0.7-6.3-2.2-7.9
		c-1.5-1.7-3.6-2.5-6.5-2.5c-1.9,0-3.6,0.5-5.3,1.4c-1.6,0.9-3.2,2.2-4.6,3.8v39.8H613.8z"/>
	<path class="st0" d="M725.5,499.8c3.4,0,6.6,0.5,9.5,1.6c2.9,1.1,5.4,2.7,7.4,4.8c2.1,2.1,3.7,4.7,4.9,7.7
		c1.2,3.1,1.7,6.5,1.7,10.5c0,1,0,1.8-0.1,2.5c-0.1,0.7-0.2,1.2-0.5,1.5c-0.2,0.4-0.5,0.6-0.9,0.8c-0.4,0.2-0.9,0.2-1.5,0.2h-33.6
		c0.4,5.6,1.9,9.7,4.5,12.3c2.6,2.6,6.1,3.9,10.4,3.9c2.1,0,3.9-0.2,5.5-0.7c1.5-0.5,2.9-1,4-1.6c1.1-0.6,2.2-1.1,3-1.6
		c0.9-0.5,1.7-0.7,2.5-0.7c0.5,0,1,0.1,1.4,0.3c0.4,0.2,0.7,0.5,1,0.9l3.8,4.8c-1.4,1.7-3.1,3.1-4.9,4.3c-1.8,1.1-3.7,2.1-5.6,2.8
		c-2,0.7-4,1.2-6,1.5c-2,0.3-4,0.4-5.9,0.4c-3.8,0-7.3-0.6-10.5-1.9c-3.3-1.3-6.1-3.1-8.5-5.6c-2.4-2.5-4.3-5.5-5.7-9.1
		c-1.4-3.6-2.1-7.8-2.1-12.6c0-3.7,0.6-7.2,1.8-10.5c1.2-3.3,2.9-6.1,5.2-8.5c2.2-2.4,5-4.3,8.2-5.8
		C717.8,500.5,721.4,499.8,725.5,499.8z M725.8,509.2c-3.8,0-6.8,1.1-9,3.2c-2.2,2.2-3.5,5.2-4.1,9.2h24.6c0-1.7-0.2-3.3-0.7-4.8
		c-0.5-1.5-1.2-2.8-2.1-3.9c-1-1.1-2.2-2-3.6-2.7C729.4,509.5,727.7,509.2,725.8,509.2z"/>
	<path class="st0" d="M759.7,555.1v-54.4h8c1.7,0,2.8,0.8,3.3,2.4l0.9,4.3c1.1-1.1,2.3-2.2,3.5-3.1c1.2-0.9,2.5-1.7,3.9-2.4
		c1.4-0.7,2.8-1.2,4.4-1.5c1.6-0.4,3.3-0.5,5.1-0.5c3,0,5.6,0.5,7.9,1.5s4.2,2.4,5.8,4.2c1.5,1.8,2.7,4,3.5,6.5s1.2,5.3,1.2,8.3
		v34.6H794v-34.6c0-3.3-0.8-5.9-2.3-7.7c-1.5-1.8-3.8-2.7-6.9-2.7c-2.3,0-4.4,0.5-6.4,1.5c-2,1-3.9,2.4-5.6,4.2v39.3H759.7z"/>
	<path class="st0" d="M837.8,555.9c-4.7,0-8.3-1.3-10.9-4s-3.8-6.4-3.8-11.1v-30.4h-5.5c-0.7,0-1.3-0.2-1.8-0.7
		c-0.5-0.5-0.8-1.1-0.8-2.1v-5.2l8.7-1.4l2.8-14.8c0.1-0.7,0.5-1.3,1-1.6c0.5-0.4,1.2-0.6,1.9-0.6h6.8v17.1h14.3v9.3h-14.3v29.5
		c0,1.7,0.4,3,1.3,4s2,1.4,3.4,1.4c0.8,0,1.5-0.1,2-0.3c0.5-0.2,1-0.4,1.4-0.6s0.8-0.4,1.1-0.6c0.3-0.2,0.6-0.3,1-0.3
		c0.4,0,0.7,0.1,1,0.3c0.2,0.2,0.5,0.5,0.8,0.9l3.9,6.4c-1.9,1.6-4.1,2.8-6.6,3.6C843,555.5,840.5,555.9,837.8,555.9z"/>
</g>
</svg>
