<?xml version="1.0" encoding="utf-8"?>
<!-- Generator: Adobe Illustrator 19.0.0, SVG Export Plug-In . SVG Version: 6.00 Build 0)  -->
<svg version="1.1" id="f7e01b52-fe13-4534-b7fc-d479bcd2a427"
	 xmlns="http://www.w3.org/2000/svg" xmlns:xlink="http://www.w3.org/1999/xlink" x="0px" y="0px" viewBox="185 -5 982.9 803"
	 style="enable-background:new 185 -5 982.9 803;" xml:space="preserve">
<style type="text/css">
	.st0{fill:url(#SVGID_1_);enable-background:new    ;}
	.st1{fill:#3F3D56;}
	.st2{fill:#6C63FF;}
	.st3{fill:url(#SVGID_2_);}
	.st4{fill:url(#SVGID_3_);}
	.st5{fill:#FFE066;}
	.st6{fill:#A1616A;}
	.st7{opacity:0.1;enable-background:new    ;}
	.st8{fill:#464353;}
	.st9{opacity:4.000000e-002;fill:url(#SVGID_4_);enable-background:new    ;}
	.st10{fill:#FFFFFF;}
	.st11{fill:url(#SVGID_5_);}
	.st12{fill:url(#SVGID_6_);}
	.st13{opacity:4.000000e-002;fill:url(#SVGID_7_);enable-background:new    ;}
	.st14{opacity:0.1;}
	.st15{fill:#FBBEBE;}
	.st16{opacity:5.000000e-002;enable-background:new    ;}
	.st17{fill:url(#SVGID_8_);}
	.st18{fill:#F86D70;}
	.st19{fill:url(#SVGID_9_);}
	.st20{fill:url(#SVGID_10_);}
	.st21{fill:url(#SVGID_11_);}
	.st22{fill:url(#SVGID_12_);}
	.st23{opacity:7.000000e-002;enable-background:new    ;}
</style>
<title>exams</title>
<linearGradient id="SVGID_1_" gradientUnits="userSpaceOnUse" x1="2056.4089" y1="1276.3528" x2="352.2385" y2="220.2472">
	<stop  offset="0" style="stop-color:#252C34"/>
	<stop  offset="1" style="stop-color:#45505F"/>
</linearGradient>
<path class="st0" d="M1144,460.5c0,0.6,0,1.2,0,1.8c-0.1,10.5-0.7,21-1.9,31.5c0,0.1,0,0.1,0,0.2c-0.1,0.9-0.2,1.7-0.3,2.6
	c-0.2,1.5-0.3,2.9-0.6,4.4c-2.3,17.9-6.2,35.6-11.5,52.8l0,0c-7.2,23.3-17.3,45.6-30.1,66.3c-3.9,6.3-8.1,12.5-12.6,18.4l0,0
	c-2.4,3.1-4.8,6.2-7.3,9.2c-1.8,2.1-3.6,4.2-5.4,6.2l-1.1,1.3c-9.6,10.6-20,20.4-31,29.5c-18,14.9-37.4,27.9-57.1,39.9
	c-1.1,0.7-2.3,1.4-3.4,2c-0.1,0.1-0.2,0.1-0.3,0.2c-26.8,16.2-54.5,30.8-83.1,42.5c-31.3,12.8-63.6,22.2-96.8,26.2
	c-46.2,5.7-93,1.1-138.9-6.9c-38.2-6.6-76-15.6-113-27l-6.1-1.9c-3.2-1-6.3-2-9.5-3.1c-19-6.3-37.9-13.3-56.5-21
	c-46.8-19.3-91.4-43.2-133.3-71.6c-5.3-3.6-10.6-7.3-15.8-11c-7.2-5.2-14.4-10.6-21.5-16.1l-4.4-3.4c-18.5-14.5-35.8-30.4-51.8-47.6
	c-21.5-23.4-39.9-49.8-52-80c-1.9-4.7-3.7-9.6-5.2-14.5l-0.1-0.5c-0.8-2.5-1.5-5-2.2-7.6c-1-3.7-1.9-7.5-2.6-11.3
	c-0.2-0.7-0.3-1.5-0.4-2.2c-2.4-12.8-3.4-25.9-3.1-38.9c0.3-11.4,1.6-22.8,4-34l0,0c2.5-11.6,6.3-22.9,11.3-33.6l0,0
	c4.6-9.6,10.4-18.6,17.3-26.7l0,0c4.9-5.7,10.3-10.8,16.3-15.3c10.9-8.1,22.9-13.7,35.4-18.2l0,0c5.9-2.1,11.8-3.9,17.8-5.6
	c4.2-1.2,8.5-2.4,12.7-3.5l12.5-3.4c8-2.2,16-4.4,23.9-6.8c21.5-6.6,42.5-14.5,62-26.3c3.1-1.9,6.2-3.9,9.4-6.1
	c4-2.8,7.9-5.8,11.8-9.1l0,0c3.9-3.3,7.8-6.8,11.5-10.6c0.6-0.6,1.1-1.2,1.7-1.8c3-3.2,5.9-6.5,8.6-9.9c1.3-1.7,2.6-3.4,3.8-5.1
	c1.7-2.4,3.3-4.9,4.8-7.4l0,0c7.4-12.6,12-26.5,11.5-41.1c-0.1-2.4-0.3-4.8-0.6-7.2c-1.3-8.8-2.5-17.4-3.5-25.9
	c-3.9-34.9-2.2-66.5,23.9-96.2C513.6,0.1,564.7-7.4,611.2-4.4C745.6,4.1,868,80.8,975.5,172.2c9.3,7.9,18.5,15.9,27.6,24
	c2.3,2,4.6,4.1,6.9,6.2c17,15.3,33.7,31.2,49.3,48.2c1.3,1.4,2.5,2.8,3.8,4.1c0.8,0.9,1.5,1.7,2.3,2.6c4.9,5.5,9.6,11.1,14.2,16.9
	c12.3,15.3,23.1,31.7,32.3,49c14.2,27.1,23.8,56.4,28.4,86.7l0,0c1.7,11,2.9,22.1,3.4,33.2c0.2,3.3,0.3,6.5,0.3,9.8c0,1,0,2.1,0,3.1
	C1144,457.5,1144,459,1144,460.5z"/>
<polygon class="st1" points="579,443.7 563,728.5 579,728.7 592,439.7 "/>
<rect x="322" y="588" class="st2" width="198" height="43"/>
<path class="st1" d="M533,626v27H328.5c-7.2-5.2-14.4-10.6-21.5-16.1V626H533z"/>
<linearGradient id="SVGID_2_" gradientUnits="userSpaceOnUse" x1="494.0661" y1="546.7178" x2="210.0661" y2="884.7178">
	<stop  offset="0" style="stop-color:#35323E"/>
	<stop  offset="1" style="stop-color:#6D667F"/>
</linearGradient>
<path class="st3" d="M573.8,564.5c-0.6,2.6-1.3,5.2-2.1,7.7c-2.3,7.4-5,14.6-5.5,22.3c-0.7,10.1,2,21.9-5,29.2
	c-1.8,1.9-4.1,3.3-5.8,5.3c-0.2,0.3-0.5,0.7-0.7,1c-1.4,2.4-1.6,5.3-1.6,8c0,5.8,0.4,11.6,1.1,17.4c2.4,19.8,7,39.6,0.9,58.3
	c-1.1,3.2-2.4,6.4-3.9,9.5c-3,6.6-6.3,13.1-7.3,20.3c-0.7,5.3-0.5,10.8-0.5,16.2c-3.2-1-6.3-2-9.5-3.1c-19-6.3-37.9-13.3-56.5-21
	c0-0.3,0.1-0.5,0.1-0.8c1.4-8.9-0.5-18-2.9-26.7c-5-18.4-12.1-36.6-16.3-55.1c-1.7-7.2-2.8-14.6-3.3-22c-0.1-1.7-0.2-3.3-0.2-5
	c0-2.2,0-4.4,0.1-6.6c0.2-4.4,0.4-9.6-3.1-12.3c-1.9-1.5-4.5-1.7-6.7-2.6c-4.3-1.7-7.3-5.6-10.8-8.8c-3.3-3.2-8-4.6-12.6-3.7
	c-22.5,5.2-39,24.2-59.9,33.9c-0.8,0.4-1.6,0.7-2.4,1.1c-2.7,1-5.3,2.3-7.7,3.9c-1.7,1.2-2.9,2.9-3.4,4.8c-0.5,2.1-0.1,4.3,0.2,6.5
	c0.4,3.5,0.3,7.1-0.5,10.6c-0.3,1.4-0.6,2.7-1.1,4c-0.8,2.4-1.9,4.7-2.9,7c-5.3-3.6-10.6-7.3-15.8-11c-7.2-5.2-14.4-10.6-21.5-16.1
	l-4.3-3.5c-18.5-14.5-35.8-30.4-51.8-47.6c2.1-6,5.2-11.6,6.7-17.7c0.8-3.5,1.2-7.2,2.3-10.6c1.3-3.6,3.2-6.9,5.5-9.9
	c8.5-11.9,18.9-22.2,30.7-30.8c12.4-8.9,26.7-16,37.9-26.1c4.5-4,8.4-8.6,11.6-13.7c0.2-0.3,0.4-0.6,0.5-1c0.9-1.8,1.5-3.7,1.8-5.7
	c0.8-4.5,0.7-9.4,1.1-13.7c13.6,2.4,27.4,2.8,41.1,1.2c16-1.8,31.5-6.2,47.5-7.9c1.2-0.1,2.4-0.3,3.6-0.4c5.1-0.4,10.2-0.5,15.4-0.4
	c4.3,0,8.6,0.2,12.9,0.3l47.2,1.6c5.2,0.2,10.6,0.4,15.4,2.3c5.8,2.3,10.4,6.8,14.1,11.8c0.5,0.6,0.9,1.3,1.4,1.9
	c3.1,4.5,5.5,9.3,7.3,14.4c0.2,0.5,0.4,1,0.5,1.6c0.5,1.4,0.8,2.8,1.2,4.2c0.3,1.1,0.5,2.2,0.7,3.3c1.1,5.5,1.8,11.2,3.5,16.5
	c0.1,0.4,0.3,0.8,0.4,1.2c2.1,5.9,5.6,11.1,8.2,16.7c1.9,4.1,3.3,8.3,4.3,12.7C575.7,546.6,575.7,555.7,573.8,564.5z"/>
<linearGradient id="SVGID_3_" gradientUnits="userSpaceOnUse" x1="446.9584" y1="24.6386" x2="438.9584" y2="532.6386">
	<stop  offset="0" style="stop-color:#B7B3FF"/>
	<stop  offset="1" style="stop-color:#574DFF"/>
</linearGradient>
<path class="st4" d="M430.3,206.7c-4.2-3.4-10.3-0.9-15.3,1.3c-4.1,1.8-8.4,3.4-12.8,4.6c-0.9,0.3-1.9,0.4-2.8,0.3
	c-2-0.5-2.8-2.9-4.3-4.3c-2.6-2.5-6.8-1.9-10.2-0.5s-6.6,3.3-10.2,3c-3.8-0.3-7.1-3.1-11-3.2c-6.8-0.2-12.5,8.2-18.9,6
	c-3.9-1.4-7-6.5-10.9-5c-3,1.1-3.3,5.3-5.1,8c-2.1,3.2-6.3,4-9.8,5.5c-11.2,4.4-18.6,16.9-17.1,28.8c0.8,6.6,4,12.6,6.1,18.9
	c6.3,18.3,4.1,38.9,12,56.6c1-0.9,1.6-1.3,2.5-2.2c-2.5,5.2-3,11.1-1.3,16.6c0.8,2.8,2.2,5.4,3.2,8.1c1.1,3,1.9,6.1,2.6,9.3
	l8.7,38.4c3.4,15,6.8,30,7.4,45.4c0.4,10-0.4,20-2.3,29.8c15.8-2.6,30.2-9.6,46.2-9.5c5.9,0,11.7,1,17.5,1.8
	c16.9,2.4,34,3.5,51.1,3.5c2.7,0.2,5.3-0.2,7.8-1.1c2.2-0.9,4-2.6,6.1-3.8c4.1-2.4,9-3,13.7-3c21.4-0.4,42,7.4,63.3,10.2
	c8.4-17.6,8.9-38.7,2.5-57.1c-1.9-5.5-4.5-10.8-5.2-16.5c-0.3-3.5-0.4-7.1-0.2-10.6c0-9.1-1.7-18.1-4.8-26.6
	c-1.2-3.3-2.7-6.7-2.6-10.3s1.9-6.9,3.6-10c3.5-6.4,7-12.9,11.9-18.3c5-5.6,11.4-9.8,17.6-14l15.4-10.4
	c-2.1-13.3-4.8-27.4-10.5-39.6c-5.7-12.3-14.1-23.5-25.5-30.7c-3.9-2.3-7.9-4.3-12.1-6c-5.8-2.5-11.9-4.6-18.3-5
	c-7.2-0.4-14.3,1.5-21.4,2.7C474.4,221.3,448,220.8,430.3,206.7z"/>
<path class="st1" d="M599,438l-7.3,9.3l-13.8,17.5l-16,20.2l-4.5,5.6h-8.7L334,490.8L199.5,491h-6c-0.8-2.5-1.5-5-2.2-7.6
	c-1-3.7-1.9-7.5-2.6-11.3c-0.2-0.7-0.3-1.5-0.4-2.2L237,438l18.3-0.1l0,0l56.1-0.3l0,0l31.3-0.2h5.7h3.6l0,0l20.9-0.1l0,0l159.1-0.9
	l0,0l8.1,0l0,0h3.5l9.4,0l34.8-0.2l6.7-2.5l0.5,0.5L599,438z"/>
<path class="st5" d="M596,433l-0.8,1l-5.5,6.4l-11.2,13.3l-23.6,27.8l-208.8-5.3l-157.5-4c-0.2-0.7-0.3-1.5-0.4-2.2
	c-2.4-12.8-3.4-25.9-3.2-38.9l17.5-8.9l4-2.1l31.1-16l27.3-14l71.3,9.3l15.8,2l7.1,0.9l10.5,1.4l0.9,0.1L534.3,425l18.1,2.4
	l10.6,1.4l32.8,4.3L596,433z"/>
<path class="st1" d="M562,481l-0.2,3.9l-1,22.2l-5.4,122l-1.1,26.4l-3,67.8l-1.7,38.3l-6.1-1.9c-3.2-1-6.3-2-9.5-3.1l14.6-266
	l0.3-5.6l6.4-2L562,481z"/>
<path class="st1" d="M200,480.7l-0.4,10.3l-0.7,15c-1.9-4.7-3.7-9.6-5.2-14.5l-0.2-0.5c-0.8-2.5-1.5-5-2.2-7.6L200,480.7z"/>
<ellipse class="st6" cx="461.5" cy="267.5" rx="46" ry="62"/>
<ellipse class="st7" cx="461.5" cy="267.5" rx="46" ry="62"/>
<circle class="st6" cx="468" cy="230" r="64"/>
<path class="st8" d="M469.3,131.4c-3.9,0.3-7.8,0.9-11.6,1.8c-10.1,2.5-18.9,7.9-27.4,13.3c-3.8,2.4-7.8,4.9-10.1,8.5
	c-4.3,6.4-2.6,14.4-5,21.5c-1.2,3.6-3.5,6.9-5.5,10.2c-5.3,9.2-8.1,19.4-10.8,29.4c-0.6,2.1-0.7,4.9,1.5,5.7
	c1.3,0.3,2.7,0.1,3.9-0.4c7.2-2.4,16.3-3,21.6,1.8s4.9,13.3,11.2,17c7.3,4.2,18.6-0.9,25.2,4.1c2.8,2.1,3.8,5.6,6.1,8.1
	c5.4,6,15.7,5.7,24.3,4.5c4.9-0.7,11-1.2,14,2.3c1.4,1.6,1.8,3.9,3.5,5.4c3,2.7,8.5,1.3,11.4-1.4c2.9-2.8,4.3-6.5,6.8-9.6
	c4.8-6,13.1-9.3,18-15.2c4.1-5,5.3-11.3,6.5-17.3l4.2-22.4c1.7-9.1,3.2-19-1.9-27c-1.8-2.9-4.4-5.4-6-8.3c-1-2-1.6-4.1-2.9-6
	c-1.4-2-3.2-3.7-5.1-5.2l-9.9-8.2c-3.4-3-7-5.6-10.8-8C506.5,127.7,485.3,129.9,469.3,131.4z"/>
<path class="st6" d="M258.5,296.2c-2.4,2.5-4.6,5.2-7.1,7.6c-2.2,2-4.6,3.9-7,5.6c-3.9,2.9-7.8,6-11.5,9.1
	c-3.9,3.1-7.4,6.6-10.5,10.5c-5.3,7.2-7.9,16.1-12.9,23.5c-4.4,6.6-10.6,11.8-15.1,18.3c-2,2.7-3.4,5.8-4.3,9.1
	c-0.7,3.2-1,6.4-0.9,9.6c-0.1,5.3-0.2,10.6,0.9,15.8c1.1,5.2,3.5,10.3,7.5,13.6c3.8,3.1,8.6,4.6,13.4,5.8c2.5,0.6,5.1,1.2,7.5,0.2
	c1.7-0.9,3.2-2.1,4.3-3.7l12.2-14c8.1-9.4,16.6-19,27.8-24.5c3.5-1.7,7.2-3,10.7-4.7c14.9-7.2,25.4-21.9,29.5-37.9
	c1-3.9,1.6-7.9,2.3-11.9l1.8-10.9c0.1-0.5,0.1-1.1,0-1.7c-0.3-0.6-0.7-1.1-1.3-1.5c-8.5-6.8-16.4-14.3-23.7-22.4
	c-1.7-1.9-3.4-4.5-5.4-6.2c-2.5-2-2.3-1.9-5.4,0C266.5,288.6,262.2,292.2,258.5,296.2z"/>
<path class="st1" d="M341.7,369c-0.4-1-1.5-1.4-2.5-1c-1,0.4-1.4,1.5-1,2.5c0,0,0,0.1,0.1,0.1l-1,0.5l29.8,61.1l5.4-2.6l-29.8-61.2
	L341.7,369z"/>
<linearGradient id="SVGID_4_" gradientUnits="userSpaceOnUse" x1="218.1106" y1="429.2557" x2="276.1106" y2="288.5891">
	<stop  offset="0" style="stop-color:#BC8F95"/>
	<stop  offset="1" style="stop-color:#A1616A"/>
</linearGradient>
<path class="st9" d="M258.5,296.2c-2.4,2.5-4.6,5.2-7.1,7.6c-2.2,2-4.6,3.9-7,5.6c-3.9,2.9-7.8,6-11.5,9.1
	c-3.9,3.1-7.4,6.6-10.5,10.5c-5.3,7.2-7.9,16.1-12.9,23.5c-4.4,6.6-10.6,11.8-15.1,18.3c-2,2.7-3.4,5.8-4.3,9.1
	c-0.7,3.2-1,6.4-0.9,9.6c-0.1,5.3-0.2,10.6,0.9,15.8c1.1,5.2,3.5,10.3,7.5,13.6c3.8,3.1,8.6,4.6,13.4,5.8c2.5,0.6,5.1,1.2,7.5,0.2
	c1.7-0.9,3.2-2.1,4.3-3.7l12.2-14c8.1-9.4,16.6-19,27.8-24.5c3.5-1.7,7.2-3,10.7-4.7c14.9-7.2,25.4-21.9,29.5-37.9
	c1-3.9,1.6-7.9,2.3-11.9l1.8-10.9c0.1-0.5,0.1-1.1,0-1.7c-0.3-0.6-0.7-1.1-1.3-1.5c-8.5-6.8-16.4-14.3-23.7-22.4
	c-1.7-1.9-3.4-4.5-5.4-6.2c-2.5-2-2.3-1.9-5.4,0C266.5,288.6,262.2,292.2,258.5,296.2z"/>
<path class="st6" d="M603.2,408.9c-0.1,6.4-0.3,13-3,18.8c-1.1,2.5-2.9,5-5.6,5.8c-1.6,0.4-3.3,0.4-4.9,0.2
	c-19.6-1.7-39.4-0.2-58.5,4.6c5.1-10.2,2.2-22.4,3.6-33.8c0.4-3.1,1.1-6.1,1.4-9.2c1-11-3.7-21.7-5.9-32.5c-1.9-9.4-1.9-19.1,0-28.5
	c0.4-2.4,1.2-4.7,2.5-6.9c1.5-2,3.4-3.7,5.6-4.9c8.1-4.6,17.7-5.1,26.8-4.5c6.1,0.4,18.4-0.2,23.5,3.6c5.6,4.1,7.4,18,8.9,24.4
	c2.3,9.8,3.8,19.8,4.6,29.9C603.1,386.8,603.3,397.9,603.2,408.9z"/>
<polygon class="st10" points="245,431 281,455 443,449 336,431 "/>
<linearGradient id="SVGID_5_" gradientUnits="userSpaceOnUse" x1="334.9097" y1="185.5923" x2="258.9097" y2="370.5923">
	<stop  offset="0" style="stop-color:#B7B3FF"/>
	<stop  offset="1" style="stop-color:#574DFF"/>
</linearGradient>
<path class="st11" d="M292.5,240.3c-5.9,5.2-10.9,11.4-16.5,16.9c-7.7,7.6-16.4,14.1-25.1,20.5c6.3,1.8,11.3,6.7,13,13.1
	c0.4,1.5,0.6,3,1,4.4c1,3.4,3.2,6.4,5.6,9c10.1,11.4,24.3,19.9,30.3,34c0.2,0.7,0.6,1.3,1.2,1.7c0.5,0.2,1,0.3,1.6,0.2
	c5.4-0.6,9.6-4.9,13-9.2c7.2-9,13.4-18.9,17-29.9c3.5-11,4.1-23.1,0.3-34c-1.9-5.4-4.9-10.4-7.9-15.3c-2.6-4.3-5.2-8.6-7.8-12.9
	c-1.4-2.3-3.1-6.9-5.7-8C306.6,228.4,296.1,236.6,292.5,240.3z"/>
<linearGradient id="SVGID_6_" gradientUnits="userSpaceOnUse" x1="562.1334" y1="225.1005" x2="556.1334" y2="369.1005">
	<stop  offset="0" style="stop-color:#B7B3FF"/>
	<stop  offset="1" style="stop-color:#574DFF"/>
</linearGradient>
<path class="st12" d="M587,304.9l8.5,20c-18.8-6.6-39.6-3.7-55.9,7.8c-4.8,3.5-9.3,7.8-11.5,13.4c-2.2,0.4-4.5-0.5-5.8-2.3
	c-1.3-1.8-2-3.9-2.1-6.1c-0.8-7.7,2.1-15.2,5-22.4c1.3-3.4,2.7-6.8,5.1-9.5s5.5-4.5,8.7-6.2c10.1-5.6,20.6-10.2,31.5-13.9
	c4.6-1.5,9.4-1.5,12,2.8C585.5,293.6,584.7,299.5,587,304.9z"/>
<path class="st6" d="M245.2,364.9c2.1,1.7,4,3.7,6.2,5.3c2.3,1.6,4.8,3,7.4,4.1l9.9,4.7c3.1,1.6,6.3,2.9,9.6,3.9
	c4.2,1.1,8.6,1.2,12.9,2.3c5.4,1.3,10.2,4.1,15.5,5.7c5.3,1.6,11.4,1.9,15.8-1.5c2.8-2.1,4.8-5.5,8.2-6c2.2-0.3,4.3,0.8,6.3,1.8
	l25.7,13.5c3.5,1.8,7.1,3.8,8.9,7.3s0.6,8.7-3.2,9.6c-1.3,0.2-2.7,0.2-4,0.2c-1.3,0.2-2.8,0.9-2.9,2.3c0,0.8,0.2,1.6,0.6,2.4
	c1.1,2.6,1.5,5.8,0.1,8.4c-1.3,2.6-4.6,4.1-7.3,3c0.5,3.9-3.8,6.6-7.5,7.6c-9.5,2.6-19.5,1-29.2-0.6c-3.8-0.6-7.7-1.3-11.1-3
	c-1.7-0.8-3.2-1.9-4.9-2.6c-4.6-2-9.9-1.8-14.9-1.7c-23.3,0.4-46.4-3.9-69.3-8.2c-4.3-0.8-8.6-1.6-12.3-4c-7-4.6-9.6-13.9-8.4-22.2
	s5.3-15.8,9.5-23.1l5.4-9.4c0.7-1.4,1.7-2.7,2.9-3.8C222.8,354.9,238.4,359.5,245.2,364.9z"/>
<linearGradient id="SVGID_7_" gradientUnits="userSpaceOnUse" x1="279.4707" y1="457.9109" x2="285.4707" y2="396.5776">
	<stop  offset="0" style="stop-color:#BC8F95"/>
	<stop  offset="1" style="stop-color:#A1616A"/>
</linearGradient>
<path class="st13" d="M245.2,364.9c2.1,1.7,4,3.7,6.2,5.3c2.3,1.6,4.8,3,7.4,4.1l9.9,4.7c3.1,1.6,6.3,2.9,9.6,3.9
	c4.2,1.1,8.6,1.2,12.9,2.3c5.4,1.3,10.2,4.1,15.5,5.7c5.3,1.6,11.4,1.9,15.8-1.5c2.8-2.1,4.8-5.5,8.2-6c2.2-0.3,4.3,0.8,6.3,1.8
	l25.7,13.5c3.5,1.8,7.1,3.8,8.9,7.3s0.6,8.7-3.2,9.6c-1.3,0.2-2.7,0.2-4,0.2c-1.3,0.2-2.8,0.9-2.9,2.3c0,0.8,0.2,1.6,0.6,2.4
	c1.1,2.6,1.5,5.8,0.1,8.4c-1.3,2.6-4.6,4.1-7.3,3c0.5,3.9-3.8,6.6-7.5,7.6c-9.5,2.6-19.5,1-29.2-0.6c-3.8-0.6-7.7-1.3-11.1-3
	c-1.7-0.8-3.2-1.9-4.9-2.6c-4.6-2-9.9-1.8-14.9-1.7c-23.3,0.4-46.4-3.9-69.3-8.2c-4.3-0.8-8.6-1.6-12.3-4c-7-4.6-9.6-13.9-8.4-22.2
	s5.3-15.8,9.5-23.1l5.4-9.4c0.7-1.4,1.7-2.7,2.9-3.8C222.8,354.9,238.4,359.5,245.2,364.9z"/>
<path class="st6" d="M550.5,382.2c-5.2,2.5-11.2,2.7-16.6,4.6s-10.1,5.3-15,8.1c-13,7.3-28,10-42.7,12.6c-8.9,1.6-18,3.2-27,2.8
	c-12.2-0.5-23.9-4.6-35.7-7.6s-24.4-5.1-36.1-1.7c-12.4,3.8-22.2,13.2-26.5,25.4c-2.5,7.2-2.8,14.9-2.3,22.5
	c2.5,1.8,5.9-0.7,7.2-3.5c1.3-2.8,2.1-6.1,4.7-7.7c4.5,1.5,5.6,7.5,9.3,10.5c2.3,1.9,5.4,2.4,8.4,2.8l15.2,2.2
	c3.7,0.5,7.9,0.9,10.6-1.7c1.3-1.3,2-3,3.2-4.3c2.4-2.7,6.5-3.1,10.1-2.8c11.2,1.1,21.8,8.4,32.9,6.7c3.8-0.6,7.4-2.2,11.1-3.5
	c21.7-7.7,45.8-3,68.4-7.4c8.6-1.7,16.9-4.6,25.1-7.8c4.5-1.7,9-3.5,12.8-6.3c7.3-5.6,11.2-14.6,10.4-23.8
	c-0.8-6.9-4.3-13.2-9.6-17.6c-1.8-1.5-4.1-4.4-6.2-5.3C557.8,377.5,553.9,380.6,550.5,382.2z"/>
<g class="st14">
	<path d="M521.2,254.5c-1.7-1.5-2.1-3.7-3.5-5.4c-3-3.5-9.1-3-14-2.3c-8.6,1.2-19,1.5-24.3-4.5c-2.3-2.6-3.3-6-6.1-8.1
		c-6.6-5-17.9,0.1-25.2-4.1c-6.3-3.7-5.9-12.3-11.2-17c-5.3-4.8-14.4-4.1-21.6-1.8c-1.2,0.6-2.6,0.7-3.9,0.4
		c-2.3-0.8-2.1-3.6-1.5-5.7c2.7-10.1,5.5-20.2,10.8-29.4c1.9-3.4,4.2-6.6,5.5-10.2c2.2-6.3,1.1-13.5,3.9-19.5c-3.1,2-6,4.2-7.9,7
		c-4.3,6.4-2.6,14.4-5,21.5c-1.2,3.6-3.5,6.9-5.5,10.2c-5.3,9.2-8.1,19.4-10.8,29.4c-0.6,2.1-0.7,4.9,1.5,5.7
		c1.3,0.3,2.7,0.1,3.9-0.4c7.2-2.4,16.3-3,21.6,1.8s4.9,13.3,11.2,17c7.3,4.2,18.6-0.9,25.1,4.1c2.8,2.1,3.8,5.6,6.2,8.1
		c5.4,6,15.7,5.7,24.3,4.5c4.9-0.7,11-1.2,14,2.3c1.4,1.6,1.9,3.9,3.5,5.4c3,2.7,8.5,1.3,11.4-1.4c1.9-2,3.5-4.2,4.8-6.5
		C525.8,256.3,523.1,256.1,521.2,254.5z"/>
	<path d="M539.5,243.5c-0.6,0.8-1.2,1.7-1.8,2.6c3.8-2.7,7.9-5.3,10.8-8.8c0.7-0.9,1.4-1.9,2-2.9
		C546.5,237.3,542.3,239.9,539.5,243.5z"/>
</g>
<polygon class="st1" points="741.5,441.5 744.5,728.5 758.5,726.5 755.5,441.5 "/>
<polygon class="st1" points="825.5,493.5 828.5,780.5 842.5,778.5 839.5,493.5 "/>
<path class="st1" d="M1087,638.5L1087,638.5l-0.1-5.5v-3.3l-0.5-50.5l-0.8-78.9l-0.1-6.8h-14l0.1,6.6l0.4,42.3l0.2,18.3l0,0
	l0.2,14.8l0.3,25.6l0.2,15.1l0,0v1.6l0.2,19.9l0.2,17.5l1.1-1.3c1.8-2,3.6-4.1,5.4-6.2L1087,638.5z"/>
<polygon class="st2" points="810,540 802,552 810,606.4 878,625.1 988,625.1 1054,629 1085.4,607.5 1080,570.6 1056,540 "/>
<path class="st1" d="M802,552l-4,33.2c0,0-21,65.1,148,61.1s140-17.3,140-17.3l-1-38.5c0,0,5.9,18.2-80,15.8s-166-10.5-166-10.5
	S809,601.1,802,552z"/>
<path class="st15" d="M942.8,254.2c-9.6,4.4-16.9,12.9-21.8,22.3s-7.6,19.7-10.3,30c-2.9,10.8-5.7,21.7-7.2,32.8
	c-2.6,19.7-0.7,40.5,8.4,58.2s25.8,32,45.4,35.4c7.6,1.3,15.3,1.1,23,0.3c13.8-1.5,27.4-4.5,40.6-9c13.8-4.6,28.1-11.8,34.2-25
	c3.6-7.6,3.8-16.4,3.7-24.8c-0.5-22.9-3.9-45.7-10.3-67.8c-1.8-6.4-4-12.9-7.9-18.2c-3.9-5.4-9.3-9.3-14.8-13
	C1002.3,259.6,971.5,241.1,942.8,254.2z"/>
<path class="st16" d="M942.8,254.2c-9.6,4.4-16.9,12.9-21.8,22.3s-7.6,19.7-10.3,30c-2.9,10.8-5.7,21.7-7.2,32.8
	c-2.6,19.7-0.7,40.5,8.4,58.2s25.8,32,45.4,35.4c7.6,1.3,15.3,1.1,23,0.3c13.8-1.5,27.4-4.5,40.6-9c13.8-4.6,28.1-11.8,34.2-25
	c3.6-7.6,3.8-16.4,3.7-24.8c-0.5-22.9-3.9-45.7-10.3-67.8c-1.8-6.4-4-12.9-7.9-18.2c-3.9-5.4-9.3-9.3-14.8-13
	C1002.3,259.6,971.5,241.1,942.8,254.2z"/>
<path class="st2" d="M932,380.1c2.8,3.8,6.2,7.2,10,10c9.5,6.6,21.7,7.5,33.3,7.8c9.3,0.3,19.9-0.3,25.7-7.5
	c2.6-3.3,3.8-7.4,4.9-11.5c6.5-24.9,11.2-50.2,13.9-75.8l26.5,0.1c11.5,49.1,10.5,100.1,9.5,150.5l-1.5,73.5l-17.1-1.8
	c-40.5-4.3-81.1-8.6-121.8-9.3c-23.9-0.4-47.7,0.3-71.5,2.4L881.1,408c4.8-14.4,9.7-28.9,10.8-44c1.6-21.9-4.5-45,4-65.3
	c0.7-1.6,1.5-3.3,3.1-4.2s3.5-0.6,5.3-0.4c3.4,0.5,13.6,0,16.1,2.1c3.6,3.1,1.2,3.6,0,8.6c-2.3,9-4.4,17.3-4.4,26.7
	C915.9,348.7,921.2,366.6,932,380.1z"/>
<linearGradient id="SVGID_8_" gradientUnits="userSpaceOnUse" x1="1118.8638" y1="639.5931" x2="1086.8638" y2="356.5931">
	<stop  offset="0" style="stop-color:#45A090"/>
	<stop  offset="1" style="stop-color:#70C1B3"/>
</linearGradient>
<path class="st17" d="M1087,638.5L1087,638.5c4.5-5.9,8.7-12,12.6-18.4c-2-4.3-4.2-8.5-6-12.8c-2.7-6.7-4.2-13.8-5.7-20.8
	c-0.5-2.4-1-4.8-1.5-7.2c-5.6-26.1-10.9-52.6-12-79.1c-0.1-2.2-0.2-4.4-0.2-6.6c0-0.3,0-0.6,0-1c0-2.4,0-4.8,0-7.2
	c0.1-6,0.5-12,1.2-18.1c0.1-1.2,0.3-2.4,0.4-3.5c0-0.3,0.1-0.5,0.1-0.8l68-2.5l0,0l5.7-0.2c3.9-0.1,8.1-0.4,11.3-2.6
	c5.4-3.7,6.1-11.4,6-18c-0.3-16.7-2.2-33.2-5.6-49.5c-2.6-12.3-6.3-24.8-14.5-34.2c-6.8-7.7-16.6-13.4-20.1-23
	c-1.3-3.6-1.6-7.5-3.3-10.9s-4.5-5.9-7.2-8.6c-9.3-9.2-17.1-20-22.9-31.7c-4-8.2-8.4-17.2-13.7-22.8c-0.3-0.3-0.5-0.6-0.8-0.8
	c-4.5-4.5-9.7-6.4-15.8-3.4c-1.1,0.6-2.1,1.2-3.1,1.9l0,0c-2.2,1.7-4.2,3.6-5.9,5.6c-6.2,7.1-11.6,14.8-16.1,23
	c-3.2,5.8-6,11.8-8.2,18c-1.8,4.9-3.3,9.9-4.4,15c-0.9,3.8-1.5,7.6-2.1,11.4c-2,14.4-2,29-1.7,43.5c0.3,13.4,0.9,26.8,2.1,40.1
	c0.3,3.2,0.6,6.4,1,9.6c0.7,6.4,1.6,12.7,2.7,19c0.4,2.4,0.9,4.8,1.4,7.2c0.1,0.6,0.3,1.3,0.4,1.9l0.1,0.3
	c1.3,5.6,2.3,11.2,3.1,16.9c0.1,0.7,0.1,1.4,0.2,2.1c0.2,3.3,0.1,6.5-0.1,9.8c-0.2,3.9-0.6,7.7-0.8,11.6c0,0.7,0,1.3-0.1,2
	c-0.1,2,0,3.9,0,5.8c0.2,4.7,0.8,9.3,1.7,13.9c1.7,8.5,4.6,16.8,8.7,24.4c0.4,0.7,0.8,1.4,1.2,2.1c5.1,9.1,11.5,17.4,16.2,26.6
	c4,8.3,7.1,17.1,9,26.2c0.7,3,1.3,6,1.9,9c0.9,4.8,1.8,9.6,2.6,14.5c0.1,0.5,0.2,1,0.3,1.4c1.1,6.4,2.3,12.8,3.8,19.1
	c0.9,3.7,1.9,7.3,3.1,10.8L1087,638.5z"/>
<path class="st18" d="M1073.7,559.7c0,0.9-0.1,1.8-0.1,2.7c-0.2,4.4-0.6,8.8-1.2,13.1c-0.8,5.9-2.3,11.8-4.3,17.4
	c-1.4,3.7-3.1,7.3-5.2,10.6c-1.8,3-4,5.8-6.4,8.3c-6,6.2-14.6,8.2-23,10.9c-3.8,1.1-7.6,2.6-11.1,4.5c-0.6,0.3-1.3,0.7-1.8,1.1
	l-10.5,6.9c-3.3,2.2-6.6,4.4-8.8,7.6c-0.4,0.5-0.7,1.1-1,1.7c-1.4,2.9-2.5,6-3.1,9.2c-5.4,22.7-10.9,45.3-14.6,68.3
	c-0.3,1.5-0.5,3-0.8,4.6l-0.1,0.5c0-0.1-0.1-0.2-0.2-0.3c-26.8,16.2-54.5,30.8-83.1,42.5l-6.2-52c-0.6-4.2-0.9-8.5-0.6-12.8
	c0.6-6.7,3.3-13.1,4.1-19.8c0.7-6.6-0.5-13.2-3.6-19.1c-1.2-2.3-2.7-4.5-2.9-7.1s1.2-4.9,3.8-5.1c2-2.2,2.2-5.3,1.6-8.3
	c-0.3-1.6-0.8-3.1-1.4-4.6c-1.7-4.2-3.8-8.7-2.4-13c0.4-0.8,0.6-1.6,0.5-2.5c0-0.1,0-0.1,0-0.2c-0.3-1.1-1.7-1.6-2.4-2.6
	c-1.3-1.8,0-4.2,0.8-6.2c0.8-2.2,1.2-4.5,1.3-6.8c0.1-1.3,0.2-2.6,0.3-3.9c0.2-1.7,0.5-3.4,0.9-5.1c2.4-9.6,8.3-17.9,16.4-23.5
	c3.9-2.6,8.2-4.5,12.2-7c4.1-2.7,7.9-5.7,11.6-9c8.8-7.3,18-14.2,27.5-20.7c10.2-7,20.8-13.4,31.7-19.3c2.3-1.3,4.7-2.5,7-3.7
	c2.5-1.3,5.1-2.6,7.7-3.8c8.2-3.9,17.6-2.5,26.7,0.2c3.8,1.1,7.6,2.4,11.2,3.6c3.6,1.2,7,2.7,10.2,4.6c8.1,4.7,14.7,11.7,17.5,20.6
	c0,0.1,0,0.1,0,0.2C1073.7,547.9,1073.8,553.8,1073.7,559.7z"/>
<path class="st7" d="M1073.7,559.7c0,0.9-0.1,1.8-0.1,2.7c-0.2,4.4-0.6,8.8-1.2,13.1c-0.8,5.9-2.3,11.8-4.3,17.4
	c-1.4,3.7-3.1,7.3-5.2,10.6c-1.8,3-4,5.8-6.4,8.3c-6,6.2-14.6,8.2-23,10.9c-3.8,1.1-7.6,2.6-11.1,4.5c-0.6,0.3-1.3,0.7-1.8,1.1
	l-10.5,6.9c-3.3,2.2-6.6,4.4-8.8,7.6c-0.4,0.5-0.7,1.1-1,1.7c-1.4,2.9-2.5,6-3.1,9.2c-5.4,22.7-10.9,45.3-14.6,68.3
	c-0.3,1.5-0.5,3-0.8,4.6l-0.1,0.5c0-0.1-0.1-0.2-0.2-0.3c-26.8,16.2-54.5,30.8-83.1,42.5l-6.2-52c-0.6-4.2-0.9-8.5-0.6-12.8
	c0.6-6.7,3.3-13.1,4.1-19.8c0.7-6.6-0.5-13.2-3.6-19.1c-1.2-2.3-2.7-4.5-2.9-7.1s1.2-4.9,3.8-5.1c2-2.2,2.2-5.3,1.6-8.3
	c-0.3-1.6-0.8-3.1-1.4-4.6c-1.7-4.2-3.8-8.7-2.4-13c0.4-0.8,0.6-1.6,0.5-2.5c0-0.1,0-0.1,0-0.2c-0.3-1.1-1.7-1.6-2.4-2.6
	c-1.3-1.8,0-4.2,0.8-6.2c0.8-2.2,1.2-4.5,1.3-6.8c0.1-1.3,0.2-2.6,0.3-3.9c0.2-1.7,0.5-3.4,0.9-5.1c2.4-9.6,8.3-17.9,16.4-23.5
	c3.9-2.6,8.2-4.5,12.2-7c4.1-2.7,7.9-5.7,11.6-9c8.8-7.3,18-14.2,27.5-20.7c10.2-7,20.8-13.4,31.7-19.3c2.3-1.3,4.7-2.5,7-3.7
	c2.5-1.3,5.1-2.6,7.7-3.8c8.2-3.9,17.6-2.5,26.7,0.2c3.8,1.1,7.6,2.4,11.2,3.6c3.6,1.2,7,2.7,10.2,4.6c8.1,4.7,14.7,11.7,17.5,20.6
	c0,0.1,0,0.1,0,0.2C1073.7,547.9,1073.8,553.8,1073.7,559.7z"/>
<path class="st1" d="M978.7,394c-0.4-1-1.5-1.4-2.5-1c-1,0.4-1.4,1.5-1,2.5c0,0,0,0.1,0.1,0.1l-1,0.5l29.8,61.1l5.4-2.6l-29.8-61.2
	L978.7,394z"/>
<circle class="st15" cx="1016" cy="266" r="64"/>
<linearGradient id="SVGID_9_" gradientUnits="userSpaceOnUse" x1="953.4699" y1="183.6768" x2="1100.5299" y2="183.6768">
	<stop  offset="0" style="stop-color:#24222A"/>
	<stop  offset="1" style="stop-color:#464353"/>
</linearGradient>
<path class="st19" d="M1100.4,226.4c-0.3-5.1-1.1-10.1-2.3-15.1c-3.8-16.2-10.6-32.1-22.5-43.7c-0.7-2.8-1.6-5.6-2.6-8.4
	c0-0.1,0-0.1-0.1-0.2c-3.5-9.7-8.6-18.7-15.1-26.8c-3.8-4.7-8.6-9.3-14.6-9.4c-1.7-0.1-3.5,0.2-5-0.5c-1.1-0.7-2.1-1.7-2.8-2.9
	c-6-7.6-15.8-11.3-25.4-9.5l-0.6,0.1c-0.3,0.1-0.7,0.1-1,0.2s-0.8,0.2-1.3,0.4c0.5,0.8,0.9,1.5,1.3,2.3c1.2,2.1,2.3,4.3,3.3,6.5
	c0.8,1.8,1.6,3.7,2.3,5.6c-10.2,1.2-18.6,8.4-26.2,15.4l-17.9,16.3c0,0-0.1,0.1-0.1,0.1l-0.5,0.5c-0.1,0.1-0.3,0.3-0.4,0.4
	c0,0-0.1,0.1-0.1,0.1c-0.2,0.2-0.3,0.3-0.4,0.5c-0.2,0.3-0.5,0.6-0.7,1c-0.1,0.2-0.2,0.3-0.3,0.5c0,0-0.1,0.1-0.1,0.1
	c-0.1,0.1-0.1,0.3-0.2,0.4c0,0,0,0,0,0.1c0,0.1-0.1,0.2-0.1,0.3c-0.2,0.7-0.1,1.5,0.2,2.1l11.8,0.1h1.4c0.1,1.6,0.1,3.2,0.2,4.8
	c-1.9,1.4-3.7,2.9-5.4,4.5c-1.9,1.7-3.6,3.6-5.3,5.6c-10.7,12.9-16.2,29.5-16.8,46.3c0,0.5,0,1,0,1.5c0,1.5,0,3.1,0,4.6
	c0,1,0.1,2,0.2,3c0,1.3,0.3,2.6,1,3.7c0.1,0.1,0.2,0.2,0.3,0.4c0.6,0.7,1.3,1.2,2.1,1.6l0.9,0.4l0,0c0.4,0.2,0.8,0.4,1.2,0.6
	c3.8,2.1,6,6.2,9.4,8.9c0.2,0.1,0.4,0.3,0.6,0.4l0.5,0.3l0.3,0.2l0.4,0.2c0.2,0.2,0.5,0.3,0.8,0.4l0,0l0,0l0.5,0.2h0.1l0,0
	c0.4,0.2,0.8,0.4,1.2,0.5l0.6,0.2l0.2,0.1c0.2,0,0.3,0.1,0.5,0.1c0.3,0.1,0.7,0.2,1,0.3l1,0.2c0.4,0.1,0.8,0.1,1.2,0.2l0.6,0.1
	l0.6,0.1c1,0.1,1.9,0.1,2.9,0.1l0,0c3,0,6.1-0.2,9.1-0.6l25.5-3c5.8-0.7,11.7-1.3,17.4-0.2c4.8,1,9.3,3.3,14,4.9
	c1.1,0.4,2.1,0.7,3.2,1c0.4,0.1,0.8,0.2,1.2,0.3l0.5,0.1l1.3,0.3c0.5,0.1,0.9,0.2,1.4,0.3c0.7,0.1,1.3,0.3,1.9,0.4
	c0.4,0.1,0.9,0.2,1.3,0.2h0.1l1.3,0.2h0.3l0,0l1,0.1c0.5,0.1,0.9,0.1,1.4,0.2c1,0.1,2,0.2,3.1,0.3c1.7,0.2,3.3,0.3,5,0.4l1.7,0.1
	l1.7,0.1l5,0.2h0.2h0.7c2.1,0.1,4.2,0,6.2-0.3c0.4-0.1,0.7-0.1,1.1-0.3s0.6-0.2,1-0.3c3.8-1.4,6.5-4.8,8.4-8.3
	c0.4-0.8,0.8-1.5,1.1-2.3s0.7-1.5,0.9-2.3c0.3-1,0.7-2,0.9-3c0.1-0.3,0.2-0.5,0.2-0.8c0.1-0.3,0.2-0.8,0.3-1.3
	c0.3-1.1,0.4-2.3,0.6-3.5c0-0.4,0.1-0.8,0.1-1.1c0.1-1,0.2-1.9,0.2-2.9c0-0.7,0-1.5,0-2.2C1100.5,228.5,1100.4,227.4,1100.4,226.4z
	 M1074.8,166.7c-0.8-0.8-1.6-1.5-2.5-2.2C1073.3,165.1,1074.1,165.8,1074.8,166.7L1074.8,166.7z"/>
<linearGradient id="SVGID_10_" gradientUnits="userSpaceOnUse" x1="816.3696" y1="655.1667" x2="878.3696" y2="325.1667">
	<stop  offset="0" style="stop-color:#45A090"/>
	<stop  offset="1" style="stop-color:#70C1B3"/>
</linearGradient>
<path class="st20" d="M893.2,262.5c-7.5-0.9-15-4.2-22.4-2.6c-4.7,1-8.7,3.9-12.4,6.9c-13.8,11.1-25.6,24.6-34.8,39.8
	c-1.6,2.3-2.6,4.8-3.2,7.5c-0.5,3.1,0.4,6.3,1.4,9.3c6.8,20.2,21.5,37.1,28.1,57.4c7,21.3,4.6,44.6-0.6,66.5
	c-6.4,27-16.8,52.8-30.8,76.7c-1.9,3.6-4.3,6.8-7.1,9.7c-3.6,3.5-8.5,6-10.7,10.6c-1,2-1.3,4.3-2,6.4c-2,6-6.8,11.1-7.3,17.5
	c-0.3,4.8,1.9,9.4,3.3,14c2.3,7.9,2.1,16.3-0.7,24.1c-5.1,13.9-18.3,26.5-14.5,40.8c8.6-2.5,18.1-5.7,22.2-13.7
	c1.4-2.8,2.1-6.2,4.5-8.2c4.8-4.1,13-0.4,18.1-4.2c3.9-2.9,4-8.7,2.3-13.2s-4.7-8.5-6-13.1c-2.3-8.3,1.4-17.2,0.7-25.8
	c-0.3-4-1.5-7.8-1.6-11.8c-0.2-7.7,4.1-15,9.8-20.3s12.7-8.7,19.6-12.2l26.2-13c9.5-4.7,19.9-10.4,23-20.5c1.2-3.8,1.2-7.8,1.3-11.8
	c0.9-60.5,16-119.8,31.1-178.4c2.3-9.1,4.7-18.2,8.2-26.9s10.3-15.7,13.8-23.8C932.5,247.7,914.1,265.1,893.2,262.5z"/>
<path class="st18" d="M1037.4,642.1c2.3,14,3.7,28.3,4.8,42.5c-18,14.9-37.4,27.9-57.1,39.9c-1.1,0.7-2.3,1.4-3.4,2l-0.1,0.5
	c0-0.1-0.1-0.2-0.2-0.3c-1.5-3.3-4.2-5.9-7.5-7.4c-7.4-15.5-14.8-31-22.1-46.5c-4-8.4-8-16.8-10-25.8c0-0.2-0.1-0.4-0.1-0.6
	c-1.5-7-1.9-14.3-2.9-21.4c-0.5-4.1-1.4-8.1-2.7-11.9c-1.2-3.5-2.8-6.8-4.3-10.2c-1.8-4.2-3.3-8.4-3.4-12.9c0-1.4,0.1-3-0.6-4.2
	c-0.7-1-1.7-1.9-2.7-2.6c-2.7-2.4-4-6-3.4-9.5c-6,0.3-9.4,6.8-11.8,12.2c-2.2,5.3-5.1,10.4-8.6,15c-2.5,3.3-5.8,6-9.5,7.9
	c-0.3,0.2-0.7,0.3-1,0.5c-8.3,3.7-18.1,2.4-27.2,0.7c-7.9-1.5-16.1-3.3-22.5-8.2l-0.7-0.5c-1.9-1.6-3.6-3.4-5-5.3
	c-5.3-7.3-7.7-16.9-9-26c-0.1-0.9-0.2-1.7-0.3-2.6c-0.9-6.5-1.2-13-0.8-19.5c0.1-1.6,0.3-3.2,0.5-4.8c0.1-1,0.3-2.1,0.5-3.1
	c0,0,0-0.1,0-0.1c0.3-1.7,0.5-3.3,0.8-5c1-5.7,2-11.5,5-16.4c2-3,4.5-5.7,7.4-7.9c1.1-0.8,2.2-1.7,3.3-2.4c1.8-1.3,3.7-2.5,5.6-3.6
	c4.8-2.9,9.8-5.3,15-7.3c1.2-0.5,2.5-0.9,3.8-1.4c4.9-1.7,10.2-2.2,15.3-1.2c4.5,0.7,9.1,0.9,13.7,0.8c11.7-0.2,23.5-2.5,35.2-3.9
	c16.3-2,33.7-2.2,47.9,6c0.7,0.4,1.3,0.8,2,1.2c7,4.6,12.6,11,17.2,18.2c1,1.5,1.9,3.1,2.7,4.6c2,3.6,3.8,7.3,5.4,11.1
	c0.9,1.9,1.5,3.9,1.5,6c0,0.4-0.1,0.8-0.2,1.2c-0.3,1.4-0.8,2.8-1,4.2c-0.6,5.5,4,10,5.7,15.2c1.1,3.4,1,7,1.6,10.6
	c0.9,5,3.4,9.5,5.6,14c3.5,7.2,6.5,14.7,8.9,22.4c1.7,5.3,3.2,10.7,4.5,16.2c0.4,1.8,0.8,3.5,1.2,5.3
	C1035.7,632.6,1036.6,637.3,1037.4,642.1z"/>
<polygon class="st1" points="1144,494 1144,501 1142.7,501 1141.3,501 1125.2,500.8 1085.6,500.2 1074.4,500.1 1071.6,500.1 
	1054.9,499.8 1031.3,499.5 981.4,498.9 894.8,497.8 863.6,497.4 851.1,497.2 839.5,497.1 832.3,497 825.5,496.9 775,496.2 761,496 
	758,496 756,490.9 741.6,453.8 739,447 741,439 750,445 755.5,445.7 846.7,457 863.8,459.2 900.2,463.7 935.7,468.1 949.7,469.8 
	1032.1,480.1 1055.2,483 1074.3,485.3 1142.1,493.8 "/>
<polygon class="st5" points="741,439 759,486 1144,494 1144,443 "/>
<polygon class="st1" points="761,491 764,778 778,776 775,491 "/>
<path class="st1" d="M1142.7,501h-1.4c-2.3,17.9-6.2,35.6-11.5,52.8l-4.6-53l-0.2-2.3l16.8-1.9l0.6-0.1L1142.7,501z"/>
<polygon class="st10" points="1088,467 941.5,470 896,455 1018,448 "/>
<path class="st15" d="M904.2,408.7c-1.6,0.6-2.9,1.6-4,2.9c-0.8,1.4-1.3,2.9-1.5,4.5l-2.5,14.7c-0.4,1.3-0.3,2.8,0.2,4.1
	c0.6,1.2,2.5,1.9,3.4,0.9c-0.1,2.9,0.1,5.9,1.8,8.3s5.2,3.6,7.5,1.9c1.4,2.3,4.4,3,6.7,1.6c0.2-0.1,0.4-0.3,0.6-0.5
	c-1.4,0.5-1.5,2.6-0.5,3.8c1.1,1,2.6,1.6,4.1,1.6c17.6,2.5,35.5,0.2,51.9-6.5c1.5-0.6-2.5-19.8-2.9-21.7c-1-4.6-1.5-10.2-5.4-13.3
	c-9.3-7.4-25.8-8.9-37.2-8C918.8,403.4,911.2,405.4,904.2,408.7z"/>
<path class="st7" d="M1053.3,410.9c-36.2,0.7-73.1,1.3-107.6-9.5c3.3,12.8,3.1,26.2-0.7,38.9l169.1,14c7.2,0.6,36.9,4,43.9,2.3
	s-58.7-23.3-56-30c7.3-18.4,31.7-29.2,14.1-29.9C1093.9,395.7,1075.6,410.5,1053.3,410.9z"/>
<linearGradient id="SVGID_11_" gradientUnits="userSpaceOnUse" x1="1049.5753" y1="461.6796" x2="1063.3831" y2="388.1866">
	<stop  offset="0" style="stop-color:#45A090"/>
	<stop  offset="1" style="stop-color:#70C1B3"/>
</linearGradient>
<path class="st21" d="M1054.3,412.9c-36.2,0.7-73.1,1.3-107.6-9.5c3.3,12.8,3.1,26.2-0.7,38.9l169.1,14c7.2,0.6,36.9,4,43.9,2.3
	s5.3-10.3,8-17c7.3-18.4-32.3-42.2-49.9-42.9C1094.9,397.7,1076.6,412.5,1054.3,412.9z"/>
<path class="st15" d="M996.8,415.7c1.6,0.6,2.9,1.6,4,2.9c0.8,1.4,1.3,2.9,1.5,4.5l2.5,14.7c0.4,1.3,0.3,2.8-0.2,4.1
	c-0.6,1.2-2.5,1.9-3.4,0.9c0.1,2.9-0.1,5.9-1.8,8.3s-5.2,3.6-7.5,1.9c-1.4,2.3-4.4,3-6.7,1.6c-0.2-0.1-0.4-0.3-0.6-0.5
	c1.4,0.5,1.5,2.6,0.5,3.8c-1.1,1-2.6,1.6-4.1,1.6c-17.6,2.5-35.5,0.2-51.9-6.5c-1.5-0.6,2.5-19.8,2.9-21.7c1-4.6,1.5-10.2,5.4-13.3
	c9.3-7.4,25.8-8.9,37.2-8C982.2,410.4,989.7,412.4,996.8,415.7z"/>
<linearGradient id="SVGID_12_" gradientUnits="userSpaceOnUse" x1="795.2427" y1="476.4607" x2="897.2427" y2="365.794">
	<stop  offset="0" style="stop-color:#45A090"/>
	<stop  offset="1" style="stop-color:#70C1B3"/>
</linearGradient>
<path class="st22" d="M757.8,383.8c-3.3,4.3-6.7,8.6-8.8,13.6c-4.1,9.5-3.5,20.3-2.8,30.6c0.2,3,0.4,6.1,2,8.5
	c1.4,1.9,3.1,3.4,5.2,4.5c8.7,4.9,18.8,6.4,28.7,7.5c15.2,1.7,30.4,2.7,45.6,3.1c37.8,0.9,76.2-2.2,113.1,6.4
	c-4.6-6.9-4.5-16.1-2-24s7.5-14.8,12.3-21.5c-16.9-5.3-34.9,3-52.6,2.2c-18.1-0.9-34.9-11.3-53.1-11.3c-3.9,0-7.9,0.5-11.7-0.5
	s-7.5-3.8-7.8-7.7c4.8,1.1,9.4-3,11.4-7.6s2.4-9.7,4.3-14.2c4.8-11.4,17.9-16.6,26-26c1.3-1.5,2.5-3.2,2.5-5.2
	c-0.2-1.7-0.9-3.2-2-4.5c-6.8-9-16.9-14-25.4-21c-2.9-2.4-8.9-11.6-12.2-12.5c-6.1-1.6-11.3,7.3-15.3,11.6
	C795.2,337.7,776,360.3,757.8,383.8z"/>
<path class="st23" d="M958.8,381.3c2.5,1.9,4.8,4.1,6.7,6.6c1.9,2.6,2.7,5.8,2.1,8.9c-0.6-6,2.8-11.6,8.3-13.8L958.8,381.3z"/>
<g class="st14">
	<path d="M1014.3,119c-1.2-3.1-2.5-6.2-4.1-9.1c-1,0.2-2,0.4-2.9,0.8c1.7,2.8,3.3,5.8,4.6,8.8C1012.7,119.3,1013.5,119.1,1014.3,119
		z"/>
	<path d="M1072.3,158.5c0.3,0.2,0.5,0.5,0.8,0.7c0-0.1,0-0.1-0.1-0.2C1072.8,158.8,1072.6,158.7,1072.3,158.5z"/>
	<path d="M979.4,162.9c0.5-0.4,1-0.8,1.6-1.2l-0.2-4.8l-10.7-0.1c-1.7,1.6-3.6,3.9-2.5,6L979.4,162.9z"/>
	<path d="M1096.1,242.8c-1.9,3.5-4.6,6.9-8.4,8.3c-2.9,1.1-6.1,1-9.2,0.9c-10.5-0.4-21.3-0.9-31.2-4.4c-4.7-1.6-9.1-3.9-14-4.9
		c-5.7-1.2-11.6-0.5-17.4,0.2l-25.5,3c-7.5,0.9-15.9,1.5-21.9-3.1c-3.4-2.6-5.7-6.8-9.4-8.9c-1.6-0.9-3.5-1.5-4.5-3
		c-0.7-1.1-1-2.4-1-3.7c-0.1-1-0.1-2.1-0.2-3.1c-0.1,3.1-0.1,6.1,0.2,9.1c0,1.3,0.3,2.6,1,3.7c1,1.5,2.9,2.1,4.5,3
		c3.8,2.1,6,6.2,9.4,8.9c6,4.6,14.4,4,21.9,3.1l25.5-3c5.8-0.7,11.7-1.4,17.4-0.2c4.8,1,9.3,3.3,14,4.9c10,3.5,20.7,4,31.2,4.4
		c3.1,0.1,6.3,0.2,9.2-0.9c3.8-1.4,6.5-4.8,8.4-8.3c3.7-6.9,4.7-14.6,4.3-22.5C1100.2,232.1,1098.8,237.7,1096.1,242.8z"/>
</g>
<path class="st7" d="M1014,125.5l14,13C1028,138.5,1016,133.5,1014,125.5z"/>
</svg>
