<?xml version="1.0" encoding="utf-8"?>
<!-- Generator: Adobe Illustrator 19.0.0, SVG Export Plug-In . SVG Version: 6.00 Build 0)  -->
<svg version="1.1" id="b847c0d8-de26-4ae3-b269-ef35a8ef771f"
	 xmlns="http://www.w3.org/2000/svg" xmlns:xlink="http://www.w3.org/1999/xlink" x="0px" y="0px" viewBox="259 -19.6 1130 831.6"
	 style="enable-background:new 259 -19.6 1130 831.6;" xml:space="preserve">
<style type="text/css">
	.st0{opacity:0.1;fill:#6C63FF;enable-background:new    ;}
	.st1{fill:#D0D2D5;}
	.st2{opacity:0.1;enable-background:new    ;}
	.st3{fill:#444053;}
	.st4{fill:#6C63FF;}
	.st5{fill:#3F3D56;}
	.st6{fill:url(#SVGID_1_);}
	.st7{fill:#A26565;}
	.st8{fill:#454B69;}
	.st9{fill:#EFB7B9;}
	.st10{opacity:0.1;}
	.st11{fill:url(#SVGID_2_);}
	.st12{fill:#EE8E9E;}
	.st13{fill:#65617D;}
	.st14{opacity:5.000000e-002;enable-background:new    ;}
	.st15{fill:#E8EAF2;}
	.st16{fill:#303D5C;}
</style>
<title>youtube tutorial</title>
<path class="st0" d="M915.5,105.1c-72.4-2.5-141.4-25.9-207.3-51.5S577.1-0.3,506.4-13.8c-45.5-8.7-97.5-9.9-134.1,14.4
	c-35.3,23.5-46.7,64-52.8,101.6c-4.6,28.3-7.3,58,5.3,84.5c8.8,18.4,24.3,33.8,35.1,51.4c37.5,61.3,11,136.8-29.6,196.6
	c-19,28.1-41.1,54.8-55.8,84.7c-14.7,29.9-21.5,64.1-8.6,94.5c12.8,30.2,43.1,52.9,76,68.8c66.8,32.4,145.5,41.7,222.3,46.9
	c170,11.6,340.8,6.6,511.2,1.6c63.1-1.9,126.4-3.8,188.4-13.5c34.4-5.4,70-14,95-34.8c31.8-26.3,39.6-70.9,18.3-104
	c-35.7-55.4-134.3-69.1-159.3-128.6c-13.7-32.7,0.4-69.2,20.3-99.5c42.8-65.1,114.5-122.2,118.3-196.6
	c2.6-51.1-31.9-102.3-85.2-126.5c-55.9-25.3-133.4-22.2-174.6,19.8C1054.1,90.7,979.5,107.4,915.5,105.1z"/>
<polygon class="st1" points="923.2,736.3 728.2,733.8 728.8,728.8 738.2,646.3 909.4,646.3 922,728.8 923,735.1 "/>
<polygon class="st2" points="923,735.1 825.7,735.1 728.2,733.8 728.8,728.8 922,728.8 "/>
<rect x="695.7" y="730.1" class="st1" width="258.8" height="6.3"/>
<path class="st3" d="M1201.3,150.8c0-9-7.2-16.3-16.2-16.4c0,0,0,0,0,0H462.5c-9,0-16.2,7.4-16.2,16.3c0,0,0,0,0,0v438h755V150.8z"
	/>
<path class="st1" d="M446.3,584.5v51.3c0,8.9,7.3,16.2,16.2,16.2l0,0h722.6c8.9,0,16.2-7.3,16.2-16.2v-51.3H446.3z"/>
<rect x="477.5" y="162" class="st0" width="696.3" height="393.8"/>
<path class="st4" d="M827.5,632.5c5.2,0,10.1-2.4,13.3-6.4l0,0c0.5-0.6,0.9-1.3,1.3-1.9l-9.3-1.5l10,0.1c1.9-4.2,2.1-9.1,0.3-13.4
	l-13.4,7l12.4-9.1c-4.7-8-15-10.8-23.1-6.1c-8,4.7-10.8,15-6.1,23.1c0.4,0.7,0.8,1.3,1.3,1.9l0,0
	C817.5,630.1,822.4,632.5,827.5,632.5z"/>
<polygon class="st2" points="844.4,652 922.2,730.1 910.3,652 "/>
<path class="st3" d="M922.8,174.4h-0.5l-0.2-0.2c0.6-0.8,1-1.7,1-2.7c0-2.3-1.9-4.1-4.2-4.1c-2.3,0-4.1,1.9-4.1,4.2
	c0,2.3,1.9,4.1,4.1,4.1c1,0,2-0.4,2.7-1l0.2,0.2v0.5l3.2,3.2l1-1L922.8,174.4z M918.9,174.4c-1.6,0-2.9-1.3-2.9-2.9s1.3-2.9,2.9-2.9
	s2.9,1.3,2.9,2.9c0,0,0,0,0,0C921.8,173.1,920.5,174.4,918.9,174.4C919,174.4,918.9,174.4,918.9,174.4z"/>
<ellipse class="st4" cx="1216.1" cy="739" rx="59.5" ry="11.4"/>
<ellipse class="st5" cx="1215.1" cy="734.1" rx="6.9" ry="9.1"/>
<ellipse class="st5" cx="1215.1" cy="723" rx="6.9" ry="9.1"/>
<ellipse class="st5" cx="1215.1" cy="712" rx="6.9" ry="9.1"/>
<ellipse class="st5" cx="1215.1" cy="700.9" rx="6.9" ry="9.1"/>
<ellipse class="st5" cx="1215.1" cy="689.8" rx="6.9" ry="9.1"/>
<ellipse class="st5" cx="1215.1" cy="678.7" rx="6.9" ry="9.1"/>
<ellipse class="st5" cx="1215.1" cy="667.7" rx="6.9" ry="9.1"/>
<path class="st4" d="M1241,591.8c0.9-1.2,1.8-2.5,2.6-3.8l-18.2-3l19.7,0.2c3.8-8.3,4-17.8,0.6-26.3l-26.4,13.7l24.3-17.9
	c-9.2-15.9-29.5-21.3-45.3-12.1s-21.3,29.5-12.1,45.3c0.8,1.4,1.7,2.7,2.6,3.9c-1.5,1.9-2.7,3.9-3.8,6l23.6,12.3l-25.2-8.4
	c-3.6,10.6-1.6,22.3,5.3,31.1c-11.3,14.4-8.8,35.2,5.6,46.6c14.4,11.3,35.2,8.8,46.6-5.6c9.5-12,9.5-29,0-41
	C1250.5,620.8,1250.5,603.8,1241,591.8L1241,591.8z"/>
<path class="st2" d="M1181.8,612.3c0,7.4,2.5,14.7,7.1,20.5c-11.3,14.4-8.8,35.2,5.6,46.6s35.2,8.8,46.6-5.6c9.5-12,9.5-29,0-41
	C1245.4,627.2,1181.8,608.6,1181.8,612.3z"/>
<g>
	
		<linearGradient id="SVGID_1_" gradientUnits="userSpaceOnUse" x1="460.5519" y1="-34.3085" x2="460.5519" y2="375.6593" gradientTransform="matrix(1 0 0 -1 -35 758.66)">
		<stop  offset="0" style="stop-color:#808080;stop-opacity:0.25"/>
		<stop  offset="0.54" style="stop-color:#808080;stop-opacity:0.12"/>
		<stop  offset="1" style="stop-color:#808080;stop-opacity:0.1"/>
	</linearGradient>
	<path class="st6" d="M462.1,778.2c-2-0.7-4.1-0.6-6.2-0.8c-4.3-0.5-8.4-2.5-11.5-5.6c-2-2-3.5-4.4-4.6-7c0.7,0.2,1.3,0.5,2,0.8
		c-2-4.7,0.1-9.9,1.9-14.6c3.1-8,6.1-16,8.9-24.1c7-20.5,13-41.8,12.9-63.6c0-7.9-1.5-15.3-1.7-23.2c-0.2-5.8,0.7-11.7,0.6-17.5
		c0-0.8,0-1.6-0.1-2.5c3.6-3.2,5.6-7.9,5.3-12.7c-0.1-1.2-0.3-2.5-0.5-3.7c-0.4-2.1-0.8-4.2-1.4-6.3c-0.7-2.2-1.6-4.3-2.3-6.4
		c-1.5-4.1-2.5-8.4-3.8-12.6c0.5,0,0.9,0.2,1.4,0.4c-0.3-0.4-0.5-0.8-0.6-1.3c-0.7-2.7-1.1-5.4-1.2-8.2l0.9-0.4
		c0.4-2.7,0.2-5.4-0.4-8.1c0.5-4.3,1.2-8.6,1.7-12.9c0.2-1.6,0.1-3.6-1.4-4c-0.3-2.3-0.4-4.6-0.5-6.9c-0.4-8.1-0.8-16.1-1.3-24.2
		c-0.4-8.1-0.8-16.2-1-24.3c-0.1-5.1-0.2-10.5-1.4-15.4c0.2-2.4,0-4.7-0.7-7c-1.9-5.9-7.6-10.6-13.5-10.2c-1.7-2.5-3.9-4.7-6.4-6.5
		c1.2-2.6,2.6-5.3,3.7-7.4c9.4-3,16.2-12.3,16.2-23.3c0-4-0.9-8-2.8-11.6c0.2-0.4,0.3-0.9,0.4-1.4c0.5-2.2,0.3-4.4-0.5-6.5
		c-0.3-0.8-0.6-1.6-1-2.3c-0.3-0.5-0.5-1-0.8-1.5l-0.5-0.8c-0.3-0.5-0.6-0.9-1-1.4c-0.7-1-1.5-1.9-2.3-2.7c-1-1.1-2.1-2.1-3.3-2.9
		c-1.6-1.2-3.4-2-5.4-2.5c-1.1-0.2-2.3-0.3-3.4-0.3c-0.7,0-1.4,0-2.1,0.1c-1.4,0.1-2.8,0.2-4.2,0.2c-0.5,0-0.9,0-1.4-0.1
		c-2.4-0.3-4.9-0.8-7.2-1.5l-1.2-0.3c-0.4-0.1-0.8-0.1-1.2-0.2c-1.1-0.1-2.2-0.2-3.3-0.2h-1.1c-1.1,0.1-2.2,0.2-3.3,0.3l-1.1,0.2
		c-2.8,0.4-5.5,1.2-8,2.4c-0.3,0.1-0.7,0.3-1,0.5l-0.2,0.1c-0.3,0.1-0.5,0.3-0.8,0.5l-0.1,0.1l-0.9,0.5l-0.1,0
		c-7.9,5.3-12.6,15.5-13.8,25.5c-1.3,11.3,1,22.6,3.3,33.7l2.1,10c0.1,0.5,0.2,0.9,0.3,1.3c-3,2.4-5.2,5.6-6.6,9.1
		c-2,5-2,10.4-1.9,15.8c0,1.1,0.1,2.2,0.2,3.3c-0.3,2.1-0.5,4.2-0.6,6.3c-0.6,9.7,0.5,19.5,0.2,29.2c-0.2,7.5-1.4,15-0.8,22.4
		c0.5,6.6,2.3,13,4,19.4l2.5,9.1c0.1,0.5,0.3,0.9,0.6,1.3c0.4,0.3,0.9,0.4,1.4,0.3c-1.6,3.7-3,7.6-4.1,11.5
		c-0.8,2.4-1.2,4.9-1.5,7.4c-0.3,4.6,0.7,9.1,1.8,13.6c1.6,6.7,3.2,13.4,4.8,20.1c1.1,4.7,2.2,9.4,3.4,14.1
		c2.2,9.3,4.4,18.6,4.8,28.1c0.2,4.8-0.1,9.6-1,14.3c-2.9,14.1-3.3,28.6-1.2,42.8c1.7,12,4.4,23.9,8.1,35.4c0.8-0.4,1.6-0.8,2.5-1.2
		l-0.4,0.7c-1.2,2-2.2,4-3.2,6.2c-0.7,1.4-1.2,2.8-1.7,4.2c-1.3,4-1.5,8.3-1.7,12.5c-0.1,0.8,0,1.6,0.2,2.4c0.5,1.5,2.1,2.3,3.6,2.7
		c4.3,1.2,8.8,0.8,13.3,0.2c0,0.1,0.1,0.2,0.1,0.3c0.5,1.5,2.1,2.3,3.6,2.7c6.2,1.8,12.7,0.1,19.1-0.5s12.6-0.2,18.8-1.6
		c0.9-0.2,1.8-0.5,2.6-1c1.6-1.1,2.7-2.7,3.3-4.5c0.2-0.5,0.3-1,0.4-1.5C465.9,780.8,464,778.9,462.1,778.2z M440.9,685.6
		c-0.3,2.3-1,4.6-2,6.8c-4.8,10.2-8.3,21-10.3,32.2c-1.3,7.3-2.1,14.8-2.3,22.3c-0.1,5.5,0.1,11.3-2.2,16.2l0.8-0.1
		c-0.3,0.5-0.5,1-0.8,1.4l-0.1,0.2c-1.4-2.4-2.3-5-2.7-7.7c0-0.1-0.5-0.2-1.1-0.2c-2.8-15.8-3.8-31.9-2.9-47.9
		c0-1.9,0.3-3.9,0.8-5.8c0.5-1.6,1.4-3.1,2-4.6c1-2.6,1.7-5.4,2-8.1c1.1-7.1,1.5-14.3,1.3-21.5c-0.2-6.8,1.3-13.5,2.7-20.3
		c0.6-3.2,1.2-6.4,1.5-9.7l0.1-0.7c5.9,9.8,10.1,20.6,12.3,31.9C441.2,675,441.5,680.3,440.9,685.6z M398.1,541l0.3,0.3
		c1,0.9,1.9,1.8,2.7,2.8c0.4,0.4,0.7,1,0.8,1.5c0.3,1.5-0.9,2.7-1.9,3.8c-0.4,0.5-0.8,1-1.2,1.5C398.6,547.6,398.4,544.3,398.1,541
		L398.1,541z"/>
	<path class="st4" d="M385.5,483.7l-1.1,8.5c-0.4,2.9-0.7,5.8-0.9,8.6c-0.7,9.6,0.6,19.3,0.3,28.9c-0.3,7.4-1.4,14.8-0.9,22.2
		c0.5,6.5,2.4,12.9,4.2,19.2l2.6,9c0.1,0.5,0.3,0.9,0.7,1.2c0.5,0.3,1.1,0.4,1.7,0.3l11.7-1.1c-0.8-3.4-1.6-7-2-10.5
		c-0.3-2.8-0.5-5.5-0.7-8.3c-0.6-8.7-1.3-17.3-2-26l-1.3-15.2c-0.5-6.6-1.1-13.2-2.7-19.6C393.4,494.4,390.1,488.5,385.5,483.7z"/>
	<path class="st2" d="M459.7,460.6c0.5,0.5,0.9,1.1,1.3,1.8c3.4,6.3,3.5,13.7,3.6,20.8c0.2,8,0.6,16,1.1,24l1.3,24
		c0.1,2.3,0.3,4.6,0.6,6.8c1.5,0.4,1.6,2.4,1.4,4c-1.1,9.8-3.9,19.8-1,29.3c0.1,0.5,0.3,0.9,0.7,1.3c-1.5-0.5-3-0.5-4.5-0.1
		c-1.4,0.3-2.8,0.8-4.3,1.2c-1.8,0.4-3.9,0.6-5.1,2c-1.4-4.2-2.5-8.5-3.4-12.9c-0.7-4-0.9-8.1-2.5-11.8c-0.6-1.5-1.5-2.9-2.3-4.3
		c-4.2-7.5-6.3-15.9-8.3-24.3c-0.9-4-1.1-8-0.6-12.1c0.3-1.8,0.5-3.7,0.5-5.5c-0.1-2-0.4-3.9-0.8-5.8c-0.8-5.7-0.5-11.4,1.2-16.9
		c1.5-5.1,2.8-10.5,6-14.7S454.4,460.7,459.7,460.6z"/>
	<g>
		<path class="st7" d="M406.3,763.3c-0.7,1.4-1.3,2.7-1.8,4.2c-1.3,4-1.5,8.2-1.7,12.4c-0.1,0.8,0,1.6,0.2,2.4
			c0.6,1.5,2.2,2.3,3.8,2.7c6.5,1.8,13.3,0.1,20-0.5s13.3-0.2,19.7-1.6c1-0.2,1.9-0.5,2.7-1c1.6-1.1,2.8-2.6,3.5-4.5
			c0.2-0.5,0.3-1,0.4-1.5c0.2-2.2-1.7-4.1-3.8-4.8s-4.4-0.6-6.5-0.8c-9.3-0.9-16.8-8-18.2-17.2c-0.1-0.5-10.8-0.2-12,0.4
			c-1.3,0.7-2.1,2.5-2.9,3.8C408.5,759.2,407.4,761.2,406.3,763.3z"/>
		<g>
			<ellipse class="st0" cx="430.1" cy="776.5" rx="99" ry="21"/>
			<path class="st2" d="M385.5,474.3l-1.1,8.5c-0.4,2.9-0.7,5.8-0.9,8.6c-0.7,9.6,0.6,19.3,0.3,28.9c-0.3,7.4-1.4,14.8-0.9,22.2
				c0.5,6.5,2.4,12.9,4.2,19.2l2.6,9c0.1,0.5,0.3,0.9,0.7,1.2c0.5,0.3,1.1,0.4,1.7,0.3l11.7-1.1c-0.8-3.4-1.6-7-2-10.5
				c-0.3-2.8-0.5-5.5-0.7-8.3c-0.6-8.7-1.3-17.3-2-26l-1.3-15.2c-0.5-6.6-1.1-13.2-2.7-19.6C393.4,485,390.1,479.1,385.5,474.3z"/>
			<path class="st2" d="M406.3,763.3c-0.7,1.4-1.3,2.7-1.8,4.2c-1.3,4-1.5,8.2-1.7,12.4c-0.1,0.8,0,1.6,0.2,2.4
				c0.6,1.5,2.2,2.3,3.8,2.7c6.5,1.8,13.3,0.1,20-0.5s13.3-0.2,19.7-1.6c1-0.2,1.9-0.5,2.7-1c1.6-1.1,2.8-2.6,3.5-4.5
				c0.2-0.5,0.3-1,0.4-1.5c0.2-2.2-1.7-4.1-3.8-4.8s-4.4-0.6-6.5-0.8c-9.3-0.9-16.8-8-18.2-17.2c-0.1-0.5-10.8-0.2-12,0.4
				c-1.3,0.7-2.1,2.5-2.9,3.8C408.5,759.2,407.4,761.2,406.3,763.3z"/>
			<path class="st7" d="M424.2,766.5c-0.7,1.3-1.3,2.7-1.8,4.2c-1.4,4-1.5,8.2-1.7,12.4c-0.1,0.8,0,1.6,0.2,2.4
				c0.6,1.5,2.2,2.3,3.8,2.7c6.5,1.7,13.3,0.1,20-0.5s13.3-0.2,19.7-1.6c1-0.2,1.9-0.5,2.7-1c1.6-1.1,2.9-2.6,3.5-4.5
				c0.2-0.5,0.3-1,0.4-1.5c0.2-2.2-1.7-4.1-3.8-4.8s-4.4-0.6-6.5-0.8c-9.3-1-16.7-8-18.2-17.2c-0.1-0.5-10.8-0.2-12,0.4
				c-1.3,0.7-2.1,2.5-2.9,3.8C426.3,762.3,425.2,764.4,424.2,766.5z"/>
			<path class="st8" d="M470.7,660.2c0.1,21.6-6.1,42.7-13.5,63c-2.9,8-6,16-9.3,23.9c-1.9,4.7-4.1,9.9-2,14.5
				c-6-2.3-12.1-3.6-18.4-2.6c2.4-4.9,2.2-10.6,2.3-16c0.2-7.4,1-14.8,2.4-22c2.1-11.1,5.7-21.8,10.8-31.9c1-2.1,1.7-4.4,2.1-6.7
				c0.8-5.1,0.2-10.4-0.9-15.5c-2.3-11.2-6.7-22-12.9-31.6l-0.1,0.6c-0.4,3.2-0.9,6.4-1.6,9.6c-1.4,6.7-3.1,13.4-2.8,20.1
				c0.3,7.1-0.2,14.3-1.3,21.3c-0.4,2.8-1.1,5.5-2.1,8.1c-0.7,1.5-1.6,3-2.1,4.6c-0.5,1.9-0.8,3.8-0.8,5.7
				c-0.8,16.3,0,32.8,3.3,48.7c-5.6-0.4-11.1,1.2-16.1,3.7c-3.9-11.4-6.7-23.2-8.5-35.1c-2.2-14.1-1.7-28.5,1.3-42.5
				c0.9-4.7,1.3-9.4,1-14.2c-0.4-9.5-2.8-18.7-5.1-27.9l-3.5-14c-1.7-6.7-3.3-13.3-5-19.9c-1.1-4.4-2.2-8.9-1.9-13.5
				c0.2-2.5,0.8-4.9,1.6-7.3c2.5-8.1,6.2-15.7,11.1-22.6c19.3,1.1,38.8-0.7,58-2.2c0.9-0.2,1.9,0,2.7,0.5c0.7,0.7,1,1.5,1.1,2.5
				l7.2,41c1.2,5.7,1.9,11.5,2,17.3c0,5.8-0.9,11.6-0.7,17.4C469.2,645,470.7,652.4,470.7,660.2z"/>
			<path class="st2" d="M431.1,635.9c-0.4,3.2-0.9,6.4-1.6,9.6c-4.2-7.3-8.7-14.3-12.6-21.8c-1-1.9-1.9-3.8-2.9-5.8l-2.9-5.8
				c-0.5-1.1-1.1-2.2-1.5-3.3c-0.8-1.6-1.4-3.3-1.8-5c1.4-0.3,4.9,3.5,5.9,4.5c2.1,2.1,4.1,4.3,6,6.6c2.3,2.6,4.4,5.3,6.3,8.2
				C428.5,627.1,430.2,631.4,431.1,635.9z"/>
			<path class="st9" d="M447.2,437c0,0-10.7,17-8.7,20.6s-33.7-3.2-33.7-3.2s19.4-17,17.4-24.2S447.2,437,447.2,437z"/>
			<circle class="st9" cx="437.7" cy="418" r="24.2"/>
			<path class="st4" d="M447.6,454.9c-2.6-3.6-6.1-6.4-10.2-8.2c-2.3-0.8-4.8-1.4-7.2-1.8l-9.6-1.7c-2.4-0.4-4.9-0.8-7.1,0.2
				c-1.1,0.6-2.1,1.3-3,2.2c-3.4,3.1-6.6,6.5-10.8,8.3c-1.1,0.5-2.4,0.8-3.5,1.3c-4.7,2-8.2,6.3-10.2,11c-2.1,4.9-2.2,10.3-2,15.7
				c0,1.9,0.2,3.7,0.5,5.5c0.5,1.7,1.1,3.4,1.8,5.1c1.3,3.5,2.4,7.1,3.3,10.7c2.5,9.6,4.6,19.2,6.2,29c0.1,1.4,0.6,2.8,1.2,4
				c0.9,1.2,2.1,2.3,3.3,3.2c1,0.8,1.9,1.8,2.8,2.8c0.4,0.4,0.7,0.9,0.9,1.5c0.3,1.4-1,2.7-2,3.7c-2.2,2.2-3.7,4.9-4.5,7.9
				c-0.5,0.6-0.8,1.4-0.7,2.2c0.2,0.5,0.3,1.1,0.2,1.7c-0.2,0.5-0.5,1-0.9,1.4c-0.9,1.2-1.3,2.8-1,4.3c7.5,3.3,15.5,5.1,23.7,5.5
				c2,0.1,4,0.1,6,0.3c1.4,0.2,2.8,0.5,4.2,0.6c2.1,0.2,4.1,0.2,6.2,0.2c10.8-0.2,21.9-0.5,31.7-4.8c0.9-5.1-1.1-10.2-2.3-15.2
				c-2-8-2.5-16.2-4-24.3c-1-5.5-2.5-10.9-3.4-16.5s-1-11.3,0.5-16.7c1.4-4.8,1.8-9.7,3.2-14.4s2.4-9.9,0.8-14.7
				C459.8,459.2,453.7,454.6,447.6,454.9z"/>
			<path class="st7" d="M459.4,405.2c1.2-4.3-1.1-8.8-3.9-12.3c-3-3.8-6.8-7.1-11.5-8.1c-3.8-0.8-7.8,0.2-11.6-0.1
				c-3.4-0.3-6.7-1.5-10.1-2c-3.1-0.3-6.2-0.2-9.3,0.4c-2.9,0.4-5.7,1.2-8.5,2.4c-10.3,4.6-16.3,15.8-17.7,27s1,22.4,3.5,33.4
				l2.2,9.9c2.3,10.3,4.6,20.7,5.2,31.3s-0.5,21.4-4.9,31.1c14.1-7.6,25-19.9,30.7-34.8c1.6-4.1,2.7-8.3,4.5-12.4
				c1.5-3.5,3.4-6.7,4.7-10.3c1.5-4,2.2-8.2,2.1-12.5c-0.1-3.2-0.6-6.4-0.5-9.6s0.9-6.5,3.1-8.9c2-2,4.8-3,7.3-4.3
				c4-2,7.5-4.9,10.2-8.5c1.6-2.1,1.7-3,2.1-5.4S458.8,407.4,459.4,405.2z"/>
			<path class="st9" d="M459.5,586.9c0.3,2.5-0.2,5,0.3,7.5c0.4,1.8,1.4,3.5,1.9,5.3c0.6,2.1,0.8,4.2,0.9,6.4c0.1,1.8-0.1,4-1.7,4.8
				c-0.7,0.4-1.5,0.4-2.3,0.7s-1.4,1.2-0.9,1.9s1.1,0.6,1.8,0.7s1.4,0.8,1,1.4c-0.2,0.2-0.4,0.3-0.6,0.4c-0.7,0.2-1.3,0.5-1.9,0.9
				c-0.6,0.4-0.9,1.1-0.8,1.8c0.1,0.6,0.8,1,1.4,0.8c0.1,0,0.2-0.1,0.2-0.1c-0.3,0.6-0.5,1.3-0.5,2c2.6,1.1,5.4-0.3,7.8-1.7
				c1-0.6,2-1.2,3-1.9c3.9-3,6.1-7.8,5.8-12.8c-0.1-1.2-0.3-2.4-0.6-3.7c-0.4-2.1-0.9-4.2-1.5-6.2c-0.7-2.2-1.6-4.2-2.4-6.3
				c-1.7-4.5-2.8-9.2-4.4-13.7c-0.1-0.5-0.4-0.9-0.8-1.2c-0.3-0.2-0.7-0.2-1.1-0.2c-1.8-0.1-3.5,0.1-5.2,0.5c-1,0.3-2.7,1-3.2,2
				s0.3,1.8,0.7,2.7C458.1,581.2,459.1,584,459.5,586.9z"/>
			<path class="st4" d="M459,464.6c0.5,0.5,0.9,1.1,1.3,1.8c3.4,6.2,3.5,13.7,3.6,20.8c0.2,8,0.6,16,1.1,24l1.3,24
				c0.1,2.3,0.3,4.6,0.6,6.8c1.5,0.4,1.6,2.4,1.4,4c-1.1,9.8-3.9,19.8-1,29.3c0.1,0.5,0.3,0.9,0.7,1.3c-1.5-0.5-3-0.5-4.5-0.1
				c-1.4,0.3-2.8,0.8-4.3,1.2c-1.8,0.4-3.9,0.6-5.1,2c-1.4-4.2-2.5-8.6-3.3-13c-0.7-4-0.9-8.1-2.5-11.8c-0.7-1.5-1.5-2.9-2.3-4.3
				c-4.2-7.5-6.3-15.9-8.3-24.3c-0.9-4-1.1-8-0.6-12.1c0.8-3.8,0.7-7.7-0.3-11.4c-0.8-5.7-0.5-11.4,1.2-16.9
				c1.5-5.1,2.8-10.5,6-14.7S453.7,464.6,459,464.6z"/>
		</g>
	</g>
	<g class="st10">
		<path d="M455.5,392.8c-3-3.8-6.8-7.1-11.5-8.1c-3.8-0.8-7.8,0.2-11.6-0.1c-3.4-0.3-6.7-1.5-10.1-2c-3.1-0.3-6.2-0.2-9.3,0.4
			c-2.9,0.4-5.7,1.2-8.5,2.4c-1.5,0.7-2.9,1.4-4.2,2.4c2.4-0.9,4.9-1.6,7.5-2c3.1-0.6,6.2-0.7,9.3-0.4c3.4,0.4,6.7,1.7,10.1,1.9
			c3.9,0.3,7.8-0.6,11.6,0.1c4.7,0.9,8.5,4.3,11.5,8.1c2.8,3.5,5.1,8,3.9,12.3c-0.6,2.3-2.1,4.2-2.5,6.6s-0.5,3.3-2.1,5.4
			c-2.1,2.7-4.5,5-7.3,6.8c0.8-0.4,1.6-0.7,2.3-1.1c4-2,7.5-4.9,10.2-8.5c1.6-2.1,1.7-3,2.1-5.4s1.8-4.3,2.5-6.6
			C460.6,400.8,458.3,396.3,455.5,392.8z"/>
		<path d="M437.4,429.8c0.4-0.4,0.9-0.8,1.4-1.2c-2.3,1.1-4.7,2.1-6.5,4c-2.2,2.3-3,5.6-3.1,8.9s0.5,6.4,0.5,9.6
			c0.1,4.3-0.6,8.5-2.1,12.5c-1.3,3.5-3.2,6.8-4.7,10.3c-1.7,4-2.9,8.3-4.5,12.3c-5,12.9-13.9,24-25.4,31.6
			c-0.1,0.1-0.1,0.3-0.2,0.4c14.1-7.6,25-19.9,30.7-34.8c1.6-4.1,2.7-8.3,4.5-12.4c1.5-3.5,3.4-6.7,4.7-10.3c1.5-4,2.2-8.2,2.1-12.5
			c-0.1-3.2-0.6-6.4-0.5-9.6S435.2,432.1,437.4,429.8z"/>
	</g>
</g>
<g>
	
		<linearGradient id="SVGID_2_" gradientUnits="userSpaceOnUse" x1="904.3057" y1="-54.92" x2="904.3057" y2="442.2205" gradientTransform="matrix(-1 0 0 -1 2189.1602 750.3)">
		<stop  offset="0" style="stop-color:#808080;stop-opacity:0.25"/>
		<stop  offset="0.54" style="stop-color:#808080;stop-opacity:0.12"/>
		<stop  offset="1" style="stop-color:#808080;stop-opacity:0.1"/>
	</linearGradient>
	<path class="st11" d="M1187,368.3c1.1,1.4,2.3,2.7,3.8,3.8c0.9,0.8,1.9,1.6,2.9,2.3c0.3,0.2,0.6,0.4,0.9,0.6c0,0-0.1,0.1-0.1,0.2
		c-0.2,0.4-0.3,0.9-0.3,1.4c0.2,0.6,0.6,1.1,1.1,1.4c2.3,2.2,3.9,5,4.5,8.1c0.3,1.8-0.9,3.8-0.8,5.6c0.2,1.8,0.7,3.6,1.4,5.2
		c1.5,3.9,3.2,7.9,6.2,10.7c0.7,6.2,3.1,12.2,7,17.1c3.2,4.1,7.5,7.2,11.7,10.3c1.3,1.1,2.8,2,4.3,2.7c1.4,0.5,2.8,0.9,4.3,1.1
		c12.4,2.5,25,3.9,37.7,4.3c0.4,7.5,0.5,15.1,0.5,22.6c0.1,1.2-0.1,2.5-0.5,3.7c-0.6,1.1-1.3,2.1-2.2,3.1c-2.9,3.8-3,9.1-2.8,13.9
		c0.3,5.6,1,11.2,2,16.8c1.3,7.1,0.1,14.9,2.6,21.7c1,2.7,2,5.3,3,8c0.3,0.7,0.5,1.6,0.6,2.4c0,1.8-1.2,3.2-2,4.8
		c-1.2,2.2-1.8,4.7-1.8,7.3c0,0.3,0.1,0.6,0.2,0.8c0.3,0.4,1,0.4,1.5,0.3c2.2-0.3,4.4-0.5,6.7-0.6c-0.4,0.5-0.8,1-1.1,1.6
		c-0.5,0.9-1,1.9-1.4,2.9c-0.8,1.7-1.4,3.4-1.9,5.2c-0.1,0.3-0.1,0.5-0.2,0.8c-0.1,0.5-0.2,1.1-0.3,1.6c-0.5,3.2-0.7,6.4-0.6,9.6
		c-0.3,6-0.6,12.2-1.2,14.1c-0.8,2.6,0.2,6.7,1.2,10.7c0,2.7,0.5,5.4,1.5,8c0.1,2.8,0.4,5.7,1,8.4c3.5,19.5,7.1,38.9,11,58.3
		c0.3,1.7,0.7,3.4,1.1,5c1.5,5.4,4,10.4,7.5,14.8c3.1,3.9,5.7,8.1,7.8,12.5c-0.2,1.1-0.5,2.1-0.7,3.2c-2.2,9.3-5.1,18.5-6.1,27.9
		c-0.4,3.8-0.5,7.7-2,11.2c-0.8,1.8-1.9,3.5-2,5.4c-0.1,1.2,0.2,2.5,0.8,3.5c-0.3,0.2-0.5,0.4-0.8,0.6l-0.4,0.3
		c-2.8,2.3-6.7,2.7-10.2,3.6s-7.3,2.8-8.3,6.2c-0.1,0.2-0.1,0.4-0.2,0.7c-0.6,3.2,1.3,6.6,4,8.5c2.9,2,6.5,2.6,10,3.1
		s7.1,0.8,10.3,2.4c2.7,1.4,5.1,3.6,8,4.6l0.5,0.2c-0.7,0.4-1.3,0.8-2,1.1c-3,1.5-6.2,2.5-9.6,3c-3.4,0.5-7.4,0.7-9.2,3.6l0,0
		c-1.4,2.4-0.4,5.7,1.7,7.7c2,1.9,4.9,2.8,7.6,3.4c6.3,1.2,12.6,2,19,2.4l6.2,0.5c6,0.5,12.1,0.9,18.2,1c7.5,0,15-0.6,22.4-2
		c0.7,0,1.3-0.3,1.8-0.9c0.2-0.4,0.3-0.9,0.3-1.4c-0.2-7.6-1.1-15.2-2.8-22.6c-0.5-2.2-3.5,0.8-5.2,2.7c-0.2-1.1-0.5-2.2-0.8-3.3
		l1.3-0.6c1-0.4,1.9-1.1,2.4-2c0.3-0.8,0.4-1.6,0.3-2.3c-0.2-4.9-0.5-9.9-2.9-14.2c-1.5-2.6-3.4-4.9-5.7-6.9
		c-0.7-15.3-2.2-30.7-5.5-45.6c-1.7-7.7-3.8-15.4-8.3-21.8c-0.5-0.8-1.2-1.6-1.8-2.4c-0.5-7.4-1.4-14.7-2.7-21.9c-0.3-1-0.3-2,0-2.9
		c0.4-0.8,1-1.6,1.6-2.2c2.7-3.4,1.6-8.3,1.3-12.7c-0.4-6.2,1-12.4,2.5-18.5c1.8-7.5,3.6-15,5.4-22.5c0.4-2.1,1.1-4.2,1.9-6.2
		c1.3-2.8,3.2-5.3,4.9-7.9c5-8,7.4-17.3,6.8-26.7c1,0.4,2,0.7,3.1,1.1c0.8-6.3-1.9-13.4,0-19.3c3.3-2.4,5.9-5.5,7.7-9.1
		c1.5-3.3,1.9-7.1,3.5-10.3c0.9-1.8,2.1-3.6,2.6-5.5c0.8-3-0.2-6.1-0.2-9.2c0.1-6.7,5-12.9,3.9-19.5c-0.5-3.1-2.3-6-2.2-9.2
		c0.1-1.7,0.6-3.4,1.3-5c3.7-9.8,7.3-20.1,5.4-30.4c-0.5-2.6-1.3-5.2-1.2-7.9c0.2-3,1.6-6,1.2-9c-0.2-1.2-0.6-2.2-1.4-3.2
		c1.3-2,2.4-4.2,3.3-6.4c0.6-1.3,0.9-2.7,0.9-4.1c-0.3-2-1.3-3.7-2.9-4.9c-1.6-1.1-3.2-2.1-5-2.9c-0.6-0.2-1.1-0.6-1.5-1
		c-0.3-0.5-0.6-1-0.8-1.6c-1-1.7-3.1-2.3-4.8-3.3c-6.1-3.7-5.5-13.3-10.7-18.2c-3.6-3.2-9-3.5-13-0.7c-0.5,0.5-1.1,0.8-1.8,0.9
		c-0.7-0.2-1.3-0.5-1.8-1c-1.3-0.9-2.8-1.3-4.4-1.2c-1-3.8-1.4-7.7-1.3-11.7h0.5c0.6,0,1.2,0,1.8-0.2c2.7-0.8,4.2-3.5,5.3-6.1
		c1-2.2,1.7-4.4,2.3-6.7c0.1-0.2,0.1-0.4,0.2-0.6c5.1,3.6,11.1,7.4,12.5,6.6c2.6-1.5-11.8-11.7-11.8-11.7l0,0l0,0
		c1.7-1.5,2.6-4.2,3-6.6c0.8-4.8,1.2-9.7,0.1-14.5s-3.9-9.2-8.3-11.4c-1.9-1-4.2-1.7-5.6-3.2l0,0c-0.2-0.2-0.4-0.5-0.5-0.7l0,0
		c-0.1-0.1-0.2-0.3-0.2-0.4c-0.2-0.4-0.4-0.8-0.6-1.2c-0.8-0.9-2.2-0.6-3.4-0.5h-0.4h-0.3h-0.3c-4.3,0.1-8.4-2.3-12.7-2.3
		c-4.7,0-8.8,2.7-12.9,4.6c-0.8,0.4-1.6,0.7-2.4,1.1c-2.6,1.2-4.7,2.5-6,5.5c-0.8,1-1.4,2.1-1.7,3.4c-0.1,0.6-0.2,1.1-0.2,1.7
		c-11.2,11.1-11.3,29.2-0.2,40.5c3.6,3.6,8.1,6.2,13.1,7.5c0.1,0.3,0.2,0.6,0.3,0.8c0.9,2.6,1.3,5.3,1.3,8c0,0.2,0,0.4,0,0.6
		c-2.2,0.5-4.3,1.4-6.2,2.5c-2.4,1.4-4.3,3.7-5.2,6.4c-0.1,0.2-0.1,0.4-0.2,0.6c-1.5-0.5-3.1-0.8-4.7-0.8c-1.4,0-3.1,0.1-4,1.2
		c-0.4,0.4-0.6,1-0.8,1.5c-0.5,0.5-0.7,1.4-1,2.1c-1.2,2.1-4.3,1.4-6.7,2c-2.6,0.6-4.6,3-7.2,3c-1-0.2-2-0.2-3-0.1
		c-1,0.2-1.8,1.6-1,2.3c-1.2-0.1-2.4,0.4-3,1.5c-0.7,0.9-1.2,2.1-2,2.9c-0.7-1-1.9-1.5-3.1-1.2c-1.2,0.3-2.3,0.7-3.3,1.3
		c-0.5,0.2-0.9,0.4-1.5,0.5c-0.6,0-1.2,0-1.8-0.2c-2.8-0.5-5.7-0.1-8.3,1.2c-2.3,1.1-4.5-0.9-7-1.1c-0.9,0-1.8-0.2-2.6-0.8
		c-0.5-0.6-0.8-1.3-1-2c-1.1-3.3-3.9-5.7-7.3-6.5c1.4-4.3-0.8-8.9-5-10.5c0.3-3-0.8-6-3.1-7.9c-0.6-0.4-1.1-0.8-1.6-1.2
		c-0.7-0.8-1.2-1.7-1.5-2.7l-2.2-5.9c-1-0.2-1.8-0.6-2.7-0.8c0-0.2,0-0.4,0-0.6c0-2-0.4-4-1-5.9c-1.1-3.1-2.7-6-4.7-8.6
		c-2.1-3-4.5-5.9-7.6-7.7c-1-0.6-2.1-1.1-3.3-1.5l-5.7-2.4c-0.3-0.2-0.7-0.3-1-0.3c-1.5,0-1.8,2.4-1,3.6c1.7,2.6,5.7,3.3,6.8,6.2
		c-1.9,0.1-3.6,1.3-4.1,3.2c0,0.5-0.2,0.9-0.5,1.3c-0.5,0.4-1.3,0.2-1.9,0.5c-1,0.5-0.6,2.1-0.7,3.2c-0.2,1-0.6,2-1,2.9
		C1185.6,364.8,1185.9,366.7,1187,368.3z M1324.1,769.3c0-0.6-0.1-1.2-0.1-1.8c0.1,0.3,0.2,0.6,0.3,0.9c1,2.6,2.1,5.2,3.3,7.8
		l-0.2-0.1c-0.9-0.4-1.8-0.7-2.7-0.8c-0.3,0-0.5,0-0.8-0.1C1324.3,773.3,1324.3,771.3,1324.1,769.3L1324.1,769.3z"/>
	<path class="st12" d="M1308.6,383.4c-0.1,4.2-1.5,8.2-1.7,12.4c12.3,0.6,24.4-5.4,36.6-3.5c-3.4-2.2-5.2-6.2-6.3-10.1
		c-1.4-5-1.8-10.3-1.2-15.5c0-0.3,0.1-0.6,0.2-0.9c0.4-2,1.6-4.9,1.3-6.5c-0.4-2.1-2.4-1.7-4.2-1.6c-5.5,0.4-11,1.1-16.4,2.1
		c-1.4,0.2-15.2,3.7-15.4,3.3c2.4,3.9,4.4,8,6,12.3C1308.3,378.1,1308.7,380.7,1308.6,383.4z"/>
	<path class="st12" d="M1187,370.5c1.1,1.4,2.3,2.7,3.8,3.8c0.9,0.8,1.9,1.5,2.9,2.3c1.8,1.4,3.9,2.2,6.2,2.5c2.9,0.2,9.1-1.5,11-4
		c0.8-1.3,1.1-2.7,1-4.2c0-2-0.4-4-1-5.9c-1.1-3.1-2.7-6-4.7-8.6c-2.1-2.9-4.5-5.8-7.6-7.6c-1.1-0.6-2.1-1.1-3.3-1.5l-5.7-2.3
		c-0.3-0.2-0.7-0.3-1-0.3c-1.5,0-1.8,2.4-1,3.6c1.7,2.6,5.7,3.3,6.8,6.2c-1.9,0.1-3.6,1.3-4.1,3.2c0,0.5-0.2,0.9-0.6,1.3
		c-0.5,0.4-1.3,0.2-1.9,0.5c-1,0.5-0.6,2.1-0.7,3.2c-0.2,1-0.6,2-1,2.9C1185.6,367.2,1186,369.1,1187,370.5z"/>
	<path class="st13" d="M1356.5,789.2c-0.9-1-2.5-0.8-3.8-0.6c-7.1,1.1-14.3,1.7-21.4,1.7c-0.9-4.4,1.7-8.7,2.5-13.1
		c0.1-1.1,0.4-2.2,0.8-3.3c1-1.9,3.3-2.8,5.4-3.3c3.9-0.8,9.9-2.3,12.1,1.7C1354.7,777.1,1355.6,784,1356.5,789.2z"/>
	<path class="st5" d="M1277.9,772.6c2.9,2,6.5,2.6,10,3.1s7.1,0.8,10.3,2.3c2.7,1.3,5.1,3.6,8,4.5c2.7,0.7,5.5,0.8,8.3,0.1
		c3.3-0.6,6.7-1.8,8.5-4.6c1.6-2.5,1.4-5.7,1.2-8.6c-0.3-3.3-0.5-6.7-0.7-10c0-0.8-0.2-1.7-0.6-2.4c-2.3-3.4-8.1,1.4-11.2,1.4
		c-4.9,0-10.1-2.6-13.6-5.9c-0.3-0.3-0.7-0.6-1.1-0.8c-1.4-0.6-2.8,0.5-4,1.5l-0.4,0.3c-2.8,2.3-6.7,2.7-10.2,3.6s-7.3,2.7-8.3,6.2
		c-0.1,0.2-0.1,0.4-0.2,0.7C1273.3,767.4,1275.2,770.7,1277.9,772.6z"/>
	<path class="st14" d="M1277.9,772.6c2.9,2,6.5,2.6,10,3.1s7.1,0.8,10.3,2.3c2.7,1.3,5.1,3.6,8,4.5c2.7,0.7,5.5,0.8,8.3,0.1
		c3.3-0.6,6.7-1.8,8.5-4.6c1.6-2.5,1.4-5.7,1.2-8.6c-0.3-3.3-0.5-6.7-0.7-10c0-0.8-0.2-1.7-0.6-2.4c-2.3-3.4-8.1,1.4-11.2,1.4
		c-4.9,0-10.1-2.6-13.6-5.9c-0.3-0.3-0.7-0.6-1.1-0.8c-1.4-0.6-2.8,0.5-4,1.5l-0.4,0.3c-2.8,2.3-6.7,2.7-10.2,3.6s-7.3,2.7-8.3,6.2
		c-0.1,0.2-0.1,0.4-0.2,0.7C1273.3,767.4,1275.2,770.7,1277.9,772.6z"/>
	<path class="st15" d="M1277.9,773.7c2.9,2,6.5,2.6,10,3.1s7.1,0.8,10.3,2.3c2.7,1.3,5.1,3.6,8,4.5c2.7,0.7,5.5,0.8,8.3,0.1
		c3.5-0.7,6.5-2.8,8.5-5.7c1.6-2.5,1.4-5.7,1.2-8.6c-0.3-3.3-0.5-6.7-0.7-10c0-0.8-0.2-1.7-0.6-2.4c-2.3-3.4-8.1,1.4-11.2,1.4
		c-4.9,0-10.1-2.6-13.6-5.9c-0.3-0.3-0.7-0.6-1.1-0.8c-1.4-0.6-2.8,0.5-4,1.5c0.8,2.5,2,4.8,3.4,7c2.4,3.7,6.3,6.2,10.7,6.7
		c2.2,0.2,4.4-0.3,6.5,0.3s4,2.7,3.3,4.8c-0.7,2-3.3,2.4-5.4,2.5c-3,0.2-6,0.3-8.8-0.6c-1.7-0.6-3.3-1.5-5-2.2
		c-7.1-3-16.1-1.3-22-6.3c-0.6-0.5-1.2-1-1.8-1.4C1272.3,767.4,1275.2,771.9,1277.9,773.7z"/>
	<path class="st14" d="M1277.9,773.7c2.9,2,6.5,2.6,10,3.1s7.1,0.8,10.3,2.3c2.7,1.3,5.1,3.6,8,4.5c2.7,0.7,5.5,0.8,8.3,0.1
		c3.5-0.7,6.5-2.8,8.5-5.7c1.6-2.5,1.4-5.7,1.2-8.6c-0.3-3.3-0.5-6.7-0.7-10c0-0.8-0.2-1.7-0.6-2.4c-2.3-3.4-8.1,1.4-11.2,1.4
		c-4.9,0-10.1-2.6-13.6-5.9c-0.3-0.3-0.7-0.6-1.1-0.8c-1.4-0.6-2.8,0.5-4,1.5c0.8,2.5,2,4.8,3.4,7c2.4,3.7,6.3,6.2,10.7,6.7
		c2.2,0.2,4.4-0.3,6.5,0.3s4,2.7,3.3,4.8c-0.7,2-3.3,2.4-5.4,2.5c-3,0.2-6,0.3-8.8-0.6c-1.7-0.6-3.3-1.5-5-2.2
		c-7.1-3-16.1-1.3-22-6.3c-0.6-0.5-1.2-1-1.8-1.4C1272.3,767.4,1275.2,771.9,1277.9,773.7z"/>
	<path class="st16" d="M1355.2,555.9c2.3,11.1,0.1,22.7-6,32.3c-1.7,2.6-3.6,5-4.9,7.8c-0.8,2-1.5,4.1-1.9,6.2l-5.4,22.4
		c-1.5,6-2.9,12.2-2.5,18.4c0.3,4.3,1.4,9.2-1.3,12.6c-0.6,0.6-1.2,1.4-1.6,2.2c-0.3,1-0.3,2,0,2.9c2.7,16.2,4.8,33.2-0.2,48.9
		c-4.5,14.2-4.7,30-8.5,44.5c-0.5,1.8-1,3.7-2.4,4.9c-1,0.9-2.2,1.4-3.6,1.7c-5.6,1.3-11.5-0.2-16.8-2.7c-3.7-1.7-7.6-4.7-7.3-8.7
		c0.2-1.9,1.3-3.6,2-5.4c1.5-3.5,1.6-7.3,2-11.1c1-9.4,3.9-18.5,6.1-27.8c2.2-9.2,3.7-18.9,1.8-28.2c-3.8-19.3-9.9-38-18.2-55.8
		c-0.4-0.9-0.9-1.8-1.7-2.5c-0.8-0.5-1.6-1-2.3-1.6c-0.6-0.9-0.9-1.9-1.1-2.9c-0.8-2.9-3.3-5.1-4.9-7.7c-4.1-6.5-2.8-14.9-2.7-22.6
		c0.2-7.5-0.9-15.1,0.3-22.5s5.5-15,12.6-17.3c3.5-1.2,7.4-0.9,11.1-0.5C1317.7,545.2,1336.8,548.8,1355.2,555.9z"/>
	<path class="st14" d="M1355.2,555.9c2.3,11.1,0.1,22.7-6,32.3c-1.7,2.6-3.6,5-4.9,7.8c-0.8,2-1.5,4.1-1.9,6.2l-5.4,22.4
		c-1.5,6-2.9,12.2-2.5,18.4c0.3,4.3,1.4,9.2-1.3,12.6c-0.6,0.6-1.2,1.4-1.6,2.2c-0.3,1-0.3,2,0,2.9c2.7,16.2,4.8,33.2-0.2,48.9
		c-4.5,14.2-4.7,30-8.5,44.5c-0.5,1.8-1,3.7-2.4,4.9c-1,0.9-2.2,1.4-3.6,1.7c-5.6,1.3-11.5-0.2-16.8-2.7c-3.7-1.7-7.6-4.7-7.3-8.7
		c0.2-1.9,1.3-3.6,2-5.4c1.5-3.5,1.6-7.3,2-11.1c1-9.4,3.9-18.5,6.1-27.8c2.2-9.2,3.7-18.9,1.8-28.2c-3.8-19.3-9.9-38-18.2-55.8
		c-0.4-0.9-0.9-1.8-1.7-2.5c-0.8-0.5-1.6-1-2.3-1.6c-0.6-0.9-0.9-1.9-1.1-2.9c-0.8-2.9-3.3-5.1-4.9-7.7c-4.1-6.5-2.8-14.9-2.7-22.6
		c0.2-7.5-0.9-15.1,0.3-22.5s5.5-15,12.6-17.3c3.5-1.2,7.4-0.9,11.1-0.5C1317.7,545.2,1336.8,548.8,1355.2,555.9z"/>
	<path class="st16" d="M1275.3,602.9c0.1,2.9,0.4,5.8,1,8.7c3.5,19.4,7.1,38.7,11,58c0.3,1.7,0.7,3.3,1.1,5c1.5,5.4,4,10.4,7.5,14.7
		c16.3,20.3,17.7,49.8,26.6,74.3c0.6,1.7,1.2,3.3,1.8,5c1.6,4.2,3.4,8.2,5.5,12.2c0.2,0.6,0.6,1.1,1.1,1.5c0.5,0.3,1.2,0.4,1.8,0.3
		c8,0,15.8-1.7,23-5.2c1-0.4,1.9-1.1,2.4-2c0.3-0.7,0.4-1.6,0.3-2.3c-0.2-4.8-0.5-9.9-2.9-14.2c-1.5-2.6-3.4-4.9-5.7-6.9
		c-0.7-15.3-2.2-30.5-5.5-45.4c-1.7-7.6-3.8-15.3-8.3-21.7c-3.3-4.8-7.9-9.4-7.4-15.2c0.3-2.5,1.3-5.7-0.7-7.1
		c-0.9-0.7-2.2-0.7-2.8-1.7c-0.2-0.4-0.4-0.9-0.4-1.4c-0.4-3.9-0.2-7.9,0.7-11.8c0.7-2.5,1.3-5.1,1.8-7.7c0.3-2.6-0.2-5.5-1.9-7.4
		c-0.1-5.2,0-10.7-0.1-15.9c-0.2-3,0-6,0.7-8.9c0.4-1.4,1-2.7,1.3-4.1c1.1-5-1.6-11,1.6-15c1.3-1.7,3.4-2.5,5.2-3.7
		c3.5-2.4,5.9-6.2,7.2-10.3c1.1-4.1,1.8-8.3,2-12.6c0.1-0.9,0.1-1.8,0-2.7c-0.1-0.5-0.2-0.9-0.4-1.4c-1-2.3-3.7-3.2-6.1-3.7
		c-15.4-3.7-31.1-5.5-46.9-5.5c-5.8-4-9.1-2.6-11.6,1.7c-1.4,2.6-2.5,5.3-3.3,8.1c-1.1,3.4-1.2,22.5-2.3,26
		C1271.2,589.1,1275.3,598.3,1275.3,602.9z"/>
	<path class="st5" d="M1381,428.8c0.4,3-1,6-1.2,9c-0.1,2.7,0.7,5.3,1.2,7.9c1.9,10.2-1.7,20.5-5.4,30.2c-0.7,1.6-1.1,3.3-1.3,5
		c-0.1,3.2,1.7,6.1,2.2,9.2c1.1,6.6-3.8,12.8-3.9,19.4c0,3.1,0.9,6.2,0.2,9.1c-0.5,2-1.7,3.7-2.6,5.5c-1.5,3.3-2,7-3.4,10.3
		c-2.7,6-8.4,9.9-13.9,13.5c-3.1-1-6.5-2.3-8.2-5.1c-0.8-1.4-1.2-2.9-1.4-4.5c-1.2-6.8-1.2-13.8-1.1-20.7
		c-0.1-5.9,0.2-11.9,0.9-17.8c1.1-7.5,3.5-14.7,5.3-22.1c2.2-9.3,3.3-18.9,6.8-27.9c3-7.8,7.7-14.9,12.7-21.6c1.9-2.6,3.4-6.3,7-5.7
		C1377.8,423.2,1380.3,425.6,1381,428.8z"/>
	<path class="st14" d="M1381,428.8c0.4,3-1,6-1.2,9c-0.1,2.7,0.7,5.3,1.2,7.9c1.9,10.2-1.7,20.5-5.4,30.2c-0.7,1.6-1.1,3.3-1.3,5
		c-0.1,3.2,1.7,6.1,2.2,9.2c1.1,6.6-3.8,12.8-3.9,19.4c0,3.1,0.9,6.2,0.2,9.1c-0.5,2-1.7,3.7-2.6,5.5c-1.5,3.3-2,7-3.4,10.3
		c-2.7,6-8.4,9.9-13.9,13.5c-3.1-1-6.5-2.3-8.2-5.1c-0.8-1.4-1.2-2.9-1.4-4.5c-1.2-6.8-1.2-13.8-1.1-20.7
		c-0.1-5.9,0.2-11.9,0.9-17.8c1.1-7.5,3.5-14.7,5.3-22.1c2.2-9.3,3.3-18.9,6.8-27.9c3-7.8,7.7-14.9,12.7-21.6c1.9-2.6,3.4-6.3,7-5.7
		C1377.8,423.2,1380.3,425.6,1381,428.8z"/>
	<path class="st2" d="M1301.4,363.2c2.4,3.9,4.4,8,6,12.3c2.2,0.5,4.5,0.8,6.8,0.8c8.9,0,15.1-5,20.3-11.4c0.4-2,3.3-4,2.9-5.6
		c-0.4-2.1-2.4-1.7-4.2-1.6c-5.5,0.4-11,1.1-16.4,2.1C1315.4,360.1,1301.6,363.6,1301.4,363.2z"/>
	<circle class="st12" cx="1314.1" cy="347.1" r="28.4"/>
	<path class="st2" d="M1278.3,550.6c4.9-0.3,9.9-0.1,14.8,0.1c3.1,0,6.2,0.4,9.2,0.9c3.7,0.8,7.2,2.5,10.9,3.6
		c5.9,1.7,12.1,1.8,18.2,2.4c4,0.4,8,1,11.9,1.9c-0.1-0.5-0.2-0.9-0.4-1.4c-1-2.3-3.7-3.2-6.1-3.7c-15.4-3.7-31.1-5.5-46.9-5.5
		C1284,545,1280.7,546.4,1278.3,550.6z"/>
	<path class="st5" d="M1297.6,393.6c1.2,1.4,2.9,3,4.7,2.5c0.7-0.2,1.3-0.6,1.8-1c3.3-2.1,7.3-2.6,11.1-3.2c7.8-1.2,15.5-2.9,23-5.2
		c2.2-0.8,4.5-1.3,6.8-1.4c4.8,0,9.1,3.2,12.1,7s5.1,8.2,8.1,12c2.1,2.7,4.6,5.1,6.6,7.9c5,7.1,6,16.3,4.8,24.9s-4.7,16.6-8.1,24.6
		c-1.8,4.6-4,9.1-6.6,13.3c1.1,6.5,0.5,13.9-2.5,19.8c-1,1.9-2.2,3.8-2.6,5.9c-0.1,1.4-0.1,2.9,0.2,4.3l1.4,10.3
		c0.4,3.1,0.9,6.3,1.5,9.4c1,5.7,2.5,11.9-0.2,17c-3.2,6.2,0.2,14.1-0.7,21c-8.9-3.4-18.2-5.7-27.7-6.6c-6.1-0.6-12.3-0.7-18.2-2.4
		c-3.7-1.1-7.2-2.8-10.9-3.6c-3-0.6-6.1-0.9-9.2-0.9c-6.8-0.3-13.7-0.5-20.4,0.5c-0.5,0.1-1.2,0.1-1.5-0.3c-0.1-0.2-0.2-0.5-0.2-0.8
		c-0.1-2.5,0.5-5,1.8-7.2c0.8-1.5,2-3,2-4.7c-0.1-0.8-0.3-1.6-0.6-2.4l-3-8c-2.5-6.7-1.3-14.5-2.6-21.6c-1-5.5-1.7-11.1-2-16.7
		c-0.2-4.8-0.1-10,2.8-13.8c0.8-0.9,1.6-1.9,2.2-3c0.4-1.2,0.6-2.4,0.5-3.6c0.1-9.6-0.2-19.2-0.8-28.7c2.5-4.5,5.2-9.2,7.7-13.7
		c2.9-5.3,5.9-10.6,7.1-16.5c0.8-3.9,0.8-8,1.3-11.9c0.1-1,0.4-2,1-2.8c1-1.1,2.6-1.3,4-1.2C1294.1,392.7,1295.9,393,1297.6,393.6z"
		/>
	<path class="st2" d="M1193.6,376.6c1.8,1.4,3.9,2.2,6.2,2.5c2.9,0.2,9.1-1.5,11-4c0.8-1.3,1.1-2.7,1-4.2c-0.4-0.1-0.8-0.2-1.2-0.2
		c-3.2-0.4-6.4-0.2-9.5,0.4C1198,371.8,1195,373.7,1193.6,376.6C1193.7,376.6,1193.7,376.6,1193.6,376.6z"/>
	<path class="st5" d="M1288.1,438c-1.7,2.2-3.5,4.4-6,5.6c-2.8,1.5-6.1,1.5-9.3,1.4c-13.1-0.3-26.2-1.7-39-4.3
		c-1.5-0.3-2.9-0.6-4.3-1.1c-1.5-0.7-3-1.6-4.3-2.7c-4.2-3-8.5-6.1-11.7-10.2c-3.8-4.9-6.2-10.8-6.9-17c-3.1-2.8-4.7-6.8-6.2-10.7
		c-0.8-1.6-1.2-3.4-1.4-5.2c-0.1-1.8,1.1-3.8,0.8-5.6c-0.6-3.1-2.2-6-4.5-8.1c-0.5-0.4-0.9-0.9-1.1-1.4c-0.1-0.5,0-1,0.3-1.4
		c1.3-2.9,4.3-4.8,7.4-5.6c3.1-0.6,6.4-0.7,9.5-0.4c1.1,0.2,2.1,0.5,3.1,0.8l2.2,5.9c0.3,1,0.8,1.9,1.5,2.7c0.5,0.4,1,0.9,1.6,1.2
		c2.3,1.9,3.5,4.9,3.1,7.9c4.2,1.6,6.4,6.2,5,10.5c3.4,0.7,6.2,3.2,7.3,6.4c0.2,0.7,0.5,1.4,1,2c0.7,0.6,1.6,0.8,2.6,0.8
		c2.5,0.1,4.7,2.1,7,1.1c2.6-1.2,5.5-1.6,8.3-1.2c0.6,0.1,1.2,0.2,1.8,0.1c0.5-0.1,1-0.3,1.5-0.5c1-0.6,2.1-1,3.3-1.3
		c1.2-0.2,2.4,0.2,3.1,1.2c0.8-0.9,1.3-2,2-2.9c0.7-1,1.8-1.6,3-1.5c-0.8-0.7,0-2,1-2.3c1-0.1,2,0,3,0.1c2.6,0,4.6-2.4,7.2-3
		c2.3-0.6,5.5,0.1,6.7-2c0.4-0.7,0.5-1.7,1.2-2.2c0.5-0.2,1.1-0.3,1.6-0.2c1.7,0.2,3.3,0.7,4.8,1.5c2.5,9.6,1.2,19.6-0.7,29.4
		C1292.7,430.3,1290.9,434.5,1288.1,438z"/>
	<path class="st2" d="M1288.2,472.5l12.2,24.7c-1.3-2.3-4.1-3.2-6.3-4.6c-2.8-2-4.9-4.8-6-8.1c-1.1-3.2-1.9-6.6-2.3-10
		c-0.3-1.6-0.8-3.8,0-5.2C1287.2,469.5,1287.6,471.3,1288.2,472.5z"/>
	<path class="st2" d="M1323.4,493.4c2.8,2.7,6.1,4.7,9.2,7.2c7.1,5.7,12.2,13.4,17.1,21c1.4,2,2.6,4.1,3.5,6.4c-0.6,0.5-1.5,0-2-0.5
		l-9.6-8.4c-1.2-1-2.3-2-3.2-3.2c-1.7-2.3-2.4-5-3.9-7.4c-1.6-2.3-3.6-4.3-5.8-6c-2.2-1.9-12.3-10.5-9.9-13.8
		C1320.5,489.5,1321.9,491.9,1323.4,493.4z"/>
	<path class="st5" d="M1302.4,386.5c3-1.9,6.6-2.7,10.2-3.4c2.1-0.5,4.3-0.6,6.5-0.5c2,0.3,3.9,1,5.9,1.1c2.8,0.2,5.5-1,8.3-1.7
		c2.7-0.7,5.9-1,8.2,0.6c0.5,0.5,1.1,0.8,1.8,1c0.7-0.1,1.3-0.4,1.8-0.9c4-2.8,9.4-2.5,13,0.7c5.2,4.9,4.6,14.4,10.7,18.1
		c1.7,1,3.8,1.6,4.8,3.3c0.2,0.5,0.5,1.1,0.8,1.6c0.4,0.4,0.9,0.8,1.5,1c1.8,0.8,3.4,1.8,5,2.9c1.6,1.2,2.6,2.9,2.9,4.9
		c0,1.4-0.3,2.8-0.9,4.1c-6.1,15-21,24.5-37.2,23.8c-1.4,0.1-2.8-0.4-3.9-1.2c-0.6-0.7-1.1-1.4-1.4-2.3c-2.9-6-8.3-10.5-11.7-16.2
		c-2-3.4-3.3-7.2-5.5-10.6c-3.2-5.1-8.1-8.9-12.9-12.5c-2.7-2.1-5.7-4.2-9.1-4.1c-3,0.1-5.2,0.3-4.1-3.4
		C1298.1,390.2,1299.9,387.9,1302.4,386.5z"/>
	<path class="st14" d="M1302.4,386.5c3-1.9,6.6-2.7,10.2-3.4c2.1-0.5,4.3-0.6,6.5-0.5c2,0.3,3.9,1,5.9,1.1c2.8,0.2,5.5-1,8.3-1.7
		c2.7-0.7,5.9-1,8.2,0.6c0.5,0.5,1.1,0.8,1.8,1c0.7-0.1,1.3-0.4,1.8-0.9c4-2.8,9.4-2.5,13,0.7c5.2,4.9,4.6,14.4,10.7,18.1
		c1.7,1,3.8,1.6,4.8,3.3c0.2,0.5,0.5,1.1,0.8,1.6c0.4,0.4,0.9,0.8,1.5,1c1.8,0.8,3.4,1.8,5,2.9c1.6,1.2,2.6,2.9,2.9,4.9
		c0,1.4-0.3,2.8-0.9,4.1c-6.1,15-21,24.5-37.2,23.8c-1.4,0.1-2.8-0.4-3.9-1.2c-0.6-0.7-1.1-1.4-1.4-2.3c-2.9-6-8.3-10.5-11.7-16.2
		c-2-3.4-3.3-7.2-5.5-10.6c-3.2-5.1-8.1-8.9-12.9-12.5c-2.7-2.1-5.7-4.2-9.1-4.1c-3,0.1-5.2,0.3-4.1-3.4
		C1298.1,390.2,1299.9,387.9,1302.4,386.5z"/>
	<path class="st5" d="M1287.6,798.1c2.1,1.9,4.9,2.8,7.6,3.4c6.3,1.2,12.6,2,19,2.3l6.2,0.5c6,0.5,12.1,0.9,18.2,1
		c7.5,0,15-0.6,22.4-1.9c0.7,0,1.3-0.3,1.8-0.9c0.2-0.4,0.3-0.9,0.3-1.4c-0.1-7.6-1.1-15.1-2.8-22.4c-0.7-3-6.1,3.8-6.4,4
		c-1.5,1.7-2.6,2.5-4.9,2.6c-6.3,0.3-13.2-3.5-18.2-6.8c-1.1-0.8-2.2-1.5-3.4-2.1c-0.9-0.4-1.8-0.6-2.7-0.8
		c-3.2-0.3-6.4,0.4-9.3,1.9c-3.7,1.8-7,4.5-10.7,6.4c-3,1.5-6.2,2.5-9.6,3c-3.4,0.5-7.4,0.7-9.2,3.6l0,0
		C1284.5,792.9,1285.6,796.2,1287.6,798.1z"/>
	<path class="st15" d="M1287.6,799.2c2.1,1.9,4.9,2.8,7.6,3.3c6.3,1.2,12.6,2,19,2.3l6.2,0.5c6,0.5,12.1,0.9,18.2,1
		c7.5,0,15-0.6,22.4-1.9c0.7,0,1.3-0.3,1.8-0.9c0.6-0.8,1.1-1.6,1.4-2.5c-0.1-7.6-2.2-15.1-3.9-22.5c-0.7-3-6.1,3.8-6.4,4
		c-1.5,1.7-2.6,2.5-4.9,2.6c-6.3,0.3-13.2-3.5-18.2-6.8c-1.1-0.8-2.2-1.5-3.4-2.1c-0.9-0.4-1.8-0.6-2.7-0.8
		c0.8,4.5,7.3,9.9,10.6,11.6c6.7,3.3,14.7,1.7,22.2,2.1c0.5,0,1.1,0.1,1.6,0.4c0.9,0.6,1,1.9,0.9,3c-0.1,1.8-0.3,3.9-1.8,4.8
		c-0.8,0.4-1.6,0.5-2.5,0.5c-18.5,0.8-37,0.1-55.4-2c-3.1-0.2-6.1-0.9-9-2c-1.9-0.9-3.6-2-5.2-3.4
		C1283.6,792.4,1285.6,797.3,1287.6,799.2z"/>
	<path class="st5" d="M1303.1,346.8c0.1,2.9-1.9,8.6,3.6,7c3.3-1,4.2-4.8,8.3-4c4.1,0.8,5.1,6,6.5,9.3c2.3,5.4,7.2,9.3,12.9,10.5
		c1.2,0.3,2.4,0.3,3.6,0c2.7-0.8,4.2-3.5,5.3-6.1c1-2.2,1.7-4.4,2.3-6.7c0.4-1.6,0.7-3.3,0.8-4.9l0,0c0.1-1.1,0.1-2.3,0-3.4
		c-0.5-6.7-4.3-12.8-9.2-17.4s-10.8-7.9-16.6-11.2c-1.9-1.2-4-2.1-6.1-2.7c-2.1-0.4-4.3-0.5-6.5-0.3c-2.8,0.1-5.6,0.8-8.2,1.9
		c-1.1,0.5-2,1.2-2.9,2c-1.2,1.1-2.1,2.6-2.5,4.2c-1.1,4.3,1.7,8.2,3.9,11.6C1300.5,339.8,1302.9,343.1,1303.1,346.8z"/>
	<path class="st2" d="M1210.7,409.9c1.2-3,6.1-11.1,4.7-14c-1.5,2.1-2.7,4.4-3.8,6.7C1210.7,404.9,1211.4,408,1210.7,409.9z"/>
	<path class="st2" d="M1298.3,336.8c-2.2-3.4-5-7.3-3.9-11.6c0.5-1.9,1.6-3.6,3.2-4.8c-0.4,0.6-0.6,1.3-0.8,2
		c-1.1,4.3,1.7,8.2,3.9,11.6c2,3,4.5,6.3,4.6,10c0.1,2.9-1.9,8.6,3.6,7c3.3-1,4.2-4.8,8.3-4c4.2,0.8,5.1,6,6.5,9.3
		c2.3,5.4,7.2,9.3,12.9,10.5c1.2,0.3,2.4,0.3,3.6,0c0.6-0.2,1.2-0.4,1.7-0.8c-0.8,1.7-2.3,3-4.1,3.6c-1.2,0.3-2.4,0.3-3.6,0
		c-5.8-1.1-10.6-5.1-13-10.5c-1.4-3.4-2.3-8.5-6.5-9.3c-4.2-0.9-5.1,3-8.3,4c-5.5,1.6-3.5-4.1-3.6-7
		C1302.8,343.1,1300.3,339.8,1298.3,336.8z"/>
	<path class="st2" d="M1297.2,331c0.5,0.8,1.1,1.6,1.7,2.4c1.2,1.5,2.5,2.8,3.9,4c0.8,0.7,1.7,1.4,2.6,2.1c1.7,1.2,3.5,2.2,5.3,3.2
		c5.4,2.7,11.2,4.4,17,6.1l11.3,3.3c1.4,1,3.9,3,6.8,4.9c0.4-1.6,0.7-3.3,0.8-4.9l0,0c0.1-1.1,0.1-2.3,0-3.4
		c-0.5-6.7-4.3-12.8-9.2-17.4s-10.8-7.9-16.6-11.2c-1.9-1.2-4-2.1-6.1-2.7c-2.1-0.4-4.3-0.5-6.5-0.3c-2.8,0.1-5.6,0.8-8.2,1.9
		c-1.1,0.5-2,1.2-2.9,2c-0.6,0.9-1.1,2-1.5,3.1C1294.9,326.4,1295.9,328.9,1297.2,331z"/>
	<path class="st4" d="M1297.2,330.2c0.5,0.8,1.1,1.6,1.7,2.4c1.2,1.5,2.5,2.8,3.9,4c0.8,0.7,1.7,1.4,2.6,2.1
		c1.7,1.2,3.5,2.2,5.3,3.2c5.4,2.7,11.2,4.4,17,6.1l11.3,3.3c4,3,17.2,12.8,19.4,11.6c2.6-1.4-11.8-11.6-11.8-11.6l-0.7,0.5
		c2.1-1.3,3.2-4.4,3.7-7c0.8-4.8,1.2-9.7,0.1-14.4s-4-9.1-8.3-11.4c-1.9-1-4.2-1.6-5.6-3.1c-0.2-0.2-0.4-0.5-0.5-0.7
		c-0.1-0.1-0.2-0.3-0.2-0.4c-0.1-0.4-0.4-0.8-0.6-1.2c-0.8-0.9-2.2-0.6-3.4-0.5c-0.1,0-0.3,0-0.4,0c-0.2,0-0.4,0-0.7,0
		c-4.3,0.1-8.4-2.3-12.7-2.3c-4.7,0-8.8,2.7-12.9,4.6c-0.8,0.4-1.6,0.7-2.4,1.1c-3,1.4-5.3,2.9-6.5,6.9
		C1294.9,325.6,1295.9,328.1,1297.2,330.2z"/>
	<path class="st2" d="M1330.1,313.1c-0.2,0.3-0.3,0.7-0.3,1c0,0.6,0.3,1.1,0.7,1.5c0.5,0.4,1.1,0.6,1.8,0.6c0.5,0.1,0.9,0.1,1.4,0.1
		c0.6,0.1,1.3-0.1,1.8-0.3c0.1-0.1,0.2-0.1,0.3-0.2c-0.2-0.2-0.4-0.5-0.5-0.7c-0.1,0.1-0.2,0.1-0.6,0c-0.8,0-1.6-0.2-2.3-0.4
		c-0.3-0.1-0.6-0.2-0.9-0.4c-0.4-0.3-0.7-0.8-0.8-1.2L1330.1,313.1z"/>
	<path class="st2" d="M1346.3,351.1c-0.6,0.4-1.3,0.6-2,0.7c-0.5,0.1-1,0.2-1.5,0.2c-1.3,0-2.6-0.4-3.7-1"/>
</g>
</svg>
